<mxfile host="app.diagrams.net" modified="2021-12-23T07:51:36.221Z" agent="5.0 (Macintosh; Intel Mac OS X 10_15_7) AppleWebKit/537.36 (KHTML, like Gecko) Chrome/96.0.4664.110 Safari/537.36" etag="kdGmWoO2XeI7SrazWDiv" version="16.0.0" type="github">
  <diagram id="qh0zZqxENveSRrIRGyyS" name="第 1 页">
    <mxGraphModel dx="1405" dy="900" grid="0" gridSize="10" guides="1" tooltips="1" connect="1" arrows="1" fold="1" page="1" pageScale="1" pageWidth="1169" pageHeight="1654" background="#000000" math="0" shadow="0">
      <root>
        <mxCell id="0" />
        <mxCell id="1" parent="0" />
        <mxCell id="UWcVX16o35ZFeTaA4i2N-1" value="" style="shape=image;imageAspect=0;aspect=fixed;verticalLabelPosition=bottom;verticalAlign=top;image=data:image/jpeg,/9j/4AAQSkZJRgABAQAAAQABAAD/2wBDAAYEBQYFBAYGBQYHBwYIChAKCgkJChQODwwQFxQYGBcUFhYaHSUfGhsjHBYWICwgIyYnKSopGR8tMC0oMCUoKSj/2wBDAQcHBwoIChMKChMoGhYaKCgoKCgoKCgoKCgoKCgoKCgoKCgoKCgoKCgoKCgoKCgoKCgoKCgoKCgoKCgoKCgoKCj/wAARCAU2Au4DASIAAhEBAxEB/8QAHwAAAQUBAQEBAQEAAAAAAAAAAAECAwQFBgcICQoL/8QAtRAAAgEDAwIEAwUFBAQAAAF9AQIDAAQRBRIhMUEGE1FhByJxFDKBkaEII0KxwRVS0fAkM2JyggkKFhcYGRolJicoKSo0NTY3ODk6Q0RFRkdISUpTVFVWV1hZWmNkZWZnaGlqc3R1dnd4eXqDhIWGh4iJipKTlJWWl5iZmqKjpKWmp6ipqrKztLW2t7i5usLDxMXGx8jJytLT1NXW19jZ2uHi4+Tl5ufo6erx8vP09fb3+Pn6/8QAHwEAAwEBAQEBAQEBAQAAAAAAAAECAwQFBgcICQoL/8QAtREAAgECBAQDBAcFBAQAAQJ3AAECAxEEBSExBhJBUQdhcRMiMoEIFEKRobHBCSMzUvAVYnLRChYkNOEl8RcYGRomJygpKjU2Nzg5OkNERUZHSElKU1RVVldYWVpjZGVmZ2hpanN0dXZ3eHl6goOEhYaHiImKkpOUlZaXmJmaoqOkpaanqKmqsrO0tba3uLm6wsPExcbHyMnK0tPU1dbX2Nna4uPk5ebn6Onq8vP09fb3+Pn6/9oADAMBAAIRAxEAPwDtF61YSq69asJWgi1H1FWUqtH1FWUoEWE61KtQr1qZaBEtt/x8R/Wtesi2/wCPiP61r0pDiJRRRUjCiiimA6L7x/3T/I1gp90fSt6L7x/3T/I1gJ90fSgBaKKKAGUUUUAFFFFABRRRQADrVzR/+QjH9G/lVWrOmMkd8jyOqqFbJY4HSgDVoqsl/ZyPsju7dm9BKpP86s1MZKWzG4uPxKwUUUVQgooooAKKKKACiiigAooooAWiiikAUUUUAOXrVCT/AFzfWr69aoSf65vrQBV1/wD5cf8Arif51lgVra//AMuP/XE/zrLApgNxS0UUwCijFLimAVLa/wDH5B/10X+YqKpbX/j8g/66L/MUwOkn/wBc/wDvH+dNHSnT/wCuf/eP86aOlQA+GnimQ08UAPooopAJRSZozQBBef6v8aqVbvP9X+NU6AHHvThTT0p4pgKKqVbFU6AFHan9qaKd2oAki6mpBUcXU1IKAH0UUUAA6ipIuhqMdRUkXQ0APooooAzqSlpKAFFPHSmCnjpQAopwpopwoAKKKKAK2vf8uv8Aut/MVlGtXXv+XX/db+YrKNABSUtJVDExwavQ/wDIIm/66r/SqYHFXoR/xKZv+uooApUUUVBQhpKdSUALRS4pMUAYSVYjqulWEqzMsR9RXjPxo+KdtbWFzoHhu4E13MDFc3URysK90U92PQkdPr01/ij4f8YeJdVgsNCvUtNCa3Xz2aXYGk3NkHaCxG3bx0ryK98J6h4M8V3Fu3h9/EawKhSSS1lMBYqGPCn5gM45OOOlJsDlJdG1y20S31yS0u49NkfZFdYIUsPQ9vY98HHSvpX4OfFa08TWVvpOtzrBr0YCBnOFu8fxKf7/AKr+I9B5ofjhr17F/Zp8P6NcRygQ/ZTbyMH7Bdm/n0xWHoPgLU/GXiaaGDSZfDgMLTLvgm8neCPlBblc5z1OMUkxvU+xLb/j4j+tecfH/VPHGiWlrqXg+4+z6Zawu9++2FsHcoU4cEnv0qT4N6R4x0OS9sPGF4t5bRmMWUolEmR828ZI3Y+5978Ko/tMeM10PwwNANiZ21qGRRP5u0Q7GT+HB3Zz6im9RLQ89+G/xJ+IeqXt1q99fSaj4f0dDPqUaxW8Z8vY5AHygknYenpV34gfHnTfEnhDUtJsdL1G0ubpAqTGRRswwPY57VzP7O/iF7TU9U8MQQL9o1+IxxXTMCsDpFKVJQqQ+Sw4PH1pdF8UXfiLwJ49sPEMdlNqFpaxT2pFlDDJEFlCyYKKD/En0qSjk9A8eaho/hTWtPt73Uo9QvZreSK6iuWXy1j37hnOedw6elfSv7OfjGTxP4Oa0u3up7/TCEnubiTeZi7OwIJ54GBz6V85eBPFVv4b8H+J0iS3XXLhrY2Mstuk20Bm8zAdSB8pH+RX078ApNSvfh9BqmtGJrq+leRWjto4f3YO1QQiqD0JB/2qAOz1zxNovhzyTrup2lgJw4iNxIF34HOPpkfnXFyfEPwh5JUeJNMyVI/14rS+Jfw30z4hpp6ard3lsLLzCn2YqN24LnO4H+4P1rybWPgT4Y03Rr7UZNV1YRWsDztlo+iqW/ue1MR4x4M8QXkPjDRJb7VblLNL6FpmknbaqCQFieemM19X/wDCxvB//Qx6Z/3/ABXxhpUVvNqdnFeu8do8yLM6Y3KhYBiM98Zr6T/4Z88N/wDQU1f/AL7i/wDiKVwPWdE1jTtdtGutIvYLy3VzGZIXDAMACRx3wR+deefGj4h6j4Dl0lNOtLS4+2CUv54b5du3GMEf3q63wB4QsvBWivpmnT3E8LztOXnKlskKMcADHyivHf2sP+Prwz/uXH846oDmPFWqX1x8brNhcTRme4sH2LIwRWeKE4Az0ya6LWNE+Lul6Xe6jc6832a1heeTbdgnaoJOBt64Fcrq3/JddB/6+NJ/9FQVh21jqHiDWfEsKanNFHY213fMsjswkWM8pjPfNIDo/A2qfEnxrNdxaL4guC9sqtJ5s4ThicY49q9v+FWk+MNLh1IeNb77W0jRm2/feZtADbu3HVfyr5Z0HS7ufw/r2rWl81sumJCZI0LBpRJJsABHoeea+jv2bJpZ/h7K88skr/b5fmdix+4nrSuDPSNb1KPSrIzyDcxO1F9TWHY2B1WaC58R3rWttMxEaDjtkdeFqvrJOo+N7Cwk5iiTewPfgsfzwBUvxHn+zaZan1mH8jXi4yXtlUqS1jDRLo31b/Q93CU/YulTjpOpq31S1tY6SfwTpcsRETTxsejhwf6Vli81HwjfRw6hI11pcp2pJjO3/Aj0/KuQ8OeObrR2WJ2Nxaf882PK/wC6e38q7661TS/Fvhu+jtJlaVYjJ5TcPGy8g4+vcetY0Xh68OfDLkqLp38uzTNq1LE4efJiffpvr28/J/gdXG6yRq6EMrDII7inVynwyvmvvCkO85MEjQ59hyP0NdXXuUKntacZ90eFiKXsasqfZhRRRWpiFFFFABRRRSAKKKKYC0opuadmkAtFJmjNACjvWfL/AK1vrWgKz5f9a31pgQa//wAuP/XI/wA6yx3+tamv/wDLj/1yP86yx3+tABiiiiqAKKBS0wEqW1/4/IP+ui/zFRmpLX/j8g/66L/MUAdJP/rn/wB4/wA6aOlOn/1z/wC8f500dKgB8NPFMhp4oAKKKKACiiigCG8/1X4iqg7VcvP9V+IqmO1ADqdTadQACqlW6qUAOp1NHan9qAHxdTUoqKLqalFADqKKKAPG/jX4m8Q6L4gsLfQtYvLCF7XzHSDShdBm3sM7iDjgDj/GvOn+InjaPl/FupqPU+HkH/stdX+0PP5XifTh5hTNmOBrIs/42/gPX6/h2rw2Pxx4n0TUZ10nX9St4VchYlvjPGBn1Pyt9cUNgeif8LL8Zf8AQ46j/wCE/H/hTk+JHjWQ4j8Xam59F8PRn+lWvhT8afF2p+MNG0bVZrO9t7y4WF5JIAkgB7grgZ+oNep/tCyeX4b0zcQFN3/0FBYZ+Rv4j976UrgT/B7WdU1rwrNca1fXF7dLduglmshakLtU42jg8k8++O1d3XnXwMIbwfOynIN6/wDzERe/wp/GOB/u/j3r0WncBRTx0pgpXdIomkkZURAWZmOAAOpJoAeKcK8s8SfEt1mkg0GKMopx9pmBO73VeMD3P5VzY8feJlYM98rL/da3Taf/AB0fzr0qeVV5x5nZep5VTOMPCXKrv0Pd6K878I/EWK/uI7TWoo7aeQhUnjOI2PoQfu/mR9K9Erjr4edCXLNHdh8TSxEeak7lbXetr/ut/MVmelaeudbX/db+YrMHasTcaetFLRVDE7Veh/5BE/8A11FUe1Xof+QRP/11FDAp0UUVBQlFLRQAlFFFAGElWEqulWEqzMg1aWeHSbyWzTfdJA7RLt3bnCkqMd+ccV4iPHfxXzn/AIR6Y+50uSvQvib4r1vwvHpp0HSRqTXJkEo8qR9m3bj7nrk9fSuG/wCFs+Ov+hQ/8lJ/8aQHi+h3d/aeJLK70+IyanFcpJDGIyxaUNkDb357V7RH49+LjMufD0+0nknS5K8s0fTvEel+IbPV4dA1F5ba5W5VGtJNpZW3AHA6cV61/wALf8e/9CZ/5KXH+NSNn0TajM8f+9muX+O0MT/CvxBI0aNIsA2sVBK/OucGqnwk8S6x4n0eW91/TP7NuY7owrF5bpuUKp3YfnqxH4Vz3x38N+OPFOs2mneGDN/Yslp/pYM6xQl95+9zk8beMGmI4f8AZY1bRtGh8SXGtXtjZndb+U9y6qThZS23PPTris/4i+O9H8SX+s2fhHSbS2sBZzyXN9HarHNdtkHJYAME3YPPLHGa3ND/AGcryLT7ifUtZgOotCywwwofKV2BGXcjJAz0Cj61T+I+j6X8KvBUvhrT9Pl1DVNdtz9o1RjtKhHU7QoBwvtn6k0AeK+HrqbSNRtNY+wx3dtbTqHjni3wycEmNsgjlQ3v3HSvvDwXrWla/wCGbC/0Dyl094wscUahRDgYMZUcKV6Y/pXhv7Ofgj+0vBPiSLxPprHS9UeFIVmQqz7A+XXuMFhhh3B9K9I+EPgCX4ftrtot2LrT7qdJbVicOAFIIcYxnpyOvt0oGejJ94/Rv5V89/tF+MotM8PDw1Zyhr++AM4U8xQjnn0LEYx6Z9q6r40fEPXPDGoWWheFNMN3q1/A0iShDK0YyV+WMDk9eTx7GvMvA3wZ1XXdU/tnx/NIiSv5j25k3TTH/bYH5R7DnHHy0AePXHhjVbfwvbeIJbVl0q4maCOX1Yd/oeQD6qa+pvgf40h8VeEYLeeUHVtPRYbhCfmZQMLJ75A59wfau2v9D02+0R9HubOFtMaIQ/Zwu1Qg6AY6YwMY6Yr578RfCvxR4G1wa34Dnmu4YmLKkePPjX+6y9JB9OvpSsB9KV88ftXqWuvDWAT8lx0+sdelfCPxte+MdLvRq2niy1GwkWKZRkByRnO08r06HNdR4p1WPQvDuo6rNCZ0s4GmMYIG/AzjPbNMD5f1NS3x20EDr9o0r/0VBVbwN/yMPj3/ALAupV3Pwd8Hav4l8aSeOvE0JhiMrXECOuDLI2cEDqEUdPoMZ5q8/wALJ/B2neMNdl1aO7WfSb2LyVgKEb1znO49MUAeTeEP+ScePf8ArlZf+lAr3T9mT/knM/8A1/y/+gpXinwr8ES+O21Oxh1EWAhEUrExlw4ywxgEetfUPw98JW3gvw3FpNrM8+HaWSZxgyOepx2GABj2pJXAw/FVx/YnjvS9TmO20mXy2bsvVSfwDA034wzlNL01UyzyT/KB3+Wus8TaJb6/pUllc/LzujkAyUYdD/8AW9DXB6bruseBb+2i8SaV/aVlaFhbXSjJjBGPlYj9Dgj6V51eHJzwlpGet+zPfwc/bezqx1nT0te110t94zwh8ONV1YJcauW0+0bBCsP3rj6fw/jz7V6BrtvpHgnwdfyWcCQu0RhRzzJI7DA5PJ9cegNYFz8Z9H8ofY9O1Ce4bpGwVRn6gn+VU7DRNf8AH2rQaj4oiNjo0B3RWfKlx6YPPPdjz6e2dOnRpRccOryfX/gmtaWJqy9pjXyU1rbv5JdTrfhRZyWng22aYbXuWafB9DwPzAB/GuwpkaLGqoihUUYAAwAKfXp0qapQUF0PBxFV16sqr6u4tFFFWYhRRRQMKKKKQhaU9KSlPSgY2iiigAooooEOHWqM3+sb61eHWqM3+sb60wK+vf8ALh/1yP8AMVmGtLX5EjFiZGVR5R5Y47isOXUbONiDOu7rgc0XSGk3sWsUmKwbjxEvlOYYiMdGbvWfPq128UKrK6yueoOKh1UilTbOvFLiuRk1G6a4SNZ3XYMtz1qSPUrhFb94x+tL267D9kzrKktf+PmD/rqv/oQrlo9cuF++imrtvr6o6M0JyrBuD6GqVSLE6bR3s/8Arn/3j/Om1z8fiq2lJeWNk3EnrWjpmrWGpEiyuo5XXkoDhh+FO6exPK1uakPenjvTIepp470xCjpRQOlFABRRRSAr3v8Aq/xFUx2q5e/6v8RVMdqYD6WkpaAHVSFXap0AOFLSCnUAPj6mpqii+8aloAWiiigDwj9oCHzPE2nfITizH/MBW/8A42/jPT/d/HvXzNra7dXux6St/wAu4g7/APPMcJ9O1fUPx3ZF8S2G57Yf6IP9br/2A/fb+Dv/AL34dq+YfEBB1y+KlSPObG2488de0n8f170mB0Xwb/5Kl4Y/6/Ur6l+PMZl8P6cArNi6zgaOupfwH+BuF+v4V8tfBv8A5Kl4Z/6/Ur6p+OLhNB09meFR9p/5a6x/Zo+6f4/4vp+NICv8FU2eEp1CkYvH4OljT/4U/wCWY4P+9+HavQa4H4NMp8LXBVonH2t+YtV/tAfdT/lp2/3fx713oOaYAK89+L2sSW1hbaZAxU3OXlIODsBGB+J/9Br0IV4/8Y93/CSWmTwbRcf99v8A/Wr0Mugp4hJnm5tUlTwsnHrZDrG80Xw3Haw6XaRa1rk23MzcpGzdFX37cc+p7Vpax408R6Pdx2+vaTYLHIu/ylJO5c467mH6VwHhxgviHS2Pa7h/9DFep/EDwrfeIdas5oJYILWKArJNK33fmJ4Hfj6V6deNKnViq2qd7t3v8jxcNOtVoylR0aaSS287/wDBOV8daRps2i2PiLRUENvdkLLABgAkHkDtggggcdK9I8BajJqnhSwuJ23TBTG7HqSpK5PuQAfxrzfxzqmnxaPYeHdGmFxb2hDSzqchmGeAe/JJOOOlegfDW1a08G2AkBDyhpTn0ZiR+mK5cUn9Vi5p76X3sd2BssbJQt8Ottr6bGNf+I9an+JN14ZkOneRbWIvY7hYH3EM4G1l39R6/pTLHxLLH4yfw1qsEaXT232u1uISdk6ZIIKnlGGDxkggZyOlZF804/aB1Q20cUj/ANhRgiSQoMeaO4U+1ZXxN0+80jTtY8Wvd41YW0en2vkrtWyieUBmDHln+Y/NxjPArxz30rnqSyIzsqspZfvAHkfWlZ1TG9gueBk9TXHap4bvriPRBpMdhpj6bdRzJNHKzs0Q4eP7gJDA85POATzyKU8OnS3njCO3N1rNxOm25EgUw2hEfEQc49ckDcRxnB6sZ31XLdlbS7hQyllkXcoPIz614brUkt/8AdFuLx2luM2mJW5cHzVXOT3xxmu48QeCo7bSNa1PwsiRa5eGBHjmlYR3IjcOyN7uAQxPXnPVjRcR1qSJICY3VwDjKnPNBdA4QuocjIXPJ/CvLrfxAqanq15f+HLjRPFVrpFw8aMVeG6RNrcMv3iCo/Anr219C06C/wDhPbzXTGW5vLD7XLdE/vDOybvM3ddwY8HtgY6VJR3lIrK2drA4ODjtXjWnyyeJr34XXurBhdXdreLcSJ8jzKiDGSOcNgkj/aPrXTaXY2uk/GK4tdLt4rO1udDFxLDAuyNpFn2hto4zg4zQB3+KMU7FGKAMBKsJVdKsJVmZPGATyAfrVqPtwPyrlvF/ii18KaYL29gu5kYlR9ni34IBOW9Bx1rjrP4tu3gi71O40qe21WG288CaB1tZMyBVCuTlshgcfX0oA9jQnHQVJk+1cB4P+J/h7xDd6fpsV0w1e5jyYBBIF3hNzAMRjAwfyrv6AJLYn7RHn1rWry7xH49XRfGUOlW9slzDa2M2o6lLuwbeJFyuP9o4xg/3l9aqeH/jXpOqeJLW1u5tO0/TJ9MF4Zprobopt+3yWP3d2Pmx1pXsB65ilqGzuoL20hurOaOe2mQSRyxsGV1IyCCOorJ8Xaxf6LpiXOl6Lc61O0ojNvbuqMqkE7yT2BAH40mxG2AAOg46UtePWHxi1S+tL+6tPAeqS29hJJFdOtymInQZcHjqBXSfDnx9e+NGjmPhm907TJYWlivZZldJCGC7QAAfX8qCjvY0XzDIFAfYRuI56HvWOv3R9K2ov9Yf90/yNePa38TbPTvFep6RGLNoNO057qe4lnC/vgOIVX+I/d4BzyfSgD0Y0leS6f8AFW4k8MeHtUnt9KlmvJzHfWsF2qS26FiquqMefU5PHHrker280VxBHNbyJLDIoZHRgysD0II6igBwRQxYAAnqQOtNkiSWNklVXRhgqwyD+FYPjrXNQ8O6J/aOnaU+qLFIpuYo3w6Q/wATqMfMRxx+PQVw/jP4uS+H9WktbbRYpYksor3N1ei1kIcfcEbKSWH90c9eKAPWaa6rIjJIoZGGCCMgivPfhn8RpvGeq39lPplvZ/ZYI5/MgvBcBt/bIAAI7jseK9FoAr2lla2bM1pbQwFhgmKMLn8qnrzLxZ8UNR8OXxtpvB2oyB7g21s/nqPtJHQooBJzx0Hen6R4y8Xah4ktdOudA0nTywWWa1m1JWuhCTjeFHTHXBH5daaA9IzVvTsG9RSM5Df+gmqlcn8QPG1/4Fhh1S38PtqlhGjNcTC6WIQ5IVQQQSclu1MD0GK1topC8VvCj/3lQA1PXl9v8R9dtbObU/E/gm70nRoYDO90LxJm7bQI8A5JIHOMVreGPG02uePdT0VLaNbCCwt72GXkSN5qq2GHQY3dvSp06Dbb3O6paSloAKKKKACiiigQtFFFIYUp6UlKelAhtFFFABS1U1HULTTrcz3twkMfqx6nGcD1PtXn2ufESZjNDpNusaZ2rPIclhjqFxxz0znpyPSoxcthNpHa6/4i0/RIg1zJvlONsMeC5B747Dg8+1cDJ471G7uXMENvDETwpBYj8cj+VcPJK8srPI7O7nczMckk9yalEs0CfuIt0hPU9BU1pKnHzKpxc5HVXl/dX0oe6laRjwMnoPSqHmA280n947azg98yEBk3njp0plrBcyOkczsIEO5ufvmuBTcmdnIoo2CgZYI1PuamBBmeUD5YhgfWo0ICO+fnIwBS3YEdvHHE/LEbzW1rIhklupaDzGyXc/pUjYRtrA564oMsUQESZwOBSDypJVlkc8cYo5QEkYLsXaSTxUwG4DByD3HtTLqSIRnY/wAxHWqsd3EsQVJPm6EUW7AT3ziK2J/v9B7VzkFzLaXKz20rRzKcqynBFaV7P50wTP7tRUn9iGaJZo22L2yMjNaRpcyvcmUrHReGvH1xA4i1oedEcATIuGHP8Q6EfQdu9eiaZq1hqa5sLqOfgMQp5XPTI7V4Lc28sB2yLz69qiiZonV0Yq6kFWU4II9KXvwdmRyqWx9GiivE9M8Y6zpyhEuRcRgEBbgb8c5zngn866rT/iRFNdRR3tmLWEk75RIXwMHHAX1xVqonuS6bWx6FRWfpWs6fqsZewuo5cdVBww69QeR0PWtGqTuS1YgvP9V+IqmKuXn+q/EVTFUIdS0lLQA6qVXap0AKKcKT0pR1oAkj+8alqKP7xqWgCSiiigDwj49XFkvifT4bm8ihmNkZBG2gR6g20O2W3sQVHt+PevDda8KwzXZuIdWSNrmQ7FutLms1Zsn5UVUZR0PAPavof4oRanZfEqx1e00LUtUsxos9mfslv5y+Y5bCuMj5emfauVvptYbxToeoWXhnxkdPtNWuNVvIJrI73eVjgr85XCoFULx/Ec80mB5d4C0ibw5480vUr6eze006YXFw0VzGWRFBJ+RiGzgdMc16n8Qvi/4S8WaZbWttcT2bwzeaWvtEhvlYbSMBXfCnnrWm+oXEsjvceB/E87ebHIHl0pGKsqIolXLEgoUO1CScH71O/tO5bVNNuF8FeKYVtp5ZZimkRkzq6FRkbsggndwcgseuOSwHR/A68tL3whPLYXMVzCLx13xaaliM7U48tCQev3vw7V6KOleb/A7T77TvDmqrqNjd2TT6rPcRR3UapIY2ClSVXgd+gAyDjivSRQAgrz34waS9xp9tqcKbjakpLgc7GIwfwP8AOvQhSOiyIyOoZGGGVhkEHsa3oVnRqKa6HPisOsTSdKXU+bLCRob23kjKiRJFZS/3QQQefaul+JVxeTeIEW/ntJWWBNotSdigknkEnnJP4YrrdZ+GNrPM82lXZtFPPkyLvUH2Ocge3NVtP+FeZAdQ1TMeeUgjwT/wInj8q9/69hptVXLbpY+Z/s7FwUqKjvbW+mhxXhHQZvEWrpaxqRbr808g6In+J6D/AOsa+g4IkhijiiUJGihVUdAB0FVdF0iy0WyW106BYYhycdWPqT1Jq9Xk4/GPFTXZbHvZdgPqcHzO8nucbfeDYrXxh/wkv9qahJqFzAYHRvK8vygwITGzIGe+c+9XdU0+11TTp7K/gSe1nQpJG3RlP+eo5rf1r7tr/ut/Oss9K4D0kc/o3hw6XDb2w1fU7qzt8CKG4dDgDoCyoGYD0JPHByKhs/CFnZ3+qT293fpbanI0t1ZiRfKd2GGYHbvUnvhhXTYopgce/gWwfwbB4Za+1A6fBIro26PzAFbcq52YwDjtnjrXT6tokWteGha3VxcxmK6inWaBgkgdOQc4x19qsYq9b/8AIKl/66ikDMOPSozex3d5I93NFE0MZlVcKrY3cADJbauc+nGMnOdD4VtLfRZdGt7m6j0mTcv2ZWHyIxJaNWxuCnJ75AOARxXREHNJQUYN14Xs59X0S/jlntzo6PHawQ7BEFZQpBBUnG0AcEYxxUn/AAj0H/CVjxB9puftYtPsflZXy/L3bum3Od3Oc1tUUgG4oxS4oxQBgJU6VAlTp/hTMjkvi1a3eoeD5LCx1LTtPNzIqzPfTeUjRDllDdskL+GRXmHgOEa9BqVhrusaedJ0u/l1M2lpKzGQRbQcZyPs+Pu4Oa9w13w9pXiGCCLWbKO7jhfzEWTOAcY7VwafCy4Gj3+l2l7a2EF/qkk0z20H7w2bbSIAx5GCvTp/VsCb4LA+LrXTvFOq6jNd6vpwuLJkcKApdtwbgf3SBXr9cHo3gL+wfGiar4dvfsGlTQCO905YwUlZF2oR6HuT16/3jXeU0B84XXhW6i8a+N9Jnk1LW57y1inYWrLHcOrTIwGWBGAMAjGCOmKIYkX4psq/CsMi6QB/Yp8s4/eD/SMlcH+7nGa9n0jwvc2/xU1HxK08JtbuyS1WIZ3qylTk8Yxx61fTwndr8XX8Vm4g+xNpf2HyRu8zfvDZ6Yx+NJjRteDZ5LjwzYPNozaIyoYxp7EHyFUlVHGBjABHsap+OJPFcdrbN4NXRzKHJuDqRcIExxjb710xrlPiT4f1fxP4dbS9F1hdK89wlzIYt5khPDKDng4/PpxnNST1PBfAMvjyfwH4tv8ARY9AbSL64vJrp7jzN5JT94YscbcdM96739nxvGH/AAi2hLcpo/8Awivky+WyF/tWd7Yz/D97P4V6DbeE7XSvAE3hnRcQwiyltomk5y7qQXbHcsSTj1o+Gnh+48K+B9K0S9mhmuLRGV3hzsOXZuMgHvQijqYv9Yfof5Gvmf8AaCh8PW0R0/SNGtrrxXqR8+aSKMvLFGo3M/HQkL+W4+9fS8X+sP8Aut/KvGZfhhdaXJJc+DtZNjqV7KxvdQvY/tNx5ZOQsbHpj8zxk8CmB5Dpazb/AA1p1jovgTV5tTVVRYYJZJkQAbnmORtI5z7q3HFfUlhaQWFnDa2cKQ20KCOONBhUUDAA9q8otfg3c+HJE1DwX4lubLWdhWaS5iSSOcE5IK4+UZA9egr1PR4byHTLaPUrhLm+WMCaVE2Kz9yB2FAHAfHqyuB4MuNbstX1Swu9NQbFtLkxJJvkRTvA5OB05HU15X8Xry1aa+1SL+03+020WnreCCGa0uWUZO2RiWByGyV5yDXvfxB8Lv4w8Oto/wBvexglmjedkjDGSNWyUGemcA59uhFcXqvwbtJNO1KGyvPM/wBGNvpVvcr+5sAxBdhjJLsQTvxnnv1oAxPgAY5dSl1C3tNYkF5aJC93LbxR2ymLA2gp1P1GTjJ617lXE+C/AMXhjVFvrO+lhSW0jjurCEYt5LhVAMwHbOOnvn2rtyKAPmn4s6bqOqeM7+50vw/qNtfQHzHvWvgrmGMFS8MeRhSBnPPfoc07wRqOq6FLpuseHfDYmsbiMvcpJdx3WpX6FthlRcBwFI+6BjufUei3/wAMry2i1K70TWPP17UXaOa/1VPOdbZlKmNMD5TyOQO2OBxVhfhRYP4T0TT5LyWDWdKUeTqtqNkqncWIHqvJwD06+uUB6Gh3IrYI3AHBGCK85+Mmi6vr9pp1paWE17okMhu9RhtXxcTBBlY0HvzyMnODjjn0eKPyokQuzlVALtjLY7nHesDxjoOueIoLbT9B1z+xo5WZbyVY90jREchG/hP5devGCwPAbK10++0D4ha74Zgv4PD8OlxWUS3krOzSu8bP1J5XGOvQg969O+Ff/JWNV/7F/T//AEVHXp3hjwzp/hjw9DoujReTaxKfmbDM7nq7H+Ik/wCHTArl/h/4M1vSfFuseI/E+q2l9f38MduFtYTGgVMYJz3wBx9aQHolFFFMAooopALRRRQA6iiigApW+7SUN92gBleceLPHjCSS00MgBGGbvgg46hQRjHv9eOhpPiD4shmtn0zS5VlWQfvpo2yuP7oI6579scfTz60ga6uY4Y8AseSegHrWihpdkvV2FvNQub69U3kz3FzKdqbiSzEnIVR+PQU2OKR5CmwhgcYNdNDNZ6Iu7Roo59RBBF9cLkR+6iqUcZknadpTLMxLOQMbmPWp9s72Oinh4y1kUhp4jmjMw+X0WrhRcfKKeAT96isZPm3NXZPQYp2kUrtlxTnHy0LEWwagQ4N8wNIx+Y8VKLRtrHPQ0j27Dv2qhDN2QDikYnNTxwo20NJimm3XzWVZM0aAMJXaARmmBMscDFPuFihj3SSgY96atxahFbzgfxpXQWLtvBG8fzpTra2uFuFh025aF5Xwokb92D7j0qzF5fkfKyt9DT44xs3FR+NMTVyleaVdtAIdQdINSzn5eYWX1BrBu7SS1kKSMjHpuQ5FdhPezyqEZQVAwOO1UXjRxh41/EVTfMC0OYCGmuK6SSxhccDaaoXGmOMmNgRWbpXK5jIxXYeFvG17pswi1J5by0x3OZEPsT1+h9seh5KWJo2IYEGkrOzi9Aep75DqNpqdgs9jOk0ZIztPKnGcEdjz0NKK8U0DV7nSL0TW7Eq2BJGTw4/x9DXr2j6jBqlklxbNlTwwPVT6H3rohUUjCULF6ijFLitCBe1UxV3HFU8UALTx96m04daAHx9TUtRx9TUlAD6KKKAE71JF3qPvUkXehgLRTqKQGY4+dqUUN1P1pKYC04U2nUALTqQUtAC0UUUAQ6v9y2/3W/nVDHFaGr/dtv8Adb+dUBQMZim1JSUAMq7b/wDILm/66Cqh6/hV23/5Bc3/AF0FAFSkIp2KMUhjMGkp9FADetGKdikxQO5ziVMnSoUqdKozLKVYj6ioF7VOnamBYSpVqJKlWgkkt/8AXx/7wrV7Gsq3/wCPiP8A3hWr2NJlIB0paZRSGKTSDrRQOtAEkP8ArD/ut/Kspfuj6Vqw/wCsP+638qyl+6PpQA2in0UANXrSU+kIoAWkalooAbijFOooAY1WdM/4/o/o38qgYVZ0z/j+j+jfyNAFugdKUUDpSAKKKKYBS0UtIBaKKKACiiimA4V514+8TXguJdM0kiNFG2acHLE+i46Y5GeufTGa9Erw3VL1bnU7qZAVSSV3APUAsTzXNiKzpWt1NaUFK9zBaN1ZVwT6mtGwi8sM5yDS/aUY9BxTJNUji64qPrbaNI0Ui/EVaM7lOKkjRASFxisAa3M5KxR5Bp6X96zH5VUGp+sSfQtQsav2iNGKt0HXFRXGo20UfUj1zVLbdzcvJyfQU8acXZS7Jgfe3mk6rHyjH19Nq/Z0Ln6UxtYuhzHbls9aY11YQMw86JSOwFVm8QWER2KzP6kUvaX6hZlk6nqjlykSqp65PSmNPqswz8i46VVPinT4dyiJ3Bpn/CW2y58u1bA9TU+0FYv7NVaPJKED26UPbaxEqv8AaIyDyFx0qmvjMKOLYYPB5pf+EzjLD/ROBxnNHtR2FmttQkQmaRSCemaiS0kG4m3DkDqGxUsniuykGHtDz6GpIdf0mVcPvh9e9HOFkVDLewf6qORP+BVds/E15bLidS4HHIp8d/p07FYrnHpuqwUiaMbJIZN1UqgcqLNv4vjbCvFg+ua0odZtZRkuoJ7Vzc2l2smTINrf7JqjJpzRtmCfaP8AarRVGS4ndLeRNwrZp4nVjhTXCpc6hbfwLInqKuQeJQmFKbG75FVKs+iDlRv6tD5luXQZkz0AzWQtvKcny2HFSxa+jkEYHrVoaosgHINc86ze5SiV7a2ld1yuB6123w/tjDqNxI84XKBRFnG85zn3xj9a5mG4DsK6bwmC2tW5GTgMT7Daf/rUqVX3kKcfdZ6BS0YpcV6ZxijpVKr+BiqOKAFp460wU8daAHx9TUo61FH1NSjrQAtLSCloATvUkXeo+9SRd6GBLRRRSAzH6/iaKH6/iaKaAWlFNXpT6AAUtAooAWlpKUdRQBHq33Lb/db+YrOxWlqv3Lb/AHW/mKoAUDG0mKdiigBgHNXYR/xK5v8AroKqAc1dhH/Eqm/66CgClijFOxSYpDExRS0UANop1FAHMpU6dagSp060yCxH1qzHVeOrEdUBOnWpRUSdalFBJLb/AOvj+taXas23/wBfH9a0u1JlIKKKKQwoHWigdaAHwf6z/gLfyNZqfdH0rSg/1n/AW/kazU+6PpQAYoxTsUYoAbRTsUYoAbRTsUYoAbRTsUUANqzpw/0yP6N/Kq+Ks6cP9Mj+jfyoAsigdKKO1IAooopgOp+BTadSAMCjAoooAQiiloxTAK+c7mfYHzX0ZXgHjfSpNM1i7ttmxN5ePGSNh5XBPXjj6g1x4yLfKzeh1OYnvipIBp0IM7Kz9D61l3qmI47inyXrRWgzwa44nQdCJLOCIrM44P8ADVGfxDBC5+zorY9a5WeeSZuSTVYRsCTtPNbWIudBd+Kbuc7YtqAdMVl3F9d3OWklc/jTrbT5LkARo272Fbdl4WupSCYyB70OxSTZzQV2OeTT0geXO0EGvRtM8DO/L5B+ldVp/gWIBd6A+9HKaKD6nicdjMeoY/hVgaVP/cevoG28HWcYGYlq6nhuzX/lmtPlK5Inzn/Y1xn7kn5U7+x7nH+rf8q+jW8O2ufur+VNbw7a4/1a/lRYOSJ82SafPH95GH4VXe3deqn8q+kpfC1o2f3a8+1Zl94KtHQ/ulz9KOUXs0fPoR1pwuJUPyu4Psa9ev8AwLEEJRK5W98Iyo52IaOWwvZ9jmbbXLy3wRLnHrWgviVnH76MZ9RUV5oFxb5LJ+QrLezkU4KkfhRuZNSRvLq0cuMS4z2PFXj9nukG9Q5HeuMkgfIwDxT4Lma1lBDED600mJvudHc2Eg5tifoafYyzJL5bghgKg0rWhKSswy3QU5bh2vzkge1Z1Etxo6qxYtjNeh+AYHa6mnI+RI9mfckH+lcHpKB493oK9f8ADtrHaaRbJGPvIHb6kZp4aHNO/YVWVomkKUUCnCvTOMdVGr/aqFACin0gFOFAD4utTDrUUPWpRQAtFFFABTo+9Np8fegCSilopAZb/eP1NA70P94/U0DvTQCinCkApRQAopaKKACiiigBNS+5b/Rv5iqBFX9R+5bfRv5iqZFAEdFP/Ck/CgBuKuQ/8guX/fFVMVdh/wCQZL/vigZSxRTsGgqaQxuKMUtLQA3FGKXFGKAOWjqdKgj/AM/nVhKZBYjqzH0qtHVmOqAmTrUoqJKlFBJLb/6+P61pdqzbf/Xx/WtLtSZSCiiikMKKKKAHwf6z8D/I1QX7o+laMA+f8D/I1nr90fSgAxRilxRigBMUYpcUYoATFGKXFGKAG4oxT9ppMUANFWdP/wCPtPo38qgFWNP/AOPtPo38qAJu1FLS0gEpRSUooGLg0/FJTqBCYoxS0UAJilxRS0AFct448LReILQSRFYtQiXEUh6N/st7fy/OuqpH6USipKzKjLl1R8xa1pE0M0kNwhiuIjtdGHIP+e9YGq27C3jGO+K+hfifoUV9oNxqMKhb2yjMm7pujHLKfXjJHv8AjXhN4v2i2hZf4jXnuk6crHTGfMi1oWiwzW2+UZateDw7Cr5KAg9qsaKn+jgMcVslhGgLcD1rWexVMm0rR7SLlI8GtlGtIGVTtyPWse1mklOI2wPU1eWxwhd3LMfQVkmzY2P7St4V42mnQ63GxG3Arm54JVxsSRvwqMShOJYJQfpVXHc762vY5hlcD6mrSyZ46/SuK06/hVVAk/Ouks7kMV2sDUXHc1M5FIX2rSZytQSvtHNUMSW52A8VmT6kd+CcVHeXEYPLqKxby4hcnEqihAXZtVXzNr9DUcskcvzIAfwrHSAzSDY4/Gtm1tCgHmSLimSRNYW12v7xATWZeeFbWRtwAFb7LFCx+YD6UxX3fdII9apWEcTc+FLeJmYKTmuV13QQsTMi4K+1evuu44asHXLaN1K4IB9BVKxFRHi9nA0d/EgBySOK6a5sWjumcL1waatgBriEZxnIrZvCFkbcRxWFTV6EItaNIxAVVYseMepr3OziMNnBGfvKiqfwFeS/DfTm1bWTNz9ltMOxxwzZ4X+v4V7Aa3wsLXkY12tELTgKT1pwrrMBao1f7VRHU0AOFOpBThQA+HrUo61FF1/CphQAUUtJQAU+LvTKfF3oAkooopAZzfeP1NJSn7x+ppDTQBThTacKAFpRRS0AFFFFACah9y3+jfzFU8Vcv/uW/wBG/mKrYoAjxRin4pMUANxzVuH/AJB0v++Krd6tw/8AIOl/3xQMp4paXFJikMSjFOxSYoATFGKWigDkkqwtQR9fzqdaZBYTqKsp2qunWrCVQE69qkHeo17VKO9BI+D/AFyfWtLtWbB/rk+taXakykLRRRUjCiiigB9v/rPwP8qpKPlH0q7b/wCs/A/yNVVHyj6UwGYoxT8UUANxRgU7FGKAEwKKXFLigBmKQrUmKTFADSOKsWI/0pPo38qixVixH+lJ9D/KgB4pTRQaAClFJTlFIYHmlxRiloEFLRS4oABS0AUtACdqR/u06myfdoAiKhlKuAVIwQeQRXzJ4h0W70vU9Rit4S1tFcSLGBzhQxA/SvpPUZnttOuZ4kMkkcbOqDqxAOBXi+h6kl48i3EZ8zJLbjnOe9cuJmlJR6nTh6bld9inZW5t/DE18SxmRNyqatW19YXlnbqxZZ8ZfJ4zUN7bNdXVxbiaRITwUB4NZWoaHNbQAQqWAPUVm5aGqg0ztLIwooKEEe1PuNXaI7Y1rh9Ivbi3cRsWA9627vzJIg0PzMayRsjai1mUocL/AIUNrIZOQprBbSrufTZ5p2bdjCoOAPeoPsWjNd3NvZ6dfpN5KMLlpspu/i4reMLoiU7O1joft0Tpwq0xHeWKa4gfyruEb4iT8jEdmHpVa20qSNI/mLbxn6VcurR7CB3+8rDaPqazcbFpkFjqXjPVU85YbW2Uf8+xO0+/NXNR1LxPbW8Nu0GngSkLJO5YyAdyuOM10fh5Gi0yJW/ujNZ/jJjBDbT/AMCyqD+NSlYu5z8LRecYZHd2A5Zj1rRgmsYpFRoVdgM9KzZLF2kafIC88jvUEsFz9iklgbyxkKSRzVxiTLY6j+07ZR8tuoX2AqIavaudoTH1GK4KaG0Z7iGx1DU2uoZlyHTCFSMkg960VjvIZFSbNxDIuVfHzJ9TWjg0ZRkm7HXM8E2Dw2fWopLaEnfHmNh3Q4rFi86FMLlivrT5byQx88H2rNNmtjQfWbS1ZIbqdRMxwPeo7+3lu0DwrlDyGritVtZ72/Eka5ZRXT/2pqENtBBHbRqpATJPNWjGVzn7qzuH1NEiiyy85HT6VS1jRb5JFlnxsY447V6XHFDZ24kkGZD1I6k1T8I36at4pWzvLILBncu7+LAyKiVrpdzVU/ccux23g3RhofhO1t2RVnbEkuBzubnn6DA/Cterd1xEB7iq1d0Y8qsjy5O7uIBS0tFUAvaqYFXapigBRS0ClFAD4utTCoouv4VKKAClpaD0oAb3p8XQ009afH3oAdRSmg0gM0/eP1NHrSn7x+popoBKcKMClFAC0tJQKAFoHWigdaAC8HyQfRv5iquKu3Y+SD6N/MVWxQBHikxUhFNIoAbircP/AB4Sf74qsRVuAf6BL/vigZTxRin4pMUhjcUU7FGKAGYoxT8UYoA4+PrU61DH1/Op1pkE6daspVdOtWEqgJl7VKO9RLUo70Ej4P8AXJ9a0u1ZsH+uT61pdqTKQtFFFSMKWkooAkg/1g+h/lVQDgVbg/1o+h/karqOBQAlGKdijFMBMUmKdiigBMUYpaMUANxS4pQKXFACVNZ/8fSfQ/yqLFTWY/0lPof5UAOoopaAAU5elIBTlpDClopaBBilxQKWgAApaBSnpQAmOKSQcCnjpSSdKAIWUMpU9CMGvDrLTjY6jcwMwZo5GTdjGcHGcfhXudeV+K9PksvEM7qCI5z5qn69f1rkxS+GR2YOWrj3MMKUvm4HJrobOIPGAy5FYkufOB281v6U2Y8H0rFSOpoz7/RopH3Ko+tTafpqxgBa1ZVIH9Kbb43cdfSgkcLBypHVSMYqKDRhHKX2DGMYxWzbAlcscVMwyOSMVpzEmMYvIyxA9vasbWVmvXhSNgsYkDP7it2+dcYznmsmYEsARjnFQ5XNEjZtGwi4zgDFM1mBLvTponGdw6Go7NyqYJqa4bcmc0jTlOe04GPTQko3SDg1bgg8xGQ/dbqKbPGYnL4+UmtHTyhAI+b1FWRKJntooZizx557VZXTmcFMBVAroQBjCg0x+cgjn2q+YySsYZ0uML1Jqq+kpu+5mt9l54oEYxUlGKmmJGp4xVWa3zcxccKa3LzgYFZc27a5HVRmhsViyYPOPm9VxxUPheDZ4us3Zf738jTdPvZZINjptrb8GW/n6zNcSJ8sSEA+hP8A9bNT8Ul6mknyU5X7HY3n+rH1qr3qzd/6ofWq3eu88dhRS0Uxi1TFXccVTAoAUUtApRQA+LrUwqKLqalFAC0HpRS0AIetPj70zvT4uhoAdRS0YpAZp+8fqaBSn7x+popoApR1pBThQAYpaKKACgdaKB1oAfdD5If+BfzquRVu6H7uH/gX86rkUAMopaKAGnrVqIf6FJ/vCqxFWoh/oUn+8KBlakxg0uKXFIY0ikAp+KSgBtJTmIVSzEAAZJNc9qPiSOOTZZIJcHl24H4VhXxNLDrmqOxvQw1XEPlpq5np/jUy1Eg5/OpkHNdJylhKnSoU61OlMCVetSjrUaVIKAJIP9cn1rR7VnQf65PrWj2pDQ6kpaSpAKWkpaAHW/8ArV+h/kahA4qe3/1q/Q/yNRqPlpgN5o5p/wCFH4UANopwFLigBlFPwKXFACUU7FJSAZiprMfv1+h/lUdTWY/fr9D/ACpgJinYpKdSAMUoFFKKAA0UU6gBBThSCnAZoABS0CloGAHFNfpTx0pJOgoAhrmvHEKG0tZyuSku3PoCP/rV01YnjJN3h+f1DIR/30KzrfAy6TtNHm15jeSOxq5YSMAAKq30W2JW/vHFWNNI2ZxXnnpdTZhcueRkVajtDIco+2s+GQKeBitK2n4461ZY5rSdDxcn8VpgsZpDzct+Aq7GS45NT7VVcnFFhGc1kqKS3zYrDlIa5wvc1u6lMfKbB25Fc9FII7hWbn3oaGjYt4sAcVI8WUPFW7We3eAEDmmX13HGvyiqKuZ6rlSsijFMhtdrExNg+1ME4kc7amtZjHJhsUyWWYVul6OD9al3XHeNPzq3GdyUhWgkroshHzAVIrEAcCnOcKeaqF8HrVCZBfvVK0kXz3yP4amun3E56VVgOJmwO1QyWWrRVMrD8c11ng2PFhK+PvzHH4AVym1oIizfeYflXd6GqppNntAGY1Y4HcjrV0Y3lczxMvct3LF6P3Q+tU+9Xbwfuh9aqY5rsPPYDpSigdKUUwF7VTq72qmBQACl7UClxQA+LvUoqOIVKBQAtL2oo7UgCnJ0NNNOToaAH0UUUAZp6n60Gg9aDTQAKWijFACjrT6aBTqACiiigCacfJD/AMCqDHNWJx8kP/Av51B3oAZikxUmKQigCPFWYv8Ajzk/3qgxzViL/jzk/wB4UDK2KKdimyOsaFnYKo6k0m7aj32CqOp6jBp6ZmbLn7qKeTWPq/iTAaLT+vQyEfyFcvJI8rl5GLMepJrxMbnEad4UdX36f8E9zBZNOpadfRduv/AL+qavcaixEh2Qdox0/H1rOoor5qpVnVlzTd2fS06cKUeWCsjdT/Gpl61En+NTJ1r9BPzsnTrU69agXrU69qoCZKlFRrUgoAfB/rk+taPas+D/AFyfWtA0hoWiiipASiiimBLbj96v0P8AKmr0FSW4/eD6H+VMXoKACilxRigBKKXFGKAEooooAXFGKXFAFACVLa/69fof5VGRUtsP36/Q/wAqQCU6m0tADs0optKKACnCm1ItAABzzThRSigBopaKXFAwHSkk+6KeBxTZBwKAI+1Y3i//AJAU/wDvJ/6EK2x0qrqdmmoWE1rKcLKuMjsex/OoqK8WkODtJNnlWp/8eq/71Lpn3DU2v2Nxpy+TdrghvlcdG9x/hVbTDzXnI9KLT1Rf+6as20vzCoHGRToFwRVI0RswTYp8kpYcVUgGatrgCmMzdUEggLE81weq3upvcbbaBSo9e9ei3TKQQcEVjXFssjZVQDnjHehq5XPylXT9Ua3t1+0JsYgZFN1W/uZ7XFgm+R+Bk8CrrafBKi5GS3Bz2qZdKFvEwjYgCq5TPnOS0O/1i0nMGqW5IH3ZFGc12MaGWMSfdqvEGR+VrVtirpnFCjbQfPcks5HxtJq5vAHWo4kHUUkhABNMRFdTYBqjvzmpLk7gagYgLQDIrgkio7E5nOfSklJPNJYOFuTn0qWSa0ibo8NXcaSuNKs/+uS/yrkdLtW1G48qMnavLnHQV28SCOJEUYCgAV0Yda3OXEyTsiO7/wBT+Iqp/Eat3f8AqvxFVP4jXQcjDFKKKVRTAdjiqQq9VIUAKB0pe1C9Kd2oAdGOtSgVHF1NTCgAo7UUp6UgGmnR9DTTT06GgBaKfRQBmn+popT3+po7UANxzQOtKBzSkc0wFooooAKKKKALE/3IvxqGp5h8kX41EBSAbijFLijFMCM1Yj/49JP96oJnSKNpJWCIoyWJwBXL6v4pPlPb6dwCeZSP5f41zYnF0sMr1H8up1YbCVcTK1NfPobGq6rbacn71t0vaNTz+PpXFapqtxqD/vW2xDpGvQf4mqEkjO5Z2LOTkk9TRXyuMzKpiXy7R7f5n1eDy2lhve3l3/yCiiivOPRCiiigDfTvU6VCv+NTJX6KfnBOlTL1qFOtTrTAmWpFqNakFAD4f9cn1rQNZ8P+uT61oGpBBRRRQMKfTKfQBJB/rR+P8qQdBToP9YPx/lSAcCgAxRiloxQAmPekxTwKQigBuKAKXFKKADFKBS4p2KQDR0p8A/eD6H+VNHQ0+D/WD6H+VAEdKKMUooAUUooFLQACpAKaoqQCgBKUUuKXFADSOacKKUUDCmyfdp9NkHy0AMoxSiigRleKbZLnw/fh0DlYWdcjoQMg/pXlenSblB9RXs1zEJ7aWI9JEKn8RivFLHMReJ+GQ7T9RxXJiPiTOvDPdGyhyvWpU4IxVVGwBirluRjmsDsTLsb4UetPlmKRdKrqRu5pJmBHJ4pkuRHMzOm4Z61DvAO3BpJJG2EI3ApBPHwSw96tEpuRZLRoASMMvQ1LDN5qPu+YEc1nzSxybRG/HekM0NvhvM7/ADCnzD9mzQLJMyc5boQO1TAiIr5Y+Ujk1mQajaJKWQ43DAzVmG6SVduc8UC1iaUE4z1pZ2B6VUgXdyKc7YbFDBSIZz2qFzxUkpy9QueaRZC4zXUeD9Is7uwluLy2SZvM2oXHQDH/ANeuXc8V6D4QjKeHrUkY37n/ADJwaqCvKxhXlaJq21tDbxhLeJIkHZVxUlLRXWlbY4ivd/6r8RVXHJq5dj91+Iqr3pksKUUmKcKdgAdap1cqoKLAFOpKd2oAdF1P0qWo4utS0AIBS96UUUgG1JF0NMxUkY4NADqKKKAM4/1opT/WimAlLRRQAUClxRQAlFFFAFqX7sX41GRUj/cj/GoppY4YmkmcIijJZugpNpasaTbsgxWZq+s22mqQ53z9ol6/j6Vg614oaTdFpmUToZj1P0HauWZizFmJZj1Jrw8bnMYe5Q1ffoe9gsllP38Rou3X/gF7VdVudRfMz4jB+WNeg/xqjRRXzdSpOpLmm7s+kp04048sFZBRRRUFhRRRQAUUUUAdCtTJUS/41Mtfoh+cEyVOnWoUqZeoqgJRUgpgp4oAkh/1yfWr/aqEH+uT61odqkBD1ooPWigY+iiigCS3/wBaPof5U4dBSQf60fQ08dBQAUUtJikAopCKdijFAEeKUCnYpQKYCUUtFIBB0qSL/Wfgf5U0dKfF/rPwP8qAIqUUUooAUUtFOoAUU8U0U8UAGKWilFACU4UlOWgYY4psn3afTZPu0AQ0+mU+gArxvW7c2PiO/gPTzS6/RuR/OvZa84+JunvFfWuoov7uQeVKR2Ycj8xn8q5sTG8VJdDeg7SMKJx0q9E2MVj2z8jmtCN8HrXMdpoxfO9VNUlbbsj61F9rETnHepIQJn3t0piaKMumXksOftYGfQVWj0lwf3s0shHoa6kANHwarOPLbOMiqVi4ysZceknb8s8oo/sQFtxlkP1rXjkJyEOBUkJ35B5PtTsuxp7Qw20OJs4aQN7GiDQ54/mjvZAfQ1snLuVAI9qtwwKsYzwfenZEykZEUt1CFicjK/xAda1QzmESFeT3qK7jRlz3HoarxuyoysxKjoM0jEWRyWqKRqNwJqKY8UiiCaXrXr2mw/ZtPtYR0jjVfyFeZeGtPbUtZhQj9xEfMk9MDoPzr1XoMVtQi7tnHXlfQSiiiuk5yG8/1X4iqg61du/9V+Iqp3oEJThSU6nYBKqVcFVBRYApccUuKXHFADoutS0yIdalxQAhFKKUigCkA00+PpTWp0fSgB1FOooAzWHNGKcw5/H+tJjigBMUAUuKWgBtFLRimAhpDSTzRwRNJM6og6kmuP1jxK8paKwzHH0Mp+8fp6fzrlxWNpYVXqPXt1OvC4GrinaC079Dpta1y002EIT5tyP+WSHkZ9T2rgtT1S51KTfcP8o+7Gv3V+gqmSWJJJyepPU0lfK4vMauKdnpHt/mfW4LLqWGV95dwooorzzvCiiigQUUUUDCiiigAooooA6NO9TL1qJO9TL1r9EPzcmWpV6iolFTJ1pgTLUg6VGtSL0poB0P+uT61fXpVGH/AFqfWr69KTASn0gGKWkMKBRS0ASW3+tH4/yqRegqO3/1o/H+VSL0FAC4oxS4oxSAKKWigBtKKMUuKAEpQOaUCnDrQA3HSnx/eH0NGOBTkHzD6GgCEUooFOAxQADpThSUtABUg6U0CngcUAAHNPFAHNLQA0UooooGKKa/Q06mv0oAjpaBS0CEqlrGnR6pps9pN92RcA/3T2P51eopNJqzHe2p4XJDJZXk1rcDbNCxRh/WrIfiux+KGmwGxi1JRtuFkWJiP4lPr9K8/gm968+VNwdmehTqKUblx8SOoNa8TJFGFx2rFMh3g/Stm3USw7yKaRVyaOTnrxT2IdcUwwYxSspTFLlLQsSmMnB4brTsgMPLODSqC2Mj73SnLCTJgCq1HYFJRtx5NPa4IXA7057Vymc8iojbN19KTuw2GxgyMM9B1pl2QgOFq4kZTdj0rMu5MuQelWkZuREGqOaSh5AqUujXcMGr2090u63jfL5GQB6/h1/ClYTdlc9G8HaQ2m6eZJwBcT4Zv9kdhmt6mwyx3EKTQuskUihkZTkEHoRT67YqyscDd3cUUHpSClpkkN1/q/xFVQOKt3I/d/iKqgcUCG04dKAKcBQAVSq9jmqeKADFPpAKdQA6LqamqKLqaloAMUYoxS4oAYw6U6McGg06PoaAFopaKAM9h/M0EcUrDrQelACAUtH1qG5uIreIvO4RR3NJtRV2OMXJ2W5NWPrGuW2n5RT5tx/cU9Pqe1YGs+Jpp8w2G6KHoX/ib/D+dc5zkknJNeFjM5Ubww+/f/I9/BZM3aeI+7/MuajqNxfybrh8gdFHQVToor5yc5VJc03dn0kIRhHlirIWiiipLENFLSGgBaKKKAEooooAKKKKACiiigDpkHWpV61GvepV6iv0Q/NyZalTrUa1Kv8ASgCQVItMWpF6mqQDof8AWJ9aviqEP+sT61oDoKTAWiiikMUUUUUASW3+tX8anA4qG2/1q/j/ACqdRxSAMUYpcUYoAMUEU7FFADKUD1pcClFACYoA5pwFLigBvanxj5vwNJjinx/eFAEAFOAopaACloFKKAFqRelR1IvQUAOp1JS0ANApQKcBQBQMQCmyDipKbJ92gCGinUUAFKaK5H4l+J18N6E/kuBf3IKQ46p6v+H86TdlcEr6GX8Rdcs7n/iSW7iW6RxJNtPEYHQH3PpXmt3+6krL8Fu0tzdTSFmLnkk5JPqa6G+t9yk4rik3J3Z3U6do6EEN5uGAQcetb2lzu0BZj8o7CuNmRoZMr0rZ0m9UDGTj0FNClc7OOQSIxkJ3dmpVhDp94knofSqSSAhR0U8irFvdyeaVAAjHWqsVFmhBGqJhjkrT2dVIKjIqHzVxweOualQjaMDk9qLGnOPZge3FREhs7T9ai+0hWeJhzUMTDaTkjNUomUpi3cpj5PSsO4uA0jHtVrUrlEiXLZzWBNJ5shCZwakm9xHuHmuCkf3c9a0Ng+wTeuw1BaWwj57mrsy4tZgP7hqepr0Oh+EWur9m/sS5kJdMvbk/3e65r03FfNelXM1lcwXVu22aJgyn3Fe/eF9dttd05J4GAlAxJHnlTXXG9jhlua2KMU7FBFUZsr3X+q/EVWFW7ofu/wARVWgBAKcBxSClHSgBe9U8Vd71ToAMU6iloAdF1NS1HF1NS0AJRTqKAGmnRd6SnRd6AFop1FAzOPX8aO1Q3d1BaRNLcuEQdzXGa14lmusxWeYYehb+Jv8ACuTFY2lhV7717dTrwmBq4p+4tO/Q3ta8QW9gDHHia5/ug8L9T/SuJ1C/uNQl8y5kLEdF6BfoKq9eTRXyuLzGrinZ6R7H1mDy6lhVday7hRRRXCdwUUUUALRRRQAUUUUAFFFFABRRRQAlFLRQAlFLSYoA6he9Sp1qNetSp1r9EPzglWpUqNalWgCVak7Go1qXsaaAdF/rF+tXqoxf6xfrV4UALS0lLSGFFFFAE1v/AK1asIKgt/8AWLVhaQC0UtFABQaUUhoASiilxQAlOoApaAAUq9fzoFOUc/nQBDS0gpaAFFLSUtABUw6CoqmHSgBaKB0paAFooooGKaZL92nmmS/doAjoFFKKAI7meK1t5J7iRY4YlLu7HAUDqTXzT8UfEn/CQ6w11CXW2UeVCrcfIO+PfOa7j4q+LRfyf2Ppsoa1Rv8ASHU8SMP4foP515D4j3Zi981Enc0jG2pt+AH3pcexrsiN61wPgGcJqE8TNjeuQK7+P0rlmdtN6FC8sw65A5rDmhkhkymeK61l4xVO4tlYHipTLcbmdZ6+YUKT8t2J7VrJrFvIvlxS7lbaCfxrFudOSQHKgVi6hpc8SloHO2r5jJwPSLa+iMpUPnqOvtWkL+KNImEvsa8QN3d23/LR1Ye9INUuW+UzP1zTU7EOLPa5JVQ/aWZdqgt17Vh3viS3RAtmdzcMPY55FecRXtzMMGZyOmNxrW02xkkbLU+fsHKbxuXu5HP947selX7SDCAnr3ptjarEvvitGGPDc4A/lSbuaRQRJikvjttZj6IasAYrM8QzfZ9PkfBOfl/Op6mjWhzlt/qk+lX9N1C5028S6spWimToR3HofUVlQthAPSpwSa7Y7HnvdnsnhTx9a6gI7bU9ttdnADfwOfb0NdtnPI6V8zg9jXT+H/GeraRIqmY3dr0MUpyQP9luooYmr7Ht11/qvxFVqx9J8XaRrVsoguViuDjMMvysD7ev4Vsg5GR0oIasFLRRQIXvVSrfeqlADqWgUCgB0Q5NS1HF1NS0AJRS0UAJT4u9NqC7vbbT4Gmu5VjjHr1PsB3pSkoq7dhxi5O0dWXK5vXvFFtp26G223F0OMA/Kp9z/Sub1/xVcX+6G03W9t0PPzP9T2+lc0TnrXz+Mzn7GH+//I+iwOSt+/iPu/zJ9Qvrm/nMtzKXbsOy/QVXoor5+cnN80ndn0MYRguWKsgoooqSrBRRRQAUUUUALRRRTAKKKKACiiikAUUUUAFFFFABRRRQB1IHNTIOaiHWplr9FPzgkXqKlWo161KtIB69KlHeo16VJ60wHxf6xfrV0dKpRf6xfrV4DigBaKKKQwpQKQU8CgCWH/WLVkVBD/rVqcUgCiiigB1IacKQ0ANopaKAFFLSUtACgU5Ov50i0qdfzoAhpaSlFAC0tJS0AFTDpUVTDoKAFFFKKKACiiigY6mSfdp9Mk+7QBEK87+JHi5YIJdL0qY/aGG2aRP4B3UH1pfiB4xMEbado0y+cwIlnQ58v2Hv1+leYeWdpJJLE5LHkk0ikZkpyQPesnxLGUihkPTOK2pYiHOOOah8R2nm6GzN99ORQyzlLK6a0u4riLqpz+FetabdJdW8U0ZyHFeNxHKCuw8Dar5NyLKY5ST7hPY1zTibU5Wdj0LGajdM1KKDWR1mbMOTmqzhcYIFXp0yTVZ4CaCWjD1CxikzwAawZtJO84biuxltmY9KhGnsfvLQTYx9N07ZjIrpLZPKUYFEFq2OFq+lswUZFUgsEUvQYrUt8FORVFITwcVoW5IXBFMpIeV24P5Vz/i2TfZxwn+Jua6FjnPt0rkPE8+/UIox0UZNEdyZaIyUVkJB6VaiBK5NRu24DFSxPkgCutaHCxWzRvxUpGaidKaAhuHKYPUVv+H/ABbq2lOhjuWntx1glOQR7E8isKRDIm3FR24YAigD3Pw94x0vWQEEotro8eTMQCT/ALJ6Gukr5u2nuM11/h3xrqWmbIrg/a7UcBXPzqPY9/x9aCXE9iqrVDQfEena2NtpMFnxkwvw46du/XtWiaCGAGaeBQKUUALGOTUpFMiHJqQ4oAbTqrajqFrp0Hm3cgRew7sfQV5/r/ii61EtDBm3tvQH5m+p/pXFi8fSwq953fY7cHl9XFv3VZdzo9d8U29juitMT3HsfkX6+v0FcHfX1xfzmW7kaRz69B9BVcnNJXyuLx9XFP3tux9ZhMvpYRe7q+4tFFFcZ3DTRQaKACiiigAooooAKKKKAFooooAKKKKBBRRRTAKKKKACiiikAUUUUAdYgqZajSpVr9EPzgeo4qRaatSKKYEidKf2pq9Kf2pAOi/1q/WrvpVOH/Wr9aumgBO1OFJThQMFp/aminCgCWH/AFgqfpUEP+sFT4pAOHNLiminigBBQ1OPWkNADRS0YooAKWilFACil/wope34UAQUoopRQAopR1pBTgPWgBalHQVGakHQUAFFFFAx1Nd1jUtIwVAMlmOAK5rxL4wsNHBjiYXd308qNuFOP4j2rzDxD4i1DWji8lKw9oY+F69/U9OtBSjc9I1jx9pFgQluz3sh7QcqPq3SuA8SeLtT1mMQrL9lt2PMUJwSPQt1Nc0OfpT0X96vfAoKUbDooFGM8/WppETYT0p6mIglkP502SOJwAQ2T70DMu8jG5scGiVPtGnyIVJyKtvEBuwpPvTYCwjYKR06UmB5dcxtbXDRFcc1JBK0MqyJwVIK1qeMbN4LxZuiPWNCwOAx+apcSkz1vwvqi6lZrk/vVGGFb7RfLXjmkahNp1yssLEY6j1r1vQtTh1OzSSEjf8AxLWEo2OmErj/ALIWPSkayNbcMW4UNb5NZmpgG32npUgjwOlaU0GD0qHy/agRViQc1aih8winpF1wtWreIqQScUxEX2Tac1BMhQ8VrkZFVLpBtpjMuaby03NXDSubu9lnblScCuk8SStBZSMDgn5QPrWJZW22FQa0pq7Mqr0sRMu0dOKSE7JMjkVfkiCptNQrDtGMYNdByEoZSDxiopODUkalc54pJApxk5oAYhGaVkAOaVVPXHFTLGXGcUARoOOak4xTjD8vFQvGwHBNAE8asrLJE7I46EHBH411ui+M72z2x6gpuoB/F/GB/WuOST5NuPmq7gny+O1ArHsek6xY6pHutJ1Zu6Hhh+FaQrwxXeGQPGzI46MpwR+NdNo/ji9tAI7+MXcWfvZ2uB/X9KCXE9Qi6muc13xXb2e6GxxPOOC38Cn+tclq/i2bVN0UbC3tz/yzBwW+prI6814OY5nUpN06aa83+h7+W5VTqL2lRp+S/Umvrye+mM9zIzyH17fSoKWivm5NyfNJ3Z9LFKC5YqyEooopDFooooASiiigQlFLRQAlFLSGgAoooFAxaKKKACiiigAooopiCiiigAooooAKKKKAOvUVItNWngV+iH5wSrUi0xakUUgJF6U7tSLTh0oAdF/rV+tXqpQ/61PrV00AGKcKQU4dKBgKcKSlFAEsH+sWrFV4f9YtWBSAMUmaceaaRzQA5Tk05hgUzoadnNAAKMUoHFJQAuKcBSCloAUUtAo7UAQYpRRSigBQKdSL0paACph0FYGueI9N0ZSLudTNjIhT5nP4dunU1554h8cX2qIYbYm0tvRGO9vqfy4oHY9J1vxLpujoftEwebHEUZyx69u3Q815p4k8XahqzNGjm2tM8JGcMw/2j/hXLNKdvFPbJ2j25oNIpIVV2g4P1pj+/SnnIHHSoCfm559qAFyAcDvSQkGR2H0pnbPpSQqVUH1OaGCZcBODTifmX25qFck49aCTkn8KQyTdlDUKcGpV5SmFcCmIwvF9t5+nMwHKANXARH5s16xexeZblSM5FeXahavZ3ssR6ZyKGNMlifPU8Vt6Fq8ul3KyRMdvdfWubjfA56VFcXu35FP41Dsyk7H0L4Y1601SEbXAm/ud66Pyq+Z9FvZbeeO4hkZJUOQQe9eqeHviMZLuC01WEASEIsynv71i42OiNS53UsQyaYqAdhV7yt/I6GlFpmoaNLlJQvoKk2irRs8dKabVx0p2ArHiq9yuRuZtq1buylnbSXFy6pFGu5mY4xXkHi7xhNqkvk6eWitV4LDgv/8AWpMmUrK5qeIb2C/1WG1hkDJGdzYqeFfmA7VzHhKDfNNMeTjb+NdYi7F963pqxzzlzEUmGfHpTgmT7CkkjPUd6fGdq4PU1uZCrCHXnoar+R5PQcE4q7uwOOlAG9+ei81IFaVPnSNeMClViAe/NSAbpCx5zSBdoJ9aAId5yRTbhwkYA6txTyBk7qz7lyZgB0FMk0bCHecmr6lTFk/wmq9kpSHnqalUbvMX2zSKHuoOKgdetKhOBTHbk0AM8vBzUqySJyjH6GmhsjFKrAcVM6cZrlkroqE5U3zQdmWo7kFcyfKfUdKnVgwBBBHqKpcHgjiqczNFc7bdmX6en0rx8VktOetHR/gevhs5qQdqyuvxNmiq0VwQg8z5verVeDi8FUwkkp9ep72FxtPFK8AooorkOsSiiigQUUUUAFFFFACGgUtAoAKKUUGgBKKKKBhRRRQAUUUUAFFFFAgooopgdktSrTFFSLX6GfnI9alXpUQqVRQA9aeOaaoqVVxQII+HWrtVUHzrVqgBaKKKBi04Ug6U6gB8P+sWrQqtB/rFqzSAceppMZpe9KooAiYZ+tNJx06+tTMM8Dr61BIMHnr3pgTIwce/cUoHPNVQxByKsxyBx6H0pAPpaKM0AKKKTIHJOBXO6v4y0fTC6PcGedODFANxznBBPQEc8E54+lAG6aUV5HfeOtbupN0EsVmgJwscYYkHoCWznHqMVkvq+qyu0j6nelmJY4mYDn0AOB9BQUotntl1e21nGHu7iGBCdoaRwoJ9Oa4zxL4/htGMGjrHdS/xStny156DoW78ggdOTXnlxLcXUge7nlncDaGlcsQPTJqu6Kr0A42G3Ekt1cy3E7b5pWMjuRjLE5NKI8inDFTIvy0yooZHFgoPepmQeY/HSlTPmKMUu4lmOOhpFEDcnFRhB8xNWH4YNjtUUKl5VHYmlsIPs7yxMIoyTV6HQ7yWFMKBgV2Wl6ZBHEpZecVqJFGgwuOKwdQ6I0kefJ4fvB1Apw0C6zyBXoZ2Y7U1VjJ7UvaMv2KOBXQLkdWH5VK/h+dk4YCu9WFN3QGpNkWcHFHtGL2aPOv+Eeue7Bvwrzj4i6W9pcpMFwBw1fRm2EdhXnfxU0pLnSnaP+7n8RTU2yJQS2PBeXQgVQkixk4rWtkwxB60ySAbjmtezRmSeG9XtNOnlXUbE3dvLGUXBwY27NTnvIobmNoXbYMMD75qBLdfQUj2gajlbEtD1DQPig9q0UWpqlxD0MifeH+Neo6D4j0nXId+nXkUrAcoG+YfhXyu1iR0JFSWYntrlJoppIpozuV42KnPvjrWMoNG0ai6n11Uc0iRQvLKwWNF3MT2FcF8OPGX9tWP2bUW26hCMOT0ceorG+KPij7Uf7I0+QiDgzyKfvf7NJ6K6NEzI8e+LJdduhbWjlNNjPIH/LU+p9q42ZlVKWSQKMnpVCeQucL34q4RtqzCc+b0PQvBkGNMErDmRs12mk2K3Dh2B64rnNDtzDYQRL/CAK7/AEWLYi4UUTdjSjG7dzI8QacEhDIuP8Kw8YrsfEisLYe5rl2jUVdOd9yK0LPQqMQR9KSM7FZy3WpJYyzeWh+9VY27qSC/ArQxHNcoowtNVxJzuxSm2QDOKjEeeF4piHPJweOKzreIyS528bqtSOANoqxYp1zjPWmItsmEA7UyNX84Y6EU8/NzmnL8joc98VBQiKfLbPXOKbJESMDuKlUfNKuOjVKqjcM0DZS2tzxTzES3TqKlXGTTyBxVElcKc4HTBFRG38y6WVegXBq6yBTmo7JdshJ+6SaVwElTAAqzbHdCtQT5zj0p9m3yFfQ5rys5hz4Zvs7nq5PU5MRburFg9aSlpK+RPrhKKKKYgooooAKKKKACiiikAooNAoNABRRRQMSiiigAooooAKKKKACiiigDtl6U8UxaeK/RD84HrUyio0FTKKAHqMYqXtUfpT+gpiFQ/vBVmqicuKtigB1FFKtIYoFOpBTqQEkP+sWrPaq0P+sWrQoAUDmnikxzSigAApkqB19+xqSkYd6AKBBU4PWkDFDkde1WpEDj/aqow2nnrVAXIpA6f7Q6int8qlmIAqgGKtleDXI/FrVZIPDdvBbzeVJcT7ZEDYLxhSSPXGdufrg9aTdkNK7Oe8WeN7rUrpoNJmkttPX5d6/K83PXPVRxwOD69cDko0CEFcEDkg1npLV+3b+9SNEiXfleKnziKNf4jVeMhQ6kc5NXZAN8f+4KBkZQ4zUJj71aJ4xURPOKSAaicVOE+WowKn/gqgHwIDPHj3pECguR/epbdv36lfSmRACNweu40hlXVJWigDJwM81LpWJniePlcdadMEeMxuPlNV9FV4hIn/LNTwazquyHT1Z6DY3RmbaOwrVjQkZ9a5vw6371s9xXRDfnA6VxnclYGj3UJCBUw4oJqkDGBCP4jTHjY9GNPLYPJpVlHY0CITC7Dkmqd7Yi5j2SgMvo3NaokBGQP1oZhtzx+VBJ4Z4z8DNp/m3enhioO5ox6d8Vwjpu+tfQXjzUY9O0Z535yduPXNeBtgvIQeGbNbwbbsjCpGxCvSlXg0h+U06tzIcMHtQYl9KQHBFLK2BQBNZXUlhcGWCUxnbg49Ky73UXldliycnJb3qaXkYz+dQRw5Hy8Cs3AV2UStw75LHmr2lWckmoWsZ5LOKsJHkA4rY8J24m12PPSNS1NoD0mwUh4wvCiu10s7VGK4yD5TuJwBXU6PNuhBHSsKu52Udi9q8PnWje3Ncc/wAob1Fd1J80Lr7Vx2pRfvcIMbuKKbJqoop8iNK/3jwKRACPfqaWYfPtU5VaVVKjJrpOQbIhC9RVRl285qxKSx46VDclfLwOtMVjOlXLHBGM1oxKUjXntVeO2ztbtmr6pt5xwabBDVYYHp0p8gBXIIwDmnIgMf3e9OeMbW47VIxSAJpPm64NO7ZzQ4/eRnb95aXbhelA2VslW696lDZwc0jAbjx3oC9hTJY65fbGxI7VFb/6gHPai7z5YA5ycVJEm2MDHakUhs7ZUN6io7N8XAX+9kVPIuYl+pqlICrZU4I5BqK1NVacoPqjSlU9lUjUXRmpRSK29VYfxDNLXwU4OMnF9D7uEudKSEooopDCiiigCzY2VzfytFZxGWRVLlQRnA61ZsdD1O+g861s5JI8lcjHUdaueErKC+1CNDfzWl5u/deWmc4BJOc+1dT4fuIrpbJbtoJLtLp3JkRgcluq7RjJ969HC4OFZLme9+q8vuevzPMxeMqUW1BXt5Pz+9ab9DhtR0m+01Ea+tnhVzhS2OTTrLRtRvlBtbOdw3IbYQp/E8V0PjGS1OmRW9t5IdLp3ZYlcDnud3f6Va8NW63vhHUhu1KVAqIUDA8qdxEY/wA5qvqMJV3Su9Fff/gEPHVY0FVas27bf8H9Tm4vDmryKClhKQe/GP51QubO4trs2s8LrcAgeXjJyen8xXZPpS6lY2e+xuytvDtDJdQDKdQTk+9Z2otJL43tJni8oyTwYQur8DavVSR2qauDhCKavq0vv+SKo46cnJNrRN/dt1e6Ofnsru3TfcWs8SZxueMgfrS29lcXFtcXEMe6G3AMrZA25OB9fwrvr1ZPsN7G0tnfNJqRVVmZmSPPRT0wR6CqGnXTQaZ4hSbTLGGS2VA8aowDfMevzciqll8FOzlpZ/gn8uhnDMpyhdR1uvxaW3zOGqe+tJ7G6e3uk8uZMblyDjIz1H1qa0szfyTMk1pbgHO2WURjnPC59P8ACu51C0f/AISTUZraHTZrzKsjTXHMQCjJKfrk9K56GEdWLl5r9f8AJHXXxsaUuXyf6f5nBXljc2awm5iaPzV3pu6kf0qtWxrNtdSNJe3l/aXUjHB8udXb8h2rHrCtT9nNpLTzOihU9pBSbTflsFFFFZGwUUUUxncCnqMnFNAqxGuOtfoZ+bjkXFSj5qaKd92gBR0paYDT+1ADk++KtDrVVP8AWCrXegBR1p4FNWnCkAvpTh1pO1KvWgCSP/WL9atVWi/1i/WrXagY4UUUUCCh6UUjUAIajljDj3qSigDNcEEg9RXlvxhuY3vdNtlb97Ejuw9AxAH/AKCa9gmiEoyOG7H+hr518bXS3nizVJUDBRN5fzD+4Ah/DK03qOO5lJ1FalofmBrLi5rWskyuaCyW4ABDr1B5q5I+ZQQOAuKasAkXaP4uDSQAuG/2TikMeD8p96gOeamCHGKjYHmgBsZJyT2qUMaYiZJ9Kl2YFNsB0JxOufemqcDj1qSGPdOD7Go0T5Ac96LgB6MKntl+6BUB45q7ZLnmuevI2ox1NnRDtugPaujWTJAzXM2gaKZXHetGO4YXCjNc51m9sJGcmk2+5p8Lbl60M2OtMSZHtJPPIppjXtTZLpEODgU6KeJuQ6n8aAYnl46E1G6tngmrJkjH8QqGSdPUUAY3iPRodc06W0nA2sPlb+63rXzxd28tle3FpcDEsDlD74719K3N4kadQK+evHE0U/i2+lt2yrMMketa03ZmNXYySMmlNKoyuaO9dJzibaFVm/Cn7vkrqvhJY6fq/wAQrOy1aYJA9vK0S5xvm7L78ZOPagDhp7gJJGk8NxAZTiNpoiiyH/ZJ61esbWe4k8u3iaV/RRXsGtyz3XgjxZofxE0+OK308ytpF2YtjHYP3TA+pOB+lanw08PRWPhizluFD3c0YeRmHO4j9Kic1HYKcXJ6nkI8PauUG3T5vyrX8J6Te2M8st7ayQuwwA3YV7uLOM/wqKhnsIyD8imsXUZu6R52GyNpxW7oTgsEB/KtabRYHGWjA+lQwaIIZd0RYVnKVy6cbGoRlcCse9tcljitmJDGMGmTR7uTSTsaSVzifK2sc9aRjleenStXVLUxylx0NZEzAHFdUJXRwz91kJ3BxVOUh5wo6Zq5I21GPfHFVrJQzhz+FaElvaEQAUhPIwe1LPkR/jUQGCuTTQieAnlSe9S5BV6giA8xjntUg4bihgSSuAlqT1ximsQCcHnNRyj9zC3o2KUgE9etKxQhP7x1z2p64HJNVpVPmHB7UzfgcntTsST3GfMjC4weasFsLgdcVliQvc8n5QKvDsQcjFFguOkOYjg85qpL90+tS54fmo22lWpoC7b8wJ9P61JVKxkwXjb6r/hV2vicxpOliJJ9dfvPtcuqqrh4tdFb7hKKKK4DtCiiimBs+D54rbxHZzXEiRRIWLO5wB8prsdO1e2s762t7G/e7S5dEijJ4hT+Inj7x547V59p9ncX9ytvaRNLK3RRSX1pNY3UltdJ5c0fDLkHHGeo4r0MNiqmHp+7HS+/3afcjzsThIYmpZy1ttp56/j/AFc6jxZqZ1SzkZL7Y0Unly2bfxYOA6f1FGnaxL/wi1/Ha4t/sUcHl7TyXMmWb8fSuestLuryzurqBAYLYZkdjgDr+fSqJPYVMsXVUvatW5k0OGDpOHsk78rT9Nt/+D0PQNLjMVvfC6t9LM0sO3d9qGZmzk7vmwM8njFc7Kq2XiOxlmjt7eITRuVgk3qAGGTnJrP0rSL7VmddPt2lKfeOQAPxJxVOONpHVEUs7HAAHJNVVxTlCPuW7Pv+CFSwqjKa507qzXbT1Z1Ou6lpkml6hDYSS+fNfGf5/wCLr8ykDgdODzV2X7edD1271dI45J4IURlZfnwevBPPSuc1Dw9qenWwuLy1aOH+8GDY+uDx+NZePcflRUxVSMn7SLTttt3+/fyJp4OnKCVKV1ffftotrbLuCIzuqqOSQK7fXg2m+J7rV4721DqwZIN+55BtAIIHTv1rm7Hw9qt/aG5tLN5IezblXP0BPP4VStLO5u7wWttC8lwTjYByMdc+lZUpVKMbcj1aaeu6vt33N6qp1pX51ZJprTZ23102NXWrCyeA6lpM0f2Zz89uxxJCx7Y7jr0/+vWFWhquj6hpTRi/t2h39DkEH8RkVn1jiHeeseV9V/Wxth0lDSXMuj/rcKKKKxNwooooA76NfWphxSAU6v0Q/OAzijOab35pyigQ5RUg6UxaeOlAxyffFWcc1XT/AFgq0OtADhSigUtIApwpO1KOtAEkX+sX61aqrF/rF+tWqBiiigUUAPFNanCmtQAgopKUUxDZW2QyN6KT+lfKm9pX3yOzu3zMxJJJPJzX1PfSJFY3EkrqkaRszMxwFABySa+V0GE/SptqVEswHMm3tW3bYAC1hWgy9bUanaMVRRrWjIFmbP3V4+tMiURy7ezLn8aijUrAFHV25qS6Ox0b04pDFHr60wrkj6VIjrjJFRFj+lAEgGDx3NSEcc1FGc7PrTyxYkUmgJIh++fH92o0XEa05GIeQei1GCRCpPpTASYgFQOtaduAkC5HJrNgHmTgkdq2Au54gOlcdZ3djror3bmpcR7Y4x6Co0PP41NcvucD0FRqOn1qDVG3YTExgccVbIzzWPYyBZcHgVrtNGFwDzTCxVu7SOcYfI+lVo9Kji5WRjWiGUjJNRPMg4oBspfZLiZ2WzTzNvbNLDE44urdonyRz7VSk8Q/8I/rcNwx/cyfLIPbsamvvF9tqstwlq25UdXB9+4pJJ9SHJp2M3xNE0EYl/hPFeDeIUNvrc4PRjmvdfEN6LmwKfjXi/juArexzjgHit6cTGozPi5ApH6022Pyj6U+TrXQjEjJ4qOWMPsZWZJY2DxyI210YdGU9jTj2oA/767fU0puw0rndaU/iXxp9hTxFq8l/punnckRiCmVh0Ln+IjGa9l0lnhtUWReVGKz/Bujx2GhWsQXkoGb6mtxowBgVySbZ0QskL9rRTyKVrmNx6VCY+expTCCOwqNTUlLoR1oG2oPKx3pygigaJSqk0hiBFIDiniZRwaBmRfwhlKN0PSuPvYmguyjD5e1dpfneQR2rA11VaISY+Za1pzszCrC6OcmPm3KoOQAfzqxZwbYVz1AqDTl/wBLRm6MSKubirOvoSK6rnKFxFmM81WaIEjB71bkf93kiqLOcMaaJLSxgPjPUU9UIcc8VBE++SM1P/FQxjQpFqQ3Z6cV2gU0t+4mVuzA1J95cjpSuUVZCRMeOCtUZn8sHf0ArRlbAHHNZepN+7Kn+IU7ksfBkKrEZyavx52DjrVe3X9wAP7oq5EMryehphYaB+9Ix96mMPmIx0qdxhlI7GkYfO2O/NK4WKIJhlDL1HNaqMHQMOh5rNnWrdg2Yivoc142c4dTpe1W6/I9nJsQ4VfZN6S/MnooPWivlD6oKKKKANLw5dT2us2rW8hjMkixsR1KlhkVb8c/8jTf/wC8v/oC1k2Ewt763mYErHIrkDqcHNWvEN8mp6xc3cSsqSkEBuvCgf0rrVVfVnBv7X6HG6bWK50vs2v80d2dIgGh23h0aglrqEw86RAm4yN1wT6cfpXAxaVdyi/MaKRZZM3zYx16evSun/4SzTjdRalNp0p1aKPYGD4QnGM/r6VzMNxaTfbZL+KWS5mG6JozgK5zkkenSuzFzoVeVJrTTd7W0vpvc4sHHEUlLmT1s9lvfW1ntY6D4ZXU6639lEh8h0Z2TsSAOazfBIz4osBjgM3/AKCaj8KapFo2rrdzI7oEZdqdeap6TfPpupQ3cahmiOcHvxgiueGIio0rv4ZP7tDolQk5VuVfFFW9bM62xnlng8YLNI7qFYgMSQOW6fl+lclJp88emR37AfZpJPLVs8557fga37/xHp4tNQTS9Pkhnv8A/XvI+R6nH5n86wHayGlxokMgvvMy8hb5CuD0Hr0q8TOnK0ea9k9fV3XT+u5nhadSF5ctrtfgrPr3/wCGOuvLiaGbwesUropSPKqcA5Kg5/Wp7HEfinxK6fKyQsVI6g4BzWVYeItN+y6cNSsJJbuwG2F0fAIGMZ+mB+VUtO8RNb65d3t1CJorsMksa8fKfT6YrrWJpRcXzaNp+nu2/M4/qlZxlHl1Sa9fevp8i3NK8/w9Uzszst5hSxyRx/8AXrlK39b1m0n0uLTdJtZLa2SQyMZG3Mzf5/pWBXm4ycZSiou9klc9XBQlCMnJWu27eQUUUVyHYFFFFAHoKHdUoOKrA4NTxnPWv0Q/OB+3NGMU8UuM0AIo5pw6UY5pQKAFjH7xatjrVaMfvFq0etADqWkpRSAUUopBSigCSL/WL9atdqqxf6xfrVrtQMBSjrSClHWgB3cU1+lO7imv0oAbRRRQBynxO1T+zfCdwgTe15/owyMgbgck8/3Q344rwN09K9D+KuoG98SfZVLeXZoEwQMb2AYke2Nv5VxM/NBaIrNcGtZDhRVK0QbqukAECgZcVyVhX8almy6sfQVCrgSj2XFWEkBTHqaAGRDdFn/ZqEhizDPSnW7KYpFB+6aiLfvCQaAJIQFxz3qZCKorL84HvUnnhTQBOzjbPg87eKhMgKpuPIUVWE/ExxzjioN5mlRF68ZqJzsVGPMbunpu+atm0XL7j0Ws+1TyowfatSIbLfPdq4m7u52pcsbEjHMmaduINQbsDJpwlAWmCJDO6SA9qm+0l3HNU3mG3mo0uUjcEmgZsfaW8v71c1q2um1d/mrTn1OMQ/Iorz3xrFLdxS3EYO5fT0oSb2E3Yw/E/iKbUrnarEBeMirfhvVzbHaQWY9Sa5i3t94yQSa6LSNMaUqyjpTUHchyR3X2gT2x/wBoZrifHdrv08OB9w5rqoR5USg9QMVmeIYvO06VCP4a66aOepI84sjmMVZbpWdaOUleM9jWhnIq0QQmpbTm8g/31/nUTNyan06F7i/t4YxlnYAVFR2RUdz6H0jV0W2iDEZ2gVdfWYc9Rmue0rQZ1gUSOFPtU91oVwFJjcE+9cUpyXQ7EoG9Hfxyc81Mk6N0P5iuMgsr6JiHwf8AdarVrNcrNt+b8alTb6D5V0Z1gcHvTgwrPhkYgZqYvitEIt5BOMiknQKucisi5uZEcbTSvqJMfzmpKJJDkkVk6qu9CtP+2hnJzVeWfzHNXEh6mF5QhVBk5EgNOnwt3KNxxmn6k4RicDqKSYAzueOQDXXHY5ZRGNxGRmqW773NXXK7TWazKCeatGRPGSMHdV0sduaylkHSrRlGwjdSYIsFtyXAx1UGnRyYi6dqzlucPKM/wU6CffAOaQyeWTHJ4rMnkEl3EnXHJp9/OVGeoArNsJfNupHPGBgUxHSRMOnapo5ByMVRgIwozViAn5x1pgWGkBB4pwcbk46rUIB9KjdyPLosMkuMNgU2yfZMAe/FNY5BqANiTdUVaaqwlB7NF0qns5qcd0zYPWkqETbkDDuKjM9fAypyjJxfQ+8hUjOKkupaoqqJ/eniYVPKyronopgkBpwYUrALRTS+O9RtLjvTAnoqt53vR5/vRyiuWqKred70ef70coXLGKMVW8/3o8/3osFywaKhWXNSBgaLDuOooopDCiiigDvVGalX2pgGTmpBX6IfnBMhyKlFQL14qZTQA7HNAHFOXrS44oASP761a71VT/WLVsdaAFFFFKKQCilopQOKAHRf6xfrVqqsX+sX61aoGOWlpq06gAP3hTX6U7uKa/SgBtRzyrCm5vwFLLIsS5PXsPWsjUroQWdzdTbiIo2cheuAM4FArnhN7cG7vLi5ZdjTyNKVznBYk4z+NVO9XHi/d1WERBpo1JrVeSatbczKvqcVHap+7zU8C5mJ/ujNIAd/3jEDpxUobA6VGiZUHPU09hgNz1FAFKOXZPKv94UjSYA+tV5iUmQ+pxSSZHJpkj/MPmUrymqwJ8zNPyaYBvZc/wC1WnoNtunaQ1lVteHf9dMvsCKxq7G1FXZuTcIa0lTFnGx/u1RnT93zVqSbFmq+i1xo7JFaaXitHR/D+qa2qtaRCK27zynav4dz+FangTw2NWc39+mbKNsRxn/lqw9fYfr+Yr1NVCKAoAUDAA7VvCnfVnNUrcuiOFsPh3aIoN7ezzP3EahB+ua018CaGFwYJWPr5pB/SrfiPxPpugoPtrs0zDKwx8uR647D3NcPd/Flo5Mw6RmPP8U+Cf8Ax3itGoxMb1Jam7ffDbSpwTb3F5bv7OGH5Ef1riPEnw/1TTYHePF/a/xNECHA91/wzXe+EviDpniCdbV0ezvW+7FKwKv7K3c+2BXZ59eKpRXQnnkj5SXR7MsZYo+hx14rXtLeO3XgAV6L8TvCiQxSa1pkYQZzdRKODn+MD69fz9a84WTOKqxancJ2AJqjfEPasvtVq4PFUJG5waaRL1PML391qsqdOanzxSeLI/s+tBh0YVWWfIHNJjRM7YNdf8LbVLnxRHLOflhXcB79q4gyZro/B2pDT9QEpbbnArKexUNz6QSUHpUrsClcTZ+JomiVsjkA9aur4liK4yPzrlcjqidHayW8WoQNdRq8BbDgjgD1/Cu5/sLTc5FlDn6V45Nrcb9HFeu+EL/+0fDllcE5JTYT6lSV/pW1Gz0ZhXTWqZyHi+yXSdSRoV220y5UDsR1H9fxrp/+EWsJEUs9zyP74/wpvj60Fz4fkkAy8DCQY9Oh/Q5/Cucj8X6+8KvBp0cqHgMkEjA/ka0sk7EJycE0zoz4N0s9WuP++x/hUEngXSXGC91/38H+Fa/hy6vL7SLe51GEQXEgJaMKV2/MQOCSegB/GptbuZrLSL25tYvNuIoWeOPaW3MBwMDk846VfLHsZ88u5zw8AaQP+Wl3/wB/B/hTh4D0j+/d/wDfwf4Vyy+NvFx66Gn/AICS/wDxVTp4y8WHroif+Ak3/wAVU+72L9/uHj3wfpuneHJ7y2M5mjKhd7gjlgPT3rzlJlBXP92u08SeJ9W1Kwm0+/treDdgsBGysCMEdSa8/uYjC6tQprZFqErXZ0HhzRZvEeoS2VpLHFIsRlLSZxgEDt/vCtt/hPqh/wCX+y/8e/wrM+Guvafouvz3OqXH2eBrVow2xmyxdDjCgnoDXor/ABO8IJ9/V8f9u03/AMRWpgzif+FTat/0EbL/AMf/AMK1fDnw31DTdas7u6u7OaCF9zoAxLcH1Fb3/C0vBv8A0GB/4Czf/EUv/C0fB3/QYH/gLN/8RQFzq/7Psv8Anztv+/S/4Vi+L/DiavoM1lYR21tO7KRIUwBhgT0HoKz/APhaHg//AKDH/ktN/wDEUf8AC0PB/wD0GOn/AE7Tf/EUCODuPhBrMw+XU7Ef99/4Utp8HtWgXB1CxJ743/4V2r/FnwUjbW1oA/8AXrP/APEVNF8UPB8v3NXz/wBus3/xFA7nHzfDLVLaCSV72yKxqWIG7sM+lcZbPz0PNexXnxC8L3NjcxQ6nudomUD7PKOSMd1rxuH5GOfWmgRYmk2ivR/hHptvd6VfXV3bQzK04jTzEDYCjPGf979K8vupOK9+8EaYdJ8MWFq67ZQm+Qd97fMc/nj8KGDMf4jjTtI8LXDpZWqTTkQxkRKCCeSenoDXmfhbwreeKYrp7O4ghEDKp8wnnOemB7V2nxS0fxD4gvrOHSbAz2FupYyefGu6QnB4LA8YH61e+FGg6poUGpLq1r9nMroUHmI+cBs/dJ9RSJOfHww1YR7Rf2fHpu/wrs/DXg+ysNHhttVs7C8ulLFpTCGJySRyRnpxWz4j1iDQdHuNSu0keCHbuWMAsdzBRjJA6kd64v8A4W5of/PnqX/fuP8A+LrgdPDUKjnLRs7o1MTXpqEbuKOsn8MaM8EiR6VYI7KQrC3Xg469K86X4YaqOt9af+Pf4Vs/8Lc0T/ny1L/v3H/8XXQeDvGNj4qkuksYLmI24Ut5yqM7s4xgn0qZ08JiWo6X8i4VMXhYuSul5nA6l4D1DS9NuLya7tnSBN5C5yf0rl0evbvHX/Io6p/1xNeGQ/dFeJmeFp0JxVNWuj3cpxVTEU5Oo72ZbtIhcXtvASR50qx5HUZIGa9E/wCFY2f/AEEbr/vla82t7j7JeW9zt3eTIsm3OM4OcV6R4Y+IcmteIbTTDpqwrOX/AHgm3Y2ozdMe1Xliw8rxrLVvQzzOeJi1Ki7JLXYUfC6xz82o3ZHsFFaFh8PNCtiDMs92f+m0hH/oOK7LFeUeMviVf6XrF5p1jaW6mBtnmyEsTxnOOK9ipQwuHXNKK/M8anXxeJfJGb++xPoPw+stU0axvZb28R7iFZCF24GRnjitD/hV+m/9BC+/NP8ACum8Ff8AIoaNj/n1j/8AQRVHx94ml8L6bb3MNuk7SzeVtdiMfKTn9KFhcNGmpzithfW8TOpyRk73Mj/hV2m/9BC+/NP8KP8AhV2m/wDQQvvzT/Cuc/4W5e/9AqD/AL+H/Cu1+H3imbxVZXU89tHAYZAgCMTnjOeaypQwVaXLBK/zNarx1GPPNtL1Rg618P7DTNHvLyK8uneCJpAH24JA78V59C2RXufjL/kU9X/69n/9Brwi16V5mb0IUpx5FY9XJ69StGXtHcuUUUV4x7YUUUUAegqKkFNUU8V+hn5yOUVItNUU4UASr1/CnHoayZtUYXMtvZWdxdzRMEkZQEjRiobBdiAeGU4XJ5pVg1e5+a4u4LGL+7ap5jD/ALaSDH/jn40AakskUCebPIkUa8szkAAfWqB8Q2shxYRXGoHON1smY/8Av4xCH8GJqK20nSRcJJKy3Ey9JbpmmYH2LZC/8BArB+Iema7bWr3sWoPPpvVhEAhjHqcdV9658TiPq8HPlbt2OjDUPb1FDmSv3NjSvEV9f2NvdrpH7qZA4WO7QuAfZgo/Wrx1qZDh9F1Mf7phf/0GQ0z4dWYfwdohxnNnFz6/KK6s6ap/hrZO6uYNWdjmhr9sAfNtdUiI7Gwmb9VUj9aVfEukAjzLwQ57zxtEB+LACugOlJ6UxtMbszfmaYjJt9f0eWQCLVtPcjstyh/rW1HKkqB4WWRD0ZTkVTl0hZP9ciSf76hv51mTeE9MkkLSaXp7E9zbJn88ZoC50S9adXMHwvaR828LwH+9BPLEfzVhR/YUqf6u91SP1xfSN/6GWoGdPUVxKsSZbn0Fc4bDVEBEes6io7blgf8AnFk/nTHttb3bhqcUj/8ATeyBH/jrrQBpu5dtzHJNc/47vDaeG7gq6q8pWMZI+YEjIGfbNWCNdXrLpkn1gki/kzVyvjbQPEGvS2skSWKGFWUobl8HJHIHlDB9ck9B0qri6nFb8pUZWtNvCfiSFQW0+OUekN1GSP8AvorUTaNrcbYfRL/jugST/wBBY0i0ytEcDFSo2xZOfvcU2aK7hB83TdSTHUtZSgD8duKhkvbeKKMSSJGWP/LT5ePxpFFtWIVVOMe1Mkkz06e4xUKXdu+WhnhcDj5XBpztlwCBjrQBRv8Aop9DTWO9BTbxwz7fenQr8uKYhFXnipljz1p8ceDzUjDHSgRWaPFaejzLBquH/ijGKpMPnpQm7UbV/wAKyqbG1N6nZyASR0JA9y0NrCMySusa/U8U7biGtDwMgufF9ijcrHvkI9wpx+tcsV7x0TdotnrWn2kVjYwWsC4iiQIv4d6qeJdWj0PQ7vUJRu8lPlX+8x4UfmRWp3ryb9ofVDaeH9MtFYg3FwXOD1CL/i4rs2RwJczPOb/WJL+6lub2ZpJpDlmbqaz5LtM8n5a5b7TNK3yk16bpvwt1/UtGtbqGawEdzCkyb5WBwwBGfl9DWCTk7nVJqKsc9kqVkiZldSGVgcEHsRXsGm/FfTU0+3XULW+a7CAStHGm0tjkjLCuRj+FXiXYA82nf9/m/wDiakHwr8Q95dP/AO/zf/E10I5TsZvifoN1byQS2OotFIpVlMaYIPBH368nl8ss0kBbygx27gN23PGcd660fC/xAP8AlpYf9/m/+JrlJoHsb66sbnb5kUjQuR03A4OPypjRFPJxWNezcnFS3l7Fbv5U8qrJXsHwo8FQJaW+vapEJLmUb7aNxkRr2fHqeo9B79Ao8lX4ReJ/FZguIoIrGAkfvbxyuV9QoBP5gA+tdNZ/s4y+WDdeKFVscrHZFh+ZkH8q+h64HxJ8XfBnh/UZLG91bzLqM4kS3jaUIfQsBjPtnIpNkXPLNQ/Zz1CKInTvEdtcSc4E9s0Q/MM38q8x8XeB/EvgyQSa1p7pa7tq3ULeZCx7fMOn0YA19f8AhLxjoHi63ebw/qUV35f+sjAKSJ1xuRgGAODg4wcVt3dtBeW0ttdwxz28qlJI5FDKynqCD1FSPmsfEGlazIQsS73Y8KFGTXSx2OuSxh7e1f8A4GCK7vUPhjaeEfHT39qC2kToXtom5ELZ+ZM98cEE9vpmumSSLaAqgVxTpa6nbSqe7scL4M8DeI/EsN0xurbTmgZRiVGfdnPTBHpXf2Hwy1m0QImvgIP4VDgZ/OtLw/4ht9FS4+0QyyByCPLAzxn1+tej1vTpxsY1a07nk2vaDfaJbQm51J7lZSUK5Ydvc12ng27tbfw3apLcwxsC+Q8gB++1U/iPG00OmRRrueWfYoyOSRgDmuVuPCWuOMCyOPTzk/8AiqrWMtEJWnDVnrSOHUMrBlPII70yeeK3j8yeVIk6bnYKPzNNsYjDZW8TfeSNVOPYYrnviHpt9qvh42mmw+dM0qsV3hflGe5I74rXZGHWxvQX9pcSeXb3VvK+M7UkDH8gas15f8PvC2s6T4hW51G0MNuImXd5qNyenAJr1DNCd0Nqz0PIvG/zeLr9f9z/ANFrXLahbo8Z4rvPFnh/VbnxFfX1vab7YhWD+YgyAgB4Jz1BrkJ1VsjHNc07pnZSd4nJXEO0HivS/gbZ209rq5nt4pSJIwN6BscN61w+pQjYcCtr4faJrGrwXp0PWX01Y2QSbc/OSDjp6f1rem7owqw5T27+zLD/AJ8bX/vyv+FH9mWH/Pja/wDflf8ACvOv+EK8af8AQ5y/+P8A+NH/AAhXjT/oc5f/AB//ABrQwsei/wBmWP8Az5Wv/fpf8KP7Msf+fK1/79L/AIV51/whXjT/AKHSX/x//GkPgnxp/wBDrN/4/wD40BY9FOlaeTzYWn/flf8AClXTLEdLK1H0hX/CvLx4C8eedu/4TybZ/dw/+NW08E+NR18aSn8H/wAaAseceLoli8aawsKhEFy4AAwB8xqu747+lUdUW7t/EOowXs7XFzFcyRySn+NlYgt+OKXy5X700Wjqvh5pset+LbeGY5ggH2hwf4tpGB9MkZ9s177d+elpMbNI3udh8tZGIUt2yRzjNeCfDLUbTQvEb3eqTeTbm3dN2xm5JUgYAJ7GvZtC8VaPr1zJBpV01xLGu9x5EigDOOrKBSZLLmhWk1jpFpb3comuUjHnSL0eQ8sw+rEmobHUBdeINUtFOVtI4VI9HYMx/QrV2/u4rCyuLu5bZBAhkdvYDNedfBrUJdWu/E2oT58y5uUkIznaMNgfgMD8KQHoOqafa6nYyWl9Es1tJjehzg4II6e4FYn/AAgfhj/oEw/99v8A41r67DfXGlTxaTdrZ3zbfLnZA4X5hng9cjI/GuT/ALF8c/8AQ123/gFH/wDE1z1Ur6w5vu/Vm1JyS0ny/f8AojV/4QPwz/0CYf8Avt/8a1dG0TTdFSRdLtIrZZCC+zq2OmSee5rl/wCxfHX/AENdt/4BR/8AxNH9i+Ov+hrtv/AKP/4moi1F3VJr7v8AM0kpSVpVU/8AwL/I0PiRfw2fhW8SVv3lwPKjXuxJGfyGTXjEP3RXb+IfA+sPbXWparrS3jwRNJhkPQDOAM4HSuIi+7Xg5tOcqqco200PocnjTjTcYSu76ml4fs4dR12ztLkExSvtbBwcYNeraP4G0XSdTh1CzilFzFu2FpCRypU8fQmvHrW9m069hvLXb58Lbk3DIzXpHw38Saz4g1C8+3tD9lgjH3I8Hex47+gb9K2ymVH4JK8r6aGGcQrfHF2jbVXPQq43W/AGh6jd3V/cwzG5lyzESkDOPSuyry/4jeKNe0LxBHZ2Rg+yXMSmLdFk5zhhn68/jXt4lwjC9RXR4WFVR1LU3ZnaeCMf8Ifo2P8An0j/APQRUviPw9YeIbWO31JHaON/MUI5XnBHb61yGmW3j3TtOt7K3h0fyYIxGm5iTgDjNWPN+In/ADx0X82/xqI1E4KMov7jR0mpuUZr7yf/AIVj4c/54XH/AH+auh8PaDp+gWjW+mQmON23sSxYscYySfpXL+b8RP8Anjov5t/jSeZ8RP8Anhov5t/jSh7ODvGm0/Qc1VmrSqJ/M3fH93HZ+ENSMpA8yMxKM8lm4H+P4V4jadBXZ634W8aa7MsmqzWjqmdkaSbUX6DH6muP8p7aeWCTHmRsUbHqDg14ebTnUmpOLS8z3cnhCnBxUk31sWKKB0orxj2wooooA9EUVIBzTVFSCv0M/ORRThSCnKKAK+ixxiXWZpThEveff/R4K6Gz0v7Rtnvlz3jg/hQe/qawNATztUvYW5T7eZWHri3t8Cut1W5+z2TFTh3+VakCUWdrJFxFE0ZH90dKxbqAWdybRxvtLkEBW5A9RVzQbnKm3c8rymfT0qHxH/x8aeuCW87j6UNXBO2xm/DhQnhTSFUAKLZFAHbAwK7CuR+HP/IraR/17r/KuvNGwMKKM0UDEwPQVz+veJbTSNStrSaF33/NKwRvkXnG3AO9s87RyACfTPQ1kaxoNvqt1b3E0s6SW53R7CMA+vIP+QKAM3VvFdpp+oLafY5p5WkjUeWV6MM7sE54Hapx4g05tWew2ziVZvILeXld+BgZGcfe70ur+FLPU9ThvpZ7lJkkSQ7X4JUfLgHgHPOcevrSjw55evS6nBfSxmSVZjFtBUkLtIPqCuceh55oAda6xpl3qUlhC7G6jV2ZCvZW2nHr0z9KLbVtKuobiWK5Ajt13Ss6MgQZI53AehqG08LxWeoG4t3Cx+RLEIVLKuWfI4BxgA4/DNQaV4XOl2d8tt9na4njCKX3FM4y2VJIxnOOvagDRtp9OvbOW7trqGS2i3eZIDwuOTn0wKfLDbRbPOlij3/c3MBu+nrXOWPhe+g8M3GkSRWzSyy4Fz5hIRCCN2MAkqOAM4J54HFQ+I/DOo6hplgsMCRzWsUyNGJd4bPAwzc/N1wenTNAHU/YInPysjfQ0jaUP7tcpq2iaodd0KYWrzRwND50qMuAVX5sAYOMgfmfpVmz0++h8S6nePC4t5vO2/PJ8nHBwPXb25GfU0Abp0rB4BFRvpjN94ufqc1Q8AxatEb2LWWnJEcLQ+axJCkN1z/FxyKkuNW1Cwvb4zRvLbhneIGPaqIuxSCwHTLF88nGfSgBlx4dtZmJmtLaU+skCMfzIrKm8CaG/LaLp2euVtlU/mADW3d67dHULW3t4oUWa0eXEyk4kCk4yOwwM/7wq7ouotqF9eQvHEEhCYK5ySVBP6/T8etO47nEXHw40KXBGneWR/zyuJU/k9Vn+G2lLkxnUIs9kudw/wDHwx/Wum17Wrmy1wW8DRLEh2rEYt3nkIHYFv4PlPB6ZHPFdbHGksaumCrDI+lZU60akpRXQ1qUp01GUuux4+3w3RATFq2oKe29InH44UH9a53xP4Zn0O2t7n7f9oSScQsjW+xhlHYEHce6enevoGS2Qr0FeZ/GKJYvD9o3/T+n/oqatjO55b/FT5mEao/oaiifc1O1NSLAkdRzUVNjSD1Ohi1OJrPG6tb4V3qP46RN2S0EgUe/B/oa8sieRxxuxXQeAdQGl+ONGuZiVTz/ACmPoHBTJ/76rmi/eOib91n1HXh/7S6v5nhhsEoWuEPoCfLx/X8q9wNeefG7R21LwpFdRrufT7gTkY52EFW/9CB/Curc4k7M+f7SxVSTivpPwr4o0K28L6PBPq1jHNFZwo6NMoKkIAQfyr5+twrRDb3qR4cpT5UVvufRzeNPDSkBtd01Sembhf8AGtPS9VsdVjeTTru3ukQ4ZoZA4B98V8kavaYRZE6rzXtn7PL7tA1P/r4X/wBAosS1Y9XzXzT4rmVPFGt/7N5N/wCjGr6Wr5e8WN/xVuvA/wDP7P8A+jGoKgcdplpL4i8faZYyjcl1cpE4zjCZ+Y/985r7RVVRQqAKqjAA6AV8qfDKBYvi3oDSYKNJL+B8l8frivq2hsJnC/GnxDN4b+H2oXVo5S6n220TA4Kl+pHuFDEH2r4hnYySMQT1ySK+tv2olZvAVif+WY1FNw/7ZSYr5HfKu1SKJu/D7xNc+EPGGnatbSMqRyBZ1HSSIkb1PrkfqAe1ffaMHUMpBBGQRX5xSdK/RLRP+QNYf9e8f/oIoFIwPigg/wCEJ1C5I+a0UXAPoFPzf+O7q8RsvE0ZwzP+te6/EraPh34pLED/AIld119fKavh601GdAoMh9qznDm1NKUraH0FJrNtLBuLivoOvgiXW7hY9pevveinGwVnexxnxFuo7S58OzTuI4lv0LuxwFGQSSfStn/hK9A/6DOn/wDf9f8AGuH+P3/IC03/AK7t/wCg1mfB3whY6n4aup/EOmbroXbKnm7kPl+XGV4yOOSc+9O75tASjyJs9LHivQG+7rOnn/tuv+NO/wCEo0P/AKC9j/3+X/GqKeA/DKfc0mIf8Df/ABp3/CEeHP8AoFRf99N/jVak+55lv/hJ9D/6C9j/AN/l/wAaX/hJtE/6C9j/AN/lqp/whHhz/oFRf99N/jTv+EK8Pf8AQMj/AO+2/wAaNRWh5k114g0iSznWPUrRi0bAASjnivJF+Y+tdD8Q9IsdJudPGn26wB1ctgk5xjHU+5rnoWA5NYVXrY6qEUldFa9tg0Tbxwa0Ph34p0zwn/aUWoi4JndGTy03cAH396z7+7yCP4a9S+HdraXXg+wlltoHdvMyzICT+8YU6W4Yh+6ZL/F3w2nVb7/v0P8A4qm/8Lh8M/3dQ/78D/4qu6/syw/58rX/AL9L/hR/Zmn/APPla/8Aflf8K6DjOG/4W/4Z/u3/AP34H/xVI3xg8MKMlb//AL8D/wCKruv7MsP+fK1/79L/AIUf2Zp//Pla/wDflf8ACgDztPjf4SeXywNR3Zx/qB/8VV1Pi74Zb7ovv+/I/wDiq7UaTp2ciwtM/wDXFf8ACnjTbIdLK2/79L/hQB816ncQX/iPUryEHybm5llTcMHDMSM/gamKoE9K6P4zrFaeMbRII44gbJGIRQAT5kn+FcgXLxjFMpFlIpLh0ggUvJKQqoOpJr3jwF4aj8NaKISFN3Md87ju3YfQdPzPevIfh04/4TbSVPVnf/0Bq+gqTEzyT4t+ILnUZf8AhH9EgublVYG7aCMvuPaMY9MZPvgdjVj4DIyafrSyRNFKl0I3VlIIYLyCD0IJr1OuI+F1qYU8TznkXOu3kiH1UOFH6g0kI7Y1lxazBJ4lm0URuLiK2W6L8bSpbbj1zxWpWTHokcfimbXBM5lltFtDFgbQAxbOeueaYEj6vCniGPRykn2iS3NyH427QwXHrnmku9XhttdsNLeOQzXiSOjDG0BACc/nTX0aN/EsWsmR/NjtmthH/Dgtuz9eKdeaRHc69p2qNI6yWaSIqAcNvABz9MVn734/gWuX8PxGeLP+RW1f/r0l/wDQTXglv92ve/F3/Irax/16S/8AoBrwK3+7XgZ38cPQ+gyH4Z/IW5Py17N8NNJ/svwxC7jE90fPf2z90flj8zXlnhvTk1jxFY2MpxHI5L+6qCxH4gYr38AAYHAFaZNR3q/InO69rUV6iiuQ+JWhjV9EjuUwLnT389G9V43j8hn6gV19cxd69aaha+IdPQ7LyyhkV4yeo2HDD1HP4H8K9uqoyjyy6nh0XKMlKPQP+E78NYydWh/75b/CrukeKNF1e6Ntpt9HcThS+xVYHA78j3FcpZfC/QZ7OCR2vCzxqx/ejqR9K2/DXgbSfD2om9sPPMxjMf7xwRgkH09hWFOWJ5vfSt8zaosMk+Vu/wAjqqwtV8V6JpV21rqGoRwXCgEoytxkZHQVu1yHiDwDpGvarJqF6bkTuqqwR8DgYHat6nOo/u0r+ZhS9m5fvL28i0vjjw433dUh/wC+W/wrx6/kSbVr2SI7ked2UjuCxNehah8N9Es9Oup4mu98UTOuZB1A+leZ244Jr5/Np1rRjVS+R9HlEKN5SpN9Ny2OlFIvSlrwj3gooooA9HXrTxTVFPAr9DPzkcOtPWmgU8UgK3hj93r1+TnEl2yD6/Z4K6i/sJbyZPnVYkGB3J9a4nw/qFrc69rmkzSLBeLeJNbv/f8A9GhyB7jHT0ruI7y8iULPZvIw/jj6GojOM78r2LnTlC3MtxbbSY4ZVkMjs6nI7CsjW72KEXWqTN/otkhC/wC03t+PFaN5NM8DyXjrY2SDLuzckfXtXkvj7xMNXZLLT18vTIDlexlb+8R6en51xY/HQwlNtv3nsv66HZgMDPF1LJe6t3/XU5rwjNIdIs3V5FZow3yuRjPOK6eO9vExsvLkfSVv8a5bwf8A8gKw/wCuK10cY4r0EcUtHY0Y9Z1VPu6jd/jITVqHxBrC/wDMQnP+9g/0rKVc1Mq0Em1H4m1lf+Xvd9Y1/wAKsp4q1cfeeFvrHXK6vqVvounSXl23yr8qIOsjnoo+tcBeeJdYvJ5WkmS2tmI2wQHAA/3upNJuyKjHmZ7knizUx96K3b6qw/rUyeMLwfftID9CRXg9lrepoVSwv3SQc4kkDA+2D2Ndb4a8YLf3kOn6ta/YryXiJwf3ch9OehP5VKminTaPUV8ZSfx2A/CT/wCtTl8bR/x2Eo+jg/0rmnjxUTxVZnY69PG1ofvWtwv/AHyf609PG+ln7yXS/WMf41wskfWq7pSGeip400Zussyf70TVMni7Q36X6r/vIw/pXlbrURFAHr6eKNFf7upW/wCLYqxHrWmSfc1GzP8A22X/ABrxTHNJigD3Jb2yk6XNs+fSRT/WpovJ3M8Xl7mxllxzjpXguxf7q/lSjI6cfQ0Aey6joNpfXv2h5J494CzRxvhZlByAw/TjGRwa2MAdO1eDJPPH9y4nX6SMP61Yj1PUE+5f3i/SZv8AGpjCMW2luU5ykkm9j3B/umvLPjX/AMiza/8AX/H/AOipqxxr2sJ93VLsf8Dz/OuZ8aazqV/Z2cF5eyzxfaw218YyIpfQVdyTFsck1evUMlqye1Q2igYq6xBjYn0pSWhpEw7e3KKVx171n6hG0h+QdP4q3xG0kbBO/SqF8oi2wjr/ABVgonRKSsfRnw68Qp4j8MW1wzD7ZEBFcr6SAcn6Hr+PtXR3EEdzbywTorwyKUdW6Mp4Ir5q8Ha5eeGtRW8ssOjDbLCxwsi+h9D6Ht+de8+GPF2leIkUWVwqXWMvbSHbIvrgdx7it0rHK0eI+NfB194VvpHRHn0p2zFcKM7Qf4X9D/P9BzH2n619aModSrAMp6gjNc3feBfDN7IXn0e2DE5zEDFk/wDASKpMVz5xjEl7LHbW8TzTSnakaDLMfQCvob4X+Fz4U8LRWs+DezMZ7jByAx6L+AwPrmtjR/D2k6Nk6ZYW9sxGC6J8xHoWPNaU80VvC808iRRINzO7BVUepJ6UmDHEgAknAFfJ/iS7ju/EurXNs++Ca7lkjYd1Lkg/lXovxN+KFte2s+keGZ/NjcFLi7ToR/dQ9we7dMdOua8m6LwMCguKJdN1E6Tr2m6moJNpcJMQO6gjcPxGRX15aXEd3aw3EDh4ZUEiMOjKRkEfhXxlfHj8DXqHwb+KNrpVvFoHiOfyrVTttbpvuxg/wOewz0PbvxSYpI9R+LnhuXxV4C1LTrRQ16FE1uD3kQ5C/iMr+NfC14stvdSw3EbxSxsUdHG1lYHBBB6Gv0XikjmiWSJ1eNhlWU5BFcz4i+HvhTxHdm61nQrK5ujjdNtKO2OmWXBP40iU7HxV8O/DFz408X6fpNrEzRvIGuXAOIoQfnYntxwPUkDvX36iqiKqABVGAB2FZXh3w3o3hu3aDQtMtbGN8F/JjCl8f3j1P40eJ/Eek+F9Lk1DXL2K0tkB5c8ufRV6sfYUAzhf2jvECaH8L9QhD7bnUitnEPUE5f8ADYGH4ivjOMnArsfi78QLn4g+JzdlWh0y1Bjsrc9VU9Wb/abAJ9gB2yeOj6DNBUUPbc9fowK/OyJeDX6JMyopZyFUckk4AoCfQrX2nWd9JA97bRTtA2+LzF3BG9QD396r6UQb3VgOALpQP+/EVeb/ABA+Nmi6CstpoJTV9THygxt+4jP+04+99F/MVf8AgLrd/wCIvDGq6lq03m3cupvuOAAAIosAAdAOlIk9D1F2j0+5kjO11iZgfQgGvnuH4g+Jv49Vf/v2n+FfRNxEs0LxN911Kn6EVxP/AAq3w1/zwuf+/wCaUk3sXCSjucJonjfXbnVrCGbUZGjluI0YbE5BYA9q90XoK4+w+HPh6xvIbmK3maSFxIgeYkBhyDj612NEU1uE5J7HnPxWXdeaX/uyfzWuRWIY5ro/ildpLrFpbxNmS3jJf2LEYH5DP4isG3UvGMnmsKnxHTS+EzNWt8QFkFeq/Cz/AJEXTM+sv/o16861FP8AR8V6R8MRjwTp/wBZv/Rr1dJakV/hNHxjPLa+E9WuLeR4porWR0dDgqQpwQa+fofGHiE9davf+/xr6Uu7eK7tZbe5jWSCVSjow4YHqKxP+EL8Of8AQItf++a3OU8Gk8XeIv8AoNXv/f41Tn8YeJl6a5f/APf419C/8IX4c/6BFr/3zSHwV4bPXRrQ/wDAaB3PCfg54r8Uat8RtPtNS1S/ubA+cZUkkLLgRNjP/AsfpX0vWTpHhrRtHuHn0zTbW1mcbWkjQBiPTNarEKCSQABkk0CbueCfHolfG1kQf+XBP/RklchaSgpg1L8XNbfxB43up7AFrS3VbaKTPDhcksPbcWx7YrkBLex/3vwplJXPQvDemX2pa3BFpFwIL0BmjlLlduAc4I9q7v8A4Q7x3LgSeJiidflupcj8l/rXmXwt8SQ6N4wtbrWpHgs1SQGTYz4JU44UE9favZrj4u+EIgdl7PMfRLZwT/30BQD0MdfhTe3gH9teJLq4TumGfP4sx/lXofhrRoPD+iW2mWhYwQAhWfqckkk/iTXDQ/GHS7zU7Oz0/TruQ3EyQ75isYXcwGeM+tbfxI8ZweGdOMEEiNq06nyo+pQc/OR6Dt6n8aQjrYJ4rhXaFw6o7Rkj+8Dgj8DkVkQ648njO40QwqIorFLsS5OSS5XGPwrI+ETM/gWzdmZmaSUlm6k+Y2SamtlH/C0bt/4jpUY/DzTTEaMmuOnjS30TyV8uWya783PIIcLjH40/UNZa28T6TpQjUrexzSM5PK7ADgD8ay7mP/i6llL/ANQqRf8AyKK1L3SFu/FGnaoZWVrCKRVjA4fzOOT2xtqWrjVuo/xd/wAitrH/AF6S/wDoBrwK2+7XvfjBlTwrqxY4BtZFH1KkD9TXg1uPlr57O/iifRZFtM6L4dr/AMVrpzenmH/yG1dP/wAJWda+JWk2Nkx/s63ab5gf9c/lPz9B2/P0x56SyYaJmRsEZU4OCMH9Ca1PhymPHumse3m/+inrmwOKlHloLrJfodePwkZuVd9ItL8T3cV87+OJZbfxxq7wSPG5kKkqcZBUAivojNeUaXptpqXxW1yG/gSeIRs4VxkA5Tn9TXt5hTdRQjF2d/0Z4OXTjTlOUldJfqilD8VLy2toov7NgYIgXPmHnHFdB4F8f3HiTW2sJrKOFRC0m5XJPBAx0966T/hD/D5/5hVr/wB81Z0vw7pGl3JuNPsILecqVLouDg9v0FFKhiozTnO6HVrYSUXyU7P+vM1q828a/EK68P8AiCbTorCGZY1Vt7SEE5GfSvSax9R8NaNqN211fafBPcMAC7jJOOBXVXjUlG1N2ZyYeVOM71VdHmdx8Tru+sprd9OgQSxlCwkPGRj0rlYDxXuA8H+H/wDoE2v/AHzXlHi62hs/FF9b20axQoy7UXoPlFfP5nQrxgqlaV+h9FleIoSm6dKNuv8AX3mevSloHSivEPdCiiigD0sCnAUgFOFfoZ+cjgKcBSU4UgPF/GF29r461nGWXz4zjOCD9ni5B7Vvad4/1iGJIYtRc54AmiVzn64rmPHn/I8ax/12j/8ARENUbL/j6t/98fzrzcXgoS5qsW4ys9U7Xsup6OFxs48tKSUo32kr2v2Ov1HVL/VGD6jdSTkHIU8KPoBxWVd1ZNVbvpXwzk5vmk7s+8VOMI2irLyDwf8A8gKw/wCuK10iCud8H/8AICsP+uK106Cv0tH5pP4h8a5qyiVHEMmrsSgikI5n4h6Vc6j4WmksXK3FmftAUdXUA7lHvg15fpWgS34in1TWHgt2xj7NCCR9S39K99mtEurK4gkH7uWNkb8RXmujaVYNYySy28TSohLFj3H8WO+a5q3uyujqw8eY5/VfBkUbxppviKa5m6jzokkQfUjkVL4E03Ul8d6dY6gyyRp++BiYlSqjOeeRyB+ddHbWFjfz9YZW8pD+7fGCBwSR+H5V0ngDT4YtYvmt/ljijIBJzksRn+VZxu3Zm9WFotnVtCvpUUsQ9K1GjHpUEsVdp5xjSx9apyJjpWzNF1qjLH1oAyZBg1A4wc1dmTBNVnHBFAFVhUbdamI7VGRQAUUUUAFFFFADX7VzPib/AFdn/wBfQ/8ARUtdM/auZ8Tf6uy/6+h/6KkoAS3+6KtSn5dvrVG3kxgVNPNgK3vTKNmxtgIxkc1zHidDHrq4PDAV2lnl4VOMcVx3ipc6/ED/AHaBli3X5RWRqisl0HjYqwwVZTgitaNtsYrKvZN8uKAbubuk+PvFOmKoh1aaaMfwXAEvH1YZ/WtpPjH4lj4aDTJP9+F/6OK4ZF4qOeP2oElc7a6+LfiiePbG9lbnGN0UGT9fmJFcprmvatr8TLrGoXF0h/gdsIPoowB+VUPL+WlQDPNA+U5zTG+zXbWzHHpXQyMFiznk1g+IoRbXEd4nQHmrMF0LiFWB4xigY65k3CsW7znpWrsznmqtxEKADQvGPiXwz8uhavdWsQOfJBDx/wDfDAr+ldbF+0L41tV2yRaRcH+9NbOD/wCOuK4G4j68VlXUWT0pE2PQ9U+Pvju9hMcV3ZWOerW1sM/m+6vNtd1rU9dvDd6zf3N9cnjzJ5C5A9BnoPYcVUkwDimUBYdDx2qyib+hquvJ61oWcZOPlzSLRLCnHzLXW+J/GfiTxOpXWtWuZ4Sc+QpEcX/fC4B+pzWBGn+zVpIsjpQDVyK1h9R+Jre0r4g+JfCFnJY+HtT+y28kpmZPIjkBchQTl1J6KPyrM+VIyx7CuduZPNkZm6Z4oaCx6APjZ8QP+g4P/AO3/wDiK0bT4zeN5AN+tZP/AF6Qf/EV5UK0rGPjOKl36AlY9TT4veMtnOsf+SsP/wARV+z+Kvim4UpcaudpHVYIlP5hc15S5IQ1FBeYOAf1qXddRq3VHsFrq4nYyzStJIxLMzHJJ9TXRabeoQOcivE7S/kTBUn866PTPEslsoAw3sTWDTOhSVtD1W7PmQMw7DNYdp4i1nT7WG2sb+aGBSSqLjAyST+pNc3ceNn+zeXFEplf5cE9q1SP3cRP90VrS3IqNNGv/wAJb4jz/wAhW4/T/Cnr4r8RnH/E1uP0/wAKyFZTUyba6DmsaU3irxDj/kK3H6f4UxPFXiMnnV7j9P8ACqhRSKYm3K9KAsX5vFHiTHy6vcfp/hWLqOua/e/ub/U7qaAn/Vl8KfqBjNaDqtQyRq/YUBYxri3+Xdiqf2YMMkCt2VR5JBqoINyECgDOFsp42DFA0mJvmKjNSsZYZNrjjtViOb5sNQBXs7CS1u4bm3cLLDIsiHHRlOR+tTalbXeoXD3t/cPcXMpJd2PJ/wAKtR3EG/buqxlW+4aAsdJ4S8a3fh/QoNMgsYZUiLEO7kE7mJ/rWb4j1/UNW1hdRiL2MnkiEiCVhkAk9ePWqUMeTUpVMYNA+UrG81F3ErX92ZwCol85twB6jOc4rR0Lxhrfh9rgxSi887bn7azybdufu/MMdefwqjtHb6UeUH4IoJaNHVPGOreJB9nv5Io4AdwihXapPvkkn86rxqFGMVl+T5NxuH3cg1rr0zXzGeU+WrGfdfkfU5HUUqThbZ/mNccVPoWoHRtbt9QWETNDuwhbbnKleuD61HTCnNeNTm4SUo7o9ipCM4uMtmdz/wALPuP+gTH/AN/z/wDE1x0+s3p8QXerWLtZzXHDBSGIHHGcew7VX2UbK66uPr1UlKW3oclLL8PSbcI7/P8AMv8A/CU+IP8AoKT/AKf4U3/hKfEH/QUm/T/CqWyjyxWaxddfbf3l/U6P8i+5F3/hKfEH/QUm/T/Cj/hKfEH/AEFJvyX/AAql5Yo8sU/rlb+d/eH1Oj/IvuL6+KfEH/QSm/T/AAqjcTzXly9xdSGSd+Wc9Txik2U4DFZ1K9SorSk2aU6FOm7xil8hR0ooFFYm4UUUUAenKKdSL0pwFfoZ+ciinCkApwoA8N8d/wDI8a1/12j/APRENULL/j5h/wB8Vf8AHf8AyPGtf9do/wD0RDVCx/4+Yf8AfFYV/wCHL0f5G1D+JH1X5nRmqt30q0aq3fSvzeB+kSH+Dh/xI7D/AK4rXUxjmuY8HD/iR2H/AFxWupjFfpiPzN/EWYVq9CvSq1utaEKZxTEWYErzfWUOn6/qdlEqxM8m+LI+XYw3Z+nJr0+BCTgDLHoK8g8a+IxqnjG5OmtFJb6QBbh1P+vJ5fn0DcD6GscQrxudOGk4zLVn5sAcyG22lf8AlmhB/X/PNeh+ArFIfD0dwYlSW5dnLY5dc4XNeSR+IDrGbOC2e25w7vgY9ge+a2vBvxBGgPPp+owST6Ss7eXJHzJAc8gD+Jc847fpUUY6m2IfNHQ9hZagkWpNNvbTVLJLvTriO5t26Oh6exHUH2NSSJXUcJmzpWdcLya2J04rOuE60hGNcLVOQc10F3pN6lqbh7ZxGBuPTcB6leoFYMooAqSDDVG3Wr9vZT3qyG2VWEZQPuYLjcSFPPbjrRqmkX2mw+ZewrEu4J/rFY5PTgHNAGdRWp/wj2s+SZP7MuNobaRj5vwHce9VYdOvJ2lWG3d5InEbp/EHOflA7n5W/KgCrRV690jULG5ggurSRJJ2CxDgh2PYH1p76HqqRSyPYTKkWd7HGFx170AZj9BXNeKf9TZ/9fQ/9FyV0z/drkvG0vk2FtIe1yP/AEXJQBnteLHGPmGaz21FpJAM5WsC4uHmfLEge1KblYLfAOWpmh7BoV9DcWqKkis4HKg8iuW8SSvNrm9uiDFefQ6hcQTiW3kaNx3Brbh1Se6O6ZyTRcVjekuiEIqluZjk1TZywzmracqooKLkPIFMnroPA2j2+t6tNa3ckqIltJMDEQDlRx1B4rmpZc0EiZ4pK3PFmkW+k2mgTWzzMb+xS6kEhBAY9QMAcfXNWfDtrb3HgTxhcywxvcW32PyZCuWj3SkNg9sjg0DucjqEK3No8TDORXL6RMYma2lG11OOa7jS7T+0NTtLPf5f2mZId2M7dzAZx361y3xA03+xPFd3HE/mJbzvAzgbdxViucdulJ73AvoqtHUTRg1t6Fe6G/he/F3b3D6s5T7JKj4RRn5twz9ex/CsmVduasRk3UfDcVjXS4BroLsZGRWRcR7mIqJDOdlGHP1poFXLuLaxqoTikIWMZkFdFaRARIRWJYR+ZOox1NejeFfDq61DqrC48j7Bp8l99zdv2FRt6jGd3Xnp0oKRiRxbvwq1FGAMEcmnwxZ4FNuj9mRnfsKaAztbuBHH5S9TWBjPFSXVybidnP4VFnBFSxkka5cLW9aW4VAKd4E8MXvizxFBpunhVdgXklf7sSDqzew/wFeky23w20tzZyza/qbodr3tt5aRk/7APb8/qapCOEtrZJXZMdVNc7e6fPaSFiPk9a9D1Gx0ux8RJFomotqFi8YdZGjKMuR91ge47mqupWqyoVZcqKGrjOJtLnHDHituxjWbkGpfEnh97K3hlgTKMmax9IvTHIIj69qxlGw0zprCyV9QhU92B/Wu9uWCqF9ABXK6GnmXsL9lBr07XrDw5o93Fb3q6zIXhSVmikiwNwzgAr/Wqpq2oSkcqjVPG2Kv6/o9ta6Xaavo91JcaZcOYsTLtkikAztbHHYmsMT+9amZqeYMVFvGVqkLkc0i3AytAGmzYPemtJVUXAY0kswApiJpTkUilVXnP4CqxnUjnin+fhOCKAHXCrPxgcVQKFXOQeKna5ZHB+WpmkDgNgUAU49P8zlHw1Tx2c6HG81PGy9QcGrkUvGDjNIDP+x30b+ZBIN391j1qnJql3ZSML+0cIf4lGa2pJth3Uq3C3C7XAYe/NAyjY6tZ3YAjkCt6Nwa0BxyOlY2o+H7Z2EtuTE/U7ehqmPttieH8yMdqBnQyKD1qxbtmMDOStZFnfLcAZGG7g1ftHxM49RXm5tSVTDNvdano5TVdPEpLZ6fqXaKn05rVb6A6gjvaZ/eBOuP/wBeKhungN1MbVWS3LExqxyQueM18go+7zX/AMz63n97lt8+gnNHNM3ijeKRQ/mimbxSeZQBJRQKKBhRRRQAUUUUAFFFFID1EUooFOFfoh+cgBThSClFAHhfjv8A5HrWv+u0f/pPDVGy/wCPmH/fH86veO/+R61r/rtH/wCk8NUbL/j5h/3x/OsK/wDDl6P8jah/Ej6r8zozVS76VbNVLvpX5uj9IkTeDv8AkB2H/XFP5V1cXWuU8Hf8gOw/64p/Kusir9MR+Zv4i9b1Ne6lZ6TbNPqNzHbqvVWPzH2C9SazdSujY6NfXaMFkggeRSegIHH64rx/DyyiWZmkmk5Z3OWJ+tMErnY+JfHV7qe+10zzbKxcYZgf3si45BP8IPoOfevM4r6DQfEkT3aN9huUCPsHTB6ge1b2zdIy7tvT6Y9KwPGcKvbWjgfcdlJ+o/8ArUmk1ZmkW4u6PRL3+ydL0NtUhngnt5yEtmgYMZJDwAPQ8856AVyxt1hyHbq2frXH6NZxtf6YI7lZN8zSPaoGXyivdh0JYdCOw5rv5QGO0jrx+HelCHKaTqOZLot9fac6XGnXM1tOepibGR6EdD+Nes/D/wATXniCO8g1GOP7RbKrCWMbRIrZHI7HI7V5EzbId4Xpium+Geoiz8XxRtxFexNACT0f7y/qCKsyaPXZxxVEAfbbQN9wzxqwPTG4Vfn6Vm3iq8bo2cMOxxQQydYYp/FM6SXF3bahLM6JJCoKsm3OGz7D09PWsuCO0tNPsbi5sku2vLtoDvcqI0DbOPfPNWJdXvVXJMBuCpjNyIgJtvpuz198Vl2mp3OnoY4BbyRb/MVZ4vM8uT+8vPB/rSEX7PSofP1y2WOV2triBY5EXfIFL9Cp+Vhx3GOSam8eRRzaVcXUiyGYXPyuUiG0bMeWzISeOTzz+lYFvq2oWc08trdMk07q8jlQxYqcjJ9Dk5HccVDqOqXN/bSW86WscUkhmkFvCIy8hGNzHPJoA7a0i8tYIJI4xclF/dtHb7icD/byfyqh4AmCve2zizMsl4eJH/eD5G3EDvjGBj1btXOHX9RNylyyaa1ymNszWSlxjgfN16VFZavqNiHW1u3SOSQySR4GHJIJz35x60AdZrmnPbahoFtDHDtN3lYmhVYycBmbAYkkAe3IGM1dvbWMx6lNGIyI3mCtHHHuXzMiQAlwQcg5yAc9M1xF3rF9dvA1w8RaCQSoVjC8jGM46gAY/OnSa5fv9pBFlsuHLyKbRDuOSQSTycZOM9KAMk/6oVxnxE/5A8P/AF9L/wCgSV2bf6sVxXxG/wCQPD/19L/6BJQB51JMVOBTFjd2yx4qeK3aSQFl4q6yoBjHFFjUpRxqDitayhAXNUY1XzDWtYFTGaLASr0q8qfMKojj86vB8MKYzt/hVx4kuv8Arwn/AJVw8vQ103gnWYtD8R215coXtSGinAGfkYYP5dfwrTuPA9lLctNa+KNFGkltwmkn/eqvoU/ve2RTZDKfxE/5Bvg//sDx/wAzTPCf/JOvG/8A24/+jjVT4gazaaxrcQ0vd/ZtlbR2VsWGCyJn5se5Jq94M8mXwX4wsXuraC5nS2kiWaQJvEcjMwGepx296QFP4f6heaf4s0pLOXy1urqGCYbQdyGRcjkcfUc1F8WdQ1PXNS1jS7u482zgvpjFF5ajbtZlXkAE8Ejk1V8OXMdnr+l3kxIitrqKZ8DPCuCf5Vu+ONGWPVNQ1i31XTLq0u7lpY0huA0hDsT932zg0WuM474ZS4+HPjmObG6GawVSR0zJID/Kt74aqr+PdDVlBUz8gjOflNYFs9rpXgTx3A1xDFdXcuntBEzhXl2yuW2jqcA846Vq/CTUID4o0e6upY4Y4pQXkkYKq/KRyTwKEI6+x8calF40g0i2t7KDw+159kfT0gUq6M+0sxIyWPXrzVXXfGd94R8U3GkeHLSzsNEspzG9tHCrm5A+8XZskk89CMCsazaJfHEVwXQQjUVkMhYbQvm5zn0o8eeTdeLdXmt3SSKS4dlkQ5VhnqCOooYzk/jholtpHj7WLexiEVusiuqKMBd6K5AHYZY1b+HWpePZ/D6WPw/0i2txA7faNTjto1eQk52vNJ8vAI4HOPrWv8bfI1Lxxq9zaSxXFu4i2yxOHVsRIDgj3BFO1eyXxh8PPC+m6D4i0fTLXT7cx6hp99eC2Al3Z85h/EDyc9s+pNJqwix8VtHu59H8Jazrg08+IphcW9/PZlSk5VhsYleNwHBx3Ptitv4ValqNloPiW3t59kVvp0txCPLU7ZOPm5HP0PFY+qQ6NB4D8LaJo2uWmsSWE9z5zxfLhmYMflPO3JIDHrjIrb8Am3jk1WxubiK0XULCS2SWU4RXOCMnsODQlcDitbvdS1y7W61O48+4VBGG2KvygkgYUAdSa9A1vRPG/h3R9KsPhxpZUy2yz3+pL5JkllbnYN54VfYf1zy/iLSv7Ajfz7m0nIj3k28okCnONpI7/wCIqr4lttP+JunaXfWOtabp/iW0tls7uzv5hCJwudsiMeCeuR6emOR6AyP4w6NqjeCND13xTpkdj4l+1PY3TxhB9qTbuSRgnGRgjjHftjHj6g55rf8AF/huLw2lkn9v6Vql5Nv86HT5TKsAGMZfoScnjtisS3Xe4pAj1j4NboPB3xAurf5bpNPSNWHUKxYNj8APyrM8L6RbaxJMl1q1jpixqCGuiQHyegwKf8K9fh8N6vN/aEBuNJvoGtb6EDJaNu4HqP5E108nw9sbmdrjRvFmhSaW3zB7q48mWMejoRwf84FNDTMXxH4fbwxq2nxG8t7yO5t1uo5oM7SjFgOv+7n8a7iO5/4Q/wAFWOq2kMX9t6rJJ5U8qBjbxJwdoPGScHPv7VyvxGu9Pn1DSbXS7wXsem6dFZPcIhVXdC2SvtyOa6bTDY+KvAtno9xewWOpadIzW0ty22ORG5ZC3Y5x19B74YSOgtwfG3hG7j1wRz38Fu1zFcBQrYXqpwORzXzl4j01tL1J1UEIGyDX0loUcPhrw5cW899a3mpXERtwltJ5ixoepZvX2+leZePNIiu7d5E++v60pK4kzF8Du9wJXc/dUV7P470RL/UraZ9Y0uzX7LEDHcTESfd67Qp/nXkXgG1KabM7jksB+Fei/EGWG71iCW2mjlQWsSkxsGAIHIOO9CBlbxNf6db+GrPQdJuTerFObme4ClVaTBACg84ANXfAE8FroPiW5urVLlYYoZBE/QsHJXPtuwT9K42UY4rpPDU8EPhbxPFNNGks8UIiRmAZyHOdo71bQjJ1/XtS154n1OcSeUCI1VAoQHsMD6V1GuapN4Lh0/StDCW97JbrcXl0UDSOzdEyc4A9P/r54p0wK7TU7e18Y21heW1/a2+rW8C29xBcyeX5m0cOhPB78f4cgEWqzp4g8I/21LCiapaTi3uJI0CCZCMqxA4yOn+RiHwMqf8AE3v1gS4vrG0aa2jcbgG6bsd8f1qTV3stI8LroVpdxXt1NOLi6mgOYxgYVFPf1zTfhqrR6vqFwsqWzQ2Mvl3Un+rhkOArNnjHXjn6UgNDwn4u1zUtO18X1z5i21m88dwYlzFICNq9MfNzwfSuU0GZp/EWns5y8l5GxPqS4rsdQ07XdetvsKeIPDU8bN5htbK4VTK3qQFGfx4ridKRtP8AE1jHeYga3vEWXeQAhVxuyenGDQB1XjzxPcw6rqekaWkVnp+9o5lSJd0zH7zMSM9SemKxPCV9f2928ekWEd5eyLiMtD5jRYP3lHQfU1V8ZTxT+LNVlt5Elie4ZkdGDKwz1BHWtPwPdI2i69p0OoW+napdeV5M0z+WGVSSyB+xI/OgZ1t1BrN54a1hfFYgeeCNZ7Y7o/NjIPPC9AeK47wsQ3iLSN3Ia7iBHr84rX0axsdF0bXFutZ0+fUZ7VkEEEu8Abh/F0LZ7DnisXw26Ra/pUkrrHGl1EzOxwFAcEknsKBHX3/im9sPEstpZRW9vp8d00UkKxg+bhyGLEjOTzVbxN4kuvDniK50/QIbaytoXDOqxhvOJAJ3E845wAMYrF1u4ik8RX00ciNC147hw2VILkg59Kq+P7qC48YalPayxzQuy7XjYMp+RRwRSA2vHMEMPiCRrdBHFPGk4QDhSy8/rz+NTW2ppofgGC8jt4HujqDxwyyoG8klAdwB78frVLxne21xrcBtpopkFpCu6NwwyF5GRTdQe2uPh3BZtLGZzeuxj3DcFKY3Y64oA17XX31DwlPrGrW1rqGpWFwI7ed4wNocdwMA4549h6VFa6xdeIvCmttrDrPNY+VLBLsVWXc2COB04rk9KuYdL+Hmr2c1zEJmvYmiiZhvZcckDuBWl4Uvbb/hGfEsTzxJNLFCI0ZgC53knb6/hUVKcakXGS0ZdObpyUo7oseFjnxFpwb/AJ7LVbWP+Qxf/wDXeT/0I1N4VmjXXNOmmdUjWUF2Y4Ax6moNVYSatevGQyNM5Vgcgjcea+LnFwpcst1J/kfYxmp1+ZbOK/M6fV9Yl0bTNGOnxRR3k1km65Khm2jOAM8Dv+npVbxHcNqfhnS9UulU3xkkglkVQvmAHgkCqXiaaKe10YRSI5js1RwrA7T6H0NSXs8TeCtOgEiGdLmRmjDAsAc8kdq66lbmc4N6cq0+45aVLlVOaXvOTu/vJfCgEGnazqUUay31nErQKwztySGbB44HNX9C8R6veaHrUlxPkwRrJFcFFyjFvu9O9VPAgZG1S4ilS2njtsJcy/6uMlh9769voas31lrGswCzTWNFmXO4W1pKq7j64AGTWuH51Ri4X2ei676vX+rEYmUHXlGdt1q+lraLT9VucqpJ5bqeTS03ayMUcFXU4Yehp1eK1Z2PbTuroKKKKQwooooAKKKKQHqQp46UgpRX6GfnI5RmnjpTBTxQB4P47/5HrWv+u0f/AKTw1Rsv+PmH/fH860PHn/I9a1/12j/9J4az7L/j5h/3x/Osa/8ADl6P8jah/Ej6r8zozVS76VbNVLvpX5uj9IkT+Dv+QHp//XFf5V1cPauS8HH/AIkmn/8AXFf5V1cJr9MR+Zv4jA+JV08HhdLeP711cJGSP7o+Y/yFcFHIFeP5uldX8TdTs4o7CxlmRboOZiC2NikYGfc/0rjg4LI8bxuh43DntmmNE6yKZ3/2TWd4vTOkuwH3HVuO3OP61dQhpbkcfMAPxxVHXIHudNlkEhCC3YFN2BuHIJH4GgoyPBce7XVcjiONmJ9O39a7ZpQbrj5tsY/Mn/61cl4FjIuL2SQFMRqMMMHDZP8ALFdFYybjLKTw78Af3RwKAHTz5hVCGXc4H60sV41vPBNEWBhkWQN05Ug/0qlqk2PI2n/lsv5Zq/8A8fEG2VWb0cdP/rUxn0VJKJQHHSQBx9CM/wBazp2VXXd93PP0rnPhrrD6l4cFrcMWudOIhLnq8Z5Q/lkfhW9cnOaCGZlyfnl/4Dt+oAz+uar3TW5/1Stu5HU88HBz25xU8/eqElIkbO9t95Y2++uQMgbQBkDPfrUN80JSXyiTI3fGBkjoMdqSToahNAEizQEAyxsGAI4Gd3yjBOMc5zzj0p05tlBWNUY4+VlGQfl6H/gWTn6VX70UATxSweT88KmbgDj5eg5PPXrVe2+XHniMqCSSw68H5c/5+tLQelADX/1dcX8Q08zR4V/6ek/9AkrtJOErjfHv/ILg/wCvpP8A0CSgDi8beKhc/NU91w9VzzTNEMUZJrSsARGTVBAc1pWefKbiqEKu4uvuatnLSfSooOZlB6AVLH98n3oAspkDmmN3qQH5aj2kgmkMgzgkVKjfJUTrhqeOFA9aQF22xuX6Uic7jnqaZa5y59BSxD93+NAGJ4qs/PsmdR8y1geFNSNre+RMfkfgn0NdzcxiWJlPQjFea6nbta3pYcZPFK2oHqSEYxUm3cuD2rD8MagL2yUOf3icGuggB71QFG9tvNhavPdVg2zSDFeqOgaFvevOvEMfl3zjHWkwNT4cwBUuJWGTuwK7jrXM+BrfytJDd3YmujmfyIWamgMbxZcqbcWick8vXB3NmXYrt6V1txG00ru5zuOaozW4D47Z60COVNng85z9atWdofMGK12thk8VPa2/z/dpWGTafB8rkjpVkRLuJxUkClY5B61GCR1OKYDHXFbXhyQSb4ieTyKw3frVjSJjBdo2eM0gO1tJzA7qDxmqmuS+ZEV6mo3nAO5ehqKGZJrllbnjNMk0NFtBbaf7scmrExGCaco226AegqtPKQvHc0AV5DlulTKoxVMyDdye9WVniA5agBzgHAp0aDJxwajMytgipohu5oAbtrX8PX+nxWeraVq5mitdQWP9/ENxjZGLDI7jnmseZ9rVRkk3H5l6UAddpcfhjRL+HUf7Vn1WW3cSQ28Vs0ILjkbmY9AfT9a5nVbmS/vLu8mx5s8jStjpljk49qrRMM8VNnigDN8wqaaTubJpZ8JJTQc9KYFm3fD5rVilzWJCc+tWonOepxQwNi4IFseecVk4whJNSNIWGM9qQgFKQDopdu2r6OHA6VjOwBGKnhlw1AFjULdJYyGANY0LS6bOAwzETx7VuffXdjmqlzGkyMhoA3dMdZrfevc5/lVvHFcf4fvmsNTNpOTskO0E9j2rsa+OzWjKniG311PssqrRqYdJbrQbilxS0V5p6Zq6PdWLaXeaXqbywxXDrItxGu7Yy+o7ip9OXRNEulvotQl1K4jOYYkgaJd3qxPb6Vh00iuqGKcUvdTa2ev+dvwOOeDjJv3nZ7rT/K/4jpJHmuJZpMb5GLtgY5JyaKKK5m23dnSlyqyCiiipGFFFFABRRRQB6mKdTQacK/Qz85HLTxUYpwNAHhfjz/keta/67R/+k8NZ9l/x8w/74/nWh48/5HnWv+usf/pPDWfZf8fMP++P51jX/hy9H+RtQ/iR9V+Z0Zqpd9Ktmql30r83R+kSJfB3/IE0/wD64r/KuoSQKrMRnaCceuBnH6Vyvg//AJAdh/1xX+VXPF+rJo2g3Fw4O+TEEeOzPxn8Bk/hX6Yj8zfxHmLoLyefU7keZPMxleSQ5Iyf0ApsEsUlxA0KBUdjuKsCGIB6AGnWQtCPZehJ59uKY9pbQ3nmrbokvXegxnOOtMZdgf8AfTfd5bH5V0tlov2eF73UCGhBD/ZYvmkb/ZI7VmaALaERXX8TMTuxkgA9h603VNSsPOlkfU9TtI13Z3R4XnjGcdTXNOq+blR2UqUbc0jVtra61aKaDXLL+zb9iY4blAHRk6qj7TxgHArMe1k0/FtPtEkankchvcGl8Pi0gkZ9Pj8S+X5mAs5JXA4xnAwK37+W3u42WTaSvIJIJX6/4UozcdDSVOMo3PP9bdjArRZYh84Uc8VesbecTebbPc24cbtk2MH2Kdvzq6siMpkQBOM8d6r/ANpK5aFRiXIwR0HPeulHEdv8LLsHW72GM/ftvmXpgqw5wfqa9Cnbg815B8OxLeeOlngcotnG5lbsykY2n6kj8q9VmaqM5Fed+tUpDUsrZJqs5pCI5DURpzU3rQAlFFFABQelFIaAEk+5XHeOfm06D/r6X/0CSuxk+5WFqmi3Wvy2Wm2Hli5mucp5jbQdsMrHn6CgDzW8/wBd+AqOux1z4deK7GZi+jXEyAfet8S5/BST+lcvc2dxZSiO8gmgk/uyoUP5GmaCRKMGrlrjy2GKqx/dPtV22xszVCJIF+f8KkiHJp8LLuc+1Nj6H3pAWEXK0rLhaYj4FDy5WgCtLkvT1XIFNfnmmBiDQMuQ8LIfanRrgUxD/ort3zUqHNIAYEqa5HxTZEKZFHvXYk8Gs/VIRc2zLjnFMRx3hy8NnfIx+43DD2r06AhogwOQeQfavKHiaG5ZSOhruvCd951r5Dn54+nuKBnQdq4TxlFsu0bP3ga7k8Zri/HPS3f0fFDA6XwtHt0m3X1Gak1KTdcGIdByadpH7nT4z2CZFVVPmXDOerUIAEKlfaqs0I3e1ahAEfQZqApuXoM0CM1LcNIB1q1FagEnFWY4lDZxVpYwEzQFzKEZBbjtVJgxz7VtOFDkf7NZbACgLlJwaajFSCKsygA1XlwKYGvp1+si+W7gOOnvU0c2y4fJxvwqn05rl8spDjg+uaZPcSuykueOmD0pAenPOnlrscHjtVSd+hGOlee22qXNtgbyw9zWrb69vYB8igDU1KdoPnFZSXM0s4YkgVeu5Uu7YeWwLCooRDAu6bqKALsV+IysbdT0rSS7ITgcYzXLWoN/rEKZ2ruLt7CpU1FhqFyFOYVOFoA2XuGckjPFNaTc3NQ+apVc/LupV55HNAFyFsCp1fJ6VTUkCnxvzyaAIb1fmOKqpIQNprSnQPHuHWsaUFZKALsTDJAqeOTbkVnxNhs5qZZATk0wL6Nk1PnMdUEkAbpV2KUMB8tICnM2GODToWIYEg1LcAHJAFNiOQMmgRfhcnpUfAYk0kTlSabuBYlqAMbxOhTy7heGU9RXZ6Herf6bDMDl9oD/AO93rl9Xj8+zdcZNO8ATGK4ubRt2Cm8c8DBwf5j8q8rOKHtMPz9YnrZPXdKvydJaf5Ha0UlFfIH1wtFJRTGLRRRQSFFFFIBKKKKBhRRRQB6mo3U8I3anFo+xAqF5yn3Tmv0K6W5+dKLeyJgjHtThG1VVvHzzxUouGPendPYTVtzw/wAff8j1rX/XaP8A9J4az7H/AI+Yf98Ve8dHd451o/8ATWP/ANJ4ao2P/HzD/visa/8ADl6P8jWh/Ej6r8zozVS76VbNVLvpX5uj9IkL4S/5Aen/APXFf5VP46086n4Xu44wTLEBOgAzkr2/ImrfgnQdXudA054dPmaNoEKtwARj6110PhTXG62gX/elUf1r9MR+Zvc+ZrG6jnhCq3zBGA917EVfFx51rFIp+7w/1r2zWfgqNWm+0iGLTrvOTJbSAKx90xgn3rno/gF4jSSXy9a0pYnOcFZCce4A/rTKTPIl1m9tbyeBUDQwvkMZMEZx2/GtCDxHJCfm1KRDzkXSCVDn3x/OvWbn9ny/uwfM1+zhdsbylqzZx/wIUqfszQugFx4ruvcR2aAfqxrN0ot3NFVaVjyK+8QvFkaz4guNTmKj9xYuVQemX6fkKpTeJtTvonj04Qx7ULksQSAPTtmvdbb9mLw8hzca9rMp77fLT/2U1tWP7O3gy1YObjWpXwVJa7AyCMHgKKFTXUPbyPBTKxtkYsVTYMrnk8A1e0TRb7xJLGdLhYMnElxICsSj1LY5PsMmvoT/AIUp4KIQTWN1MFXaN95IOPwIrtLXw1pFraQ20NkgghQRom4kKoGAOtaGbkeSeF/Dtp4bspEhbzryfDXNyRjzCOgA7KPStCWVefmr1BdF01Pu2NufqgNTpp9kv3bO3X6Rr/hQS9Tx2SRaiZXb7scjf7qE17YtvDH92GMfRQKcJY/MMSPH5gG7Zn5gPXFAjxJLG9k/1dldNn0hY/0qZdD1Z/uaZeN/2zI/nXteTS8+tAHjSeGdcfpp0i/7zKP61YTwbrjdbSNP9+YD/GvW3cICWYAAZJPaoo7qGUFo5o2XcEyGGMnBA/UfnQB5ingbWW+99kj/AN6Un+QqwngDUT/rLu0X6Bm/wrup9bsLeNnuLlIVDvH+8+XJU4bGetQzeJNJhXL3i43FflVjlh1Xp19v8KzdWCdmzRUqktVF/ccmnw+nP+u1KJf92En+tV7LwmujeJdEuxevM32xkC+XtHNtP71t+K/FklpoZu9Bhju5RcCBhKkpAGwuSERS7HA4AHf2qpoerPr2neEdVliSCW7uC7xI+5Ub7PcggHAJGQeoq01JXWxEouLszsqSeCG4j8u4hjljPVZFDA/gadTlpiOY1P4feFtRU+fotqhbvADCf/HCK5i/+DOiSBvsF5e2rHorESKPwwD+tepUNQFzwe9+D+qQB/sGoWlzxgB1aMn+Y/WuZv8AwB4nsFJl0qaRR3gIk/Rcn9K+mmqN+aZVz5Iube4tJBHdwSwP/dkQqf1qAj5tvvX1vPBFOhSeJJUPVXXINYF/4I8N32fP0m3UnvEDF/6DincLnzK3Woz1r3nUfhFo0+TZ3d5bHsCQ6j8MA/rXLaj8HNVj+aw1CzuB6SBoyf5j9aTKTR5yrZtFH95qnX/drb1fwV4g0lIxc6bK6DPzw4kHH+7nH41jvG8TYkDKe4YYNJNdyuV2uRuzUxx8lTMpZc1GyswxVEHKaxbEMXVetQaZdG0uY5AcAHBrpr203RFTyTXM3Nt5TFSKQz0FZBJbo6chhk1yfi6PfDGh7uMVseGLrzYBA/UDiqPiyPdNbIP+ei5/OgDYVvL0+MeqgVDbnDKPUU+/HlxxIO1QwH/Vt7YpgX2qPNG7NJQInhXOKsvxHUNuOlTSH5aAM+X/AFwrLlOGb61pzf65ay7j77/71AETt8tVZmzUkx6iqsjcUMaK7tioic0krc1GG4qRoecYNQvgoafuAU1BIwKGmIsWWovb8ZJUetbaanb3kQDYDelci5OOKi3MjZBwKQHZxqIZDIjDa64J702CGKMby5Pcetc7bak+/BPatSK+Ro8MQrUAaM1xJcOqjoo4rRgYqqEnnFZ9pPGYe24VI9xwcYpoDV800qyetZcV2Mc1IbtSeKYG3G4IFU7yHOSBUdnPkdavnEiDFAjHwUNO345qxcxbc8VQcnOKYy3HJkitK1bisSJsGtG2lxSEXJsc1EpwabI+RVZ5CDQwRpRPihm5zVKOTIqcZIFCBj5PmiYUzwnEU16Un/ni3/oS1MibgataBbSDUpJiuEWMpn1JIP8ASuLMny4afoduXR5sTBeZ0Rooor4g+2CiiigAooooAKKKKBBRRRQNMKKKKB3PR3hdR1zTAWU81pEZpjRhu1foTimfnKk0UgwPengehqR7bP3eKhaGVenNZul/KzT2v8x4x41/5HTWf+u0f/oiGqlj/wAfMP8AvirfjQf8VprOf+e0f/oiKqll/wAfMP8AvipraUpej/IdH+LG3dfmdJVK96GrvrVK96GvzhH6PI9l+Gf/ACJ2h/8AXlF/6CK2fGOt/wDCOeFtQ1j7Obn7HF5vkh9m/pxnBx19Kxfhn/yJ2h/9eUX/AKCKd8Yf+SXeIv8Ar1P8xX6Yj8ze7OU8S/GCTT/HL+GrHRfNa3v7eznuZp8BhKE/1aKCS3zrgfWsnwJ8ZdV8SfE5fDU2m6db2rtN86SO0gVC4HPQk7eRgAepziut1j4faBd+I59ZltL7+0Rdx3nmi9EaiRSAjBc46qAMjPUetSeHvBHhnR/EL6zoeh2NtqrR5aVb9jtViei5IAJz0HNMB/xO8YX2heA9Q1bRrYw3kN6lkpv4mQZMwj3hf4lOeDwCDn6+XN8SfFDeGPD7XOuRJdXurXen3NxFbIu3y0VVx1G3zD94dQwBxXr+oa/pWoJ5F7LptxFFeJCUdHkC3ClXQY29QdpB+lUp9U8PwafcI401bJrp4JVj0/Mclw75YcnDEsASfbJoA8l8Q+PvFlh4i8Nacmsq5VdMlvZY2jKz70ImJIG3bnkhSQflIxX0OuqRtq01iIrndEm95TCwjHQ43kYJ57E9D6Vi+HtSt9Wub+zsLuRHsJfIfFqiLkDHydQQNuPwxUFx4itfLtzDLqMzTXZtO0QDBiD1A9MgDrkdskAGomtXMtq0sWmXLutwITGRsbaXK7wCOVAw30qOy1HXZfsST6ZFG7yutwdxASMOwVl9SVCnGeC3eodO1O1vtLnvlj1DykZkjS4kZWlYLnAAPHORz6elZFtqN7faVLdw6ItvLvbyxeCUk/OAqlMZBKnk9AefXDA6Fr7VUV2kt7aMg4WMsDv+YDrnuDnpx0rdyK4qCTW11LULf+xbJYhLutLjycKYgy5DHP3yNwHbIFdj5y0CGX0zQWVxNGMtHGzgHvgZr558LXn2y80DU42tf7avL4AsC32lyJFEjMQeY2jMmQQAMKBX0QZlrl9C8EaHoery6np1nKLlt3l73LJBuJLeWD93Oa3o1VBST6nHiqE604OL0W/4Gdaav4lia9b7O1xbymY2peElxsmdNpAA6rsYZ9CcnOKtw33iyUhvscKiaIuF8va1u+WAQ5JDgkLlhjAJ47jpbnUbW24urm3gb/prKqZ/Os9vFOiKSv8Aa9gz9kjnV2P0VcmsDsJNGi1GbSJ4dd5mcup2qoJQqP7vHc1zA+HemXAtJNTuNSv57byP3mVjSRo2UoxjAwCAqqTgHGe/Nb58T6eT8hvJf+uVjO4H4hKB4gL/AOo0vVZR2PkpHn/vt1I/HFADJNAt7g3E01nO8jNI6xTXHygk8hcZxuPP+cUzTtFjljVrrRbS1O0MEaczfMTyD06YGD71L/a+pSHEeiXCe9xcxIP/AB0v/KkN5rjfd0/Tk93vHYj6gRDP51l7GF72Rp7apa3MyteeGY9V05rHWLLR5LYy+b5Ko5GQAFbdkHONw/IUj2sGn3Phy0tIY4LW3u/KihiXasaC2uMKB6AVaK66+QbvS4jjtaSP/OUUy30a6e+tLm/1IzNbSmVYooEijLFHTnq3Rz/F6VoopaIzbbd2b1KKSigCUGgmmZozQArGo2pxNIelAEdFOooAbS0tGKYBzVS8060vQRd2sE+eu+MN/OrdGTRa402tjlNQ+H/h28B3WPksf4oXK/p0rnL/AOEdlJk2Go3EPoJVD/4V6dTqnlRXOzwvUvhTrkOTay2tyo/29jfqMfrXCa94F8Q2jM02kXTKOrRpvH/jua+sKQ80WfcfOuqPi2y8/T7xPNikhZWwQ6kH8qv6uVmv7RvvKWBr65vdPsr5Cl9aQXC+ksYf+dc5qPw78MXxBbTI4XU5DQsyEH6A4/SneS6DUoPyPnbVWzMB6LSYxHAfUEV7RqvwhsLl99lqVzA/YSIsg/TFc5f/AAm1uGJVtJ7W6CHj5ihP58frRz23Q+VPZnALU0ce6tu68HeILDP2nS7kgdWjXzB+mazFjeOQrIjIQcEEYpqSZNiSOPFOkXApQeaWY8UxGTcD9+n1rMuf9c4/2q05+Zk+tZt7xcSfWgZRl6mqk/CVbl+8ap3P3KGNFCQ5NMNK/wB6kapYxG/1bCq7/dAqc/6pjUEn3QaESQydKrydKsOeKgegCMNg+h9animLfK3Wq5GaBwOaCTRSd1+6TUwvJMck1Qiy4GDTmQjqarQo0o7pvWrMd2ax1Y9jTxIwosFzpbe9VQMkg+lb9ncqyrXCRXGMZPNbOnXxWRQ7cUbBudnJH5yDisq9tWDZA4rS0+6SRQoIwatyRq6EY5piOTMZVqsWrHdg1durbBOBVREKvz0pAXhytVZgQ1WYWB4qG5wHoY0NjbFX4eVrNDAVoWx+UUITLURxXRWUQigGAQWAJz64rK0eFZZmduidvc1uV85neKu1QXTVn0eSYa0XXl10QUUUV88fQBRRRQAUUUUAFFFFAgooooAKKKKBnrWPajHtT8UYr9DPzgZigipMUYoA8m8Z+DNauvEV/qFhBBc29y6OiLMFkGIkQghgB1Qnr3rm30jVLCeNrzS7+FEcFnMBdV57sm5f1r33FGKipDni4vqVCfJJSXQ8RguoZ2KwyxyMOoVwSPqOoqG/bg17VfaXY34AvrK1ugOgniVwPzFYl14D0KdSIrea1z/z7zuqj/gOdv6V81U4dl/y7n96Pp6fEUX/ABIfczW+Grqvg7Q/+vKL/wBBFX/H+m3Gv+CdX0qwMX2u6gMcfmttXOR1POKytN0ObTrK3s7XWdRS3t41ijAS3BCgYGW8rJq4dLLf6/UdVlb1N7JH+iFR+lfTo+Yb1uM1bwi2p6zf3kt0yQXUSRiJYyxQqwbd83GTtAxjjGRyTUj+GdOiMP2m6nEUcaqInlVVYgglm3csTgdenOMZqMeH9PZszwvcD+7cTvKD+Dkinx6DpMf+r0uwT/dt1H9KBXM+1t/C2nRSRf8ACQKWNwtwXbUk8zcowB8vJAHGPQAU6SLwdJZm0jtfPtTcm8MdpbzuolJyW/dqcd/zNdBHEFUKqhVHAAGAKkCgUBcxra90m2uJZtN0a+NxK/mM6WLIWY5yQZCuPvN6dTVv+2Ltgqx6BejHTzHgQDA4xh29a0MU6mFzOF/rjcpplknoJb9tw+oWIj9aa8uvyHJfTLf38uWXP/j6VpjrQ9AGSYtbkJMmrQJ/1wslUD/vtmNIdPvW/wBZrmpMvoBDH+qRg/rWpiloAyTo0b8zXuqSHuTfzKPyVgP0oXw5pTMPMsYZsf8APfMmf++s/nWvS4NFgM+30fTbXP2bTrKHP/POBB/IVeC4HAp2DTsUARgU8ClxRQAgpwoxSigQg61KlR1IlIYp604dKaetOoAKKKKAFFLSCloAbRRRQAUtApaAG0UuKKAEoopcUAJRS4oxQAlFLijFAC0UUUANqC6tLa7TZdW8UyekiBh+tWaZQF2tjnrzwXoF0MmwSJv70TFMfgDj9KwL/wCF1lNn7Jf3EPtIocfpivQKfRYr2jPD9T+FGso26zubS4AOQCxRj+Yx+tcdrXgbxLZzu0mkXTrn70K+aP8Ax3NfUNFGq6j5vI+L72KW2lZLiKSJx1V1wfyNZlw+RX25d2ltexeVeW8NxH/clQOPyNctqnw18JalkzaNbxuf4rcmLH4KQP0pXY1KLPj9/vU1q+kNW+AuiT5bTtTv7Rj2kCyr+XB/WuN1X4Ea7BuOnajYXajoH3RMfwwR+tFyrroeQH/VkVBJ9wV2usfDPxhpinztCupF/vW4E3/oBJrj722uLVjFd28sEi8FZEKn8jTuJlGQ5NQuealYfNUci8igQwimkc08immgkt2P+sFd94T0DTNc029hvoT5kcylZY2KuoxwAfTg1wVp94V6V8M/ln1NeuViP/oVcOZzlTw7lB2en5noZbCNTExhNXTv+Rja94Cv7V2k0ki8g6+WSBIP6H9K5DBBKsCrKcMpGCD6GvoOsfWPDumaszSXVsguCMeeg2uOPXv+Oa8jCZ1KHu1lddz1MXkak+bDu3k9vkeKVJG7qa7DWvAV7ATJpci3SA/6pyFf8D0P6Vy97az2L7LyCWBs7f3iFRn2J4P4V71DF0a69yR4FehVwztVi159PvNDTtSeAgsTiuqsNYilUZbmvP1cNznip4JmicMua6LWI5os9IkkWRM8VnXK46HisG21Z0IDnirb36uOG5NO4W7Glbkk9aZcHDcmq9jMG70Xh+frQIQN89a0H+qFYAb5663QrA3XlySj9woyQf4zWVevChB1JvY2oUJV5qnDdm5pkJis0DLtdvmYfX/62Kt0tFfCVajrTdR9T7ilTVKCpx2QlFLSGszQKKKKBhRRRQAUUUUCCiiigAooooA9epaSnV+hn5yGKXFFOHSgBce1GPalooAQL7U4L7UCnigBMe1FOxRigAA5pyilAGacKAExS4paWgAxS4oooAMc0OOKd3oYcUgIsUYp2KMUAJg0uDTsUYoAaBS0uKMUwEpaMUtAxKcBSgYooENxUiUynpSGFOptOoAKKKKAFFLSCloAbSilooAKKKKACijFGKACijFGKACijFFABRRRQAUUUUAFMp9MoExadTadQMKKKKACiiigBMUlOpp4oAC22s+9t4LxTHeQQzxH+CVAw/I1ZkbdUVAHH6p8NfB+psWn0K1jc/xW+Yf0QgVx2r/AbQblT/Z2o39m5P8AHtlUfhgH9a9hopcqKUrHzXq/wC1yDcdM1Kwu0HQSBoXP4YYfrXGat8LvGWmcz6Fcyp2a22zZ/BCT+lfZBozRYfMfCj2dzY3HlXlvNbyD+CWMofyNeh/Df/j5v/8Acj/9mr6iuraC7hMV1DFNEeqSIGB/A1kf8IloKvI8Ol2sDSDDGBPLzj/dxXLjMPLEUXTi9WdODxMcPWjVmtF2PLqK9DufBFjISYJ54vYkMKzLnwHfKM29xDIPRwUP9a+ZqZTiaevLf0PqKecYWp9q3qcfUVzbw3UJiuoY5om6pIoZT+BroLvwtq9tktaM6+sbBv0HNZM9vNA2J4pI29HUg1ySpVKWsk0dka9KrpCSZyup+CtFvsFbdrRx/Fat5YP/AAHGP0rA1nwLJbQeZo8zzlfvRTEbiPYgDn2Nei0V0UcxxFHaT+ZyV8rwtZO8Em+q0Z4ST5UxhuFaGdfvRSDaw/CphXtF7Y2l8gS8tobhQcgSoGwfbNc9d+BdGmH7lbi1Oc5imJ/RsivZp55TatUi0zxamR16d/ZSUvXR/r+hwdpcmNhzVye5D966GXwAqsDa6pMmOvmxB/ywVq3b+CLZfL+03tzKVxuCBUDfoSB+NdH9s4a17v7jnjlWLbs4W+at/n+Bh+HdNl1S7BUAW8ZHmsf/AEEe5/z2r0eKNYo1RAAoGABTLS2htLdILaNY4kGAqipK+fx2Olip3+ytkfSYDBRwkNdZPdhRRRXAd4UUUUwSCiiigQhopaQ0gCiiigAooooAKKKKAPXxThSAUoHNfoZ+cirThSDil7UAVnvrRGKvcwKwOCDIARS/2jZf8/dv/wB/BXkutf8AIa1D/r4k/wDQjVI9K+YqcQThJx5NvM+np8PwnFS53r5HtcF1bXDbYLiGRgMlVcE4q0K84+G//IYn/wCuP9RXo9e1gMU8VRVVqx4mPwqwlZ0k7hRRWZ4n1q38OeHtQ1m+SaS1soWmkWEAuVHXAJAz+IrtOM1hThXg3/DT3g3/AKBniH/wHh/+O07/AIae8Gf9AzxD/wB+If8A47QB7xTq+R/jd8a/DnjzwQ2jaPZ6vBdG5jm33MUaphc55WRjnn0rzr4XePYvBOk+LI0N7FqWpWaw2U9sF/dSAk7mJIwOewNAH37RXyl+zp8X9Qm8Ty6N4u1DVdUn1SSGGxJ2ukLZbcWywIByvQHpX0d4/wBVudC8Da9q1js+1WVlLcRbxldyqSMjuMigDoRSP0r4y079oP4lapdLbaZa2V3csCRDb2DSOQOpwCTU+ufFf4uahpl7pt7oU8Ud1A8EhTSpkdVdSpKnscHg0gPsOivz0XRPH7qGXTPFTA9xb3GP5V6hF8Yvi6gWJdBckfKB/ZMpP0+tAH17Tq+bfhr8SPijrPjjSNP8QaDNbaVcSlZ5TpcsQVdpOdx4HIFfSVABRS0UAJilFFKKACiiimMKctfGPxn+KXjXQ/ih4g03SfEF1bWNvOFihVUIUbFOOR6k16x8T7+51P8AZJ+3X8zTXdzp+nyyyN1dmmhJP50gPeKK/Nr4fa3rHh3xdYap4bt/tGrQeZ5MXkmXdujZW+Ucn5Sx/CvZP+F2fGD/AKAP/lIl/wAaAPsGivLvgF4t8UeLtC1O58Y2f2S6guRHEn2VoMptBzhuvOea9H1aV7fSb2eJtskULupxnBCkigC2KWvgyH48/FC4njhtvEDyTSMERE0+2ZmYnAAAi5JPat7/AIWL8eP7mu/+CCP/AOM0AfatFfFX/Cxfjz/c13/wQR//ABmqGr/GD4y6Mkb6xf6hYJISEa60iGIOR1A3RDNAH3LRXgf7K3j/AMTeOf8AhJ/+Ep1P7d9i+y+R+4ii2b/O3fcVc52L1z0r0f40Jqw+GWu3Ph6+uLHU7SA3cU0Bw2I/mZffKhh9SKAO2or5M/Zj+K2vap4/bQvFOrXOoQ6jAwtjcNuMcyAtgHsCof8AELXvWo/FrwJpuoXVjfeJbOG6tZWgmjYPlHUkMp46ggigDuaK+Iv2nfHNn4g8e2F34R1yS4sE0yOJ2tpXRRIJZSQRxzgr+letfAD4p+E9F+Fml2PiXxJBBqkck5lS4Ls4BlYrk4PYigD6DpDWD4S8aeHfF/2v/hGtVt9R+y7PP8rd8m7dtzkDrtb8q36AExRilooASiiigBDSGnGkoAKKKKACiiigAooooAD1qGZscVKxwM1Vf5jmgBlFFFABRRRQAufyo9h0pB6UuccUAHTpTgu7pSKM8VYRNooAakYUc0/r9KOp5pfYUAGBUciJIpV1DL6EZqSmkih2e407GXc+H9JuQfNsYQT3QbD+mKx7nwPp0hJhlnh9gQw/XmumeYZ4WkE3+zWE8JQqfFBfcdFPGV6XwTf3nB3fgK6QE2t3FL6B1Kf41kXXhbV7YZa1Lj1jYN+nWvV80VwzyfDy+G6/rzO2nnWJg/es/l/keIz289ucTwyRH0dSP51FXuTKrDDAEehFZtzoWm3BJlsoCT1IXafzFcM8ha+Cf3ndTz9fbh9zPH6K9Iu/BemSH9080H+62R+tZNx4FnGTa3kbjsJEK/qM1xVMoxUNo39Dtp5xhZ7u3qjjKK3Lrwtq0BP+jCQesbg/p1rJuLS4tzie3li/30K/zrjqYerS+OLXyO+niKVT4JJ/MhooorI2bCiiigkKKKKBiGilpDSAKKKKACiiigD2EUuKB1p1foZ+cgKXtSCnY4oA8b1n/kNah/18Sf8AoRqkelXdZ/5DWof9fEn/AKEapHpX5tX/AIkvV/mfpOH/AIUfRfkdd8N/+QxP/wBcf6ivSK83+G//ACGJ/wDrj/UV6RX2OSf7pH1Z8bni/wBsl6ISuM+NP/JJfFX/AF4Sfyrs64740/8AJJ/FX/XhJ/KvYPIPiX4aW+kza5dTa/pv9qWNpYz3LWn2h4PMKJkDenIro/8AhMvhv/0Sn/y4rn/4muQ8D+J7rwjq82paega7NrNBExI/ds64D4IIOOuCMGu40b47eK7PT9Ugv5kv7i5hEdtO0UUZtH5+cKI8N24PpQMqa3c+ENf8E6ze+HfBf9gXunS25M/9qTXW9JGZSNr4A5A55rY/Zw8J+GvFFz4ml8Xae17a6faLcKFmkjK4LFiNjLngd6zI/H/iPxf4H8X6Trk/9oBLWC9ifyo4zF5dxGrYCKM5Emck8bfeq3wr15NE8HfEYOw3XWkrbImfmYySCPj2AkJNAj1/4TX3wf1vx9pdt4T8I63a6whaeG4uJnMcRRS2WH2hs9MfdPJFe0/F7/klfi3/ALBdx/6Aa+d/2MtDa48U63rbg+XZ2q2qZHBeRsnB9QIz/wB9V9FfF/8A5JZ4t/7Bdx/6LNAHxh8Dv7Y/4TG5/wCEZbbrQ026+yHci4k8vjl/lH48U74saD4+jmi174gxI0sxW1ScXFs5bAJC7YWPYHkj8az/AIT6lpGneJLweIrx7LTb3TbqxkuEiaRk82IoCFAJPWneOtH8EabpkEnhDxPe6vetKFkhnsmgVI9p+YMQMnOBj3oA6PRPHfxUtvAh1bS9YkTw5pjJYeZi2JjKhFVdrDeeGTnB+vBrmfh54e8XeIdal1XwhAtxqOnSpO80k8CGORixVsSsAxyrHvjH0rLs7Lw/J4Lvb261eePxHHcBLfThbkpLF8mXMnQHl+P9ketN0Gy0G50bWptY1Waz1GCNW0+3SAuty53blZgPlxheT6+1AH1f8Gl+LZ8X58ey+Zogt3zia0fEnG3/AFRLevtXuu2vj39kTxTpWheI9V03U7horvVzbwWiiNm3uC+RkDA+8OtfYlACYoxS14p+1lrOqaH8OtOudF1K9065bVY42ltJ2hcqYZiVJUg4yAcewoA9por5C/Zb8XeI9a+KH2TWPEGr6ha/YZn8m6vJJU3Arg7WYjNfX1IBK8b/AGidc8f6L/wj/wDwrqHUZPO+0fbPsenC7xjyvL3ZRtvV8dM8+leyUUxn56+IfCvxE8Q6zdatrHhfxHcahdNvml/smVNxwBnCoAOAOgror+4+MeoeDF8KXeieI5NAWKOEWv8AYZHyRlWQbxFv4Kr37c1zevfEHxlHreoRxeLvEKRrcSKqrqUwAAY4AG6vU/8AhW/x3/6GLVf/AAfyf/F0AeZeGPDPxJ8L65baxofhfxHa6jbbvKm/siR9u5Sp+VkIPysRyO9d7/wnP7QH/Pp4j/8ACdT/AOMVof8ACt/jx/0MWq/+D+T/AOLrzvxprPxJ8G69Jo+u+K9ejvY0V2WPVpnGGGRyGoA9i+Eviz4x6j8Q9HtPFtvraaHI7i5a40VYIwBGxGXEQ2/MF719I67/AMgDU/8Ar2l/9BNeffs3ajf6v8I9HvdWvbm+u5JJw89zK0rtiZwMsxJOAAK9B1//AJAGp/8AXtL/AOgmhgfmv4c1L+xvEOl6oYfPFldRXPlbtu/Y4bbnBxnGM4NfSf8Aw1p/1Jf/AJVf/tNfPHgO3hu/HHh22uYkmgm1G3jkjcZV1MqggjuCDXrPxT8bWPhP4gazoeneAPAstpZSiON59LLORtB5IcDv6UgOu/4a0/6kv/yq/wD2mvMvjb8YpfifbaXb/wBjJpcNi7yf8fPns7MAOuxcAAeh619SeAvBPg3xD4J0LWL3wb4cS5v7KK5lWKwQIGZQSFBycc9ya8n+K3jn4ZeENZj03w54H8M65dRE/anFvGIomHRAQpDN69h065AANX9ibRru20HxLq08bpa300EMDMpAfyhJuIPcZkx9Qa9Z+KfxI8NeBYrS08Ui7KalHIqLBDv3KMBgeRj7wrF+AfjzVvHulXV3L4ctdG0S2xBatC5IlYfeCDAAVeBkdzjsa2PjH4C8P+L/AA/cXuvWb3FzplncSWjLM6bGKZJwpGeUXr6UAeK+A9X+BkPjXQz4b0vWYNZe8iitJHaXasjsFXOZCMZbnivEPiHbrd/GLxPbOSqTa/dRkjqAbhhVT4Uf8lT8Hf8AYZs//R6VY+JCTSfFzxWlqWFw2u3YjKttO77Q2MHtz3oA1vj38PrL4beMLTR9OvLi8hmsUuzJOAGDNJIuOB0+QfnUt58ObGD4D2Pjxb25N9cXZt2tiF8sDzHXI4zn5BWF8UdI8Y6Lr9vb/EKS+k1ZrZZIjeXou38ku4GHDtgbg/GfU45p0+j+NV+GVtqk0t//AMIS85SFDfAwebvYcQb8g7g3O31PegD3T9hvp42/7cf/AG4r6mr5Z/Yc6eNv+3H/ANuK+p6AEpDSmsDwZ4ki8T6dd3KW7W0trez2M0LMGKyROUPPvjP40AbtFcrd+NbO3+Ilr4SaBzcT2vn/AGjd8iud5WMj+8Vikb6KaveNvEMfhbw3c6tLbvcmJo40gRsNK8kioqg/VhQBuUlYfijUNbsBpn9g6MmqGe7SK7zcrD9nhOd0vP3seg5qh8T9avfD/hZb7TXVLg31pBllDDbJOiNwf9ljQB1dFcx8TtYu/D/w/wBe1bTXVLyztHmiZlDAMBxkHrW3JPcjR2uLaEXN2IDJHCXCCR9uQu7oMnjPagC5RWX4Yu9Sv9AsrrXdOXTNSlTdPaLKJRE2TxuHB4wfxxWpQAUUUUAQzNzioTxQxyc0jcjNAC0UVh+K/EEfh6HTJJYGmF9qNvp4CtjYZX2hvcD0oA2yKbUOpX1rpmn3F9qE8dvaW6GSWWQ4VFHUms3wrrE2v6QmpS6dNp8M7E28c7fvHjz8rsuPkJHO3k4IzQBs/SjHpSKcHmp4kwcmgB0KYGTUtJ/KigBaKKKAGYyxqtKcnFWjxmqjfeNADKKKKAHK2KkD1xllq1/J8UtW0h586dBpdtcRw7F4keSUM27GeQq8ZxxXW0AWDz0pOe9QqxXvUocNTQgopaSgBtMdFcYZQR6Gnmm0AZ9zo2nXOfOs4WJ7hcH8xWRdeDtNlz5QlhP+y+R+ua6akrnnhaNT4oJ/I6aeLrUvgm18zhLnwRIoJtbxW/2ZEx+orMuPCuqwjIgEo9UYH9OtemU01x1Mnw09k16P/O53QznEw3s/Vf5WPILizubcnz7eaMDuyECq9ey1SuNLsbgkz2kLk99oz+dcNTIn9if3nZTz/pUh9zPJ6SvQ7nwppkudiyRf7jf45rKuPBhGTb3gPoHTH6j/AArhqZPiYbK/o/8AOx30s4ws93b1X+RyNFbdx4W1OLlYklHqjj+uKzbmxurb/X28sY9WUgfnXFUw1Wn8cWvkd0MTRq/BJP5laiiisTY9ipRQKWv0M/OgpR1opRQB41rX/Ia1D/rvJ/6Eapjoaua1/wAhq/8A+u8n/oRqmOhr82r/AMSXq/zP0jD/AMKPovyOu+G//IYn/wCuP9RXpFeb/Db/AJDE/wD1x/qK9Jr7HJP90j6s+Nzv/fJeiAVxnxs4+E3ir/rwk/lXZ14t+1j4kfR/huulwo3maxMIWcHASNCHb8SQo+hNeweQfNXwe0+bVNc1m0tkZ5pdEv1jVe7GBgB+JwPxq78K9asdN8IfES0vbhYZrzSAsAY48xg4XaPU/OOPTJ7V2vwhWH4ReH38d+LNOvWuNUH2LTLWNQH2ffZ23EYDbQAeTgHjmuHtvAniT4ja7qOreE/Cs1lptw7XEaF9sCZydqSPtDZOeB0yOgoA7f8AZ48PXGsfDj4npHHkXNikEBIyGlVJXx68HZ+deCx7ydke7L/LtX+Lnp784r6D8L+LfFnwt+FOt6TP4aOm6kuoQ21rcSwMrSPOsxaTnKyFRCqjbxyuc458ui0vXfhp4n8O6vr2jNG4aO+hguU4kRW5B9G46dVyp44oA+yfgJ4KfwR8O7Kzu4wmpXRN3eDHKyMBhD/uqFX6g+ta3xf/AOSWeLf+wXcf+izXiifH/VvE3xM0DSvBlp5ekXc0EM0d5ApmyX/eEFWIAC/yJrvv2ofEZ0D4VXsEaM02qyLYK3ZAwLMT/wABRh9WFAHyZ8LbPSbrX7yTX9N/tOws9OurxrTz3g8wxxlgN68jp/8AWpnjPX/CWq6fDD4Z8F/2BdLLvkuP7Vlut6YI2bXAA5IOfb3rt/hjqP8AwqHS08Y65pFzcahrMMttpFs37tSilDJK5PIBygXAORu7EGub+J8PjjX4V8a+NbSa3t7qZbS2EqeUAMM4WOM/MEAB5PXPUnJoA5i01PRYvCN5p8+gefrks4kg1b7Y6+TH8mY/JA2t91uTz8/sKZo2o6TaaRq9vqOiDUL65RFs7s3TxfYyN25ti8SZyvDcDb716v4Y/wCTSPF3/YcT/wBta4H4b6R4ukubnxF4Hgnmu9FeNpPs4DSKHD4+T+NSEYEAHr0oGeyfsm/DuO8ub3xL4h0mYfZZYW0uaVpI/nG4uygEBl5Tkgj8jX1bXiPwf+Osfi/W7Tw1r+kz6f4ilDqGjH7l2RC7ZDHchwp45+te3UCHVjeKfDOjeKtPjsfENhFfWkcomWOQnAcAqDwR2Zh+NbNFAHJ+Gfh14S8Mal/aGg6Jb2V5sMfmxs2dp6jk+1dZRRQAtFFFAH5keIf+Q/qX/XzL/wChmvXP+EAj/wCixeHP/Bi/+NeR+If+Q/qX/XzL/wChmvr3/hlrwV/0FPEf/gRD/wDGaBnj3/CAR/8ARYvDn/gxf/GvNPHelro/iKW0XXbTXgqI3261lMiNkdNx9OlfT2u/s3+AND0W+1XUNW8SrZ2cLTzMs0LEIoySB5PPAr5f8bxeHIPEU8Xgy41C50ZVURy34USu2PmPygcZ6cUAfaP7LX/JFNE/66XH/o569K8QkL4e1MkgAWspJPQDYa86/Zitprb4K6ALiNozIZ5FDcEq0zkH8Rz9Kj/aZ8XTeFPhhdLaRlrjVnOnLJnHlB0Ys312qQPc57UAfGfw0RpfiN4VSNSzHVbXAH/XVa6D9oQY+M3irP8Az8r/AOi1r1H9lr4T6i2uW/jHX7aS1s7ZWNhDKpV5nIwJMHogBOD3OCOBzwP7Tmi3ulfF/WLi6hdbbUClzbSkfLIuxQcH1DAg/wD16QG9oPgj4zeMfC+l20N1cweG2tEFqJL9IYWh2jYCiHceMfeU/nXe+Af2XLW1uIrvxvqi3hUhvsNjlYyfRpDhiPYBfrXMeCP2mZPDXhLSdEm8KpeNp9ulsJ11Dyt6qMA7fLbBwB3pfG37TUniTwlq2ixeFEtG1C2e2M7ah5oQOME7fLXJwTjmgD660uxtNLsILHTreK2tIFCRQxKFRFHYAdKoeNP+RQ1z/rwn/wDRbV8o/sXaPey+OtU1hYW/s+3sGtnmI+XzHdCFHqcKT7ceor3X9ojx9B4G8B3CGCSe+1aOWytQuNqMUILsT2AOcDqcD3AB8WfCj/kqXg7/ALDNn/6PSrXxDuRZfGPxNdOpZYdfupCo6kC4Y4/SsnRLDXtOtIPFunWFyLLTryIrfCMmNJg25Mn6ge2SB3GfYE+MPw8vy95r/wAL7OfVrhmlupo3UrJIxJZ/mGeSScH16nrQBxXx8+IVl8SfGFnq+m2dxaQwWKWhScgsWEkjZ47fOPyp1/8AEi1n+BemeA47CcXVveNcy3TONhXe7AKOufnH5Gu1/wCFrfCn/olNv/31H/hR/wALW+FP/RKbf/vqP/CgDtf2I9LuINE8U6pIjLbXc9vBESMbjEJC2PX/AFq19N14X8HPjbonizxDZ+FdE8MvpEAhdogroIo1UZwFUDFe6UAMrz/wSn9mfErx3pXKxXMttq8K9iJY/Lc/XfAfzFeh15X8T9VHg/xjp/iXok+j39iyjrJLGouIVHudkoH1x3oAwdWLyaJq/jtd7/Y/EyXkLYwRZ2xFpJjnkFPtD/8AAuldh8SsajrfgjRF+ZbzVheyAdDFbI0v5b/K/OtbRvCsUPw0tvC17mRDpn2O4ZjkuzR4kJPqSSfxrhvhfeTeIvE+kTXZ33Gg+HxZ3JByBdyTGOX8f9EP/fVAHX/ETWb7R7rwgmnz+St/rsNncDYreZE0UrFeQccopyMHjrVH43/8iIn/AGFNP/8ASuKm/F0f6f8AD/8A7Ge2/wDRE9O+N/8AyIif9hTT/wD0rioAl+OH/JJPFf8A2D5f5V0tzNJb+GpZoW2yx2hdGxnBCZBrmvjh/wAkk8V/9g+X+VdDqP8AyKdz/wBeLf8Aos0AUvhtqd3rPgDw7qWpS+de3VhDNNJtC73ZAScAADr2FZ8/hjxHqJea/wDGd9ZzZJjh0q3hjhj5O3PmK7PxjOWAPoKj+G11/Z/wW8PXnlmT7PosU2xerbYQcfpWT4N8MR+M/DWl+IfGF9earc6lAl4toLl4rO3WRQwjWFCA20EAl9xJ79MAHQfDPXb/AFrRb2HWmik1XS7+fTbqWJNiytGQVcLk7dyMjYz1J+lc9pt74l8T654s0v8AtY6dpmn6mYUureONrjYYYmESBkKqASxLsGJ34GMUnwJh0+3g8awaMlvHp8XiO4SFLfHlqohgGFxxirfw4/5GX4g/9hw/+k8NAGNaXnizS/Gs/gyLVDqC3Fkuo2urXsSGS2iD+XIrKgUSPkptyAPmJOcYqxqh1vwTrmgXE3iK+1rSdTvk027hv44t0UkuRHJG0aLgbwAVII+b2zVyf/kvdn/2LM//AKVRU34wf8eHhX/sZdO/9HCgD0CuA+MTrHp/hd5GCoviTTizMcADzhya7+vN/jpZW2p+H9A0++j820u9fsIJkyRuRpdrDI9QTQBgzeIoPHnxC0ex1CCeLwY/my6c7geTq9zCRndzkxqCWVSMMVz2Ar2MkAZOABXMeOPC0WveFv7PsTHZ3lmyXGmSooUW08fMZHoP4T/sk0nhHW/+Ev8ABzTOn2W/2yWd7AettcKNrofoeR6gg0AYmhrrfj63fWI9dvtD0SV2GnwWEcQlmjU4EsjyI/3sEhQANpGc10Hg/UtRh1nVPDWu3K3l5YRxXMF55Yja5t5dwUuoAUOGjdTt4OAcDOK4v4ReE9N1LwNp6T6j4hgv7EGxvLaLW7uIQTRnay7FkAUcAgAYwRivQvD/AIR03QtRuL+0fUJryeJYJJr2+mum2KWKqDIzYALMcD1NAHL6df8AifxD4v8AF2jwakmn6Zp97HGl2kaNOqtbxt5cYKlR8xZi7hvvYA4yJtKuNX8L/ELT/D2o6xdazpmr2k81tLeognglhKb1LIqhlKvnkcEe9S/D7/kePiN/2FIP/SSKm+Lv+SxfD7/r01X/ANAgoAs/EXXNa0nW/CVroBgaTUb2a3linwI3At5GBZsEgKQGwuCduM81k+NLPxP4W8P33im18VX1/daen2q40+4hhW0niXl0VVTenGSDuY9M5q/8RP8AkePh3/2FJ/8A0klrR+L/APySvxb/ANgq4/8ARZoA1Nf8QWejeFbvX7rd9jt7U3RAHzMNuQo9zwPqa4+x8P8AirVrWLUtV8U3+k6nKokWxsYYTb22RwjB0ZpCM8ksOc4xU3xL0251b4LXltYrK9yLGCdEiYq7+UUk2gjnJCY49aZo3hXRNY0m01LTdZ8Sy2d1Es0Ui+ILw5UjP/PX8KANPwdr82oeH7ufWhFDf6ZPNaXxjBCb4urqDyFZSrgdg2K5zw9D4i8c6dHr91r9/oOnXf73T7DT44d4hP3JJnkR9zMOdowACPetm78IWtj4J8S6RojXQn1WG4Z5bi5eeRpnh8vcXck5wq9+1T/DDUoNW+Hvh+6tsLizjhkj7xyIoR0PoQykfhQBzfg+DUrX4xa7Bq97HfSx6PaCO5WIRNInmzYLqON2cgkYBwOB0re8J6vfnxN4l0HWp/OubKdbm0kKKu+0lGUHygA7WV0z1+UZ65rM0a6gufjh4iW3mjlaDR7SKUIwOx/MmbafQ4YHHuKseN0/sjxX4d8TqdsKy/2VfnHBhnYCMn/dmEf4O1AF3VtWvpfiJo+h6dMI7eG1lv8AUvlUlk/1cSZIOMuWbjB/d11ecdK4r4eodS1DxH4mkB/4mV6be3z2trcmJMezMJH+jiu0oEPEuPvVIGDdKr4z1oyVPy0wLBphpiyZ+91qSgBKaTTjTTz16UANppp1NNADaQindqQ0AMpGp1IelADaSlpDQBnXenWs7EzW8T57lBn86zZvDOmyHIjeP/cc/wBa6BxlagrGeHpVPjin8jeGJq0/gk18y5S0ClFbGICnAUgp1AHjOt/8hq//AOviT/0I1T7fjVzW/wDkNX//AF8Sf+hGqf8AjX5tX/iS9X+Z+kYf+FH0X5HXfDf/AJDM/wD1xP8A6EK9Jrzb4bf8hm5/64/+zCvSq+xyT/dI+rPjc7/3yXogrN1nw/pOtXVjPq2n297JZOZLfz13rGxx8wU8Z4GDjI7Vp1ma34h0XQfJ/tzV9O03z93lfbLlIfM24zt3EZxkZx6ivYPIZPf6Tp+ptbnULG1ujbv5kPnxK/ltjG5cjg47itBFCgADArlv+Fg+DP8AobvD3/gzh/8AiqX/AIWF4M/6G7w9/wCDOH/4qgDoL3T7S+e1a9top2tZhcQeYoby5ArKGHvhmGfeqniPw7pHiawNlr+nW1/bZ3BJ03bT6qeqn3FZn/CwfBX/AEN3h7/wZw//ABVH/CwfBX/Q3eHv/BnD/wDFUAQeD/ht4R8HXj3fh3RYbS6YFTMZHlcA9QGdiQPYVu674f0rX/sY1mxgvUtJhcQpMu5VkAIDY6HgnrWT/wALC8Ff9Dd4e/8ABnD/APFU7/hYfgv/AKG7w9/4Mof/AIqgDdudMsLq7tbq5sraa5tAwt5ZIlZod2N2wkZXO0Zx6CqniPw3o/ia0itdf0631C3jfzEjnXcqtgjOPXBP51m/8LD8F/8AQ3eHv/BlD/8AFUf8LD8F/wDQ3eHv/BlD/wDFUASQeBfC8GgXGhw6HYppFxKJpbRY8Ru42/MR6/Kv5CrHhrwloHhcXP8Awj2k2mn/AGnb53kJt37c7c/Tcfzqn/wsPwX/ANDd4e/8GUP/AMVR/wALD8F/9Dd4e/8ABlD/APFUAbUujaZPqdvqUun2r6jb58q5MSmSPKlThsZGQSOver2a5f8A4WH4L/6G7w9/4Mof/iqP+Fh+C/8AobvDv/gzh/8AiqAOqxRg1y3/AAsLwV/0OHh3/wAGkP8A8VR/wsLwV/0OHh3/AMGkP/xVAHVUVy3/AAsLwV/0OHh3/wAGkP8A8VR/wsLwV/0OHh3/AMGkP/xVAHU0Vy3/AAsLwV/0OHh3/wAGkP8A8VR/wsLwV/0OHh3/AMGkP/xVAGTN8HPAM07zS+GLJ5HYs7EvySck/er0PtXJD4ieCs/8jh4d/wDBnB/8VTv+Fi+Cf+hw8Of+DOH/AOKoA3tUsbXVdOubC/iWe0uY2ilibOHRhgg/UVxUPwb+HsciyL4WsCynIDBmH4gnBrX/AOFi+Cf+hw8Of+DOH/4qj/hYvgn/AKHDw5/4M4f/AIqgDpbeKO3gSGCNI4owFVEUKFA6AAdBVbU9K0/VDbHUrK2u/s0nnQieMOI3wRuAPQ4J5rE/4WL4I/6HDw3/AODOH/4ql/4WL4I/6HDw3/4M4f8A4qgDqKr6ppWnavaG31awtb63PWK5hWRT+DAisD/hYvgj/ocPDf8A4NIf/iqP+FjeCP8AocfDf/g0h/8AiqAHf8K68D/9Cd4c/wDBZD/8TR/wrrwP/wBCd4c/8FcP/wATR/wsXwR/0OHhv/wZw/8AxVL/AMLF8Ef9Dh4b/wDBnD/8VQB0ljZ2thbJb2NvDbW6cLFCgRV+gHFUPEHhrRPEQthr2lWepLbsWiS6iEiqSME4PFZf/CxvBI/5nHw3/wCDOH/4qj/hY/gn/ocfDf8A4NIf/iqAOkjtLaO0FpHbwrahdghCAIF9NvTHtXMzfDTwPPK0kvhDQC7HJP2CMZPr0p//AAsfwT/0OPhv/wAGkP8A8VS/8LG8Ef8AQ4+G/wDwZw//ABVAyD/hV/gT/oTtB/8AAGP/AAo/4Vf4E/6E7Qf/AABj/wAKn/4WP4I/6HLw3/4M4P8A4qj/AIWP4I/6HLw3/wCDOD/4qgCfRfA3hXQ79b3RfD2l2F4oKia2tkjcAjBGQM4roq5b/hY/gj/ocvDf/gzg/wDiqT/hY/gj/ocvDf8A4M4P/iqAOqrG8T+GtI8T29nDrlmt3HZ3SXkALsuyVM7W+UjPU8Hg9xWd/wALH8Ef9Dl4b/8ABnB/8VSf8LG8Ef8AQ5eG/wDwZwf/ABVAHUMc1j6F4b0jQbzVLrSbJLafU7g3V2ysx82U9WwSQOp4GByazv8AhY3gj/ocvDf/AIM4P/iqb/wsXwR/0OXhv/wZw/8AxVAG1rGjWGryae+owec1hdLeWx3suyZVZQ3BGeHbg5HPSovEmiWPiPRrjS9VjeS0m2k7HKMrKwZWVhgghgCCPSsr/hYvgj/ocvDf/gzh/wDiqP8AhYvgj/ocvDf/AIM4P/iqANW/0Sy1Hw9NomoLJdWE1v8AZZRNIzPIhXacvncWI/iznPNOsNJt7LRI9KV7ie1SIw5uJmkkZcYwXJyeO+ax/wDhYvgj/ocvDf8A4M4f/iqT/hYvgj/ocPDf/gzh/wDiqAN3R9Ns9H0i00zT4vKsbWJYIYixbaijAGSSTx6muctvh7oVrE9vbi/j01mLf2et9MLUZ6gRBtu0/wBz7vtU3/CxfBH/AEOHhv8A8GcP/wAVSf8ACxfBP/Q4+G//AAZw/wDxVIDW0bQ9N0FLtdJtI7VLuf7RKkedpk2KmQM4UbUUYGBx0qHTtKsdNutRnsYPLlv5/tNy28tvk2hd3J44VRgYHFZk3xE8FFePGHhw/TU4f/iqg/4WF4K/6G7w9/4Mof8A4qgDZbR7FtfTWjB/xM0tms1m3txEzK5Xbnb95Qc4z70mr6NY6xHapqUHnLa3Md5D87LsljO5G4Izg9jx6isf/hYXgv8A6G/w9/4Mof8A4qj/AIWF4L/6G/w9/wCDKH/4qgDqKz9Z0aw1lLRNSg85bW5jvIfnZdksbbkbgjOD2PHqKx/+FheC/wDob/D3/gyh/wDiqP8AhYXgv/ob/D3/AIMof/iqAOmxWfpmhWFlquo6hZQeTdagyPcsHbbIyjaG252g44JABPGc1kH4g+Cv+hu8O/8Agzh/+KqWH4heCx/zN/hz/wAGcH/xVAFzU/BukX2qHU0W7sNSYBZLnT7qS3aUDgeYEID4HA3A47Vd0HQLDQo51sBcNJO++aa5uJJ5JG7FndieOw6Csv8A4WH4L/6HDw5/4NIP/iqP+Fh+Cv8AocPDn/g0g/8AiqANmw0ex06+1G7s4fLudRlWa5fex8x1QIDgnA+VQOMdKS90awvNY07VbiDff6esqW0u9h5YkChxgHBzsXqDjHFY/wDwsPwV/wBDh4c/8GkH/wAVSf8ACxvBX/Q3+HP/AAZwf/FUAbeoaPY6jfadeXkHmXGnytPbPvYeW7IUJwDg/KxHOetSavptprOlXem6lF51ldxNDNHuK70YYIyCCOO4OawP+FjeCv8Aob/Dn/gzg/8AiqP+FjeCv+hv8Of+DOD/AOKoA6aGJLeCOGIbY41CKMk4AGB1rj5/A2jJc3MmnnUNNW5JaaKwvpbeJ2PJbYrAKT3KgE+tWj8RvBWP+Rv8Of8Agzg/+Kqs3xD8Fkn/AIq7w7/4M4f/AIqgDY0fTLPR9PistOi8q2jyVUsWOSSSSWJJJJJJJzzXOX/w90C51O4v4V1DT57pt9yNOv57VLhu5dY3AJPc9T3NWf8AhYPgv/obvDv/AIM4f/iqT/hYPgv/AKG7w7/4M4f/AIqgC5ovhjRdDuzc6TYRWszQLbM0ZblA7OMjOCdzuSx+Yk8k1z/xav7abwleaFA0Vxq2sg6fZ2wYFzI/BfA5AjBLk9ttan/CwfBf/Q3eHf8AwZw//FVmWXiL4Z2OpXOoWeteD4L+5Jaa5jvLZZJCeu5gcmgDqtB0uDRND0/S7MYt7OBIE+iqBn9KvVzP/CwPBn/Q3eHf/BlD/wDFUf8ACwPBn/Q3eHf/AAZQ/wDxVAjpjTKytH8UeH9bumttG13StRuFQyNFaXcczhQQCxCkkDJAz7itY9aAEoDlenSlpppgTI4b60pqvS+Zjg0APoNAooASmmnUh6UAMNFLSUAMNFKetJQAlV5BhqnprruoAnFLQBRQAtOFIKdigDxfW/8AkNX/AP18Sf8AoRqmKua3/wAhq/8A+viT/wBCNUxX5tX/AIkvV/mfpOH/AIUfRfkdb8Nf+Qxcf9cT/wChCvS680+Gn/IYuP8Arif/AEIV6XX2OSf7pH1Z8bnf++S9ELT6ZT69g8kKWkqvZ39netOtndQXDQOYpRFIGMbjqrY6H2NAFuiiigBaKKq3WoWdpc2tvdXdvBPdMUt45JFVpmAyQgJyxA5wKALdFMR1kXdGysuSMqc8g4P606gApQKQU4CgAxRijFGKACloooAWiiigQUUVBd3lrZiM3dzDAJHEaGVwu9ycBRnqT6UAT0tJTqAFooqsb+0GoCwN1bi+Mfmi38weZsyRu25zjIIz04NAFqiiikMKWkqD7Xbfbfsf2iH7Xs8zyN437MgbtvXGSBn3oAtUtV5rq3tpIUuJ4onmbZEruFMjdcKD1PsKsUAFPplV7LUbK+luYrK8triW1k8qdIpVdoXxna4B+U47GgC5RRRQAuaM03NGaAFJpKKKACiiigBlIaDRQA2iiigAooooASiiigCCb71RY5p8p+emigBKKWigBKKWigBMVajGEFVoxl+tWhQAYoxTsUYoAbijFOxVe3vLS5nuIba6hmmt2CTRxyBmiYjIDAdDjnBoAmxRijHuahgu7a4mniguYpZYCFlRHDNGT0DAdD9aAJSOKqFeafeX1nZPbpeXcFu9zIIYFlkCGWQgkIufvNgE4HPBpHGaAI8UmKr2+oWdzd3Vpb3dvLdWpCzwpIGeIkZAZRyuQQRmrGKADAowKMVTu9T0+zvLS0vL61t7q8LLbQyzKjzlcbgik5bGRnHTNAFvijiiigBDjNN4pxptACU09adTW60wG02nGkNADRx0p6yetMpKAJwQelH1qANjpUiv60AGaQ0ufSigBp60lOam0CEooooAlzS5ptLQA4dacKYKeDQB4vrf/Iav/wDr4k/9CNUxVzW/+Q1f/wDXxJ/6Eapivzav/El6v8z9Jw/8KPovyOv+Gv8AyGLj/rif/QhXpVea/DX/AJDFx/1xP/oQr0qvsck/3SPqz43O/wDfJeiCn0VzHj3wrN4tsLexGuajpVoJM3KWTBWuEx9wt1X8OxIIPb2DyTmPF/ji91rVX8JfDh0utab5bzUhhrfTIzwWLdGk9F9fpisuLwnqvwk8vVvCX23XNHZA2s6a7F55pB1uoc9XP8S9wPym0j4YeK/DtvLY+FfH8ekaV5rPDax6BbuUUngM5bc7AYG5uTisP4fRfErxhDrsh+JH2T+y9Wn0vB0K2k83ywp39sZ3dOenWgD2Hwl4n0jxbo8Wp6BexXdq/BKn5kb+6y9VPsa5X4z6BPe+FtT1q08ReIdJuNK065uIotMvTBHKyxlx5gAy3KgcEcE1kaJ8ILzT9V/tuXxfeDxE90JZ72xs47RLiHC5ikhXKMchjvIzluQcCtr42aPeaj4F1u5tdbvdPhtNLu3ltoFQpdDyidr7gSBgEcEfeNAGJ4DtNY8NeBdI8RWUvijxjqGr2lrLPZXmqIyW++LzGePzMYG4gdSeR6Gub8f+KvEtz418Bz3Xga+tZ7e+meCBr6BjckxYKgg4XA5ya6n4f+DbrUfg7a2WoeI9SuYtV0i0a2BIj/s8iIMvlFADgEr1JyEA9a84+MfivUtItvhu/iAIPFWlXZvL21t5FkZo4yP3nHADqpODjqfSgD0n4eJrOmeKrxYvBOq6JpGosHlie/ge2tpAGLSJGpLAv8oIHGea2Piv47n8Jwabp2h2I1LxPq8vkWFo2doPGXfGPlGR3HXqACRB8PLPUPEuuSeO9cWW1S4g8jSNPLkCC1Jz5jgHBd+Gx/CMD6YNyovP2qrZbpd32Lw+ZLUN0VmkILD3w7DNAF6HwZ8SLiA3d38Rhb6kcMtvBpcTW0f+xzyw9+v1ru/BbeIDoMQ8XJZLqyuyObMkxuoOFfB6EjnHv26DP8deMJPCn2HyvDmv659q35/sm0M/k7dv3+eM7uPXBpnw68eWXjjTNRvbSxvrAWF01pNDeoEkV1UFsgE4xnGDzkGgDqLy8tbGHzr25ht4s43zOEX8zUkE0VxEJbeVJY26OjBgfxFeEfDDw7Z/FaTUvHHjWH+04pruW30uymYmG2t1IH3Om4ng59M9+JrrTofhN8WPDS+H2ktvDHieZrO508uWihuMjY6ZPy5LDj0BHTAAB6l488Lp4s0P7GL260+7hkFxaXds5VoJlztbAPzDk5B7Hsea4rxvoWmX/gzQbr4q6Hda/qloWgI0ZJ22s4yz7Y2U4IjXJPAPTGas/GjwTpeqeHte8R3El+mpWGlTvAYbt40Uxxu6kqpwefzqLQb7xtF4E8HyeHLXw/c2TaJZNLLqd1LHIZTEM42qQRjbznOSaAPEvCOk/Du88R+KLi98GeJLzR1uUt7C3tra6f7NsX94HZXzuLEHaxOPxr2z4KaH8Py1/r3gPRbvTrmKSTS7g3Uk28EeW7IUkdsc7O2cgisXwJpvxI8H6CdNgh8GXReeW6lnlv5g8kkjFiThMdwPwrW+D+h+NvDjtYapH4el0q4u7i8up7W6lkmDyZYbVKhcbto+maAOn8Q3/jyHWLiPQNC0W701dvlTXN+8cjfKN2VCEDDZHXoK5HxvpvxD8YeGL3RdT8LeHfJuF+SRdTctDIPuyL+76g816T40s1vvC2oWsmkf20skYB0/zVi8/kfLuYgD15PavF/+EHsv+iF/+Vi2/wDjtAjrdEuvivp+k2VldaFoN9PBCsb3UupMGmIGNxATqa6/wje+LLqe4XxVpOl2ESqDC1ndtMWbPIIKjHFeR/8ACD2P/RC//Kxbf/Ha9/j+WGNdu3aB8vXHHTNAHAa7rXxGttWvI9I8KaRdadHIRDPNqQjZ07MVxxXlngrXPHOt+JdY+Itr4e0ee2mhGmwyT6iIooYom+cox+8rPzu45BrU/aH+J0v/AAj+s+H/AAaWupYI1GsX8PMdnGziPy9399mYLx0Ge+SrPGNp480b4NajpTaR4WttAt9NMbfZ7qdpFjA6gMuC3fk8nNBSVjtE8RfFKSJJI/BuhvG4DKy6sCCD0IOOldf4KvvEl9aXDeLNJtNLuFkAijtrnzw646k9jntXA6FqnxOs/B+nTQaT4SezhsI3QveT7ygjBGRsxnAruPhxr8/i7wFpOuXMUdtcX0JdkhJ2ockcZ+lAzJ0nQfEnhzx7dvpl22oeFtW8y5livJy0mn3PHMZOSyP/AHe2O3fgfGv/AAlOma3F4q1PXvAUGsaDbTnyohcLJLGUyY3Tzcv0+VfU1p3yeI/CXxT8B6ZL4u1TVrHWXvFuIbtIgMRRBlxtUd2/QVjSab9u+KnxBf8AsTwXqW26tvm8QSYdP9HTiP8AdPx69KQiPTrrxV4t1Dw54y1PxF4Btrq2tS9rpt00my2aTBLsolz5m3A5PHpnmvevDg1ldLQeJZNOk1LcdzafG6RFc8YDknOOvNfMnxq0Y2nw41Kf/hG/h1Y4aH/SNFkzdL+8X7o8hevQ8jjNfUGp2Y1LT7uyeWaJLiJ4TJA5SRAwIyrDlWGeD2NAjkddtviS+rXLaHqPhaLTS37hLq1meVVx/EVYAnOegry74cxfECPXPH0tlqvha3eLVna/lu7eUx+YIxlkwwwmPWl8fD4f+CVeG/8AGnjG81MHaun2WuSyzFvQgHC/8CI/GvNfCVp4b1O61O58Yaz4p03TL19x0a3F5cPIcY33Epj2u3fAHYc8UAeweDbjxb8Ub9TrV9axeE9LvvMF3pcctsNVdANqpuO7y1bcSwPzHAHTI93NfPHg7S/h9rOqWvh/QfFfjmK4MRMFs13dWyiNBzt3KAAB2r3rRtPTSdKtrCKa5njt0CCW5lMkjD1ZjyT70AXaKKKACiiua+JPiNPCPgTW9cYoHtLZmiDdGlPyxr+LFRQB5Ifid4gHxXFz9viPgM66fDfkfZ1z9oEI+fzMbv8AWH1xj8699r5sl0fSv+GYRpf9tWTa6lv/AGxn7XGZvtO7zsdc7sZT1r274beJF8W+BdF1tSu67tlaUL0WUfLIv4MCKAN+W5gihklkmjSKP77swAX6ntRbTw3UCTW0sc0LjKyRsGVh7Eda+cvhb4Rt/GPj34jQ+IXe50Gx8Q3My6aWIjmuHkcb5APvBVQYGcZJyOK7P44X03hD4f6T4c8GhdNn1i+i0m1MPy/Z0kJ3FT2PbPUbsigD0651GzkF1bRXlu10kbFollBdeD1GcjofyrzT9lm4muvg9p8t1NJNK1xPl5GLE/Oe5qa2+CPg3TPDywwWMo1KCMyLqqTut15wHMgfPBzzjG32qp+yiMfBnTx6XNx/6GaAPVr/AFCz0+MSX93b2qE4DTyqgP4k1PFIksayROrowyrKcgj2NePeMtD+FHh/XNQ1Lx1eW11qd4WlZdSuXuZI0JJCxxAkqg5xgcdBWF+z3qdhbfEbxt4e8NS3R8MKIbyxhuEdDCWA3gK4DAEtjnsoPfNAHv29PM2bl34ztzzj6VXt9Qsrm4kgt7u2lnjOHjjlVmX6gHIrwzxnon/CQftN2+mvf3dnazeHgLoWrlHniEzExbhyoJC5I5wMcZqr8Z/CGh/DybwZ4l8HWCaVfw6zDaOLYkCaJldmVuechMZ7hjmgD32T77VwXxv17UvDPwu1rV9EufsuoW3keXL5avt3Txq3DAg/KxHI713j/eavMP2l/wDkiXiT6W3/AKUxUAd74aupb3w5pV1cNvnntIpZGwBlmQEnA46mtGsfwZ/yJ+hf9eEH/otav6naC/066s2lnhE8TRGWCQxyJuGNysOQwzkGgBtxqmn292ttPfWsdw3SKSZVc/RSc1aJ9K+f/EOjfBPSrO40W6mt7jU5NymWBpby783BJYsm4hgeSOB6iuu/Zq1m81r4T2EmoSvNNazS2qyOcsyKcrk+wIH0FAFP4AXjm9+Ib3tyfJg8QXCh5pPlRQTgZJwBXsdneW17CJrO4huIj0eJw6n8RXzj8H/AuleLPEvjubxCLi9s7bX7jy9PaVltzJuP7x1BG5uwzwOeOa2Nc0Sz+Fnxf8IXvhdXstG8Rztp19YI5MRlJURsFPQ5cfTHYE5APeppooImluJUijXq7kAD6k1DY31pfxebYXUFzH/fhkDj8wa8Y+PYit/GHg+/8W2t1eeArdpftscKl40uCMRtKq8lemPoR3IPX+AdA+H0+pr4k8CJp4lEJgc6dLtj2nn54gcA8dwDzQBpfEvxrB4O0ZWhi+2a3et5Gm6enL3Ex4HHZRnJPYe5Febado3iL4RQL4pu7qbWbO/PneKIFw3kzMxJuIjjJVM7SO4Gf92f406KdE8VeHNe0C+ubLXdb1m20p7x8XH2eGQFWESSAqvODxjv6mj4hWHjHwrpWn3L+P7/AFAXmo29ibaXT7cLIJX2sDhcnjPFAHV6341uD8Svh9p2i3UE2ia9DeTSugDCVUh3xlW7DNVfhX/yUb4n/wDYSg/9E1j+INHsPD3xp+EmlaPbJa2FvFqgjiTouYCT+pNbHws/5KN8T/8AsJQf+iaAOR+IHj57n4oeFrZPCPi6WPRLi7upoo9N3SXOEMSSQjd80e5iSxxwR612dv8AFHSrjwLq3ig2WpWcFhNJbG1volimedcARhQx5LMF65yDkcVQ0vVrK4+OPjS/vZki/sLSILSNXcBmjO6aV1UnoDtBP0rzqw8KaTqfwk8M674y8RX3h63a9n1ItasFBmmlLRPnBwwUcNj+LtQB33g3Sde8JfDzVtdOnx6l4y1N21O8tnkKbmJz5IYbvupkAdMnHSu78Ka/Y+KPD1jrOlyb7W7jEi8jKHurY7g5B9xXhkMnwywft/xU8UagTtz9p1aXGR/uoP8AIr0P4NaHpWlWeq3fhTWzqPhq/nEtrCwZjDIF2ynzGOW3EenGOpoA9Grxn4sahb2/xr+F0U7qNktzgE9GlCon5sAK9mr5r8d6bd+PPF3jTxJo7M7eE4YLfS2X5lkuIZPOlwPUYZffcKAPpOisvwvrdr4k8PafrGnsGtryFZV5yVyOVPuDkH3FalACGm0ppKAENI1ONNPSmAw0hpTRQA2mkU6kIoAb0opaSgAVsVIG3VCRmgHbQBORTD1oV804jNAhtJS0lADxThSUtAxw6U4UlLQB4vrf/Iav/wDr4k/9CNU/4q9an8J6RcTyzS27mSRi7ESMMknJ70z/AIQ/Rf8An3f/AL+t/jXyFXIcRObkmtX3f+R9dSz3DQhGLT0XZf5nL/DX/kMXH/XE/wDoQr0qsnStC0/S7hprKJkkZdpJctxnPf6VrV9Bl2GlhaCpT38j5/MsTDFYh1YbO24+ori4gto/MuZo4Y843SOFH61LWdr2h6Z4h082Ot2MF9aFg/lTLuXcOhx+Nd5wnEal4H8I6hqN1eza7qQluJWmdYtbkRAzEk7VD4A54A4Fec/B/wAGeGtUtfFZ1DVtQgNv4gureHytWkh3xqI9rHDDcTk/N1Netf8ACqfAn/Qq6V/34FKvwp8B4wfCuk4/64CgDR8I2GieHbJ9P0vUmnWaYy/6TfG4csQq4BYk4+UcfX1rE+LOoazPo994a0Dw1farc6tYTQfaUkSKC33qUy7seoznb3rV0z4b+DdLv4L3TvDmmW93A4eOWOHDIw6EGutzQB4ppsHxU8M+G9G0iODSLud7WPTLRbVGMVjsRR59w7csdqtwo2kn6A0PEHgaw8PeKvh5bXBOpahqWpXDanfXIzJeM0BDbvReSAvQD8TXvVcVovwv8L6T4kTXoLS4l1KJ3eF7i6kkWEt12KTgccdOKAMHwFc6n4F1+LwPrUF3daRKzf2FqaRl18oZb7PKQPlZADgnggdqi+L+g6xp/inQviD4WszfXuko0F/Yxj95c2rZzs9Su5uOeoPbB9aooA8tt/jx8P3097m51iSzmTiS0ntZBMjf3SoU5Pbgke9Vf2erS6bR/Fd9eWN1aW+q63c3tsl1EY3eF9uG2n8a9Va0tmnEzQRGYdHKDcPxqbAFAHgfw58Q2nwguNR8GeNXlsLIXclxpOovGzQ3ELc7dyg4YdT7nHpmzJqC/Fv4qeHLvQYZ38JeGZWu5NQliKR3NxkbFjzgnaVBzj1z2z7hPDFPGY54klQ9VdQwP4GnqqooVAFUcAAYAoA5T4uXENv8LPFz3EiRIdKuowzHALNEyqPqWIA9zXg+taxqHiD4N+ErW/0RrLwzbSaVaG5u5Nr3bqFVyq9osBvmJ54x7fT17aQX1pNa3sEdxbTKUkikUMrqeoIPWsvxb4U0nxbpMem63AZrOOZJxGp2jcmcA+o56UAcD/wgXwe/58vDn/gaP/i6zvgXZaTpnxN+J1n4cS3TSY304QLbvvjAMUpODk55Jru/+FZ+CP8AoUtD/wDAKP8Awq74V8FeH/Cd9qV14e02KwfUTGbhYSQh2AhdqfdX7zdAM55oA5v9oy+u9N+DfiG7066ntLqP7PsmgkMbrm4iBww5HBI/GuTttJ+Hb28TSfFO/WQoC3/FWDOcf79ev+KvD+m+KtButG1uBp9Pudvmxq7ITtYOOVII5UVlL8OvBSKoHhHw8cDGTpsJP/oNAHivxHtfB2l+CNWvvDfxL1K61eGLdbQp4n84u24DAQNk8Zr6H0NmfRbB3JZmt4ySTkk7RXM6n8L/AAPqNhNaTeFdFijlGC9vZRwyD/ddAGX8DXX20MdtbxwwjEcahFGc4AGBQDPL/j7oMUfwW8UW2haaBPdTQTvFaQ5aaQ3MRZyFGWOB19BWv8YRj4MeIwf+gY+f++a76qGu6TZ67o15pWpxGWyu4zFMgYruU9RkYI/CgLnA3/i+HQvBOk6c+ja9fS3WjRmN9PsGuEyYtu0lehz2PqK2fgxpl5o3wt8OafqdvJbXkNtiSGQYZCWJwR2OCOK62ytYrKygtbZdkEEaxIuc4VRgDP0FT4BUgjIPBoA8H+IHizT9Q+KHhPWNKhv9S0jwrNdrq97ZWrzQ25ljVQNyg7tuCW25wKiGiLrXjHxF4g0bTvh/4q0/VZYZYJNRuleSEJEqEY8t8cjkZ9K9v0TR9O0LTo7DR7OCysoySkMCBVBJyeB7mud1f4YeCdXuHn1Dwxpck7nc8iwiNmPqSuMmgdzyPxz8P9V17w1dafbeE/hxokspQi+tJtkkeGBOCIR1xjr3r325TTvEOmXloZYbuznVrebyZc9RyNyng4P1HFclD8Hvh/E25fC2nk4x8wZv0JxXWeH9D0vw9YCx0SygsbMMXEMK7V3HqcUAeOfGHwZoXg74d6XB4W02y02QazZYnZNzFt5wZHJ3MAfU/lXVfa/HX/Q3+CP/AACk/wDj9dh4x8K6V4w0lNN16Bp7JZkn8sOVyy9M46jnpWH/AMKl8A/9CppX/fmgDhrOXWpfj14SOv6ro2pSDTrwRtpkLRqgwMhsu2T6dK9d8X2Wqaj4a1C00DURpuqSxFbe6KBwjfQ+vTPbOe1YmifDbwjoWvW+s6LotvYX8CNGr2+UBVhg5UHB+pHFdhSEeafC34h3Wqalc+EvGkMen+MdP4eMH5LxAP8AWx9uRyQPqPQemVRbSrCTWItVksrdtShiaCO6MY8xEYglQ3XHH+c1eoAK8Z+PbnxF4i8E+AoSWXVb8Xl8oP8Ay7Q8sD7H5iPdK9mooA48/DHwMcZ8I6Dx/wBOMf8AhXC/s+Snw/r3jfwDOcDR9QN1ZKWzi2l5UD6DaT7vXtJoyaAPFv2ff+Ry+LH/AGMU3/oyWtT9onw/qereEdP1TQbd7rU9B1CLU47dF3NKqZ3ADuejdydpAGTXqtFAHk8Pxt8LavoaDRDeahrl1GUi0eC3c3HmEY2txtUA9WJxjmq37KiPH8HrFJVZHW6uAysMEHzDkEV65HbQRTSTRwxJLJ991QBm+p71LQB85fB7xH4U8KnXZfH9xDZ+PBqE322W8idppASNvkkgkoR0A5PpjFanwrvZNW/aH8b6o9heWMN7p1tLBFeR+XIYwI0Dleo3bCQDzg84r3N7aB5lleGNpV+65UFh9DU1AHi91/ydja/9i2f/AEa1M/aq/wCRP8L/APYxWv8A6Lmr2uigCme9eX/tLf8AJEvEn/bt/wClMVeoN1NIBQB4x4b+Ovw/sfDmlWl1rEqTwWkUUiizmOGVACMhfUVueO9ek8X/AAU1vVPAU807z27CB0R0dlWQCUKMBs7Q4HvivTKKAPGfh945+H+g+ENNs/CyefqLwIp02yti15NNtG4OMdc9WY498U/9lSCS2+Fz29wpSaLUbhHU9VYFQR+devRW8EUjyRQxo78syqAW+p70+gD55+D/AI30jwhrXjkeJDdWVjdeILoRag0DNb7w3MbOoO1sEHkAc9a2Tq0Xxe+LXhu48PRTTeFPDEj3U+oSRMkc9wcbFQMOSCqn/vo+mfb0jSXckqK6MMMrDII9xViKJIYhHEipGvCqqgAUAcd4u+IGgeFtYh0zxMLqztrqLK30tszWrEkjyy4BAbAzg8YPWvLNMTw7ffHfw9e/ClY/syQz/wBvS2EZW08sr+7BwNu4tngd9p7GvoSSNJo2SVFdGGCrDINMt7eG2jEdvFHFGOQqKFH5CgDyn4+EC8+G7EgAeLLHOfqa3PFPgq0vNYj8Q67rmqT6fpU41OHTpJI1tYpI1OG+7uwOTy36cV1Hirw1o/ivSH0zxDYRX1kzB/LfIwwzhlIIKnk8gg8muHT4CfDRHV/+EaBZSCN17cEfkZOaANjw7a6b46Twh47uLW5tL62t5JbSHzQVRZk2NuwPm+Xp0rF+Ff8AyUT4n/8AYSg/9E11Hi7wD4b8WaHY6PrWnLJp1kytbwxO0Qi2qVAG0jjB6dOnpVjwZ4O0HwXpr2HhrT0srd38yTDs7O2MZZmJJ/PjtQB5X8e9N03xrrmk+E9Egik8YTHdJexkg6faYIkaUr1VgdoQ9d3uM5niS81S3+HGgWfizS7fR5NG8QWFo7o6i2khjYYkQk8Jt9emD7ge46R4d0nRrzUbvS7CC2uNQl8+6kRcNK/qT/Tpkk96p+KPDmleJ7GOx1y0W7tY50uBE5O0uhyMjuPUHg96AMX/AITfwJ/0M3hj/wAD7f8A+Krnv2dmR/hwHiZXjfULtlZTkEGU4IPpXU/8K98Gf9Cl4e/8FsP/AMTV7wv4c0vwxpH9maLbfZ7EO8gi3FgCxyevbPagDhviX49nW6bwj4GIvvF92PLJi+ZLBDw0sjDIUgHgHpkEjoD1Pw98J2vg3wnZ6NanzTGC88zDmeVuXc/U/oAO1W/DnhTQ/DIuRoOmW1j9qkMsxiTBckk4J64GTgdB2rax6UAeKx3EvwY8RXMV3HK/w+1S4MsE0alv7LnbqhUdIyemOnuc59h0++tdSsobvT7mG5tZlDxywuHVge4I4NSXdrBeW0tvdwxz28qlZIpFDK4PUEHgiqPh3QdL8OaaLDQ7KKzsw7SeXGONzHJP+ewA6CgDTptOptACUlLSGmAh6Uw1JTDQAwikpxphoAO1IaXtQaAG0006kPFACx/fqY1HEOal7UCI+aTFPzSEUAOFOXrSCnL0oGKKUUClFACilptOoAUdaeDTKdg0WAeKUU2nU7AOooopWAWiiigB1FFGKACijFGKQBRRijFMB1FLRSAWiiimAUUUUgCiiigAooooAKKKKAClFAooAKKKKAFooooAUUtIKWgAooooAKKKKACiiigAooooAWiiigAooooASilooAQUtFA60AVHHzn60nenyD5zTO9ABSGnGkoASkpxpKAHQ8PVmqqcMKt+lACGkpTSUAFFFFABRRRQAlUz99quVTP32oAKKKKAGUUUUAJRRRQAlFFFADTSGnGm0wEppFOpD0oAjNNIpxNIaAG9qQ04Dinhc0ARY9KcqetShcUEUAJ0pKWkoADSN0pTSN0oEOoopR1oGPpaQUtAHM3PjTTre5lheK5LRuUJCrjIOPWov+E70z/nldf98r/jXAat/wAhe+/67P8A+hVUNfHVM7xUZNK33H2FLI8NKCk76ruel/8ACeaZ/wA8Lr/vlf8AGl/4T7TP+eN5/wB8r/jXmihmICgknsKfLbzQgGaKSMHuykCpWeYtq6t9xbyLCJ2d/vPSv+E+0z/nhef98r/jR/wn2l/88bz/AL5X/GvMaSl/buK8vuH/AGDhfP7z1H/hYGlf88Lz/vlf8aP+FgaV/wA8Lz/vlf8AGvL8UmKP7dxXl9wv7Awvn956j/wsDS/+eF5/3yv+NH/CwNL/AOeF5/3yv+NeX8UmKP7dxXl9wf2DhfP7z1H/AIWBpf8AzwvP++V/xp3/AAsLS/8Anhef98r/APFV5gYZFBLxsoHcjimYpvPMWt7fcH9g4Tpf7z1L/hYWl/8APC8/75X/AOKo/wCFhaX/AM8Lz/vlf/iq8ztLS4vJxDaQvNJjO1Bk0XlncWU3lXcLwy4DbXXBxT/tvGOPNpbvYn+xMFzcl3ftc9M/4WFpf/PC8/75X/4qj/hYWl/88Lz/AL5X/wCKrzmy0q+voy9naTTIDtLIhIB9KqSRtG5Rxh1JDA9jTedYxK7tZ+QRyTBSbim7rzPUf+FhaX/zwvP++V/+Ko/4WFpf/PC8/wC+V/8Aiq8tx7VNZ2k95OIbSF5pSCQqDJ4qVnmLbsrX9BvIsJFXbdvX/gHp3/CwtL/54Xf/AHyv/wAVR/wsLS/+eF3/AN8r/wDFV5pfafeWBQXttJAXzt3rjOOtEun3kVv9ols7hIMA+Y0TBcHpzjFU85xqbTW2+hP9i4JpNSeu2q1PS/8AhYWl/wDPC7/75X/4qj/hYWl/88Lv/vlf/iq8wa2mWLzGhkWPg7ipA/OoSKl55i1vb7ilkWEezf3nvmkahFqmnQ3lurrFLnAcAHgkdvpVyuf8A/8AIo6f9H/9Daugr6zD1HUpQm92k/vR8niKap1ZwWybX3MKKMUtbGICiiigAooooAKKKKACgUUUALRRRQA6iiigAooooAKKKKACgUCloAKKKBzQAUYpwFLQA3BowadRQAgGKWiigCtMPnJqICrFwOM1BjigBMUYpcUYoAbRS0UAJ6GrIOVBqt7VYhOVxQA+ilxSUAFJilooAbSmjvQaAGmqh+8auGqZ+8aAEooooAZRRRQAGkoooADSUGigBDTacabTAQ00040hGaAGGhUJqZYwOtPxjpQBGsYFKeKcaTFADKbzT6SgBlJinkZptAATSEcUpFNJoEYuk6kIcW9y37nojn/ln7H/AGf5Vu4wea42tTSdS8kLb3LfueiOf4PY/wCz/L6VrOF9UZwn0Z0NOWm05ayNTxTV/wDkMX3/AF2f/wBCNWPDmlSa1q0NlEdu7LO/91R1NV9X/wCQxff9dn/9CNdp8IY1OoahIR86xqo+hJz/ACFfBYajGvjFTls2/wDM+9xFeWHwTqR3SX+R0mpXmk+CNOiFtagyy8IinDvjqWb/AD9Ky9F8fQ6heraanaJDFMdoffuUegYY/WsD4pyM/ikKxO2OBAo+uT/WtNfB/h5o1L62VYgHHmJXsTxOJliJU8NZQhpbRf18jxYYfDRw0amJu5zu76uxT+IOh6fbquo6TJEEZtssUbAhfRhXD9677xR4GtNI0K5vobu4keLZhXxjlgvp71w1vE09xHCn35GCD6k4ryMzpShX1gouXRO57OV1ozw+k3JR0u1YbHG8rhI0Z2PZQSalmsrqAbp7W4jX+88ZAr2j7Nb+E9Ab7BaNcSqANsa/PK3qcVneGvEt/qmofY9T0qSFZFOJPLYJwM4OR6V2f2NTg1TqVGpvyujh/tqpJSqUqfuLu7P7v+HPIams0Z7iParHDg8DPeul+IuixaRrCPaoI7a5XcqDorDGQPbkfnVPwdrzaFeyMtus/n7UwX27eevQ15rw/scR7Gs7We+/9XPUWJdbDe3oq91tt6/cem/EJWPg+/Crub930/66LXijKykhlKn0Ir3vxJqZ0fRLi+EXmmLb8mcZywHX8a8W8Saqda1WS9aEQlwBsDbsYGOtetn8YOpGXN71trdNdb/oeTw/Kfs5R5fdu9b9dNLfqdd8KhphuGMpI1Xc3lr82PL2jPt1zWx4xk8Nw61G+sI0tz5eGQBz8vY8cetZHwt0VnnGsecAib4fL29Tgc5rotetdP8A+EntJ2CXWozL5ItXdQNgVjuwR+tdWFhN4CKcYrVbq+ne3VnFi5wWPk1KT0eztr2v0Rd8HzaTNp8raFEYrcSkMCCPmwPX2xXKale+DBdXQls2N0GYM21vvZ5PX1ra1TxCvhkRRy6K0STElfJZcE8Z6Dr0qz4mt7CPwvfXk1jDDM8B6oNyu3AGfXJrqq2qUuSPLeCu7x0+S6HLSTp1VOXNab0tLV69+p4sPmzzivX/AId6HDp2jJfLiS7u4w+4jG0f3RXkFet+DbC1k8G2t1NavcShZDtVjubDsAByB2rwskinXbau0r/1ue/nkmqCV7Juz8/xXYt33hZNZtZpNXWI6mysqTRSPtQZO35SccZ9Oat3C2Vr4RhXWo82scUQlQgnkFcDA98UunWlq9lNPFYXNg5yCruVY4HB+Vj61nRarqGm+EY7vU7SC7jWJAzLOS0gYgDKlevIzz619I1Tp3k1ZtO7tf79Ff8AU+aTqVHGCbaTVltv21djl/G+t3msabEbSyng0cEN5rrjf2H0Ga4Y16Z46vNTm8NeXJpi2VoSu4tOrHGRhQoHrj8q8yFfKZtf29229Furfcux9XlFvYWSSSb2d/vfc9o8A/8AIo6f9H/9Daugrn/h/wD8ijp/0f8A9Dauhr7LBf7vT/wr8j47G/7xU/xP8wopcUV0nMGKKKKACiiigAxRilxRigBKKXFFABRiloxQAUUtFACUUtFACUCnAetOoAZRT6KAGUDin0UAIDS0UUAFFLRQA0LS4p2KMUARyjKVVxirpGRVRx89ADaKKKACiiigBO1OhODSbaAMGgC32ppoBoHNACUU7FJigBKMU7FIeKAGkVTI+Y1dqm33jQA3FGKdSUANIpMU/FIRQBHRin00jFADaMUtGKAG02pViZu1TJGF+tMCBYs9eKeFC9Klb6Uwg0gGHPtSc078KCOKAIyKac96kIpppgR0lONJQAlNIpxooAYahkbJxU54BqqeTQI5mWKSCV4pl2SKcFc/r9KbXV6haR38ASQhJl/1cuOnsfUVy80UkEzRTKUkXqP6j1HvW6lcxcbGroupiHbb3R/c9Ec/wex9v5V0JGDXDVs6Lqnlbba6b910Rz/B7H2/l9KmcOqKhPozzLV/+Qxff9dn/wDQq3fh5qqaZ4hUTvtguFMTE9Aex/Pj8aw9XGNXvf8Ars//AKEaq1+bqq6GI9pHdM/R3RjXw3spbNHqPxJ8OXGoeVqFhGZZY12SRqPmK54I9cZPFcBpmh6jqF4ltFaTKxOGZkIVR6kmtHRvGer6ZEkKypPCvRZlyQPQHrWrN8SNSZMRWtsjepya9GrPAYqp7aTcW91b9TzKMMfhafsIRUktnc6z4kzxxeEbqORgrzNGqD+8Q6sf0BryLS5xbapaTt92KZJD+DA/yBqbWNWvdXmEt/O0jDoOgX6Cs8DiubMcd9ZxCqwVkrW+R25dgfq2HdKbu3e/zVj33WLm8TSnuNIjiuZsBlRjw6+34c1wo8b+IDN5Q0gGT+55T5rntA8X6nosAt4HSW3H3Y5Rnb9D1/Ctqb4kX7JiGztkf1Ylh+XFetPMqVdKftHB9Va540Mrq0G4Okpro72/UrfEKfU54NKbWIYIJiJCscZJKj5ep/CuQtyBcRFjgBgSfTmrOrapeatcm4v5jK/QDGAo9AB0qnXg4qsq1eVRXe2++iPoMJQdCgqcrX1221bPb/HsMtx4SvooI3lkOwhUGScSKTx9Aa8XvLa4tHVLqGSF2XcFcYOK6rTPH+pWdnHbyRQ3HljarvkEj39a53XdWudav2u7zZ5hUKAgwAB0Fdua4rDYq1WDfNa1rHn5VhcThb0ppct73Oj+F01z/wAJAIVklNsI3dowTtBwBnHr0qb4hm4XxpbtaBzOsaNGEGTkFjwKyfC/iqbw/BNFDbRyiVt2XYjGBU1t43v4NRvb4xQyXNyqoCQQsYXPAHfr61dPE0PqkaEpu97vTYmrhq6xcq8YJq1lrueq2kX9q6ZaPq1mEnBEhibB2ODwRj/PNcd8VJr+SOG2jtpBp6/PJMOQzdgcdAPfrn2ri9R8U6xqEgae9lXByFiOwD8q0rHx9q0EBhuPKuoyCv7xcN+Y/rXXWzXD16cqLbjf7Vlr62OShleIw9SNZKMrfZu9PQ5WvY/BjrH8P7Z3nNuoWUmUAEoPMbnmvHAeuQefSuktfFk8HhltG+yo0ZR08wk5+Yk9PxrzMrxEMNUlOf8AK1+KPUzXDTxNKMIfzJv8T1XSpEl0h3jv3v423FZmUDPtwAKri7Gn+EILprZrkRQRt5S9T93n8Ov4V56/ju+Gkixgt4o8RCLzMkkDGMgetJpXjvUtPsIrUQwSrEoRWcHOB0HBr23m+GVld7Wvb/M8L+x8Tq+Vb7XW3yJvGcuvaxZx395Z/ZtKQho08xcjPAJHUn8K4s10viDxhf61ZC1mjiih3Bm8sHLY6Zya5qvnsfUhVq81OTl5vv8A5H0eApzp0uWpFR10S7f5ntHw/wD+RR0/6P8A+htXRVzvw/8A+RR0/wCj/wDobV0VfbYP/d6f+FfkfE4z/eKn+J/mGKMUUZrqOUKWkzRmgBcUYozRmgBcUYozRuoAKUCkpc0ALijFGaMigBaKTNLQAUYozS5oAXFGKM0ZoATFGKM0ZoAMUYozRmgBcUYozRmgAxRijNGaACiiigAqCdcfNU9NlGVoAqjpRR0ooAKKMikJoACaSiigCWNsfLVjFVAe9TRSbhz1oAlxS4pAaM0ALTHFOJqJ3oAaU4qmY8SGrJkqozneaAJscUbaajZWlJoACMUEZHNBakz60AGPSkx60o56VIqZ60ARhNx4FTJCB96nDA6UpJoATFIRQTTd1MBSKYRS7qaTQAhFNxzSk03PNAC4ppWlzTS3NADCKCKN1ITQA0ikxS5pjvtX3oAjkOc1EBQWzSFsUAWsVWv7OO+hCuQkq/6uTHT2PqKtUtNOwku5xs0UkEzRTKUkXqP6j1HvTK6zULFL+EKxCSr/AKuTH3fY+orlp4pLeZ4p0KSL1H9R6j3raMrmUo2OOuJnW4lBSHIYjJiX1+lR/aG/uQ/9+V/wpLv/AI+Zv98/zqKuL6tS/lX3I7frNX+d/eyb7S39yH/vyn+FH2lv7kP/AH5T/CoaKn6tR/kX3IX1mr/O/vZN9pb+5B/35T/Cj7Q39yD/AL8p/hUNFH1aj/IvuQ/rNX+d/ezTsLS8vo5JIYrRYYzhpJVjjQH0yeM+1QXgns7l4LiK3WROuIkI6ZBBAweK1lhe88OaaLaKaeG3nk+1R2/3wWwVboewwCR2oGm2dr4v0+1mWVbaTyWkjuCNyllB2twO5x0o+r0f5F9yD6xW/nf3sw/tDf3IP+/Kf4VJMZ4ViaWCJRKm9CYU+ZckZ6eoNbniZ0Njskt7sXC3GFkls0gVVwcoCpOeduPofWjxTPdz6RoruM2r2y/MIwB5gLjGQOOD0o+rUf5F9yD6xW/nf3s5/wC0N/cg/wC/Kf4Usczu6qEgyxAGYU/wq34dJXWbVxaPebW3eSq7i2Aeg9uv4VoeJLZ472wn83zI51ym+ERSLhuQ4A5I6Z74o+rUf5F9yD6xW/nf3sy9Rjmsb6e1mW2aSFyjFYVIJHpxTJS8UUMhFoRKCQFjQkYOORjiuo8ZxQot+dOYS/6WftrMvzqx5QD/AGeo+o+lYurqq6FoTBQGaKXJA6/vW60fVqP8i+5B9Yrfzv72NfTrpdcTSiLP7Qzqgbyl25YAjnbnv6VnySsjspjt8qSDiFP8K6mcH/hZNscHBnhIPqNq1n6Axg1a+820nk+R0Z4ow7wEn7209fT8TR9Wo/yL7kH1it/O/vZi/aG/55wf9+U/wo+0N/zzg/78p/hV3xHayWusTxzSRyOQrb44/LBBUEHbgYODyKy80fV6P8i+5B9Yrfzv72T/AGhv+ecH/flP8KPtDf8APOD/AL8p/hUNFH1aj/IvuQfWK387+9k32hv+ecH/AH5T/Ck89v8AnnB/35T/AAqKij6vR/kX3IPrNb+d/ez2PwGxbwpYEgAkSdAAP9Y3YVvVz/gD/kUrD/tp/wCjGroK1SSVkZNtu7FoozRVEi0YpKXNACUUuKKAEpaWigBKWkxS0AFGaKKADNGaQUtAC5ozSUUAPyKWmZooAfRTcmlBoAWiiigAooooAM0ZpuaM0ASZozTc0ZoAdmim5ozQBBKMNUVWpF3CqpGDigAoopDQAZozSUUALQGKnIppozQBaVtwyKdnNVUbaasKQRkUAPNV/wCN/oamqAffk+hoAiNRN99/pT6dLHuaT+9toAjiPyU480kakJzTghbpQAn0pyRk9amjjA6049eKAGqmKdiiigAooooAYxpppW602mAUmaKQ0AIaaTzSmmtQANTTS44ppoAZSE040xuKAAmq0jbjntTpG7Co29KACiiigC3S0lLQIWoNRsI9QgCuQky/6uTHT2PqKnqRelNDPF7+2mS8uFeJw6yMCAPeofIk/uP+Rr169torkSFhiVG+Rx29j7VhTIySsr/KwYAimoXE2efeRJ/cf/vk077LN/zyl/74Nd3kfuf89609PvjGywzkCHtIRnaff2ocLCUkeY/ZZv8AnjL/AN8Gk+y3H/PvL/3ya9mfOzr/AOO4/Wr0edic9vWpsx3R4hAt9bvvt0uYn/vJuU/pTWtLuRizw3DMeSdhOa9yFLU8r7lcyPEpk1CZFEy3MgThd+44H401oL9oFhaO5MK/MIyG2g+oFe48UvFGoHhMdteRurpDcK6nIZUPBp88d/cNvnjupZP7zqxNe50uaNQPCmgvm37org7zlsqfm+vrSG2vGVVaGYqvQFDgfSveOKOKNR6HhTRXzOrtHcl1xtYhsjHTmkWLUI5zPEt0sxJJkG4MSevPWvduKOKNQ0PBWtbx3Z5IZ2djkkqSTR9juv8An3l/74Ne9UUahoeC/ZLr/n2l/wC+DR9kuv8An2l/74Ne9baNtGoaHgv2S6/59pf++DR9kuv+faX/AL4Ne9baXAo1FoYHgNGj8K2KOrKw8zIYYP8ArGrfNFFAriUtJS0wCiiigBaWm0UAOopM0CgBaKKKACiiigAooooAKKKKACiiigBaKKKACiiigB9FMooAfRTKB1oAfRRRQAUUUmaAFqvOuOanzSMAwwaAKfailYbWKmm0ALmjNJRQAUUUUAJT4n2nB6UyigC0rBgSOlQZ+eTHpTVJHINEbhmkx1xQAztVhvvP/u1Xqw3V/wDdpiCP7lSelRx/cqT0pDA009acaaetABRRRQA2iiigBpptKaSgANNNKaaaAEppGadSUwGnk0jilbrUcj4FACMcVBI276UjuW+lN60AIaQ0ppDQAGmtTjTWoAu0vekpe9Ah46U9elMHSnjpQBVP/LT6iobu1W7hQN8siDKMPY9D7VHfXqWsnkhJJrmU/u4Yxlmx1PoB7mmq+tDO3SISD/evACP/AB01EsRCDt+Sb/I2jh5yV/zaX5mLNBJBKsUy7JEOCtI4Xf8AwfiK07+31i7QE6RbiVPuuLwce33eRVF7DW1/5cIR/wBvA/8AiaaxUH0f/gMv8iHhZ91/4FH/ADLmm35jUQTuph6I2fue30/lXSoMKvsK4z7HrWP+PGD/AMCB/wDE1o6bPrtrEYX063kjB+TN3gqPT7vSpliIPv8A+Ay/yKWHmu3/AIFH/M6MDinYrK+063/0B4P/AANH/wARR9p13/oDQf8AgaP/AIip+sQ8/wDwGX+RX1efl/4Ev8zW20YrJ+067/0BoP8AwNH/AMRR9p13/oDQf+Bo/wDiKX1in5/+Ay/yD6vPy/8AAl/mbHFFY/2nXv8AoDwf+Bo/+Io+067/ANAeD/wNH/xFH1in5/8AgMv8g+rz8v8AwJf5mzilrG+167/0BoP/AAOH/wARR9r13/oDQf8AgcP/AIin9Yp+f/gMv8h/V5+X/gS/zNmisb7Xrv8A0BoP/A4f/EUfa9d/6A0H/gcP/iKX1iHn/wCAy/yD2E/L/wACX+ZtYoxWL9r13/oDQf8AgcP/AIij7Xrv/QGg/wDA4f8AxFH1iHn/AOAy/wAg9hPy/wDAl/mbdFYn2vXf+gNB/wCBw/8AiKX7Xrv/AEBoP/A4f/EUfWIef/gMv8g9hPy/8CX+Zs0Vj/a9d/6Atv8A+Bw/+Io+167/ANAW3/8AA4f/ABFH1iHn/wCAv/IPYT8v/Ao/5mxTqxfteu/9AW3/APA4f/EUv2zXf+gJb/8AgcP/AIij6xDz/wDAX/kHsJ+X/gUf8zZorG+2a7/0BLf/AMDh/wDEUfbNd/6Alv8A+Bw/+Io+sQ8//AX/AJB7Cfl/4Ev8zZptZH2zXf8AoCW//gcP/iKT7Xrv/QFt/wDwOH/xFH1iHn/4C/8AIPYT8v8AwJf5mxRWP9t13/oCW/8A4HD/AOIo+267/wBAS3/8Dh/8RR9Yh5/+Av8AyD2E/L/wKP8AmbNJWP8Abdd/6Alv/wCBw/8AiKPtmu/9AS3/APA4f/EUfWIef/gL/wAhfV5+X/gUf8zZBpaxftmu/wDQEt//AAOH/wARS/bNd/6Alv8A+Bw/+Io+sQ8//AX/AJB9Xn3X/gUf8zZorG+2a7/0BLf/AMDh/wDEUfbNd/6Alv8A+Bw/+Io+sQ8//AX/AJD9hLuv/Ao/5mzRWN9s13/oCW//AIHD/wCIo+2a7/0BLf8A8Dh/8RR9Yh5/+Av/ACD2Eu6/8Cj/AJmzRWN9s13/AKAlv/4HD/4ij7Zrv/QEt/8AwOH/AMRR9Yh5/wDgL/yD2Eu6/wDAo/5mzRWN9s13/oCW/wD4HD/4ij7Zrv8A0BLf/wADh/8AEUfWIef/AIC/8g9hLuv/AAKP+Zs0A1jfbNd/6Alv/wCBw/8AiKT7Zrv/AEBLf/wOH/xFH1iHn/4C/wDIPYS7r/wKP+Zt0Vi/bNd/6Alv/wCBw/8AiKX7brv/AEBLf/wOH/xFH1iHZ/8AgL/yD6vLuv8AwKP+Zs0Vjfbdd/6Alv8A+Bw/+Io+267/ANAS3/8AA4f/ABFH1iHZ/wDgL/yD6vLuv/Ao/wCZs0Vjfbdd/wCgJb/+Bw/+Io+267/0BLf/AMDh/wDEUfWIdn/4C/8AIPq8u6/8Cj/mbNFY323Xf+gJb/8AgcP/AIij7brv/QEt/wDwOH/xFH1iHZ/+Av8AyD6vLuv/AAKP+Zs0Vjfbdd/6Alv/AOBw/wDiKPtuu/8AQEt//A4f/EUfWIdn/wCAv/IPq8u6/wDAo/5mzRWL9t13/oCW/wD4HD/4ik+3a5/0Brf/AMDh/wDEUfWIdn/4C/8AIPq8u6/8Cj/mbEqB1/2hVbpVH7Zrn/QEg/8AA4f/ABFRyXGuMcjRYB/2/D/4ij6xHs//AAF/5B9Xl3X/AIFH/M0qSszz9c/6A8H/AIGj/wCIpPP1v/oDwf8AgaP/AIij28ez/wDAX/kL2Eu6/wDAo/5mpRWX5+t/9AeD/wADR/8AEUefrf8A0B4P/A0f/EUe3j2f/gL/AMh+wl3X/gUf8zUorL8/W/8AoDwf+Bo/+Io8/W/+gPB/4Gj/AOIo9vHs/wDwF/5B7CXdf+BR/wAzUzUK8SOao+frf/QHg/8AA0f/ABFR+ZrmT/xKIOf+n3/7Cj28ez/8Bf8AkHsJd1/4FH/M1I355qyGDFiD2rB8zXP+gRb/APgZ/wDY04Ta4OmkQf8Agb/9jR9Yj2f/AIC/8hfV5d1/4FH/ADN6P7gp1YiXeur10eA/9vo/+Ip/2zXP+gLB/wCBw/8AiKPbx7P/AMBf+Q/q8u6/8Cj/AJmxSGsj7Zrn/QFg/wDA4f8AxFH2vXP+gLB/4HD/AOIo9vHs/wDwF/5B9Xl3X/gUf8zXorH+165/0BoP/A0f/EUfa9c/6A0H/gaP/iKPbx7P/wABf+Qewl3X/gUf8zWorJ+1a5/0BYP/AANH/wARR9p1z/oCwf8AgcP/AIij28ez/wDAX/kHsJd1/wCBR/zNM0lZf2rW/wDoCwf+Bw/+Io+063/0B4P/AANH/wARR7ePZ/8AgL/yD6vLuv8AwKP+ZpnrTTWb9o1v/oDwf+Bo/wDiKb9o1v8A6A9v/wCBo/8AiKPbx7P/AMBf+QfV5d1/4FH/ADNOkJrMafW/+gRb/wDgYP8A4momfXG/5hMH/gYP/iaPbx7P/wABf+QfV5d1/wCBR/zNF5v7tQsxNUc63/0CoP8AwMH/AMTRnW/+gVb/APgYP/iaPrEez/8AAX/kH1eXdf8AgUf8y1RVKWfUbaPzL3S2WEfeaCUS7R64wD+VWYZY54llhcPGwyrDoauFWM9F+Ka/MidKUNXt5NP8h5pDSmkrQzEooooAuU8dKaBzT6BCinU2nCgDO8LoJptTvpMGV7hogf7qIdoH5gn8a6DNYXhL/jyu/wDr8n/9GGtysMP8C89Tev8AxGLTZE3/AO92p9FbGJRZcE5FJ9auSxh/Zh0qowIPIwaq4ia3m8vCv9zsfSrefes2poJth2v9319KBpl2iiipAKKKKACiiigAooooAMU6mk0hagB3NHNMD0oYUCHUUUUDCiiigAooooAKKKKACiiigAooooAKKKKACiiigAooooAKKKKACiiigAooooAKKKKACiiigAooooAKKKKACig1EzZ6dKAFY547UgAWgGkyevamIlBzS1CrY5qVTuGaQxGHcUmc0+msO4oAbmjNFFABmjNFFABmkzS0lAATRmkNLQAgpc0lLQAZpc0lFADt1G6mUtADt1JuptJQA8vSbqbijFAC5pDRRQAlFFFABSGlpDQAVyltELTWdUtYhtgDJMi/3d4OQPbIJ/GurrmH/wCRm1P/AK5Qf+z1jVXvwfn+jNqXwzXl+qLdNp1NrcxEbikDU4jNKEoAt1IOlNUU4UCFFLRS0AUfCP8Ax5Xf/X5P/wCjDW7WF4R/48rv/r8n/wDRhrdrDD/w4+hvX/iMKQsoIDMAT0B71na/dTW1ki2pAubiVYImIyFLH72PYZNeW6nr1vDqUscOn29zGjFXmusvLIR1O7t7Y6VnisZSwkVKq9zTC4Orim40lex7L3ps0QcZ71zvhS+MjLAskklrNAtzbea250UnDIT3wcYNdPXTGSklJbM5pRcW090Ymq39rpVo91qM8dtboVVpJDhQSQBz9SBUH9rWJ1mbSfPH2+K2W7eIqRiJmZQ27G3qjDGc8Vynxj8MtqWl6vq09tdapBbaWUh0qG7uYhPLuJIZIWXeCpAwcmvK7jT9NUzzCDUJLhoPJINp4hDSIMkRklvu5J4PHJq0yT6L0TVrXUrCC7srhLiynXfFMhyrKe4PcU99d0yJdSea+t4Y9NYLeSSuESAlFcbmOAPldT+NeefDXw5PY6ZBf2Ulzp1tf6NaKNPmuJ7j7DcgOXwszNtA3ou3j/V8iuNvo9TtLf4nwah4hW7bzE3wfZI1eZvsltiQDOeAVXAGDgZ60MEeu/8ACx/BH/Q4eG//AAZwf/FV0tpdQXlrDc2k0U9tMiyRSxMGSRGGQykcEEEEEV4lPqVsJL+Ca+1aM2iKbkt4ahUQhx8u5tmBntV7xbaSaXofw9sZI9abwVZRi31URRSLOVjhVIDMkfzCPcCXA9s8VIz2WivK9A8P+HJrrStX+EuoaXbrBcoL+Czuibe4tm/1ivGuQJAMFSQDkYJANN8KeFNG8SeIPHF1rVo11PBrrwRM08i7EFtbsFADAYyzH8aAPVqK890m2n8HePtP0W1vL250DWLad4YLu4adrO4i2sQjuS2x1ZuCTgpxjPPIfAbVr7w94e8M6Zr13Lc6Zr1qLjTbudsmK4ILSWzH3wXT23DsMgHuBOBkkAD1rNfWtM/6CVl/3/T/ABrj7XU7bTviN49uNUulh06203TZJGmb93Gp+05Pt2zXmlxqXwe/4WdYSqng/wDsUaRcLKBaw+T55mh2ZG3G/aJMHrjPvQB7x/bWmf8AQSsv+/6f41cubu3soGnvZ4oIFIBklYKoJIAyT6kgfjXz5b6j8HR8T793j8H/ANinRrdYwbWEw/aPOmL4G3G/b5eT1xivV/Gmn3fi7w/o0vhy506W2N1bajuut5iuIkIljA284LCNvoPegDqJNYsI9Sm0+S4VbuG2F3JGQfliLFQxOMdVb34NS6bqFpqlhBe6bcxXVnOgkimiYMrqe4IrxTw74g1+bxp4p1SXVfBcFykkek7bi5kUbbfcSUGc43zODnuprs/hxp2pWmo6jdQ3Hh6TSbyUyzR6XPJIiXGBkoCSqlsgsB1OD1JJAO4i1C1m1K5sI5la8to45ZYh1RJCwQn6lH/KlmvraG9trOWVVubkO0UZzlwuN35ZH515bYWt5ZfE7xHHqfi2WPfptghbyYY5JtzXmFTj7y4ZhtGeeelZF5f6Le+JtCu7Lxd4luLSNLpJblI3by2+VdoIh7lWB917UAe5VR03VbHU9PS+0+5juLRwxWVPusFJBI9RkHmvPvGd6h+EzXej+J7j+zbiVEl1GeCS4mkheQRmOMRhWDMzBQQMjJxzgjk9Pmv5fEfhqG3vUsb2JHsLSy/4Rm+0yCe2CFpYfMlZgSqR70GBhl64JoA9x0rULXVtOtr/AE+ZZ7O5jWWGVc4dGGQRn2q1Xzp4D/sCy8KeG7N9K8Taj4tt/skJsL+LUGhtpRIiswDDyUVOWBHACivougAooooAKKKKACiiigAooooAKKKKACiiigAooooAKKKKACiiigAooooAKKKKACg8daCcc1E7buKAHMc/SmmjoKVRk57UxCIueT0pzL6VJ2pKQyDHrQCVORUjLnkVGeKAJlYMM0tQKcGpVO6gAwKTFPxSUAMop2M008UAFJS0lACGlpDS0AFFFFABRRRQAUUUUAFNp1JQAlFFFABQaKKAEooooAKQ0tIaACuYf/kZtT/65Qf+z109cw//ACM2p/8AXKD/ANnrGp8UPX9GbUvhn6f+3It0hGelPVSx4qRUCj3rcxI0U08rSnI5pMmgCalFJTvSgBRT6ZT6AKPhH/jyu/8Ar8n/APRhrdrC8I/8eV3/ANfk/wD6MNbtYYf+HH0Nq/8AEZn61ZyXlmotiouYZFmh3dCynofY8j8a8+1HQNJu9RkuJbu606R23S2b2zOwbvtI4I+ma9SopV8NSxCUaqvYeHxNXDS5qTszA8OWLRy/ajbtbQpCttbQv98Rg5LN6Ent7V0VMp9bJJKyMW23dnn3xOM16bWyt7e7Jj/etINMubqM5GAAYZosEYOck9RwK8im0q8n8cfYZ7X7Qn9mmTyLjw7eypzJjPlPdk84xuzjHGO9fT1Yui+FtE0O8mutJ022tbmZQkksafMygkhcnnGSTiqEzjvAduU0W60U2J0zh9j2WjvpcaBgB8oZ3zJnJ3Z9OOOeBOjabpt34r06xQT31/4h0/TkubqRrid4/Jtppg0rksQFWZsE4GPwr6Du7aO7geKVVZWUqQRkEHqDXM6f4S0HSYkt9P0XTrWKOR5VSK3VQHZNjNwOpQ7Se44oE3Y8gv8ATWHimPRZtO1iXS9Ygvbi9tTryqLt1aABmZXBACsV2k8hgMYXj0m61PVPCVl4YuJVvr/QI7Q22pMkQurmGTavlyt5YJcDDqxUHqD6mrP/AAr3wWenhDw6P+4ZB/8AE10miWllpFlFYabZ21lZRZ8uC2iWONMkk4VQAMkk/UmgLnlni3UNH8Ta/oM3gKxluvE6ahA8mp29pJCtvbB8zedKVAZSuV2EkksCBnFXfDvi7TPCviLxta62upQy3GuPcxeVplzOrxm3gUMGjjZeqMOueK9cyMZpj520hnnmjTXvi3x1aa99gvbDQdJt5orT7bC0Et3PKVDSeW2GVFVcDcASXJxgc0/AnhlNd+Bnh/RdUSe1kOnxYcDZNbTLyki55V1YAj3FemHNLzj8aYHlXwpn1yfxx41k8UWT29/b2mn2ktxs2w3TR/aMyxnptZWVsfwlsdq2vCV4PEnjvWtesX8zR7W3TSrSYHKzSK7vOyHuoJjXI6lGrt7y2ivbK5tbuNJreeNopI3GVdWBBBHcEGm2lpBZWkNtZwxW9tEoSOKJQqoo6AAcAUgONsv+S36v/wBi5af+lNzVvx94jm0yC30jQ1SfxPqmY7GAnIjH8U8npGg5PqcKOTXSLYWw1F75YIhevCsLThRvaNSWCk+gLMce5pJ7C1mkkklt4Xkli8h3KAs0fPyE9dvJ496APCpEtPAmpTaf4BsIPGE0kGdQsVXznt7hI8faXkAYAybVDxk7mPKjOc+ifCKbQx4cmg0bVLe+v5ZnudSdE8mUXD/f3Qn5o8YVQpHCqorr9H0mw0axjs9JsreytE+7DBEI1H4CmTaLpkmsRatJp1o2pxKUjuzEvmqpGCofGce1AHBeCfDmm6b8V/E8m6a/vbfTNPYXl/MbidGd7reA7Z2AhU+VcLwOK5vxB4km0XVNe0vwjdCfQr2bzr3VbeNpY9BlkbE5yoIct8zgZ+RyS+FNerWfg/w7aWGoWdtoemw2uof8fcUduqrcdfv4HzdT19TWvYWVrp1pHa2FtDa2sYwkMKBEUegA4FAHmHxRtNNg+B62Xh5km0yKTTYbQ29xgMgvIAu2Reh/2hz3rAvtHvdO+IXgg3dpqcHmT3oX7X4gn1EN/oM/RJDhT7j6V68nhjQ47C5sotJsorO5uBdzQxwhUeYMrByB/FuRTn1FLH4a0WPxFJryaXaDWpECNe+UPNK4Axu69AB9KAPKvh8+rab8KvCOqah4r8rSFgsYo7XT9OjEj72RFiZ3Z93zNglQp64xXtlc1ZeAvCVjqaajZ+GdGgv0fzEuI7ONXV853AgcH3rpaACiiigAooooAKKKKACiiigAooooAKKKKACiiigAooooAKKKKACiiigAoPFBOKjY5+lAAxzTaWlVc0ACrmn4xilxijNABRRRQACmOmafRmgCuRjinA7ae65pmMcGmIlVtwpagUkHipgQRxSGLSEenSlFFADCKaalppWgBlFKVpKACiiigApKWigAooooAKTFLSZoASiiigApaSigBKKKKACilxRigBtc4i/8VTqu7/nlB/J66bFc2v8AyNWq/wDXGD+T1jU+KHr+jNqXwT9P/bkX6aad2pDW5iNPSminHpTRQBPS0UtABT6ZT6AKPhH/AI8rv/r8n/8ARhrdrC8I/wDHld/9fk//AKMNbtYYf+HH0Nq/8Ri0UUVsYj6WkpaBoSiiigAqKWMSr6MOhqSm7qYiiylWweDSVcmUSD3qowIOD1oJJreXA2N07e1WW+5WfU8UvG1vu/yoGmTt1H0p38R+tNbqMU7+I/71AwHRqT+AUo6NSfwChgC9/pQe30oXv9KG7fSkAuR6mmnHvS596Xt1oAcv3RS0i/dFLQAUUUUAFFFFABRRRQAUUUUAFFFFABRRRQAUUUUAFFFFABRRRQAUUUUAFFFFABRRRQAxjmm0vQ0oGaABR+VPoooAKKKKACiiigAooooABTHXPSn0ZoAr9KVWweKkdc8jrUR4oAnBBFLVdWIOanVt3SgBaKKKACkxS0UAN20m2n0UAR4pMVJSUAMxRT8UYoAZSYp+KMUAR4pcU/bRtoAZijFONFADdtGKdRQAlFFFADa5xP8AkadV/wCuMH8nro65yL/kadV/64wfyesanxQ9f0ZtS+Cfp+qL/akNKaQ1uYjT0popx6U0UAWaKKKAH0tJS0CKHhH/AI8rv/r8n/8ARhrdrC8I/wDHld/9fk//AKMNb1YYf+HH0N6/8RhVGfV9Nt5zDPf2sco6o0qgj688VD4imlSyiht3Mcl1Mlv5i9UDdSPfAOK8r1HxJdWt7NBp6w29pE5RYfKVgwHGXJGSTWOMx1PBxUqnXsbYPA1MZJxp9O57UrBlDKQVIyCO9LXJ+D7vMqRRr5dtdWy3ccOeIm3FXVfYnBA+tdZXVGSnFSWzOWUXCTi90YvijxBB4ctLa8voZmsnuEgmnjAK2wc4Ej/7G4qCR0znoDUdn4iSXxTquh3Vu1rNaQx3UMruCtxA2QXHptcFSD0+U965Lx34DuvEnia81GWFL6zGmwW1tZy6rc2UZnE0jSM5hzxsdcHDZK4461574n8MvpU0en3Hhaz1HUruNvK0618W6tNLNHyDkGMKqdtzlV96oR7h4U19fEuiJqkFu8FrNLILYu2TNEGIWUegYDcPYijxP4gs/Dmmfa77zJHdhFBbQrumuZT92ONf4mP6ck4AJrk/BHgy68ONNPpVrHprzaWkQsp9QnvYoLkFiAC7Z2AFQduOnSuV8/SrXWI9Xn+KfhGfxDGjRSzaiIplt89Ut4xcIIh2P3mbue1MR6Z4R8URa/8AarW4tJtM1qyIF3ptyQZIgfuuCOHRuzLweR1BA3L+WC3s5rm6kWKGBGkeRjgKoGSSfTArxjUrvR9Z1K1vtY+K3g+O8tFb7NeaYIrW5jJHTe1y4ZCeqMpB9utaHxF/4SPUfhtbWpvbC8tJ4TcahqlogENzAGBSONdx5lBUk5K7Q2OooEb9j8Q9Ek0i1utRl/s66mt0uDZ3GfMjDqHUNgYyVIP41J4Y+Iega5p+lTxXsUV1qEUTrakksjuAdhOMEgnFYPjnUmXxzqlhqHinUdA0u30uCW2S1jhCSyM0wcEvE54Cx8AjGfeua+F2pvBF8OLXTvFOpagtzbJHe6bKkJigQWMjAArErALIqAEufQ5oA9T1Dxjb2Ovy6RFpuqX15Dbx3MgtIVYIjsyrklh1KN+VQ2Xj2O+nvYrTw74hlks5/IuFFsn7uTYr7T8/Xa6n8a5HVJzF8YNcA8Rw6HnR7LmQQnzf3tzwPM9Pb1qh4Jv2j1fxb/xX9pbhtXzvKWx8/wD0W3+cZ7fw8cfL65oGepaZ4psL7w7c6ysV9HbQSywyxG2Z5keOQxuvlx7mJDKRxmua0/4s6Dd6jqlm1rrca2MqRrINHvHMm6NXyVEOUxuxhsE4yOCKb8M9Ut9K8Cajf3txNewR6xqJa4trdpmmzeyjeqRKxOSc/KMAHPQV5wddt7v4heM7u3N8sFxdWzIJNL1YMQLWJSSkIXbyp+8MnGRkYoYHpdv8VtBm1u+sPs2thbaGGUSDRr1i3mGQYKCHcuNnUjDZ4ztOPQW6CvC/h54s03SPHPiiS/GpOJrKxVDBpGpSEbWuSQRIjOv3l64B7dDXpvjLTvDBsptb8T2sDQ2sGWml3ZVASQoAOScngYyScUgND+2U/wCEu/sLyTv+w/bvO3cY8zZtx6962a+al8CM3jBNWGkyf2h9gOr/ANj7zgwmbYLXG7G/ysH083nOK9s8D6f4Xezh1vwtbW6x3URUTR5B25GVIJ4IK4IPIIwaANLT9bW98TatpEUDY06KB5J9w2l5Nx2Y9QqqT/vijRdcTVdW1yzhgZY9LuUtWmLZErmJJGAH+yJFH1zXz54At/DQ8GeApNL8NyW/iQ3NpnUpNGmjjd93JNzsCsD7Nz2r0Pwj4L8H3l3f6T4j0Cwv/FNq32i/ub+zQveGUlzPGTnMRZmUc5XbtIGKAPQPE/iC28O2dtPdQXVwbi4S1iitkDu8j5wACR6Vnf8ACXS/9Cx4j/8AAaP/AOOVwi24b4YfD63tJTag6nbRxSRAfuuZApUEEcdsgj2qro2q+KNV8WeKTHd6d/wk3hq0trM26keXfjfJLI2D/qxIhiGQTsYHOQOQD0S38a2763pml3ekaxYT6i7x273UCqjMkbSEZDHHyo1aV9rsVt4l0rRUhea5vY5p2KHiGKMDLt7FnRQPU+xryDwhfQ67rPgTxLCFA13xDqd7gMGKqLOeKNWx0YRxJkdjWl4l0/XJPiPd2raxYpa6iiTX8kUUiz2WmQn5YxLvwhkcuOBk7nII2UAdxqvjzStM8WPodz52+K1FxNNHE8ixMzYSMhFPzEBm9gB61eTxZpk/hlte077XqVgGKgWNrJNKxD7GCxgbjhs544wfSvGLhblrq8l+GNxd2sNxEyarf6rdeRJqJLZ3wCUbvPALbZSqpggcgLt9Z+HGr6Pe6DDYaFZXunw6dGsJtbq3aMxeg3nKydD8yswJ5zQBS/4WVYf9C94x/wDCeu//AIiopfinpUU0MMuieLUmmJESNoN0GcgZO0bOcDniqVvP4nu/Bd9r48SvDJEl1KkAsoSoETOFGSuf4BWzezvc674DnlbdJL5zMcYyTbEk4oA1ta8RRabBo7C2mln1W6htYLcjy5AXG5iwPTYiu5HX5SOtZfi74h6J4civ0e4S61Gy2ebYxE+aAwVsAAHnY24Dvx61zHxSg16Lxjo9zo2r6dBczwvZWcE9q8j24Yg3F1u8wKu1APmKnqF6vzzWma23h7xX4tsdK1e+FpFc2iK0emtqDSD7HaxKzSbhyTtHPUnOeaAPYtH8V6JrNxLBpeow3M0UfmvGmdwTOM4xnrWHY/Eax1TWhpekaNr93cqY2mL2LWqwROxAlbz9h2/K3QEnacCsPwHrcWt+MGuJtVvbq9awuIoFm0o2ihIrhElIJJ3FZCFIriPDeqX8Pxx1u3ufFmrzxwpaWv2n7DaiO+ZGlY2zMEATLCVARtJZXG7IWgD09fiHJLbTXVr4O8TXNlG0i/aIxaBWCMVZgGuA2MqeoBrbj8V2DeDbHxN5N8bC7tobpI47Z5pwsoUqDHGGJI3DOMgc84ryhzeWd1HoUMHxPtPtyXNxDZR/2OV8sODLtLEnAMy9Wz83fFet+BrZbLwfo9lFZX9jFZ2yWkcGoGMzqkY2KXMbMhJCg8Hv26AA52b4reHYTGJrfxBGZG2IH0O8G5uTgfuuTwePatLRPHmlazqcFhZ2utJNNna1zpN1BGMKW5d4wo4B6nk4Hen+Of8Aj68L/wDYYi/9FyV1NAGL4i8Qw6HLYwvZ315PeuyQxWkYdiVUsc5IwMA1mzeMmghkml8M+IljjUszG2j4AGSf9ZXN/Gua0gu/Cr6hc6dbW/2ubMmoXb20QPkNjLoc59BXBapqnhg6bdhNb8ElzE4ATxFcsxO04wM8mgD3v+2bQaAmst5/2Jrdbn5IWkk2EAj5EBYnB6AE1gaV48t9Z1T7Ho2ja3ciORUuZ5rQ2qW4YZDMJijEY5wqk+1XfD9vcXXw+0mCzvJLG4fTYFS4jRXaI+WvzAMCpP1BFeP/AA/1TVrv4h6utx4w1dbG5voktLt7GzEOpbIx8hYR5UsqttIC7l5BJoA9Fb4s+G00kaq0OvjS/KE32w6Jd+T5ZGQ+/wAvbtx3ziul8Va+nh61sJpYGnF3qFtYAK2NpmlWMN9AWzivLr7/AJNIH/YtR/8Aopas/H+Twwv9g/2p9nm1g6rYBbZGL3MkAuFLhIlO5uC3QZOcDmgD0TxV4o0/w9oWrahPPBLJp9rLcm2Eyq77ELbQD0JxgfWtCw1Wyv1jFtd28kjoH8tJVZhx6A15P40tI9TtJfDGmeCbKG81nRpxZXV60cUkREaoQ3ysQ6eYpxuJwpweK6rwLLbL4ivNLbwrp+lX2n2sTyXNqY3H7zcAm5UXDYUsR6EetAHd1yL+N4LfRtN1a6sZo9Murl7ae5DqVtCJCivJ0OwsMZH3cjPHNcz4/wBBn0uwSLSvFPiY65qk4tbCH7flRI3VyuPuRrlz7LjqRXK/DjQJ1nh0bW/FHiMWuoLNLprpeBFkaOVxNEflwW4Eg9Qzf3TQB7/RVLRrD+zNNhs/td3eeXu/f3cnmStlifmbAzjOB7AVdoAKKKKACiiigAooooAKKKKAAioylSZooAgpVO3pT3XPIqOmBKDup1Qg4qVTkUgFopKWgAopKKACikFLQAUUUUAFFFFABRRRQAhFNp9IRQA2iiigBKKKKACubi/5GjVf+uNv/J66Suci/wCRp1X/AK42/wDJ6xqfFD1/Rm1L4J+n6ovGkNKaQ1uYjTSYpxpKBE1FFFAx9LSUtAil4R/48bz/AK/J/wD0Ya3Kw/CP/Hjef9fk/wD6MNblYYf+HH0Nq/8AEZS1ixN/ZGJH8uZWWSJ8Z2upyDXF3+gWV1fNcXukalHds26RLXa0Up9Q2eAfwr0GnU6tCnWXLUjdBSrVKTvTk0/Ix9A0+WCSS7uY0hdo1higU5EES5wue5ycmtmkozWsUkrIzdznte8IaVrt6LvUG1MTBBGPs2qXVsuASfuxSKueeuM15p4e8L+HPEHxCml0xfEx0uHSlDTzX+pQETGUnZvkdX+6Mlc4Hpmva6UdaYGB4f8AC+m6BcSzae2ol5U2N9q1K5uhjOeBLIwB9xzXDeIrk6r4+jtbzw5qp0TRXW4TytOZlvroj5TuxtMcecjnlyCcbBn1T+JqKBM8t8Q6rrUGs2ms6V4T1pdMtY2XUYJ1t/LlgPJeKNZWk81Tkj5fmG5e4I6z4iRtP4A1SO2iZt8ICIqENjI/h6/hXUnkYPTFCUCseR/Eq41rUdaurb4enU5NclgbT72O4tpF09YyGxIZH2qsiliVMe4nOCpHI6Hw/wCKLCxstL0LUNG1zRbqGOO0hinsJJIvlAVQJ4g0ZHA/iHuB0rve9I9AHnnhzSv7T8VeJtb1XTQqSzR2Fot1D8zQwBsyAMOA0kkmD3UKehFU9JsLHQJvF99qehyywS6wGtxBpzXLtGbW3XKois23erjIGMg16XKu4f7VVzxQM898BQ35+Gl8fK1PQZrq8vr2KMWqm6gikuZJFURMCA5QgAEHBPSuT8R6Jjw9qtr4fl8fxG7xI1q1jG6TS/KGd5JITIxO3Jy/sMAAD2ypoZdvyt93t7UAeU2ulrc6rHcHUfHv9sNsgt9RuLCNPs6luQ2yFVaM5yRIGAxkYPNdjrng5dd1WK71PV714rWIfY7eNEVLefBH2ggqQ8g6ruBVTzjPTrqKQHkw8IaqfiaB/wAJh4n2/wBkf8fe203Z87/V5+z7cd+mffFdloPhCLRNak1Cy1G9K3MO28gk2bLqcYxcMFUBZCAQxUKGyMjiunxS0AeKeB9H8bReCPBGmajomnW9nYT2rykXshuo1RsktE0QUe4Dn2zXoHjDUNE0XUtO1XUrDUbrVYYpktDY2NxcOQQu5D5SkDPy4D4GRkdOOrpaAPIY9D1PSvhf8ONMNuU1KzurASxuN6xSBGzv29gxwcfnV+++Gsx8N6da2l6F112lj1HVldo5HjuSWuioHUk/cBOFIU5+XB9PooA8bOi2dj8YvDtr4ct9SSytbmW5vIPsciWlswspIQ6SsoUl90SkKTypJ5Jq/rvh+C98VapdWPw8/tK+lkTzL7Wr1Us5WQYVkjJkbAHTEQ5z9a9VpKAPEVsdOTxZ4ubXPhnceJJ5NSRkvItOtZkCfZLcbFaZ1bAYMeBjnrnNdp8GLf7P4OmQabLpUZ1TUHisZYliMEZu5SibVyowpA+UkehIrusUtAHFaf8ADXw/BYPb3kM120jyvIzXMqB97sxG0PgD5sYrMi12y1rxt4YtNEstW8iwW4eWWfTbi2iiXytijdKi5JJGMZ6GvR6KAPPPH2hrqeux3cXgrTdWuobZR/aWpyAwxIGZtixKGd2BGcbQDkfN6cHa+GtVvAL26/tHTru/gt76WG0UJs8y/wArGww3McQQY7bea9/ooA8O+F+hXkHiza02sjybTWYZpLiMqLdptRVoWQlQCzpG0nGRxngEZ39C0Kz8O+NNat002e40q00XThEohMzSyRzXDbhx80m4hyeuTnvXqVFAHiF9Y+Z4z0a+jg8ftZ29ndxTSsJ/MR3aAoF74IR849B7V6K3iF9N8OWdxaaH4j1I7/I8nyl+0gAH53ErpkcYznJJ6V1VFAHlfiPxTqupzaM8HgPxaosr9LqTfFajKhXGB+/6/MK6Gw8bXt3e29vJ4I8V2qyyLGZ54rYRxgnG5sTk7R1OATgdK7OigDx7x5ZeItQ8ViHwxq3iKXV7V2kgZ7O2i0+w8xMZaV4CZBtP3V3t9OtaXijwr45bR1Gj+M7+9mJxcWtzBZRCaMqQypILY7G6YJBHGOM5Hp9FAHmvgzRp9Z8E3+japqXiaOELHYy2t/DBbS2yoBujSSGNQ6uhClwW46EHNa+haPaN4i8S209hE1jFPZPbxvECimOFChUEY+VlGMdCK7OigDwW70nx+/wDXw//AMI9pWP7GS18tb+Y3fCAY8ryNu/j7u/Ge9dn8UxDPqPhvT7PTrm41WbWNPuXlhsnZVgiuA7M8wXaAArcFs+1ej0UAeb+PLi78S3cWj+GtKvjq+n3SzR6xPG1vbWEi/xBmGZsqSpRAwYMQSuc0/4cteeHxNoeuaZeLr11LLcy6ntMttqMuMmTzVX91wAAjhdoUKu4AGvRaKAOS8J+HL6PUZPEPiqaK58QzxmJEhJMFhCSD5UOeTnALOeWIHQAAZug+Godf+HFrp+oCe1nS5nnt7iMbZraUTyFJUJHBGfoQSDkE139FAGV4YTWItIij8Ry2c2oxko81qpVJQDw+0/dJHJUEgHoa1aKKACiiigAooooAKKKKACiiigAooooAKYRT6KAIcUoODTmWmGgCUHIo6VGpxTx81AC0UUUAFFFFABRRRQAUUUUAFFFFABRRRQAyiiigBDRS0hoAK5yL/kadV/642/8nro65yL/AJGnVf8Arjb/AMnrGp8UPX9GbUvgn6fqi+aaacaQ1uYjaSlpKBE5pKU9KKBodS0lLQIpeEf+PG8/6/J//RhrcrD8I/8AHlef9fk//ow1uVhh/wCHH0Nq/wDEYo60ppB1p1bGaCiiimIKKKKQyL+NqWk/jalpksUdT9KdH0NNHU/SnJ900DFPNBFHamSvikASMEqqWJPNBJPJ60Dng9KYDe9TQxbvmPT09aIot5yfuj9asrxx+lACiiiikAUUUUAKeKbnNN3bqcBigB1FFFABRRRQAlFFFABRRRQAUUUUAFFFFABRRRQAUUUUAFFFFABRRRQAUUUUAFFFFABRRRQAUUUUAFFFFABRRRQAUUUUAFFFFABRRRQAUUUUAFRv1p7cVGaACiiigB46UtIOlLQAUUUUAFFFFABRRRQAUUUUAFFFFADKKKKACiiigBK52L/kadW/642/8nroq52H/kadX/642/8AJ6yqfFD1/Rm1L4J+n6o0KSlakrcwGnrTaeRmm0gJu1IKXtSCgaHil70gpe9Aij4Q/wCPK8/6/J//AEYa3Kw/CH/Hlef9fk//AKMNblYYf+HH0Nq/8RhWS/iPTldgkksqKcNJFC7oP+BAEU3xOWezt7YOUju7iOCRgcEITyPxxj8a8o1jXNRGrzCG4kto4HKRwxNtVFBxjA47Vz47HwwUVKSvc6cDgZ4yTjF2se2WtzDdwJNbSJLE4yGU5BqauR8ITs11GSBH9ss1u5EAwBJu2lgO27g/hXXV2RkpRUl1OSUXGTi+hgeJ9Y1fS3txpHhq81tZAxka3uYIfKxjAPmuuc5PTPSsKTxj4oijaSX4d6qkaAszNqdiAoHUk+dXeVxHiXTovEHjmw0jVJJpdIjsHu3sQ2Ip5BIijzQOXABPyk7c9Qaoks/Dzxa/jLSptR/si702ASGOIzujicD+NGQkMnYMDg9s1j6T8RmvNcht30W9bS9Sv2tNJv4GhKXComXkKmQSbcrIQwQjaFOTuFd5NbxTQvbvGhgZPLMZHylSMYx6V8qajo/2fwnNPB4atk+z+GruWK6W92umHAEyjHDDAG39aYrHvreMdT/4SS40WHwxcy3cNuLlsXkAAiZyqsctxkq2AeeDV6z8U3OoeCdM1/RNDutRa/hinSySaKORUdc5LOyrxx3rzG+1G2h1W8t7LR9eks9Z157eTU7K5cS3qrbSllV94OFdHRVHAVCQc16Sx1mx8OaVD4M0jTreGKMQiz1aaSAwxoAqAbFkycDuemOaAMmx8f8AiG+SdrX4e6u6wzPbyH+0LIYdDhhzLzg9+lTeDfGep+J5hI/hW/sLAvNC15NdW7qrxO0bLtVyx+dGXOMcZ6c1y3gS/wDHtxZarPp+neF3ifVrwM0uozr86zMr7cQnK7lOD39BU/wll8YjSIkksfD40v8AtO/8+Rb2YzA/bJt+1fK2nDbgMsMjBODxSA7mTXD/AMJpHoENuJMWLXtxP5mPKBcJGu3HO/Ehznjy/esjSPEWu6h4MTXrPSoL8m7nYWsMhR5bRJZFQx5yDIUVGwSAcnpkYx/jNomiQeHtR1t9L+2+I7mJbHT1WSQPNO2REoCsMgEliPQMa5LTtJ0HSvh1a60PBlvLpVvaI3m/23IHkIAXbtA/1hbjb13HFAHsWp+LLKz8BXPiq1ilubGGxa+WMqY3dVUtjDDKnjHIrPfxPr8f2TzvDllE122yBZNXRWlbaW2qNnJ2qxwOwPpWJ410Ww0X4JeLF0+wawE+kzzSwNK0hRzCcglienT8K5i9Tb8T9G8L6lrN0dLaCa+s7gSOJ7O6uInjSHzug+X7Q0eTnjA6CgDttd8dapoMYk1XQLaNRJArpHqaPKqyzLCr7NgJG5xzXQ+Ldcm0hNMgsYEudR1G9itYIWJA2k7pXOOcJGrt9QB3rw6+1G41fTfGUus3kF1rGnX2j6SzQjCyxQ6gv78DHG92kDAZAaMjtXXfGdGg1/TLu28WNo+pXEJs4FYQrHa25cNc3DPIDtGxUGRglggBG40Adb4r8brpXiDRdH0q1fVL28D3NxDbYd4bRQQZAMgcuUUc92PatLwv4ptvEc2pw21rfW0unTLb3C3UYXEhQPtBBIJCspPpkV4h4hv/AArb/YLHwzLp/hKFWjuLXxJdyrvlWNfJBt0DEyqUXb8+1MEnDE13nwT8Q2tzYvoOn2lvdRWRLS6tp10txb3EjEsXkLESLI5yxBBGScMaANPxf8SrHRk1mz0qx1TVNbsF2C3ttOuJY/OKB1VpEQqOGUnnODUyfFDQ44I2vYNciOFEkj6HeRxhjgZy0eAM+priYdWi0/x/47jk8faT4ZJ1ONhbXYty0n+iQDePMYHHGOOOKZ4w8QW9z4bvYU+K+haozqo+xQi13z/MPkXa5OT7c0Aew+JNUu9JsY57DRr3WJWlEZgs2iV1BBO8mR1GOAOueRx1rN0jxTcXBnfXdBv/AA9axKD9p1Ke2EbEnG0FJWwee+Kh+J+pano3hG91XR72K3ntImZIpIBJ9okOFjjySNuXIGeetQeHpL291TUNP1zWrbUGsFj+2Wj6aIVBdQyuGLHcn3uRxlSOoNADvh/46sPE+i29xPe6bHfzXNzCttFcKWIjnkjUhSc/MqBvx9K0fHfiJvDegPcWsC3eqXEi2thaE4+0XDnCL9OrMeyqT2rzjwlZafb+C/h/eQwwxvf6y11C7IquyzNcTBQcA/dbp6D2rX1HTNTi+Juh65r10J2Et5FY2NrkxwQLC5DYIy0zgAk9Bwo6EkA7LS9auLnxdq2jTxRKtjY2dz5iE/M0zThhz2HkjH1NXNL1vTtWs7m60u6ju4LeV4ZHhOQHT7yg9DjpxxXlFhaaz43+I/iRLoX3hrSH07Txc2pKi8u4d91sG9SfJVsvuA+fAXlckV6q1rZ6H4alt7C3itbGztmEcMShVRVU8CgDjLv4k3F94ae/8MeGPEFzcT2wnsXm08+TLuXchJDZ2nI5HrWjb+PZHhjabwj4qikKgsn2DdtOORndzXI+Gjqc3hDRfCk11LbLqvguBrBo/wB3Jb3MUSpLhxzn97CR6bTW2fEt1r+nfDlbKaS3utZeO+ugjFGWGKHzJVPqPMMcZH+3QB0viTxJPpbaHDZaY13d6tO0EUMkwg2EQvKdxIOPljIx61jyeMtfj8TQaE3haL7dNaSXq/8AEzXb5aOiHJ2dcyLx9aqfFuS1TVvBH2+7urS3/tSYtLas4lX/AEK4A27AW6kA4HQ1xFzceHz8VrB18Q+JTbjRbkGXfdeYG8+DCj5N20jOccZA9qAPWPDviS71HW9W0rUdJ+w3enwW9zhLgTCRZTKFwcDBzCfzFY2m+ONa1XxO+i2nhKezlt1huLptTvoozHBIzqHVYvN3N+7f5SR06is74bGym+IPi/8As2+1C8gOnacDLeNIZAd93kAuAcenbrXnfhj7PF8ZNWuIrrxJc6PF9jgtL1tancSyCWVFE3JLwtMkkYzlRwcYc4APU7fxd4tvNLn1Ox8K6S9gjTbGl1t0dljZlJKi2IBO0nGT9a2IPGMP/CurDxZcWNx5dzZW92bS3IkkBmCEIpbaGOXAycV5le6Bew6/a6M/g5Em1KK5u1SHxxqKQ7UePzBtEYC5M6kADHXpXZeJoZNI+EltZXGnRWBgksbKOztbhrpY1+0xRRKJGVWbjZkkZ69epAE1Hx9rvlwHTPAHidn85PNW4jt1Biz85UrOfmA5GRgkYOM5GlYeNr27vre3fwP4stlmkWNp54rYRxAnG5sTk7R1OATgdDXAfE+bwo893rb+FEnu7Uu96+q+Frto7lVXHNwIjsxt4f5lx2xgh/wem8N6FqEFxcaFqOieJfEBWD7O2hTWVvDtUv5EZKbDgKzFixLYycAAAA9D1nxVfReILnQtB0C41PULe2iuZZXuI4LeISGQIGYkvyYn+6jdKju/FGr2V3Z6UPD02p6y9otzc/YbiJLeHLFfvSsrEZB6KTXI+I4vD03xY13/AISOfU4iulaf5P2G5u4c/vLvdu+zsM/w43e+OprL8A6XrWtDw2JvEGs6RqEfhuBrl0SN5pGMr/6zzkc5H4GgD1K01bUrTQL/AFPxTa6fpn2cPKEju2lRIlXOZHKLg5BzgEAY615zq/xjv9M0u6vpNI8PTR28TSmOHXZS7ADOFBtAM/iKu+GLK/134U6hL4l1jW9cTWLaS1kt4IrdZIlLtGTFhFGcHJ3ZAxx6VznjsXslr4juNRTX7XTtTt5bNI5ILlxG848uMbTfNEfmYABYR14xQB0MHxauP3cl5Z+Gre14aWU65KTGnc4NqAcDtkfWuq+I3jrTfB+jRTS3+nR39zJDHbQXVwse8PKiM/JB2KGLMegA5rhL7Sr/AFO51SLU7TxO2lahbS2r20Mc4ZFdNuV33rwgjPaHHoBWt4iu7iz+Knh+Sz0K91Z28PXK/ZI3hSSMGe3O5vNdV46HBzk9MZoA6LxV4/0jS9F0jUrDVtHms9Q1CKzW8e7T7OFyTK3mA7cqqP3+8AO9bOi+LfDmu3bWuia/pOo3KIZGis7yOZggIBYhWJxkgZ9xXlHhgS6dpknjC+0ye4tbLU9Uin04lS+nRvfTGaYKm4SuoEYIU8KrlS2cHthLZz/FnQJdPaB4ZfD17KrRYIdGnsyrAjqDQAml/Eyz1XT7e/0/w94nuLK4QSRzR6cWVlPcYbJ/Cun8MeIdN8TaYb7SJmkiWRoZEkjaOSGRfvI6MAysOOCO49a8s+EHivWLT4Y+Gba28Ea7epHZRolxFNaLHLx94bpgQPqBVlovEHhInxdqeyyhv9eWfU9OicSJDaSxR26l3HVkZY5CRwAW645APYK5nWvG2j6X4Kv/ABSHmvNLsvMEhtky7GOUxOFDFQcOpHUDjisi9uLzxJ8Qr3SbHU7yy0vR7JRdvaMFZ7qZlZF3EH7saEkf9NRXlt7pjWn7M3im5Oo39wrm+j8maRTGu3UJBuACg7jjJ56k0AfR9FeW+KLDXPCkWka4vinVLy6OpWtte2s2z7LOk86RsFjCjy9of5SDnjndV/T49Q8ZeI/EEs+rahp+kaXdnTbW2sZREZXVFaSaRgNx+ZtoXIGFJwc5oA9DorxnxBrvifSvDuv6LBq5k1XTdX062s9SljUtJBcyxbRKoABI3OpIxkAHg81varY6r4T1TwzeQ+I9V1FLvUEsL6G+dGSZZFbDqoUCNlYAjbgYyDQB08mvufGo0WCOI21vZfar2d2x5TO4WFB2y22UnP8AdHrWDN8QpZ7nSptG0HWb7Sp5HW5nWxkyibW2unZhvABHo2e3PEGHSG+Ll3pt34tkurQ3y319YztABNdgr9ngVVTzGWIIjMS21dqZGWbGF4R8T3MPgKDUVj8VLZQW8s7fZ7+3RFRIhO21WXdgIwxQB7dZ+LotR0fU7zStL1O8uNPuBay2PlLDOZNqNgCVlGNsitknpnGTxXMxfEfVZfDviHXz4YW20vRo7tZEuL9fPkntyQ0YVFZQMqw3bj7A1W8Otpf/AAi3jSPVZta0kW94tzqd1LqAWcN9ngkDLLDjA8sRjA68jvXn/wAJbGa70bxDpl7pmq3V/qM1/EtjqOtzraXMf2jZOrsA+yZM8ttJbdkNy2AD1TWfF3ivQorS51fwvpKWUt5b2jvb608jp50qxhgptlzguDjIrS+Iviy98KaHqF7ZaBqGpfZrKa68+EwiCIopP7zdIr44ydqscdOeK87svD1/e6vc2v8Awh8U8+lXEEpW68b6hLH5g2yxsFaMhsHaeR1FdX8adeuLDwJ4ksToOp3EVzpM8RvYXgFvG8kbIFYvKrnBI6Kc5GMnigCW3+It3Jpsdw/g7X97RCQlZbHaTtzkZuc4/WtH4deLr3xVoVhe3fh/UNOa4sYrrzpTD5ExdQcRlZGfHORuVTjrzxXlFvaXiafHZt4d1kXYsxKYP7H0jzNmMbtpl34zxnGc8da7z4P+I5pPh/oNvJoGrwwWGjxI12fIeOVoo1VlQJKz7iQcAqOmDg8UAbGieLdS1XWr3T/+EbuYBYzpb3UzXcLLEzIsnY5b5XU8etN0TxrHrl/4WOnW7rp+t6bc6gpnAEqeW0AVSASOfOOeT0FcD4B1jxVpt/Dd6w2nwQ6z4juIbyx+ykzxFrV51zMJMEqscceNnRepxS+GdCv7LWfh7baD4mSbTzoN49hcSacA3kE2ZG5SwySGU9sY6c8AHrfhvWbfxB4f07WLJJUtr63S5iWUAOFdQQGAJGeexNadc78PrW0sPBWj2OnXL3VpZW4tEmdNjP5WYySO3KmuioAWikopiDcaFbmm0q9aBktFFFIAopKWgAooooAKKKKAGUUUUAFFFFACVzsP/I06v/1xt/5PXRVzsH/I06v/ANcbf+T1jU+KHr+jNqXwT9P1RomkpTSVuYDWpppzU00AWBQKBQKBoUU7vTRTu9AjP8If8eV5/wBfk/8A6MNblYfhD/jyvP8Ar8n/APRhrcrDD/w4+htX/iMq6pZJqFk9vIzJnBV16owOQw9wa5m70OW4u/OvtCtb27/5+Y7kxI+O7J6/nXYU+rnThUVppP1JhUnTd4Oz8jL0fTpbZ5bm9eN7ybAbyxhI1X7qL7DJ+pNalFFWQMmcxwyOsbysqlgiY3NgdBkgZPuRXF6DPqmr+Om1S78P6jpFlBpxtla+eAtJI0obAWKR+AF6k967eigdynfTSW1nczwQPcTRRM6QpjdIwBIUZ4yTxXhOufC+4/4R22tI9AF5q11oTWc1yjoqRXsjLmRyWHyrlidoPA4B4FfQGOaYaAPLvF/w3S51rw/Naal4nkj/ALVaa526zPi3QwT/ADoN/wAh3si5XnDEdCa6TVLfVtA8N2+m+FYbrU753aGO61G7M32fcWbzZndt7qvZRkngcDkdXRTEY3hLQYfDfh6x0qCRphbx4eVhhpZCSzyH3ZyzH3NU/h1pd3pvhp7a/hMM51C/m2kg/JJeTSIePVWU/jXUIuetSUWA831K014+I/8AhJL/AEWbUZbWZ7PRtKt54gsCsGDXczsQAXAwNoYorYwSzYxB8NvER1Y+Izd6Wt/9rF8ugASnTfN243k5z52efNCYzzsJ5r2OloA8+8VNrnif4X+LLC48P3Gn6vJYz20dt58cyzu0ZwY3U8qScZYKfUCrMXgVB4d1qB7lJtY1Ob7X9ruoQ4hkTH2fCAjiIKmBnkgnuRXcUUAePeOvBAi0rw9ofh3QtRuri1a2j/tMTRLEsQu4ppjOWcO7Exb+FPzNkdSK63xTpmp32v21xpXh7w5cSxQ7F1TU2LSQ8k7ERULEd/vr1rsnpB1oA84uYPGel+KYLu00yw8QTtpggublrg6fEG852ARdsp4DAde2c81reBo9dk8Q+Ib/AMQ6PDpb3C2yRRw3f2lGCK+SH2Lz8w4xXaUUWA8v07TfFlj4t8X3Gm6FolxZ32oJPFNqN68LsBbQodoSGTK5U8kg5B47k8W2njXUPDt5aN4d8MhZVCsbbUpnlAyMlFa3UE+xYfWvUKKAOU8f+Hb/AMSw6VDYapFp8dpex3soktftAm8vlFxuXGGw2eeVH0PIeK/A2vi+iudH1zVL3U9WibSr+6uBCsVvat8xcKirtZPn2YDHdJycc161RRYDzvUdPvL/AF/wppFj4fvbLR/D18Lk3s7wiF447aWKNYlVy5yZF+8q4Cmuj12yuLjxT4ZuIomeC2luGmcdEDQsoz9SQK6GiiwHn2ry65oPxE1PVbLw1e61p2o6dawB7OeFWikheckMsjrwRMOQe1UNSsvFOseFvGMg0640+81wx2lnayXCPJbQsiRPK21tikbpHwpzhR3r1CikBxl9a6lDqOnmz8Mw3MelZSyuDqflHaU2HKhemOMHPQHrisXT9O8T2njCXV/+EX09bWKxWxsbWG/RBbqXLytxHjLkR8DoE969NooA5O607UtR+ImnXlxD5Oj6VZSPE29SZrqY7Tx1ASNWGT1832pL/Sb4fEe116GAS2dvotzaFQ6hmlaaF1UAkdRG3J4HFdbRQBwPhKz1nU/FXizVdf0SXRrO/tbSxtoZLqOSZ1j88u5MTME5mwPmJ4zRpWhT6D411m40rSM6XHothaWUSOqKzRST5jBJ4wHTk+td/RQB4veeC3k8U6XqMXw/VbK2trmKaD7fETI8jQlGHz/w+W//AH1XWarpWoaxp/hfTho39nWEGoxXF1E06P5UVvmSMDaed0ix+vAOa7yigDgfi/Pf3fg3XNC0rQ9S1G81Gwkgie3VBErOCoDMzDGOp9q6h9CtZPEaa5MZZL2K3NtArtmOBScsUXszfKCfRQOOc61FAHMeErG+XV/EmqanF5Ml7e+XbxnBK28SiNCSCfvEO/0cdDxUejadeN8Q/Emr3UBitmtbTT7RiQfMWPzJHcYPTdPt5wcofaurooA5X4YaddaX4H02z1CBoLqPzN8bdRmRiP0Irz7wp8J9GXRfAY1Pwjpn2mG1xq3mW0ZYv5GP3n947/rzXtdFAHgS/DiDTrNYLPwTD/a8vic3NvfQwwqLWzS/WRSXzlR5IwFHODjHavQfEvh7xFefEPTdY0C9srCKDS7i0lnurY3IJeaJgoQSIeiE7s4GMY547yigDk/Ami6j4f8ADN3b6w8N7fPe3t27WqbFl82eSUbVY/KSGHyljg8bj1rL8J6fdXXjGPVW8Ny+H9M0/Sv7Ns4J2hDndIrsFjhdkVAI4wOc9eB39ApKAOf8AaDJ4X8F6Noc063ElhbrA0qrtD47gdqm8bDTG8Ha2Nfx/ZP2OX7Vn/nnsO7Hvjp71tUyaKOeJo5o0kjbhlcZB+ooA4X4JaHeaN8P7CTWXeXWtRAv7+WT77SOowG91QImP9ms2/8Ah3qtz8PvEXhD+1bE2F888lpP9mdZIvNnMxEnzkNgsQCNueOK9PAwMDgUUAYHjbQZPEWkQWcU6wNHfWt4WZcgiGdJSv47MfjWTP4c1zSfEWp6p4UvLDyNUZZrqxv0fYs4QJ5sbocjKqgZSDnaCCOa7WigDztvh9dTaLdLfanHc63f6taapeXfklEPkSRssSJklUCRBRkk8knrXT+KtFk1r+yPLmSL7DqMN824Z3BM/KPc5rdooA808W6R4znttX/sNdG00Xkht0+xweZcSLI+zz5ZH2hdqnzCoVjxgMetcr4h+GDXGkeIYrLSp3nMd/FZgXDIGH2REg43BeWGOmOOeK91ooA828CeDYRbeII9S0ye30661WC7tra5lLOfJhgXc3zHIMkTEAk8Y47Uug6VqFj4a1y0vPD76j9t13UJjbmZIswyXDuj5J6EbTjrzXpFFAHjuk+E5bDXdSvz8P1KTyRSW6jUIsxbEAP8X94ZrqvF+grqtzZX11oF7q8pt2jNsNREUdoxHLqNwHm/MQJF+YbeCK7ikoA8P/4QW7/4Sv8AtD/hF9f+xfYvs+z/AISqbzfM8zdnf5+duP4c4zziu88E6BDY6jNeJoV5okoiWIqdQ85LrjG91DkNIAozI3zHdyTXaUUAeWXXhXxLN4kScxWY0mLX5tRC5/fFDZSRBs7sYLPjbgHvWf4T0Hx/a2ngu7Ok+HYn0bRW07yJ9UmWRvMW35fbbkKw8jkAsMt1459i3Um6gDmPh3aXtj4QsoNUgFvehpmliDbgpaV24OBkcjBwPoK6OnUUAIaSlpKYBS96Sl70AP69aXimFqaTSAlpaiBNSLQAtFFFABRRRQAUUUUAMopW60lABXOQf8jTq3/XK3/k9dHXOQf8jTq//XG3/k9Y1fih6/ozal8E/T9UaR6UynnoKZW5iJTSKcaQ0AT0UUUAKKcKaKcKAM/wh/x5Xn/X5P8A+jDW5WH4Q/48bz/r9n/9GGtysMP/AA4+hrX/AIjCn0wdafWxkFFFFABRRRQBGaaacaQ0DG1Ii5pNtPTgUxDqKKKQBRRRTAKKKKQCGmkVIaTFADVPY06mkUKfWmA6iiikAUUUUwCiiikAUUUUAFFFFAC0UUUAFFFFABRRRQAUUUUAFFFFABRRRQAUUUUAFFFFAAaSloNACUUUUAFFFFABRRRQAUUUUALTGbFIzYpnWgB3mUbx6UzbRtpgTAgjNNZuMVGcqKB0oAfSYooNAhD0pO4pT0oPUUAJRR3o9aBgKKO1FAAaTmjNFACg1KGGKhooAlLZpV6VFT0OKAH0UUUgCiiigBCKbUb3ADEAZ/GozNn/AGPfrQBYxXPQf8jTq/8A1xt/5PWz9o9qwrWQN4q1YdzDAcfg9Y1V70PX9GbUvgn6f+3I1aYafTDW5iIaSlpMUATYx1ppkUdTVMzM3eo2b1qrCNASIT96plORxWQGFSLO46GiwDvCP/Hlef8AX5P/AOjDW9nrXOeEH/0C7P8A0+T/APow1vbq58P/AAo+hvX/AIjJcish/EWnK7BZJZI1OGlihd0X6sBiofErs1nBb7ykd1cxwSEHB2k8gfXGPxryvV9b1AavN5VxLbxwOY44YzsVAOAMDj/GubHY+GCipSV7nRgcBPGycYO1j2y2uYbqBJraRZYnGVdTkGpq47wlcO10rEBBeWa3UqAYAk3FSwHbcMH8K6v/AIEfyrsjLnipLqcc4uEnF9DE8ca/J4e0eOa0hS41G6uYrOzt2JxLLI4AzjnAG5ieyqTXPeM/iMdD0SW7tdE1hpkuIIQbixkSMh50jJ3euGOPU4HesbxxY6rJ8WvBep3t2q6ZFqL2tlZxkkNus5nklkyPvblCqB0AJ/iwON+JNnBLpOtvqVr4mlv312FYZI7i6+zGI3kQCqqyeWDtyBhc7sY5waok9u0jxCmqXZt00zV7YhS3mXVm0SduMnvzWbb+I9bvri/GleHYri2tbqS182S/WMuyHBO3YcVkfDuye28W6y9ja6/b6I9jaiMatNcSZuBJP5hTznYj5TFnHFYWk3mgfbfEP2zX9dtZxrF2rRWUlx5QIkxxsUrnjnnrQBv6X491rU/B8XiW28LJ/Zslqbxd2pKH8sKT02dcCu90+f7VZW9xs2ebGsm3OduRnGa+dfCdxoC/BO0WXXvEUd2NHYNBG9yIQ2xvlAC7duffFejeMr+a08MeGIv7dfR7K4CLcNaRtLfXAEWRFboqMSScZOMgCmM9Opu6vIvDPiKeHx22lWN54km0260q4ujHrlnNC8UsTxgNE8qKzKRIcj5sEDpnFP8Ah/oviDxJ8OtJ1nU/F+rJrl7Zx3EUluyLDFlQUzHtw+eC27OSTjAxgEekahrtlp+s6VpdyZhd6mZFttsLMhMa7m3MBheOmSM9q1K8x0LxZqesP8PbqYi2fUobo3sEf3GkjjwcewYEit6bx3ocMzxyXc4dGKkCynPIOOoTFIDsKK8u8feP4ofD9gNDv5bd9S1FNON4bRy1spVnd1Rl+ZgqEDgjLDPQ1mLr40jXNCfQNe17Vori7isryzvoZZQ6SHaJgzINhRirHBC7d3HSgD2SivFfDdh4l8UaJ4g1W98VaravDqF9BpiWrIiRLFOyq0g2/vDlSuDxtA4ySaqNeeI/+FUQfEK48S3/APakdpHqjWMOxbN4+CYDGVJwUyN2c7jnOMAAHp+s+MtP0vXDpDW2o3V8tsl0yWlq0oWNmZVJI6ZKMKybXxvenXb2K58N64NLEUTWs6afJvZzuEisvthSCP72O1UPiNqHhm2ubtJ9Q8HjWJoEtrqz128WP7RbAs6xnLZT5nLBird+O45ODxh4UtbXwdaQeILKIPq5uZoLvXIbr+z40hlyvmhz8m4KF3E/fxxwoAPVNM8WW+qSarb2NhqR1DT4Enezng8iSQP5mwKXIX5jEwySAO5Fc2vxMufs3iGeXwhrFvFoUUz3ry3FqVjeO388J8srMdylACoIy3PQ43tJ1nw5rOoanc+FNY0W+1mW2RJHtrpLjCoX8veqN90NI3p1PNeTpb+LDo/xjTULjRp4miukuY7W1lWSSY6dHtMWZGAXG0EEEk556CgDvNT+IOq6bo19qNx4dtillYjUZoE1VDKsBDENt2d9jAepU+lehQyCSBJfuhlDY9MivD/Fwa4sfHkUSlpR4ItIAg5Zn/0tsAdScMv5j1r0Hxf4fTWtGgfUb6+Gl21q0k+mwSCKO8IUECRgN+3g/KCAc85oAoX3j69ubua48KaM+taDpzEX97E+DIQcMlqOkzJyWwccbQSx47LQ9XsNd0uDUdIuo7qzmGUkT9QQeQR0IOCDwa4G/wDEsNv4A8C61Z2FxaWtzLZzGw02JpSsckDN5SIgy4GRwB2zipvD1ppWt+KZtb0CHxH4du1dHvo57CS1g1AHIw8cq7Wbjl1ww456UAdZ4r1xdG8J69q9qIrqTS7Oe4MQfgvHGX2MR06D86o2vieWfxbpWjm2QJe6O+pmQMcoyyQpsx6fvSc+1cV8QiNJj+JlgNq2+seG7jVIxnkzRwNBNx/u/ZvxzVg6jb6R490XUb6QR2tp4PuppXP8KJNakn8hQB2vi7xJB4d8K6xrgQXkWmxPJJFHIASV6rnnBqhP4j8Q281vDP4dsY5blikCPq6AysFLEKNnJCqxwOwJ7VxfiSxuLL9m7xBJqEbR6hf2FxqF0jHJSWdmlZM/7O/b9FqpfJIPi5B4U1DW7o6elpc3Wn3gdvtFtc3IISHzem5US4ZMnJU4OQOQDsNU8d6lo88KapoVrHuntopEi1RJJY1nmESSFNgO3dnnvtPpW94p1ybSrjR7OxhS4v8AU75LaONyQFjALyyHH92NWI99o714jHqs2u2niO61ee1l1q01/R9KkaDO2WKC8QCZQeivI0/A6FSMnbXU/GSAR+JtPlj8WSaRe3kBteTAiWdnuDXMxeQEruGxRjBLBBnANAHZeJvHKab4o0jRNKtX1W6uI3u7uO1w8kNsFwrgZAyzsgGT03HtWv4U8T2viUah9ltb22axuPssy3MYUiQKGIBBIOAwzzxmvDvEmqeGoLqz0/wzc6b4IWMrdW+v3Ui+bNHt8oGCIEmSNlj25chcKCAcAj0D4KeIrS70oaHp1lbyQWAIfUtPuluLadycszMSJBIxO4hlPJPzHrQBb8X/ABQstKh1m00Wx1PU9asWMAih025khE2FO1pEQjADqxwc498VZj+KOgAwrPBrsJd0j8yXRLuKMMxCjLNHhRkjqa4bTdXhsPFvjmKX4g6R4aJ1xm+yXgty7/6NbjzB5jA4OMenyn3pPFWu211pAhT4p6Fq7Pc2wFjbra75/wB+nyjY5b8h2oA9e8S6reaTaRS2GiX2sSPJsMNm8SsgwTuPmOoxxjrnms/SPFU063Emu6He+HbeILifUp7cJIScYBSRufriqfxR1HV9H8NXGpaJqENrcQjy44ZbYSi4mkZUiTORt+dgOM9fam6FJcXV9q1rrusW+oxabhLq2k00QhGKK4cEsdy4JwQMZB54oAm8BeN7DxNodhcS3unLqFzv/wBGhuFLfK7AYXOei5q7468Qv4e0iNrKFLrVryZbTT7ViQJp26A45CgAsx7KpNebeFrG2g8K/CO7htY4ZbrU/P3CMB9stleSAE+mGH5Vs3OnajafE3S9e164e6nMF+trZWil44IECFQinlpWHLH1IUcDJAOw0jXp7zxrr+iTQxLHptrZzpIucuZvO3A+w8oY+taeiazp2u2TXekXcd3arK8Pmx8qXRirAHvggjI4rx/SLHVfG/xO8WrqKX3h7SHstPFzYFl+03cWbjYGdGPlKfn3KCWIwMryK9l0+yttOsLey0+3itrS3QRxQxKFVFAwAAOgoAtZppoooAbzSg0tNIoAeDS1GDing0AFFKaYxxQA7dSbhTKKAHbqTdTaKAJNwpjNTRSNTAM80ZptLQA4H5BxTdx/umnLnYOaTn2oAbJyh60qfdX6Ukn+rPSlT7q/SgB9FFFAgoNFFADe5o9aO5o9aBiUUUUAFFFFABRRRQIKWot49/ypnH96SgCxk0oY8VCsgXHJ/Knhg2cfyoGWKink2rUX2hvQUy5OQrUgIyc0ZpM0ZqhDs1yt1cvbeKb5oyQpjgLAdx81dRXH6pu/4SW+/wCuMP8A7NWNRXnT9f8A21m1P4J+n/tyOuVg6hl6MMigiuPEsoGBIwH1qxZXk0dxG3mO655GSciujkOfnOmopTzgjoaSoLKANISRTSfSlUZ61pcQoOaGz2obA6UzOKVwHeEv+PC5/wCvuf8A9GGt1Op+lYXhL/jwuf8Ar7n/APQzW6nU/SubD/wo+htiP4jK2p2SX9nJbyFl3YKuvVGByGH0Ncxe6I09351/odreXYPNwlwY1kx0LJ6/nXXHrS9TVzpwqK01f1JhUnTd4Np+RnaRp8ltJNcXbq9zMApCDCIo6IvsP1rTpKKv0I3OS8b2F5d654OubO2knisdTeefZj5ENrOgPP8AtMo/GuF1Dw34m1jxAdV0HSDoukpdpqE+marcqF1C6jZWRwsW/wAnkZJz8xC5XqT7UMYpG2kYzSA5zS/Eer3BltbzwlqlncxxPIrme3kt5WA4RZA+QSeBuUe9P+Huj3WieFLW21IqdTmeW8vdhyPtE0jSyAH0DOQPpXQocAU40AeVwab4l8P/AAc0vw1ZeHJdT1ZtMazkMV3BHFbuV25dncEj5iflDfd7Zre1rwtqcs/hjU9FubOHV9HheAx3aM8MsUiIJFypyrZjUhh6EEEGu3pO9MLnBQ+E9WbxevinWtUgmuU065sTZ28bLDGjMjJsySS3ytuY9crwNtc38MNM8Yf8Kn8O2mi6vpqW1zp8Lx3V1A7z2iugLKqqQr4ydpOMDAO7GT7CeRg02ONIoljiVUjUYVVGAB6AUAchaeC4dKbwhHpspWz0GGaELJ8zzb4wu4npnIJP1rq4/wDWDNSy/cquOtAGT418OnxFpcMUF0bO/tLhLyyuggcQzpnBK/xKQzKRkZDHkVjQaH4r1HWrC58RarYQafYv5wtNKSVDcyBSAZXZvuDOdgHJAyTiu2LN/dH50u4/3V/OgDmvCfh+TRPDd3pz3CzNNeXd0HCkACaZ5APwD4/Csh/A88vwfPgsXkYn/stdP+07DtyFC7tuenHTNdy/Vacg+dqQHLeKpLtL5LfSPCUWrXcqBjeXLxQ28fbDud0hIxnCofr1xzdv8Mr03ja5PrNvH4meMxHytPjaxSPOREIWG4qDzu3hie+MAeoJ0/Gn0Acd4bj1d49RsdR0W00bUUh2x6lYBJLeYtnDKpw4IIyUYY6cnNYq+EX8K3b65ZJrvinxFd3O8+beJBCJGj8vzXjXZGqhFC5CMw4wDXpNFAHkraHr3hnxVpfiiXTJvEGpXUd4NTFhJGnlPL9m8pYxK65jRbcr1yTyetdJ5/iybwasV3psN3q10LgTI1ykQt0dmMa5UMGKoyqSOpXPeuxPWigDyrTdN8XWvhjwfpP9gWbvoX2XzJP7SAEvlQmM4GzjJOa7rStQ124vFj1HQobO3IJMy3wlIOOPlCD+dblFAHn3juw13xDpGsWMPhiyNzPY3dhaX0l+u6NZk2lsbMgHCEjPYVmNo3iSfxHp99f+GNOurK30aTS5baXUFYSlpIX3EFMYHlHj3Feq09OtAHA/EC31vxF8LPFFidIWDUZ7V4re2huVmMmV45wAOc8Vcn8DqdB1y3iu1fV9Tu2vv7QmhDtFMCPJZVBH+rVUVef4cnqQeyooA8i8Y+DFhk8L6T4b8PalK9hJZxnURPEsC28d1HK4ly4eRx5Rb7h5ckHJNdZ4j0vU7rxNHeaV4e8NyTJAIhq+osXmjGSdixrHuKgnOPMUHJrtKWgDzCWDxppHjia9stHstfafR7W3nu3uf7Pj81J7liEXbIeki8E+nJzxueAItbbV/El94h0mLTJ7qaExxxXP2hGVYguQ+1c854xxXZ0UAeXaLpvi7Ttf8XyafoOhz2V5q7XMMupX0kLupghXKqkMny5Q8kg5zx3K+KrPxpqOjtby+HfDSxmaBnaz1CWSUKsqElVa3UE4B6sOM16fRQByXjnw1qHiOTRTYavFp0VheC8dXtfP851BCcblA2k7uc8hTjiuQ8VeA9cOpI2mazqd9ca5A2mavdXAiVIbXO7coQJtZQZUQBW5lJJ459cooA88vLa/1fxj4YtYfD99p+kaBdyztd3EkIjlUQSQxrEqSMxyZA3zBcBecE4ro9Xs7ibxl4eu4oma3t4rpZZB0Qsqbc/XB/Kt2n0AecahJrnhz4j63qtr4Zv9Z0/VLKziSWymhUxPCZtyssjr180EEVt+BYNXa61/U9ctprI6jeJLbWUtwJWt4lgjjwdpKqSyuxCk/e65rrKKAEpaDRQAUYoxS0ANIzQBilxQaADNB5pMc0tACZpDSGg0AFIaKKAEprUtNamAlGaTPNB6UASKcIMmguvrQn3BxSn6UARyEFDg05B8q/Skk+4aWP7i/SgBaKKKAD+GlPUUn8NKeooEHc0nrS9zSetACUUUUAFFFFABRRRQA122x9O9Iz/Oqkde9JMcIDnqaHGXU5oAkwAaarZ3U6oYujfWgBlOnG2NRTD1qa55VTQMrEZPFOSNmppODTkkK1RI9FZHwAOnrXH6xuHiLUMgf6uH/wBnrrjISwIIrjdXkJ8SXwJHMUJ6f71Yz/iU/X/21m1P4J+n/tyI6usYrWSOS3k8yQHoemMVGbtWg8oQgHGN2f8A61QSQyRFfOVlUnHauq3c5jS/tuf/AJ5xfrU1trec+fEB6bDWZiz9Zv0pknlDHkF/fdilZDUmbWcGnHYFznmoWbFNb61JY8n3ozTM0hNUSWPCJ/4l9z/19z/+hmt5DyfpXP8AhH/kH3P/AF9z/wDoZreTv9K5MP8Awo+h0Yj+JIKUUylFamQ4UjdaBSNTESrkqORSYbP3hRESUGRSH77f7tAx45ApaSHlBSnrQAUUUUAFFFFACS/6s1WH3lqzL/qzVYfeWgC0y/7H603aW6px9aeZQvBDflTTKPRsfSgQyX5StLEdzNTZzkrRB95qBkydT9af2P1pifeP1p/Y/WhgJRRRSAiPWlpvelpiFp9Mp9ACGhaDQtIY6in0UAFLSUtABRRRQAlFFFABRRRQAUUUUAFFFFABRS0UAFFFFABRRRQAlFKaaelADcc0hGKefSkbrTAbjrSY4p3c0lACGo36VIajfpQA2iiigRJGfkWn9qahxGtBfANAxJf9W1LH/q1+lMkP7pqWM/IPpQIWiiigBT2pT96kPalP3qAD+M0g+9S/xmk/ioASiiigAooooAKKKKAGTNtQd6a/+uQdKdIu9cdKY/8ArkPWgCY1HGNu76080yPGG2+tAEOanvDhFqBh0qeUb1xTAYEQqDnn61ASAf8A69PKbXAB4pjfe4HH0oAdGqs9cfrSqPEl/jtHD/7PXXCuN1n/AJGO+/65Q/8As1ZT/iU/X/21mtP4J+n/ALciy1qkdv5wmXdjOOKrSzyTKBI+7FR9qSus5Wwpy0wU4UxXNomjIqPNGag0H0JmRwijJNFunnzrHkAdTzWskUSOCFVWpN2Ap+FE26fc/wDX3P8A+hmt2PnOfSsfwnzY3Wf+fuf/ANDNbW3rj0rlw/8ACj6HRiP4jIJGWNWd2CooyWJwAPWsoa2XXfbadezwH7sqqqhh6qGIJH4UeIPntraGT/UTXcUcoPQqT0/E4H415N4gnupNcvGvGfzklIAPG3B4x7Y6VyZhj/qUVLlvc68vwDxsnHmtY9q066h1C3E1rJuXJVgRhlYdQQehq35JrlfDMsyX1u04PnT2EclxnjLhiFYj1Iz+VddXfCXNFS7nBOPJJx7HPeNNck8OaJFLawrc6jc3MVnZ27HAllkcDnHYDcxPZVJrm/GnxDbQ9IuLy20PV2lSaCH/AEixkWPDzJGTn1wxx6nA71neM7LVJvi14J1S9uVXTY9Re1srOJiQ26zmaSWTj725dqgdACc/Ngcb8SrS3l0bXZNRs/E8uoPrsSxSx3N39lMZvIgFVVk8sHbkDAyGwRg4NUI9r0HxAmpzCBNN1a2Owv5l1ZtEnHbce/PSsyLxLrd7dX40vw7HcW9rdSWvmyagsZdkOCduw4rI+HFm1r4r1d7G11+30RrG1Ea6rPcSZuBJP5hTzmYj5TFnHHSsTSrvQTqPiH7Zr2u20w1e6Vo7KW48oYkI42KVzxzz1zmgDe0zx3rOpeEIvElr4XT+zZbU3i7tSUP5YUt02dcDpmu8sZ/tdjb3IXaJo1kC5zjIBx+tfPHhK50FfgnaJNr3iGO6GjsDBHJciIN5bfKAF27fxxXovxJ8RJ4e+FFsovorC61KKDTbe4lcKsLSqFMhJIHyJuf/AIDQB0/gzxho/jG1vbjQ5nljtLg20m9Nh3ABgw9VYMCD3FULzx7aw6vqOnWuja7qE2nyrDO9nZ+YiuUV8Zz/AHXU/jXE6B4h8JaN8SdCs/Cmt6ZdafqmnrpUlva3KSGOW3GbdyAe6GRCfUJV3Qtf1DSvG3j2Gx8MatrCNqsbmazeBVQ/ZLcbT5kinPfgY5FAHX2HjnSdQt9VG29tLzTYPtFzZXls0M6x4J3BWxuU4IyCRkdadqfi3SdL0Gx1i9lkS3vBH9niSJpJpmddyoka5LMR2Geh7CuT1Wy1nVrjX/E+r6SdGtoPD91p1tbTTxyzy7yJHdzGSqgeWoADE8nOKg8MrHdeOPCAusObLwus9qjEfLI7Ro7geoUBc9g59aAOnj+IFml7BFrOla7oUVzKIYLnUbULC7E4UF0ZgmSeN+3njrWrr3iW20bUIrGWLUbm5lhacLaWpl2opAJOOnJHWr3iLTrHVtDvrHWlhk0u4haO5SVtq7McktkEYHOQRjrkYrj/AB7qnh+0tzFNq/hKPUpbQRC21u8CpcWrHJU5bOGK/f2sOOhoEPXxpff2/cRzeHtaOkC3jaCVdOlEol3MJFYHgjHlkEf7We1bOh+KrbVLzULS2s9QS/tLdLlra5tzA7q5cJt34HJjYZzjivJbvxN4TGg+G7GPxDZwGTXra5e0m1uC7WwSFzIdsgY4hPlfLuOf3gHy8KPVNC1rwxrOsXs3h3WdFv8AWntFjY212k7eUjMV3KjZ2hpTz/tdelAzMsviHdz3Oswv4R1i3OkKxvHmntdkJ8kTKDtlYnKleVDY3c9DiQeN9YOlG+Hhy3KCyGomIaovmCErkNt2fUfUVxWjw+LP7Y+KH9oXeiSw4xerb2kqvI/9nJs8omQ7QMpncGz82MZGNOO4TyryyB/0pPBMGYz97LCXAA9fkPFAHda94qj0fStI1CWKLyLyeGOUPOEaJJOrqCPn2kqSOPlye2Dzvgj4kp4kkjRo7JVWK8luJEuBwIrh441ReSxZI2duRgbf7wqPx29sngfR4dWv4dO0p4F+23DWzzTLEIwWWMgERkjILnoOnPTgPAeg2kvg9tE8L6nLbalq9rPvsLq3aNraCWcbpI2YEq8cM20qrFS2D1ySgPQfAPxU8OeJdM0ZZtZ0uLXL+NC1hFNlkkYZ2AHnI6Vs3HjKxi8d2WgLe6cUmtLiWRjcLvSaOWFFixnqfMbjr8vHeuV+HV62s+K9JiuCPtvhrRJdOv0CFQtw86R8fUWjMP8AZZT6VWvr3Sbn41aYmkeHBeTQ2V6t3NLZ/Zo0kFxbFpt8ijzChDDKbjlx0ySGI63SPE3iDV9Ogv7HwzC1tOC0ZfUlUkZI5GzjpV/w/wCKDejXhrNrHpL6NMI7ppLlXjVfJSbfvwAFCyDOemDXz7eaJbT/AA60rUT4W8EhruexmW5luyt5Ikl1EQZE8jgMGw3zHCsx5xg+n32mrpnwd8dRw6N4c0qB9Mu2WPRLgzRu32dwSxMSYbhR3oA1fGnxW8MaR4U1TUNH8ReHtQ1C2gaSC1XUYnMrDooCtk59q3bf4geDZ544YPFvh6WWRgiImpQszMeAAA3JNeWfEvxf4NvPhXrdpYW1wl7Jp7JGTodzEA20Y/eNEFH1JxV34j+LPCGp+GVtNGt50vpNQsPLL6Lc24GLyEn948SqvAPUjPTvQM9xrl7fxT5fi3+xdTgjgjvF83SryOTfFeKFy6ZwNsi4J285XkE4OIPFeq3a+LND0awn8tJYbu9vU2A74I49gGSPl/eyxnI5+Ujpmqfwp0+z1D4TeCPt1tDcfZ7C0uIvMQN5cixja4z0I7GkB3dcBYeO9Tv9En1mDQLaPSYZJ0a4udUSIKIZXjdmymFGUJ5PSrnhPVp08W61ol5dm8hkVdU0y4LBt9tIdrxgjr5cgx/uuleM3U8+k+A9KlGpSDR9Z1i7stTtHVpRHAmozyyXEYGdgEaur/wkMDwV5APaL7xNr9iIvtfh2xhMzGOISauimR9pbaoKfM21WOBzgH0q1beMbST4dQ+L54ZIbSSwW+8jO5/mUMEGOrEkKPUkV57PczL8WrDw7qGprfWFrbXWs6fPI5aQPNG0aQM3RsKbllJ52gf3cmJ44B+z74KvLvVriwisrOzuI4oEid7qcIPJjAkBXPmbSMjGQCeBQB3HirxlceHPA9te3lvbP4luRFbQ6bHJkSXsgGIh3wCck/3Rmr2k+MIL7xBFok2mapZ38ls10Bcwqq+WrBSSQxxywAz159DXjF9eeHNO8LiPUf7L1/Xr0Nb6n4jurxI7OG5l+Z181DneoiG0RruAiTJXitr4WeJrfTvEk1hHqlr431LUhGZtYsLhPtIRBtAlhdhtjTPVCfvEkZJJAPUPE/jXSPDeoW1jqH26S8uImnjhs7Ga5YopCliI1bABZRz6iuZ8PfFW1udMWXW9I1+0vHeQ+RFol4+xN52AsIyC23aTjjJIHrWb8Rr5NO+LOiTS+J7Lw0raJdJ9rvBEUc+fAfLHmEDJ6+vymnf8JNbf9Fo8Nf8AfNl/8coA9FtNch1Hw0us6RBcX0MsBnghRfLkl44UByuCenzY98Vj6Z4s1W7v4YLzwZrmnW7k77q5ltTHEAM5bbMTj6A1U+HaXVx8KdGWw1GOK5a2UreGISIfmyW25AIIz371i+DNb1/WV0Z9S8Q2yjVRPc2sK6X8lxbRyYH7zdgM0ZVsehPXBoA6DSvHuk3fiXXdPn1TSY7Wx8jyJRdJ+93oWbndg4IxxXUanqFppemXOoX86Q2VtE00srH5VQDJP5V5B4lsdNl0T4zXUVlaqlvZvaIwjXAkSwDnbxwcygfUVr/FHSNS1XRbeS7vEh0G0NnKlrDnfdTmZAfNJ48tRyFHUnJ+6AQDotC8T6reQ+F31PTo7KTWWndoGJLwxBGeIH0cqF3DsSRXRQazp9xrV1pMF3FJqNrEk08CnLRK+dpbsM4PHXHPevOPGt9r+t+ONA0zRLW40SOKe5j/ALYu4kfcfJYN5EW7LcZw7gLnHDV3vhbw3p/hmwe205JGeVzNcXMzb5rmU9ZJH6sx/ToMAYoA2qKKKACiiigAooooAjH36T+M07HekxzmmA0feNA+9SqPmNGOTQA1erUMuRSjvzSM2O1AAF4600x89aXzOOhpVbPY0AL2opaKAGNyMUL8oxS0GgQlFFFACjvSv94U0U5/vCgBP46Tv+NKfvCkPX8aAF3f7NG7/ZowtGF9aADd7Ck3ewowvqaML6mgBKKO9RRf66SgCWnbD6VHbf8AHxJU/P8At/pQAzY2RSlDnpThn/b/AEpCW3D7/wClADGX1FJT5fvVBP8Awf71ADzimT/cptz/AKv8aWb/AFQpgVa5DWP+Rjvf+uUX/s1df61yGsf8jHe/9cov/Zqyn/Ep+v8A7azSn8FT0/8AbkQ5ozTc0ZrsOQcaBSE0Kc0AbFW9LiWVJJJFyucCtHyo/wC6v5ClGAMAVlc2Ikt4UkDpEoYdDjmqculpJOZTI+S27GK0aKGwKfhVN9hde13P/wChmt4LtGKw/CH/AB43f/X5P/6Ga3DxXNh/4UfQ3r/xGV72zhvbSW3uFzHIMHHH4/WsKTRb4zh2/sy7ZOI7i6gJlUe+OCffiulFK33DWjipaMyUnHVGbp2mC18ySSZp7mVg00zDBbHQAdgOwrTpkJzGCepppY+bJ9BiqEcn4y0+8n13wZcWltJcRWGpyT3BTHyIbWdAef8AaZR+NcPqHhvxNrPiM6noOkNo2kLdR6hcaXq1yoXUbqNgySKse/yORknPzELleCT7LCSyAnvTzyGoGcrpPiLVpmktr3wlqlncJE8iyGaCS3lIHCrIr5BPQblHvUvw70e60Twpa2+olf7TmeW8vShyPPmkaWQA+gZyB7CujT/VrS0AeV2+neJfD3wd0zw1Y+HZdT1ZtLaylMV1BHFbuV25ZncEj5iflDfd7cV1MXheabxH4f1K9nja30ewaKG3C5IuHCq0ufZFKj/fautooC5zvjrw6fE/hufT4bgWt4rx3Frcld3kzxuHjfHsyjPsTR4Y0KbSdT8Q3lxPHK2rXiXe2NSBHiCKIrz15jJ/GugooAoeIrFtT8P6jYI4ja5t5IVYjIBZSM/rXH6r4MuJdM8PPpuoCw17RYFit7wR743XaqvHIhI3RttHGQQQCDxXf4zQQD1FAHAan4c8VeKLb+zPEuqaVbaJJgXcOmQyebdpxmMu7fu1OMHAJIJGR1rW8VNPBNb2+leEk1i5eMhZ5Whit4AOgd2y/wCCo1dTRQB5a/w2vLm+XXL7Vra38Q7THGtrYxtZQxE58rynGXGcEvlWOByo4roPCyast5f2Op6JZaderB+61XTwjQTA8DCHDqw4JQ5HH3jXZkA9QKMD0oA86j8Hv4YvLnxDG2u+KfEN1cKzIbuO2hMnliMO0a7I9qooGSHI6gE1j3Ph/wAQ6L4i0rxZcaa+u6vPcTPqMNhJGgt42h2RRReay7kTBySQSWZsDOB69S0gPMvEEHiTW/AZ0zV9FvrjUtTuJ38u3uoIVsohMXgSaQ7lOF8sHasm7DAg962jaT428Palda3rMNl4q1OazW3jkt5fszW+MYhRGGzYz/M0gIPH3cACvVaKAPM/DnhzxH4U1caw8i6vNrkyHXLePCCGUnCSwZxlEUhGUnJVQ33gQYvGsXibUfFN7c6HoN1GbXR7rTbe6nlhCSzTzW+11ActsRY2c7gDxgDOM+oBW3MTmh8/L1oA8Zu/BM9lr97DbfD7QPEWnwwWlvbXOqTxxMqRwKm1A0Mhxx6jnPFdb8MNEmsdD1e01LQrLSIri/mcadblZIBEyoMLhVBU4P8ACO/Fd1t3UBWDUxHH/FzT7nVPhl4jsNNtnuLuayeKGGIZZ2I4AFdhPbQ3ERiuIo5oiQSkihlyCCDg9wQD+FJjmpaQzG/4R+D/AISHUNYM0rXN3Zx2QV8FIkUu3yj3L5Of7orjfBZ8Y+G/A2l6G/hWKa+0+0W0SZNSjELlBtV8kbgDgE/KSM969MooA5Pwb4OtdE0LwrDdKkupaJp4s0njJUHciCTjjIJQHn0B61z3wv8ABEtlAmoa8shuo/t1tBaTKuyCOW9mkdh6mRTFnPQKB3Nem0UAeW3vgq38P+E7iGPSb/Xr+e+S5Q6cY4HgMQxAFMkg2RoiLHwSSGbg7jVrTvDmpW/wv8I6NP4b0bV9Rsba3WSHVJgsNtKkeN4PlyZYEkfKO5wa9IooA8v8SaX4yij8N3UVtpeq3dnrC3CWVmGs4LeL7LcRnMjbyeZF52jsMDrV+wfxXqXjjRbnXvDtpptnawXI8621L7VlmCABh5SY6HB5r0GigDzvxZpviA/EvStU0PS9PvoItIubaRr+5aCJWaaFgAVjclsIeNuMZ5HANv8A4rb/AKFvwf8A+Daf/wCRK7migDgdK8Pavd/CCPQfPXR9Wnsmtnl2GT7OWJDFRlc8E4OR2NZWveBtVtNCsb2DWdQ1HU9B8qbTLG0ght7cNGNuwIecMhZDukOAxIGRz6nRQB5Hrmh65afDu+8JWujXmq6xrdvM15qkckKWiXFwzeYWLyCTamcgBD8oUDnp3HjrT57vwjNaWETTTeZBtRepCzIT+QBNdJRQBxvj5dVttR8O6to+kS6uLC4k+0W0E0ccojeJk3LvIU4OOMjrVfR59d1/xnp+qXmjX2h6XY2dzC0V3cRF7iWVoSp2ROwwqxvyxzluB3ruqKACiiigAooooAKSlpDQAUzBLU7dSDrQA1eGNIDzTscmkHXmgBq9WpSeeaFAy1KRTATcPf8AKjePf8qWigQZpDRk+lKMn+GgYgOQfYUxWBJqRVYZzSomCcigCM5oAqQpSBDQIZnrSufmFLsbmlZTuFADRywprdak2cjFCx/NzQBHRUzJleKaEIWgCKlFOKEU05oAKij/ANbJT6KAC1/18h9qlZjsY+jUkGNx+lIT8sns1AEjffb6U6P7i01v9Y30p0f+rWkMhlz5lQy5JX61NLnzPwpnUUxEVwCUGPWnTZEdP6jFEi84NMClXHav/wAjHe/9cov/AGau72LXLz28M3ifUhKm7bFBjn/frKf8Sn6/+2s1p/BP0/8AbkYmaM10X2C1/wCeI/M0fYLX/niPzNddzm5TnQ3rSqRV3VLLyDuiBMf8qopjFO5Njq7G/W7lZEjZdozk96u1nadLdPPJ9phVABwQuM1o1gamFefbPOm2yT7dxxjOMe1aGkNKbMeeX8zJ+/1q7Taq4FfwiD9hu+uftk//AKMNaih8nJbHNZfhEn7Bd9c/bJ//AEYa1VMmTzxzXNh/4UfQ3r/xGSx/cFPPKmmR/dFMT/XvWyMSROMUu1fmb1qO4/g/3hU1ACRJhflqTHFNjqSgYwLxSBTmnEHNBBpANYYpCKcwNNpgNopaSgBXJA4FR5lPQD86kJ29TTfNT3/KgQAMPvAD6Uv40gcHoT+IpGjDHkZ/GgY8E+1LyfSmCJR2NOwBQAooNAoNAEg6CgdTSA8CgdTSAdmkPNNY4oU5oAdmlzTM0ZoAdRRRQAClpKAaACiikzQAtFFFAC0UlFAC0UlFAC0UlFAC0UlFAC0UUUAFFJRQAZozSUA5oAdmmk4paZQAvWkIwaXJFNJyaAFUgE0lGKUfdoAaM5peacOe1OwPSmBESR2zQCT2xUmSOvFGSenNADD0p8fSkfpQnSkA4mlqFP8AWmpDQA6iopfu09PuCmA6ikoPSkAtFQydUqUdKAFHSjtSUUARzdqiqSbtUdMQlFFFAEkP3j9KcyYQ+5zTIGBkIBGQKnFADD99/pSxH5BTSfnf6UsX3FpDGyKS/wCFDR4HFSHqc0ueKAK+w05kJapcnGaCf50xEflVy5idvFGqbVJxFBnH/A662sCz/wCRr1j/AK5W/wD7PWNT44ev/trNqavCfp/7cg+yzf8APNqPss3/ADzatej8K35jDlMme3lO0CMkbR1HfHNT/wBlR+v6Vf5peaOYOUy0ZXYqjBsDPBpwqeJ18wjy2X3xTopAxP7sj3NAFN7S7LErcxKD0Hlk4H51T1F7uytlbdG0hfbuC4BGD2rRd7j+HK+2KmjbMO6Rct/dA60XsBkeC3d9OnJ6m6mz+LmuhxWN4P8A+PK84/5fJ/8A0M1u1z4f+FH0Oiv/ABJFe5nitLaSe4cJFGpZmPYVz03iSaOYD7NawlhlIrq6EcrA9Plwcfiav+KgPstm0v8Ax7rdxNNnpt3d/bOK8i8Q2l3Dr91DdpIZ3lJH+0CeCPXiuXMcbPCQjKEb3Z1ZdgoYycoylayPaNK1GLU4XKo8U0TbZIZOGQ+/t6HvV6uS8KxzRX8Ec2RNHp8a3GeobcSoPvjNdbXfCTlFSatc4JxUZOKd7HlPxO8XXGg67a2lj4gvoJpvLkltLfR2uhFC3mKH3rG3JeMgKTnrxipvhrq2reM/CtreQ+LLtL8w28l0h0pIhC7xByq70G9TuBDDIIAwTmsrxTe29p8YUi1C7gtLM6ZZTzSSE7iqS32FUY5JZkOewB9a5/wsk4fTtDsNckW1/tiz0przTJGiaaCLTJSmcjgnykJHTI4qhHq3hW+1WDxh4h0jWNV+329lZWd1HLJCkRQytcBwdoAxiJevvXmGr+K/F4utRMHiK/X/AImr+QLa40M24sPP42mR/M3+T03fxYz3r1PQNC07w5rtz/xNb+81XVLdc/b7jzXeKBj93gcA3HP+8K4LxVqN0fHviHTPLvpbGKG2CRWtrduqB4yWybe3kxn/AGiD6UAcyvjbxVqOkX15o3iTXm8+BZNKNzJoEeSUBHnqWDL83YDIHvXtGo3PiK8htLjwxNoU1q8WXkundsvkglTHwR/9evIjf3OinwvY6ZDqlna/2pp9jtntL5U8gzIhQme1ReV45bPpk19CJGiABVAA7AUAebeE9c8deIbFrxIfDcUMd5cWjKTOWJhlaJiO3JQkfWu5vtW03T5Y49Q1C0tHk+4s8yoW+gJGa5j4Of8AIr3v/Ya1P/0smrjfAsF7qkfiHUrjwpp+sXl5ql5BcXF3dpvCRzPGkO1kO1VVQMd+T3oA9D8Y67c6NeeGYrRIJF1PVVsZTICcRmGaTK4IwcxrycjBPFad3q1jaIGur+zt13mPM0yoN3cc9/avJNMgltdH8DWcj2zW9t4vlhtY4LkXCwQiC62w7+5TJTHYKBXSfD/wtot7qvjLUdQsLe9u5tauoN9zGJNkXyfIoI4UnkjuevagD0FpljhM0skawBd/mFgFx656YqGz1OxvoZbix1C0uIIh87xSq6pxnkg4FeEWazz2Xgjw4bJdR0ePV9XRLGa58uOb7LM4t4WJB3Kq7mCnj90PSu0l024/4WD4enfQ9I0ZrpLi1vIVvUY39t5RJTygg37G2NznA3etAHVeGPFdt4g1HWbWGSBX06+azUCYMZgIo5C4A6D94R3+7+A6WvO/hbpGnW2ueOJoNPs4p4dfkjjdIFUxr9ltjtUgZAyTwPU16IrBxlSDgkcetADq5Hxt4nvdJ1bQdE0Szt7nV9YeXymuZCkMMcShpJGwCWxuUBRgknqMV12K47xnaaBruu6NoWsi5i1RllvtOureRoZImj2h9kikENhxx0IznpQBUXxD4n8PappUPi+LSLrTtRuVskvtNWSIwTPxGHjdmyrH5dwbgkcc1DZ+JPFXijUNaXwpDotjp+mX0mnmfUhJM9xLHxJhI2XYA3AJJzjOKh1e91/wCdLnvdb/ALf0S5voLGSO9gRLuMytsVkeMBZMEjKlM4B+apNK0HSteuNR17wbq+qaBfTXksV6LfaY5Z4nKOZYJAyZyvUYJGOaAFn8e6haaD4jGo6fbQa/ockKzQpIZIJUlZfLlQkBtrAtwehUjnFeir0rxbxprer3Phfxr4Y16e0m1HTYbOZL+yTYJI5pcLujYtskBQnGSCCDxnFdv/wjGv8A/Q/69/4CWH/yPQBTXxfc3fg241VtU0LQJI9TubEXGqAtBtinkiH/AC0T5iEB+968Vw+n/EOU+GvEWuSeOtJ1DWrCLUEs9HtjbpBP5DSbZvLBaVgyRhx8+NpPUc1reD9QOkfDR7V4BrGr3Wt6jaWUc8YIuLk3U/zvtXaqgKzsQAAAcDoK4y30fU9D+FHjSF0h1TTmTWoWvXiSOe1milmTdkAbkkA6DlWz1VsKAen6rc+MfD99ob6jrejX1pe6jDZSxQ6S8DBXzyHM7YIx6d6dpvxCdvipq/hTUrFbezieOGwv1b5ZpjAkzQvk8NtfK+oVu4rQ+Jf/ADKn/YetP/Z6wLXw/a+JfEXxO027Z49+oWbxTR8SQSrZW7JKh7MrAEf4UAdj4g16bTPE3hbTIoY3i1e5ngkds5jCW8koI/FAOfWub0DXfG3iK3vLzS4fDkVnHfXVpGtwZzIRDM8eTjjJ2Zrn7bxBc6p428CaXrapF4j0rUrqC/ReBJ/oE5SZB/ccYYehyO1WfhpoGs32iajPZeL9W0y3bWNS221vbWjouLuUHBkhZuTzyT1pAdjjxv8AYOvhv7d5ox/r/K8vbznvuz+GKwdO1zx7fa9q+lJD4WSXTfJ3u3n4fzELDH0xXb6FYXemWbxahrF5q8rSFhPdRwoyjAG0CJEXHBPIzyeemOd8K/8AJR/G30sv/RJoATWvE2sW2oab4e0mxsr7xPPbfaromVktLSIHaZGOC5DNkKoGTtbkAE1WuPEPijwxNazeLrfSbzRp50t5L3TFkia0Z2CoZI3ZtyFiAWDZGR8uKNGlS0+Mfii2uvlnv9Osp7RmJ/eRRmVXVf8AdZgTj/noM9q6fxFrll4e04XmoM+x5oreNI13PJJI4RFUdySw/DJ7UAYes+JtVu/Elx4f8H2dnPe2aI9/e3rsLe03jKJtX5pHI+baCMAgk8iq6eI/EXh7VNPtfGlrpsthfzLbRanpm9EimY4RJYnLFQxwoYMRnAIGRTfh5Ilt4w8fWFwQt82qpehD1aCS2hVGHqMxuPYginfGmWJ/B0enDD3+o31rbWcWfmaXz0bcP90KXJ7BaAItP+ILt8UtY8KalZLb2cUkUFhfBvlmmNukzxN6NtfK+oVu4rf8Qa9NpniXwtpsUMbxavczQSu2cxhLeSUEfUoBz2NcZbeH7bxP4j+Jum3bPGW1CzkhuIv9ZbzLZQFJUPZlbBH+FZ8HiG51Xxr4C03W1SHxHpWp3dvfRLwrn7DPsmT/AGJF+YehyvUGgDf0LXPGviK3vLvS4vDkVpFfXNpGtwZ95EMzx5O3jnZn8a7PQV1f7Cf7f+w/bN5x9i3+Xt4x97nPWvNfhvoWsX2i6jNY+LtW02B9Y1LbbW9vaOiYvJQcGSFm5Izye9enaLZ3VhYLb32p3OqTqSTc3EcaO2e2I1VePpQBfooooAM0ZpuaM0AOopuaUGgBaKZRQA+imUUAFFFFAApDUu0letIvy0ufloAACBjdTQpBzup2SaMk0AIqnP3qGU5+9S7jijccUANpe1GaKAGx/fNS9qbwBmkaTBAoAR+lKn3RSOeKcp+UU0IM/LSg5IzSZ4pu75qQBLyRT16U080ucUDHUMOKbnikD80AJIcYqNjkVJJ15pjYI4piGelOA60gPIqbigCta/8AHzL9KuU0ADkAZooAVhlT60iDagpQaQntQMR1Y/dNCKw+9Sjnvig8d80gHUlRSuy9KeM4BpgV4o51lXc2V781lWn/ACNWs/8AXG3/APZ62hI277tYtt/yNOsf9cbf/wBnrGr8UPX9GbUvgn6fqjXz71BeLJJEBCxVgc8GpKK3sYEFgs0av9obPTHOatBs0yiiwXK4n/feXtpZvOz+6b+VLjnPel3AdSB9TQIeDxyeaQdaglVn+4+KWVWZhtbbQBU8JE/Y7v8A6/J//QzW5nisTwif9Cu/+vyf/wBDNbhPFc9D+HH0N638Rkc0UVzE8M6B43BVlPcVkDSryBfJs9XnjthwqvEsjKPQMefzzWzjn71GD61sZFPTLGDT4SkIdmc7pJHOWdvUn1q5uHpRg+tGD60AcXrvg6/1HxjPren+JdQ0dJdPhsmjso4SzmOSZ8sZEcY/e4GAO+c9sl/h3q29rmHxXPJqcWpw6lbXt5aRynKQNCY5ETywVKyP0wenNelYPrRg+tMDkNK8Maumvya5reuW9/qkdnJZWYhsPIgt1dlZmKGRmZiyJ/GBgYAGSTzs3w68Qz65qOrXXibRpru+EYkDaJKFXYu0bQLoduuc16jg+tO59aAPJ7/4W65emyb/AISPRoXtLuG9jePRZs74nDqDuuyMZAzXp+kQ30GnRR6tdwXl6M+ZNBbmBG5OMIWcjAwPvHJGeM4q3g+tOpAZuh6PZ6HZyWunoyQyTzXLBmLHfLI0jnJ/2mNYWq+AtMvtQvby2vdX0uW+Ia8XTb14FuGAA3MB0bAALLgkdTXX0UwOeh8H6Jb6dodhaWYt7TRbgXVnHExASQK65P8AeyJHznqTk81oaTpNrpRvTZqy/bLl7uXc2cyPjJHoOBxWjRQByd34G0S50U6VJDMLdbyTUIpUmZJobh5GkMkcgIZTudunY46cVJ4e8Gabo+rPqzz6hqWqtH5K3Wo3LTvEnGVjB+VAcDO0DOOc101NoAxLHwzp+n+IL7V7FruG4vm8y5hW5cwSybQvmeUTtDbVUZAGcDNV7TwyNN8VzatpNyba1vQx1Cx25jnl42zLz8j9mI+8MZ5Ga6OigBfxrF8UeGtM8TWkMOqRSboJPNgngmaGaB8Y3JIhDKcHsee9bNFAHIWfgDS49Us9Q1G81bV7myfzLX+0b15khf8AvqnC7vRiCRTtS8B6bc6vc6pZXeq6Te3WDctp140KzkAAM6cqWwAN2M+9dbRQBydp4B0G10TUdNSG4dNRkWW8uJbh5J7h1IILyMSxxgD0xXV44paKAM3QtGtNDsWtLBWWFp5rk723HfK7O5z/ALzGsL/hDPtHgfxD4euLzaurz38hmROY1uZZHxgnkqJMe+K6+igDiZ/hpo/27TLu0udWjmsbyO7An1O6ukfbn5SksrKM564yK6fTtGs9P1XVdQtlZbnU5I5bglsgskaxqQO3yotX6KAMLUfCejX/AIv0nxNcWv8AxOdMSSOC4Vip2upUqw/iGGbGemT61hD4ZaSk1w9rq3iazSeeS4aK01q4hjDyOXYhFYAZZieB3ruqKAMXw34eh0CGeO3v9XvBMwYnUb+W6K4/umQkqPYVbsdJtbLVtR1GFX+03/l+cS2Qdi7VwO3Bq/RRYDF8T+GdL8SxWw1KKUT2r+ZbXVvM0M8DYwSkikMuRwRnB75qhpXgfTLHVYdTurrVNVvrfP2eXUrxpxASMEoh+VWIJG4DOD1rqaKLAc94l8IaV4gu7a9uVubbU7VSkF9ZXDwTopOSu5T8y552tke1Q6L4J0vTNXXVppb/AFPVEQxRXWpXLTvCh6iMH5Uz3KgE966eikBnabo9np2qarqFsjC51OVJrkliQzJGsa4Hb5UWqWo+E9G1DxfpXie4tf8Aic6YkkdvOrEfK6lSGH8QwzYz0ya3qKAM/QtItNEtJLbT1ZYnnmuWDMWO+WRpHOT/ALTHitCiigAooooAKKKKACiiigAooooAKKKKACiiigBSMU0mlpu2gBQ1LSAUtABRRRQAUUUUABqOT74qQ1G/3xQA6TkU5fuimSDIp6D5VpoQlN/5aU/HNMA/e0gH0UHrRQMD0FRx/wCsNSHoKjj/ANYaAFl5xUZqaQcVCeKYgHUZqYjjioccjFTqcCgBuG9RRhvUU/J96M/WkMPyo/Km4/2v0ox/tUwF496OPem8+tLz60AOIHoaSkw396jJHegBQOawYGC+KNZJ7Q25/wDQ63RIM4rn7f8A5GfV/wDrlb/+z1jV+KHr+jNqXwT9P1RcgvlmkCKhGe+atZqMKoOQqg/SmyzJCuZDgfTNbmBNVSW9WOVkKElfepYZ0mUmMkgcdMU4ohOSoJ+lAEfnKX2HO6mTeXvAfJNWDGN2cD60eXk5IBpAINvHpTJJVVsNnFS7GPpQ0XGWAIoAzfCJBtb1e63swP4sT/Iit4VzssN3pl9Ne6fF58M4BntlIDEgYDqT3x1HfAqYeI4cfNYamp7j7I5/lXNTqKkuSejR0zg6j546pm1/HT6wf+Ekg/58dT/8A5P8KP8AhJIP+fHU/wDwDk/wq/bU/wCYj2FTsb1Iv3Kwv+Ekg/58dT/8A5P8KP8AhJIP+fHU/wDwDk/wo9vT/mD2FTsbv8FJ/DWH/wAJJBj/AI8dT/8AAOT/AApf+Ekg2f8AHjqf/gHJ/hR7el/MHsKnY3R0orE/4SS3/wCfHU//AADk/wAKP+Ekt/8Anx1P/wAA5P8ACl9YpfzB7Gp2N3NOrA/4SS3/AOfHU/8AwDk/wo/4SSD/AJ8NU/8AAOT/AAo+sUv5g9jU7G/RWD/wkkH/AD4ap/4Byf4Uf8JJB/z4ap/4Byf4U/rFL+ZC9jU7G9RWD/wkkH/Phqn/AIByf4Uf8JJB/wA+Gqf+Acn+FH1il/Mg9jU7G5mm1i/8JJB/z4ap/wCAcn+FN/4SOH/nw1T/AMA5P8KPrFL+ZD9jU7G0tDVif8JHD/z4ap/4Byf4Uf8ACRw/8+Gqf+Acn+FH1il/MHsanY3e1NasRvEsH/Plqn/gHJ/hSf8ACSQf8+Oqf+Acn+FH1ml/MHsKnY3h0pKwv+Elg/58tU/8BJP8KP8AhJLf/ny1P/wEk/wo+s0v5g9hU7G7RWF/wklv/wA+Wp/+Akn+FH/CSW//AD5an/4CSf4UfWaX8wewqdjdzRmsL/hJLf8A58tT/wDAST/Cj/hJLf8A58tT/wDAST/Cj6zS/mD2FTsbuaKwv+Ekt/8Any1P/wABJP8ACj/hJbf/AJ8tT/8AAST/AAo+s0v5g9hU7G7xRxWF/wAJJb/8+Opf+Aj/AOFH/CSW/wDz5al/4Bv/AIUfWKX8wewqdje496OPesD/AISW2/58tT/8BJP8KP8AhJrb/ny1P/wEk/wpfWaX8wewqdjfyPSkyPSsL/hJ7b/ny1L/AMA3/wAKP+Entv8Any1L/wAA3/wp/WaX8yD2FTsbtFYX/CT23/PlqX/gG/8AhR/wk9t/z56l/wCAb/4UvrFL+ZB7Cp2N2isH/hJrb/nz1L/wEf8Awo/4Sa2/589S/wDAR/8ACj6xS/mD2FTsb9JWF/wk1t/z56l/4CP/AIUf8JPbf8+epf8AgJJ/hR9YpfzD9hU/lN3FGKw/+Entv+fPUv8AwEk/wpP+Entv+fPUv/AST/Cj6xS/mQewqfym7RisL/hKLb/nz1L/AMBJP8KT/hJ7b/nz1L/wEf8Awo+sUv5kHsKn8pvYoxWD/wAJNbf8+epf+Aj/AOFH/CTW3/PnqX/gI/8AhR9YpfzIPYVP5TexRisH/hJrb/nz1L/wEf8Awo/4Sa2/589S/wDAR/8ACj6xS/mQewqfym9ijFYP/CTW3/PnqX/gI/8AhR/wk1t/z56l/wCAj/4UfWKX8yD2FT+U3sUVg/8ACTW3/PnqX/gI/wDhR/wk1t/z56n/AOAj/wCFH1il/Mhewqfym9RWD/wk1t/z56n/AOAj/wCFJ/wk9t/z56l/4CP/AIUfWKX8wexqfym/RWD/AMJPbf8APnqX/gI/+FH/AAk9t/z56l/4CP8A4UfWKX8yD2FT+U3qRvrWF/wk9t/z56l/4CP/AIUf8JPbf8+Wpf8AgI/+FH1il/MHsKn8ptrndT6wf+Entv8Any1P/wABH/wpf+Entv8Anz1P/wABH/wo+sUv5g9jU/lN2isL/hJ7b/nz1P8A8BH/AMKP+Entv+fPU/8AwEf/AAo+sUv5g9jU/lN2isL/AISe2/589T/8BH/wo/4Se2/589T/APAR/wDCj6zS/mD2NT+U3aKwv+Entv8Anz1P/wABH/wo/wCEntv+fPU//AR/8KPrNL+YPY1P5TdorC/4Se2/589T/wDAR/8ACj/hJ7b/AJ89T/8AAR/8KPrNL+YPY1P5TdoA5rC/4Se2/wCfPU//AAEf/Cj/AISe2/589T/8BH/wo+s0v5g9jU/lN2msKw/+Entv+fLU/wDwEf8Awo/4Se2/58tT/wDAR/8ACj6zS/mD2NT+U2P4xUlYB8SWxOfsepf+Aj/4U/8A4SW2/wCfPUv/AAEf/Cj6xS/mD2FT+U3Nv+0aNvuaw/8AhJbb/nz1L/wEf/Cj/hJbb/nz1L/wEf8Awo+sUv5g9jU/lN3aPek2+5/OsP8A4Se2/wCfPUv/AAEf/Cj/AISe2/589S/8BH/wo+s0v5g9hU/lN3FFYX/CT23/AD56l/4CP/hTf+Eltf8Anz1P/wABH/wo+s0v5g9hU/lOgorn/wDhJbT/AJ89T/8AAV/8KX/hJ7b/AJ89S/8AAR/8KPrNL+ZB7Cp/KbuBnNYNsc+J9Yx0EduPxw5/qKH8QSTqU0/TbySY/dM0ZiQe5J/pUml2RsopGmfzbmdvMmkxjLe3oAMAD2pc6qzjy7LW/wAmv1L5XShLm3en4p/oX6jljSVcSDI+tOpOa6TmEiiSJcRjAznrTjKinBdQR2JpKry2qSOWJIJoAmMjeZntUnn56Cq3f3pTx1pAWBNmnebxVQdOKUHA96ALPnj0pftFVaKALYuKUXHtVQZpwzigC159HnnFVxSigCyJSacJOKrginbqALQc4pwY1WDGnhjQBYD07cKqh6cGpDLOaKjDU4GgBW6VCzVIx4qJhQAhlppmprAComoAm+0GkM5qtkUnFMCx5xo841WooAs+dSecagozQIm840nmmos0ZoAl800hkNRbqM0ASeZRvqPdRk0ASb6N9R5NGaAH7jRuNMz70ufegB276UbvpTc+9Jn3oAfuo3UzI9aMj1oAdmjNJmjNAD80maZupc0AFGKM0tACYoxS0UAAFG2jNKDQAm2k20+igBmwUbBUmaM0AM20bafmjNADCKQp7VIDSjFAECxbW3ZNSY/zin0UAM20bTUn4Cj8BQBHtNG01J+Ao/AUAN2mjaak59BRz6CgCHaaNpqTn0FHPoKAG7TRtNSc+go59BQBDtNG01J+Ao/AUAR7TRtNSfgKPwFAEe00bTUn4Cj8BQBHtNG01J+Ao/AUAR7TRtNSfgKPwFAFeS3jkOZFDGm/Y4P+eYq1+ApKAIUgWNSEGB1xSfY4m+Zk61PRk+poArfY4f8AnmKlSIDgdqkzRQA3YaTyzUuRRkUARbD60bD6ipdw96Nw96AIttG2pdwo3CgClRRRQAoopKM0AadrGjQKWRT17e9TeVH/AM80/wC+aZZf8eyfj/OvHP2sdc1XQPhpZ3eh6leaddNqcUZltZmicqY5SVJU5xkDj2FAHs3lR/8APNP++aPKj/55p/3zXyN4c8BfGzxBoGnavY+Opltr63S5iWXWLhWCsARkBTg81o/8Kp+Ov/Q9t/4Obn/4igD6o8qP/nmn/fNHlR/880/75r4w+Inh34xeAfDja1rfje8ktBKsJFtq1w75bOOCAMceteh+MvE+uW37KWh6zBrGoRavKIN96lwwmbLkHL5yc0AfRnlR/wDPNP8Avmjyo/8Anmn/AHyK+cv2dtD+I15qGj+K9f8AFE+oeG7q3kYWs+oTSuSQVUlGG3gj1r2D4saP4h17wReWHg/Uf7O1mR4zFc+e8O0BwW+ZQSMgEUAdb5cf9xf++aPLj/uL/wB818kfCLVPHGlftD2fhPxZ4m1HUDbiYTwtfSTQufszOvDdcZB5HUV3HxQ+H/xY1vxzqeoeFPFh0/RZjH9nthqc8OzEaq3yKpAywY8etAH0AEQdFX8qXaPQV8qeNPidfeCvhrfeANZ1XWJPiFa7N+p28pdPnmWYYmLB/wDVMF+77dOasfs9aT8Sde1DQfFuo+K7m78MvJN5trcajM7uFDx4KEFT8wB6+9AH1Jj6UYrwb9oP4xadoFhrvhOwl1a18SiKIw3VuAiIWKPkOGDD5SR0r5t8JeLviL4q8S2Giab4y1pLu9k8uJptSmVAcE8kEnt6UAfoXgUYFeKXdn4u8G/s9eIV8Q63Pc+IreKWVb6K7kkdQWG3EjYYYFeNfDzw98YPHnh1da0TxvdpaGV4cXOrXCvuXGeADxz60AfZ+1fQflRsX+4Pyr5W/wCFVfHT/oe2/wDBzc//ABNZ3iPwD8bPD+gajq9745ma1sYHuJRFrFwWKqCTgFRk4HrQB9c+Wn9xfyqleKFkG0Y+WvJv2Tdd1XxB8Nby71zUbvUbpdTljEt1M0rBRHEQuWJOMk8e9etX3+sH+7QBXzRmkzSZoAUkL1IH1NN82P8AvJ+dc949/wCRZuvqn/oQriLjTtLtI7JZk1CWe4t0nIiZMfMDwBtz2rzcXmDw9TkUb6J3vbdtdn2PTwmXxxFNTcmm21ZK+2vdHrHnR/3k/MUK6t91gfoc145a2cPmym6s9SMWf3fljBxn+LK+mOldj4CsNOaSbULD7UrITFtmZSOx7CssLmc8RNQ5Er+f/ANcVlkMPBz527eWn5nXzSxwRNJM6xxr1ZjgClMieXvDKVxnOeMetcf8QNQ3pBpUDL5s7Ayewz8oP48/hUWuXe6KDw5op8yQqI5XXooHUf41vUx8YVJxtflt6uT6Iwp5fKpCEr25r+iiup2VtcQ3MfmW00cyZxujYMM/UVNXBRed4M1ULIJJdKuMDf3Vsdf89RXcW80VzAk0DrJE4yrKeDW2GxHtk4yVprdf10ZhicN7G0oO8Hs/66olorDm8RW8fiFdJMUhlJAL/wAIJGR/StzNbU6sKl1B3s7P1MZ0p07OStdXXoFFGa5Pxpeanpclre2Ux+yghZItoxnORzjPPSpxFdUIOpJNpdisPQdeoqcWk33OsormPEviNLXQIrqxf97dD9ycDK+pwfT+tT2Ueqv4WdZpy+ozISpbC7M8Aceg/WsvrkHN04Juyvp+HzZr9TmqaqTdk3bX8X6INR8WaVY3DQPK8sinDCJd2D6Zqzo+v6fqz+XbTYl6+W4Kt/8AX/Csnwz4XtrK1c6tbwSXDN1fDqF9s8VgX0dvD43s00UptDpuEf3Qcndj8OtcEsXiqSjUqpWbS5dbq/6nfHCYWq5UqTd4pvm0s7fod5q2r2ekpG19IUWQkLhS3T6Vm/8ACZ6L/wA/T/8Afp/8K1dS0201FY1vYFmCZKgk8Z+lYuq6Nomm6dcXcunxERpkLuYbj2HX1rsxDxcW5U3HlXe5y4aOEmlGopOb7WsaOleINO1W5MFlOXkC7yCjLxkDuPer2oXttp9s1xeSrFEO57n0A7muO+GunlI7nUHX7/7uP6dT+uPyqt4plGqeLYbC4m8qzt+XJOAPl3Mc/TArmjj6scLGtNLmk7Ltrt/mdEsvpSxcqUG+WKu++m/+RvR+NtHdwpeZQf4mjOP0rpI3WWNZI2DowyrKcgj1rhL+XwpeWr2kLw28pGEmWFhtPqTjn8a6bwxp8mmaWkD3S3KZLRsowAp59T3zWuEr151HGbjKPePR9tzHF4ejTpKcVKMr7S6rvsa+aM02lzXpHmjqKbRQA+im5paAHZozTc0ZoAdmim5paAFpRTaWgAzRRRQAtGaSigBc0UUUALRRRQAZ9hRn2FFFAC5ozSUUAFFFFABRRRQAUUUUAFFFFACUtJmjNAC0UmaM0ALRSZozQAtFJmjNAC0UmaM0ALRRRQAZozRRQBTooooAXNFJRQBr2X/Hsn4/zrwv9s7/AJJRYf8AYWi/9FTV7pZf8eyfjXhf7Z3/ACSix/7C0X/oqagDE+I2u6r4f/Za8E3uh6hdafdmOxjM1tIUbaYGyMjtwPyr52/4Wp47/wChu13/AMDH/wAa+nfEfgrVvHv7NPgrSNBFubtbeyuD58mxdqwkHnB5+YV45/wzL8QPTSP/AAL/APsaAPR/i3fXWp/sl+Hr3ULiW5u5/sjyzSsWd2O7JJPU11XhzV/DWifs0+GLzxrp/wDaGjiCJHg8hZssWbadrECuf+OGi3fhz9l3RtG1Hy/tlk9rDL5bbl3DdnB716F8IND0zxD8CvCthrdjBfWTWiMYZ03KSGODigDm/iv4ogtv2dYNc8AyXGi2TvB9kFuPs7RIZcEYU8d+K+dvAnib4m+N/E1voejeMdWF7Orshnv5FTCqWOSM9hXrfxK+D/xG1nUdR0zw9e2kPg0yg2emm7KRRIMEAJtwPmyaz9K02x0/TIPAXha2isPi9aDbJqcSiMcEyPifrzEcdPagD1TStO0z4Y+A7bxd8QLGC88T2Y23uqQRie4kZ5NinzGwT8rKvJ6DFfNPxR+Muv6x461O98JeI9bstElMf2eATtFsxGob5QcDLBj+Ne6/F2w13TP2V7qz8WXX2vW4jALmbzPM3E3akfN3+UgVN+z98O/CGufCDw/qOr+HNMvL6dZjJPNAGZ8TyKMn2AA/CgDwzVPHnhLWfg5PZa3YT3/xEmHz6vPbq7ticFczFtxxEAvTtjpXtnwg0zW9X/ZYtbHwrefYtalM4tp/NMWwi6Yn5gCR8oI/GuO/aDufhfoWma/4V0nw5BZ+KoRB5c0NmFVNxjkOHz3QkdO+K4n9mrxbryfEvwx4ej1a9XQzLNmyEp8o5jkf7vT73P1oA9X8deAJNJ/Z/wBb1DxvbWOpeMoYyX1Rj50uDMoQCRgG4Qge1cB8EPiL8NvB/hqwPiHRZJfEttNI4vYrGN3UEnbhywPQ4r6g+L/h2+8WfDbXND0ryvt15EqRea21ch1bk9uAa8N1P4SWPhD9nTWpPEekaa/ia2jd/tkQ3uoMg24fA6A4oA9B8d+MNM8c/s9+KNa0QXAs3tpIx56BGyrAHgE1wfwjvbrTP2TfEF7p9xLbXcBu3imiYq6MNuCCOhqv4C/5M38Q/S5/9DFafwP0W78R/su6xo+miM3l7JdQxeY21dx24ye1AHzp/wALU8d/9Dfrn/gY/wDjX0R8Odd1XxB+y543vdc1C61C6WO+jEtzIZGCiBSBk9uT+deZf8My+P8A+5pH/gX/APY17F4c8E6t4B/Zp8a6Rr4txePb3twPIk3rtaEAc4HPymgCb9jD/klF9/2Fpv8A0VDXtt9/rV/3R/OvEv2MP+SUX3/YXm/9FQ17bff61f8AdH86AK1NNOppoA5H4g6hHHpctkY5TJIFcOF+QfN0z68VyGpXiS3WmMTcwLBaRxMyLhsgNyORxz6113xCd5bawsYlJe5nAz244/qKp311cXetKiC4tNM0sZlcBgSAP1zjj2ya+bzCDq15K/8AKtvV91stWz6XASjTw8Hb+Z7+i7Pd6JHP/brX/oKaz+Q/+LrV8C61DpmnzxzQ3EhaXdmKPcOgqfRpo9U8ZarLaSuIprYqJFG1l+4M8960PCNzfWt5c6Pfq8jW/wA0cp5GCemffOR/9as8JTkq0ailpeSTtdafPqXi6sfYzpyjeyi2rpP8I9DktXMcmqG6cXTGa43FZIyvyccD1Pbj2qeaWzsLzTm0xb6MiUtM0ilS43LhQO46/nXSePv9fo//AF3/AKioJ3Ou+NYIolJtdPJLNj+If/XwPwNKrheSpOMWuZyjbTXXVvf7y6eK56MJtPl5ZX1000XTXyM7WdVt7/xLbNPDcvZCPa9uyEFj83IH4jn2rZ0XVtM0m0Nvb2uo7SxcloSSSf8A62BUeqf8lE0z/rj/APF12Nehg6M5VKk+ZXUmr28l5nnYuvTjSpw5XyuN7X835HLv4o0j7crtaXH2xRhWMI349B3xVn/hK7b/AJ87/wD78GrE2gWkutrqjGT7QMHbn5SQMA1r12UqeKbkpSS10st19+5yVamFtHli3prd7fgYH/CV23/Ppf8A/fg1j+JvFEU+ntbJZTMkwKt5ylMdMEe+a7eqWp6XZ6osa30PmqhJUbmXGfoRSxFHEzpuMZq78v8Ahx4avhqdVSnB2Xn/AMN+Z5Fa3ZhntnnTz4rckrEzYHXP867ybxjMdNS4g09yQAZtwKoozgYPfkiq2jeEV/te9/tGxH2DLfZ/3vbdx0bPT1rq59KtpNIfTUUx2zJsABJ2+nX0ryMvweLp05tS5b+Wt1tuttPuPVzDHYOpUheN7eelnvs9/wBTitSuNW8T6dCY9LzAr7leOYDJGQRzWRZtqPhrVY3ktgskg/1cmCSCccEdK2rOz8S+H2kgsoFuLdmyCAGB9+uRUum6FqmqazHqGukosZBCHGTjoAB0H+fesJUKlaUZe/7Xq2kl63sdKr06MJRvD2XRJu77K1/vNP8AtbxF/wBANf8Av8K5zxXq+pXxh027sxbSMyt5auGLZ4HT3r0uuJ0nR9QuvFcmp6pbmKNSWQMQeeijj0H8q9LHYas1GlGcnzOz0VkuuyPMwOJopyqyhGPKrre7fS12SaZc69pthBaw6ICsagZ84c+p/PNcnqsN5feJJFntNt5I4Jg3DpgHG76CvXRXL+LdBuLy5i1HTG23kQAK5xux0IPTP1qMwy+bopRk5KNtNNvKyWpeAzGCrNyiouSeuu/nq9DndU0y6NhIf7AS0WNdxmWYErjqTzzV/wABalqTQpapbebZpIQ0pbmMdce//wBemXbeK9VgNnPbLFE3DtwuR7nPT6V1fh3SU0bTVtlbfITukfHVjWWEw8p4pVafNGKWraSv5WSRti8SoYZ06vLKTelm3bzvc1aKQUua+iPmwoozRQAtFFFAC0ZpKM0ALmlptLmgBRS02lzQAuaM0lFADs0ZpKKAFpabRQA6jNNozQA7NGaTmjmgBc0ZpOaOaAFzRmkooELmjNJRQFxc0ZpKQmmMdmk3e1NzRmgB9Jn6UlFIBc0ZpuaM0AOzRmm5ozQA7NGabmjNADs0ZpuTRk0AOzS5pmaXNADs0ZpM0ZoApZozUWaM0ATZozUeaM0Ablj/AMeyfj/OvM/2jfBGsePvAlrpXh9IHu47+O4YTSbBsCSKefXLCvS9P/49E/H+dcV8aNP8Y6l4Ugh+Ht2bXVxdozuJVjzDsfcMtx1KUgPCdN+HXx50zT7axsNfWC0to1ihiS/AVEAwAOOgFWP+EI/aD/6GVv8AwYL/APE10mqeM/EPibw1aeCPB+q3C/EjTNn9qSEiNSYlKTYkI2t85Xp1rB+AXi3xxc/Ge/8ADPjHW7i8+xW86ywMysgkRlGQQOcZNMDF8R/Cr43eJNNNhrurRX1mXD+TNfgruHQ4x713/wAQv+Eg+G/7NGlW9tePYa1YGCCSW2fOMucgH05qn468N/HC68YavP4Z1cw6M9wzWifa412x9hgjIp/gbwF8SdW19LX4tTx6t4XMbNJay3KSKZR9w4XB4NAHFax8fBN8FrLTbDWdSTxsojE115ZGcPlvn/3eKwLz4k+HF+HEN/YPcxfFMhfO1cQkSsTJhv3mccx8dOnFdv8AE7wt4B1y51DwN8PtEt7fxxFKpHyNGiquGceYxx92uk0z4ceBfAPwpsdS+JXh6ze+tVCXkyK0zF2kIX7p54K0ATw6Z4g+Jv7LFpax3H23XdQVXMt1Jt37LvJy3+6n6VtaN4O8YaH+zvb+GdGnjs/FkC4jkjnwqZujIcPjvGSPxql8QfEtlpH7N8utfDSWTTLBPK+xNEhQopuQr8NnGSW/Ous+AOsajr/wj0DU9au5Ly/nWbzZpPvNieRRn8AB+FAHhWt6Tp2t6RP4E1u0ivPjPOFEmoSjcHIImXM3Ti2AXp2xW5cfDwfDX4BXes3Fja2njnTQXXUrdt0kZe4Cja//AFzbb+Jry/8AaG1i/wDD/wC0TruqaPdSWd/B9n8qeM4Zc2kanH4Ej8a4zXPih4y17SrjTNY8QXt5Y3AAlhkK7WAIIzgeoBoA+ldC8YeIJ/2UL/xFLq10+toJNt6W/eDFyFHP04rz4/Gex1P4Car4c8R6jf3vii6R0EkkRZWBkDLl/oK8u8Har4x8RWtt4B0PU5TYXzMqWLuqxMeZDkkccgmvdfhn4W8BaFc6d4G+IWh21x44mkYnCNIjK2WT94px92gDU+DWh3niX9lbUtG0wIb28a5iiDttXdvHU9q5Lw98Kvjb4b04WGg6tFYWQcuIYb8Bdx6nGK958f2dt4A+DviH/hD4l0gWtu80P2fjy3JGWGc8153+z78arLUdK0/QfFeq3l54nvLxo42eHIKtjYCwGPWgDnf+EI/aD/6GVv8AwYL/AIVX1H4d/HrUrC4sr/XhPaXEbRSxPfqVdGGCDx0Ira+NHxM1fwd8etGtX1i7tvDSR2015bxDcGUu2/jGTkCuE+M3x21XUPF0c3w+8Q6ha6MLVFaMRhP3u5txwRnptoA+gf2cfBOseAvAl1pPiFIEu5NQkuVEMgddjRxqOfXKmvR77/Wr/uj+deVfsteJdZ8VfDq8v/EWoTX92upSQrLLjIQRxEDgerH869T1E/vV/wB0fzoArGmnrRSUAIyq2Nyg4ORkdD60SIsiMkihkYEMrDII9DS0UAQW1nb2oItYIoQeojQL/KpwMUUUKKSskO7lrLcZLDFKVMsSOVOVLKDg+1KkaIzsiKrvjcwGCfrTqKOVb9Qu7WuRtBE0qytGhlX7rlRkfQ1JRRQlZ6Cu9mwooooAKKKKAClpKKAH0UZozQAUUUUAFGKKKADFJS1FPKsMTSPwqgkmjpcN3YS4njt4y8zqiAZJY1XF3KwDJY3bIeQdmM/gauaLpoeKC9vj5t2yh1B+7CSOij+p5rbrJOUtVoavkg7bnP286zqxAZWU7WRxgqeuD+Yqes/SmMkc0x582Z3z7Fjj9MVoZq4NuKbIqR5ZNBQaM1SufMu7pLC2YqX+aWQD7if4noPxPaicuVXCMeZ2AXVxKN1lp9xcxZIEqPGqnHHG5gf0p0VzN9oWG6s5rV3Usm9kbdjGfuscdR1rbP2fT7LPyw20KdhwqisK0824ne9uVKyy42If+Wadl+vc+59hWa51Ja/lb8jW8XFu2n4/mXahubqG2TdM4QHgZPU+g96ZeztGqpCoe4kO2JD0Zvf2HJrQ0zS47P8AezN594R88xH6KOw9qqU23aJnGKtzS2/MzFvJnG6CwvJF9dgT9GINH9oCORUuoZbZmOB5owCfTcOM+2a1JtX06CcwTX1skoOCrSAEGrkscc8LRyqrxuMFWGQQalSb2lct2W8TNByKWs+zRrS6uLBmLLBgxknJ2N0yfbkfhV7NaQlzRuZzjyuw6im0VRI/NGaZRQA/NGaZRQA/NGaZS4oAdRSUUALRSUlAC0UlFAC0UlFAC0UlFABmjNJRQAUUUUAFFFFACUUUUwH0U2ikA6gUgpaAFopKKAM2iiigY6iiigDc07/jzT8f5mvKP2o/FGs+Evh1aX/h2/ksLx9SihaWMKSUMchI5B7qPyr1fTv+PNPx/ma8O/bO/wCSU2H/AGF4f/RU1IRweiarZ+KNEsG+FTGP4rTQpPqt4VMbSrj9+S0nyHMhQ8D6cV03hXx18NvA+p+f4o3wfECJDBq92lvLIXnOPN5X5Tlh1AxSaZ8Pb6x+EHhjXvhRYR2fjO7tLZrm7WYAyRPHukz5hKctsPAzxXA6R8Pbzw34qu/FXx40+N9Dut4mn84Sl7lyCp2wnd2btimASfEX4iePPibqum/DjxDcNZSSSTWcTiOICFf99cj8a+r/AADFrUHg3SYvFT+ZriwgXb7lbL5OeV4/KvJtX8A2Efgm08SfAnTYrPW7vY0F2JCrG3b7wxMSBnjqM15x4D+L/inwt8TZ9N+KfiCcWFmskVzEIEkAlx8uDEuTz3HFAHtek3/w4f4y3lpp9pt8dL5nnTeVIP4AW+Y/L93Fed/GvwR8W/GHiHWrHTJFn8JzyI0Fs9zEi4UKeh+b7wJ5rE+KPxJ+Hi2994k+HN21v48lkUi9FtMGKnCvxINnK8dKq+GZ/wBoPxNoVprGjao89hdKWikMlom4AkdCARyDQBH478T6X4b+AMnwx1WZ4/F9iY1ntljLICbgTcSD5T8hB61q/DT4gfbPgnpngTwRqEsPxAIcWyeXtUYuGmf94w2f6oN1+nWt/wAIaN4D8Q69b+HviRYpf/E+QP8A2jv80b2VS6nfGRHxEE6enrXf3Pgv4bfC+FvGH9kR6Z/Z3H2qNppWj8z9193JznzMdO9AHyz8Tvhh8Rre21Lxf41iimCCM3NybmJmPKxp8qn3UcCvUvhH4P8Ah3H8BrLxd410SCfy2l+03JEjMR9oaNeFPP8ACOlXPjj8aPA3ir4Wa7ouiarJPqNysQijNrKgbbMjHllAHCmvAPCOueNPEmm2/wAPdCvnl0+8LLHp58tEcgmU5dhkcqT1oA+i9f0fwHZ/CLUfH/w00yOwv7Vd1lfosiyRuJRGxCuSOhYcjvXz/wCCPHkrfGDRPFfjLUJbj7PMDcXBTc2wIVHCjnHHavUdW17T/A/wC1L4beJJTa+LlUt9jVGkXDzCVf3igp905614xZfDnxLfeB7jxfbWUbaFAG3zmdARtbaflzu6+1AH0p8Wfjl4F8RfDjX9I0rUbmW+u7YxQo1pIoLEjuRgV8r+BoNZn8X6TF4Zcx609wotH3BcSdjk8D8a1Pg9pNlrvxN8O6ZqsAuLG5uhHLESQHGDxkc19MeN9A+HHhXWG0Lwfpsdj8RmjV9I2eadszZ2HcxMY6H73FAHjF5ofiS8+O/hnSvikVvr25mto5laRXDwFyAuU49feus/aD+CN5Yatdaz4N0e1tPDVlp4muNs4BDKXLkKx3H5dtc9aQeMLf8AaJ8Ix/EOTzNbF1andujb91vO3mPj1r6s8ZeNPCEWvReB/EU7Pe6xGsItTDIVlSUlAC6jAzgjqKAPP/2Mf+SUX3/YWm/9FQ17RqX+uX/dH8zVfwl4W0Xwjpj6f4csUsbN5TM0SMzAuQAT8xJ6KPyqfUf+Phf90fzNAFbNGabmjNAHM+MPEU+jzW8VosLO6ln8wE4HQYwR71zv/Cc6r/zys/8Avhv/AIqqXjW5+0+IrjacrEFiH4Dn9c1h18Xjs0rrETVOdknb7j7XA5VQeHg6sLtq/wB+p1P/AAnOq/8APKz/AO+G/wDiqP8AhOdV/wCeVn/3w3/xVcnmjmuT+1MX/Ozr/snCfyI6z/hOdV/55Wf/AHw3/wAVR/wnOq/88rP/AL4b/wCKrk+aOaP7Uxf87F/ZWD/kR1n/AAnOq/8APKz/AO+G/wDiqP8AhOdV/wCeVn/3w3/xVcnzS80f2pi/52P+ycJ/Ijq/+E51X/nlZ/8AfDf/ABVH/Cc6r/zys/8Avhv/AIquZlt54VVpopEVuVLKQD9Kh5pvM8WnZzYo5Xg5K6gjrP8AhOdV/wCeVn/3w3/xVH/Cc6r/AM8rP/vhv/iq5PmnAMQWAJUdSO1CzPFv7bB5VhF9hHVf8Jzqv/PKz/74b/4qj/hOdV/55Wf/AHw3/wAVXKqGZtqgsfQdaRgysVYEEdiMUf2ni/52CyvCfyI6v/hOdV/55Wf/AHw3/wAVR/wnOq/88rP/AL4b/wCKrlKKX9p4v+dh/ZWE/kR1X/Cd6p/zys/+/bf/ABVH/Cd6p/zys/8Av23/AMVXK1Nb2dzchjbW80wXg+XGWwfwprMsY3ZTZMsswUVeUEdJ/wAJ3qn/ADys/wDv23/xVH/Cd6p/zys/+/bf/FVypBUkMCCOCD2qeOyupIfOjtp2i5O9YyV496pZjjJOymweW4KOsoJHR/8ACd6p/wA8rP8A79t/8VTJ/GmoXMLw3EVv5Mg2vsVg209cHd1xXL0Vm8zxT0c2Wsrwi1UEekweMLrXvElhYafGbayaTc2T87hRuOcdBx0Fd3rF19i0q8uR1iiZ/wAhXl3wptvN8RyTkZWGE8+7cfyzXafEm6+zeE7pQdrTMsYP/AgT+gNfS4HE1JYSeIqu71f3I+ax+GpxxcMPSVlon8zz+08aaja2kUMMNpsjUKMo2cAY/vVJ/wAJ5qv/ADxs/wDvhv8A4quV6ACkr5tZlikrKbPpHleFergjr7fxrrNzPHDBbWjyyMFVQjZJP/Aq9R0Wxaytv37B7uU75nHQt6D0A6CuL+F/h4xxjWLtMO4It1PZe7fj29vrXfXkUs1rLHDMYZHXAkC5K++K+pyuFd0va1223su3/Dny2ZyoKr7LDxSS3f8AXRHnfj3xa0epJZWKxyx27ZkLZKs/YcEdD+v0rFHjzVO0Np/3w3/xVbOofDSUQs9nqPnT9dsyYDH65OK8/uYJbWeSC4jaOaM7WVuoNeHj8Rj6FRzm+VPbqj3MFh8BXpqEPea33XzPWfAF7ca39o1K9WMNEfJiCAgcjLHkn2qT4la7No+m28VrxNdMRuyRhVwT0+oHWmfCqRG8M7E+8kzBvr1/lio/iZ4fvNYgtJ7BfNkt9wMeQCQccjP0r2XKq8v5qd3Jpeuu54sY0f7Q5KmkE7eWm34nDxeML2K3EKWtisYGNojbH/oVeqeDXkk8Mae8oAZo84HQDJwB7YxXmfh/wNqd/dJ9vha0tAcuzkbj7Af1r1x3ttM08sQIrW3j7dFUCssoWKd6mIbtayubZu8MkqWHs3e7tqefeOPENzpHimQWKwuWt41fzFJwQXPYj+9WL/wnerf88bL/AL4b/wCKrndUv31PU7m8lGGmcsB6DoB+WKteHbU3uuWcGMgyBmz6Dk/oK8ieY4ipXcaMmk3p82evDLcNSw6lWjdpa/I9ggaQwxmbaJSoL7emcc4qSkApa+0SsrHxbd3cWiiimIKKKKAClzSUUALRSUuaACijNGaACiiigAooooAKKKKACiiigAooooAKDRQaAEooopgFFFFABRRRQAtFFFIDPooopgFFFFAG9pv/AB5x/j/OvDv2zv8AklNh/wBheH/0VNXuOl/8ecf4/wA68O/bP/5JTY/9heH/ANFTVIFH9miL4mKdMfxJJnwUdLH2Bd1uf7nlcJ+8+7n73415h8TtR+IHxJ+JPiPwLpdydRsrS+llhsT5EQRI2wDvIUnG7ue9e0n/AITUfs8eC/8AhW2f7c+yWe7Hk/6ryju/13y9dvv+tfN3hP8A4WX/AMLb1f8A4R/P/Cc5m+2/8e394eZ9/wDd9cdPwpgfTt1onj3RfgPoOkeEE+z+K7OKCKWMSQnaozvG58oe3Svn/wCF3hiXxV8fb3SPiZaC+vik73sTSBcyqo5zEQPyOK+jvEv/AAsv/hTml/2Kf+K6xD9r/wCPb33/AHv3fp0/CvmTXdG+LfgHWbv4gatbnT7+Vyk1/vtJdzScY8tSw5x2WgDc8N+BPDV5+1Bqfha40tH0GFpglp5sgA2xBh827d15619LeF/FXgnRdei+HegXHkajYhkSwEUxCAKZD+8YEHg5+9Xzf8I18QaP41tfix8Qf3Ph+8jkMuqny23u6mNf3UWWGSAOErR+HWt6f4j/AGvLjVtGuPtOn3XnNDLsZNwFtjowBHIPUUAeofHzQ9N8JeHtZ+Ifh22Wz8YxPDt1EMzsNzJE3yMSnKEr93v6814F4o1j4veJfhTca3r96114MuQhkkP2Zd2Jwq/KoD/6wDt29K6X436/478XfFHXfh1otyb3T5ZIzDp/lwR5CRJMf3jAHggnlvb2rm/C3iPUfDWu2/w4+LN0bbwXbBhf6d5avtJUzxfvIAZD+9ZG+Vu+DxkUAL8Bfg9qvifW9C1zWtFS78GXBm82RrpV3bVkQfKrB+JFHbt6V1njP4M+NdA+KU2sfCrRUs9OtwhspFvITsYxBX4lcnqX6jvxXs42f8KMYfAvpg/2WAe/2j97/wAfP/bX734dq8V8R69+0T4a0S51bWrg2unWoBll8vT32gsFHCgk8kdBQByWlaFrevftC6Xo/wAVoRd6hcuq3kZkQb08klPmhIHQL0P1r6Yaf4a6NMPhSUEJvOP7LCXDB9/z/wCt7Zxn7wr5m8OaH8XvGmtWvxE0W1N7qDMVi1APaR8oDH/q2IHABHK1f8Kf8Jb/AMNN+Hf+Fgg/8JB5yebnyvu+Udv+q+XpjpQB6D8UrX4VfDUX0fh63XTPHdnCJ9PK/aZTHIfutli0Z4z97ipfh3ot58QvhhdeOJYRqHxHheWPTtQZhGytHjyxtyIuMn7w781y37Vfw+8T6h401PxVaaWX0G3s4vMuvPiG3aMH5S27qfSur+DWrXug/sr69qmlzeRfWj3UsMu1W2MNuDhgQfxFAFx/COsW3w01nxr8QrMf8LF0qKWayv8AzUJiWNd0R2xnyzgluoPv2qx+z7pln8SNEg8beNYRqniex1Aw298xMZRIgjoNqFUOGZjyO/Ncz4S+K48bfCHWPDPiDWvt3jjVfPs7K2+y+WZS6gRruVBGMknkke9bPwZ8TaR8GfCMnhn4k3f9i63JdPerbeU9xmF1VVbdCHXko3Gc8dOlAH0dWbqn/Hwv+6P5mqfg3xdofjTSn1Lw1ffbbJJjA0nlPHhwASMOoPRhzjHNWtU/16/7o/maQFao55Fhhkkc4RFLMfYc06sTxpcC28PXLZ+aQeUv1J/wzUVqipU5VH0VzShT9rVjDu7Hl08hmnklY5aRy5P15qOkoNfmzbk22fpStFWQmK9fsILjT/C2lmx0mO/neMF1LBMZGScn3NeRxpvlRCwUMQNx6D3r1/WLy1uxANO8VWmnpGu0hSj7umOrDHSvbyayVSfXRdL/ACvoeHnUm3Ti9tW73t87akP2zWv+hSh/7/x03xFM6eC764v9Lisrlh5axqQxGWA6j8TTb3TdRsWUXvjRYGYZAlhVcj8WrL8c6nbv4ZsrGHVIdRnEmZZUYEsADyQCcckflXqVqjp0puo3ez35Ov8Ah1PKpwhUq01TS3W3P/7doedmvQdJ0TQbbwzp+oa1DI8tyxUbC5LEk4AAPoK8/Feo+LNN1SPSdBtdIhlZ7QBiy8FSqgD+Zrxcrpq1Sq481ktLX3fY9zNKrvTpRly3b1vbZd/mTeJtR8OTSQW+tRXKNCNyR7XXAP0rA8c6To2naPYT6bbvHLdNuUu7E7MZPBPuK3GtbjxEsS+JdLng+zqNrw8mRv4unQcDisbx5batq14JYdNnjsLWPCF9o46luvsPyr08apTpTqezTvZL3Xfzv2seVgpKFWnDnate/vLl8rd7vc4QAswABJPAA716H5A8JeDGSRAdV1L5dmM49vfAP5msPwE2mw6lJc6iQZYtot48/ecnHA9Rx9M13Hi3xHY6RrEa3Fkbm8ih3W7Z+6WJBHt90c1y5dhoU6EsROaTeifbu/XsdmZYipUrxw8YNpavztql6dzn9HsYPB2m/wBr6sobUZBttrfPI9focdfQe5pnxC0oXsMHiDTh5ltPGplwORwAG/p+FJ8T4Q1/pp+Y3kyYkG447AADtzmtbUdTtPB11DpkcDT2TxFpELZIJOOM8YODkV0Sp01GphZ6U42163fX59exzwqVOanioO9SV9Oll0/y7nltFb2gXWkr4ia41W3RbFt7LEFLIhPQY7iqfiO6sbrWZ5dLgENocBVC7QcDk47V4MqKjT9pzJ62t19T3415Or7Nwa0vfp6GbXd/Ca+8vVrqyJwJ4xIPqv8A9Yn8q4Wuz+HmmQi6h1abU4rZoZCohYDLrjB5yMdT27VvlfP9ahKC239OpzZqoPCzU+u3ruvyKureHpbrx7c6bbghZJPOLf3UI3E/qfxre+IOrQ6TpkXh7TcL8gWXH8Kdh9T/AJ613NylnaXUl5I8UFxKgi82Q4BAyQOvua8U8V2wtddnBv1v3cCRplXAJPbGT/OvXx1L6jSnKnvN6vsn0PHwNX6/VhGptBKy7vuZVFFFfMn1B6f8ILYLY6hckcySKmf90H/4qovjBcgW2m2ueWkaQj6AAfzNdD8PLUW3hOyOOZQZD75Jx+mK4L4qXJm8TrFn5YIVGPc8/wCFfWYl/V8sUe6X46nyeG/2jNJS6Jv8NEcjWv4S0k61rsFr/wAshl5T/sj/AB6fjWPnAzXp/wAIbVBY315j53kEQPoAM/8As1eDluHWIxEYS23fyPdzPEPDYaU09dl8zup5bfTrJpJXWC3iXknoorz+6+JypckW2nGS3HRmkwW98Y4q18Xrh00mzgViqSylmweu0f8A168qB9K9rNszq0KvsaLtbc8XKcrpV6XtqyvfY+hNC1SDWdMhvrbISQfdPVSDgg15x8WrVItWtLlRhp4yG99uOf1rsfh5aSWfhSzWYbXk3SFfQEnH6YrivixdibXYbYH/AI94sn2Lc/yArozKpz5epVN3b7/6uc+WQUMxcafwq/3f1YzPBPiRvD13IJlaSznx5ir1UjoR+depW3ivQ7gJ5WoxFnICqQQxJ7YxnNeEmvRfhf4cDN/bN4nA4tlP5Fv6D8a87KMbiOZYeCTXn0R6WcYLDqLxE20/Lqz033rzD4peIfMP9jWrnAwbhgevcL/U11/jPXV0LSjIpBupflgQ+vcn2H+FeGyO0kjPIxZ2OST3Ndud4/2cfYQer39P+D+Rw5HgPay+sTWi29f+B+YKOK7D4bWvm6rcXPaGPA+rf/WBrj69N+HVr5OiNORhp5CfwHH8814+T0va4uPZa/18z2c5reywku70/r5HWCigdKDX3J8KFFFFABRRRQAUUUUAFFFFABRRRQAtFJRQAtFFFABRRRQAUUUUAFFFFABRRRQAUUUUAJijFLRTATFGKWigBKKKKAM+iiigAooooA3tL/48o/x/nWT428H6J420lNM8S2Zu7KOZbhYxK8eHAIByhB6MePetbS/+PKP8f515j+0t4x1vwP4BtdU8N3S2t5JqEduztEsnyGOQkYYEdVFSBj+NPFrwaJH4K+Cd6snijR5Vt3shGGMNvECjjfONhw2wZyT+tdR8Mvh9YaW9p4q1fTWh8b3ttnU5zOx3SvgyfIrGMZI/hGPSvnvVvHHhrw/4WsvF3gvVI1+JuobP7Wco7g+Ypaf5HHlj94F+6OO3FeqeP/iH4k0f9nnw54q0+9SPWrwWpmmMCMG3oxb5SNo5A6CmB6F8YH8YJ4Nc/Dxd2u+emBiI/u+d3+s+X096+e/AeueK/iH8Rpvh/wDFiX7ZYRLJJcWIjihKyxjK/PCAeM9mxXaR/FnV/FHwz0m08CarFf8AxGeOOS6tkt1BCjPmHDqI+OOlReDNd+HPhjW49e8bajHY/Ecoy6ru847ZmGGG1AYxxj7vFAHpPjbQPAmg/DFdG8TxfZfCFqyIIzJM2078qNyEufmPrXjfwg+H0tp8cIPFXhPTGHgB0l+w3fnbgymEr0dvM+/uHI/SuP8AiZ478VfFTxbq3hHwldLrGgzTCW0t4oI4yyRgNncwDcEHqa9k+GPxC8LfD7wFo/hfxhq8Wma9psbR3dpJG7mJi7MASqlTwwPBPWgDgPiL4F+J1v8AHDVvF3gfSXOXX7LdiS3IIMCxt8sjf7w5FeN+KdD8beKfild6VrVo1z4yuSvmwAxIWKwhhypCD92oPB7ete2fFH4k/E20uNS8TeELlG8Abo/sl99mgZSCFQ8ON/8ArNw5H6VneHdb0zxFoVv4m0C7S7+Odxu8tVUjdhjG3yMBD/x6g/ln71AHT+EvEOo+EvhJbfD3R7gW3xUtt/k6ZsWQgtO0x+dgYf8AUMW5b268V1XhbxFYeJfD8Hw9+LN0JfGV7uW803YYywDGWP54QEH7sIeG+vOayfhjD4bm8baXe+O5NnxjbzPtEOXU/wCrYJ8qfuv+PfaePx5qn8dNT8DeGde1jxBpt6sHxQtUha3z5r7SVRfuEGI/uiev160Ae5+EfDOleEdCh0fQLY22nwszJEZGkwWJJ5Yk9Se9edfG/wAL6PpOk6x8RLG1MXi7ToFktr7zGYIy4UHyySh+Ukcqa8x+GXxK+J19Pp3iXxVdIPASO/22++zQKqqMr0Ub/v4HAqt49+MVl4j+Jy6BPrkNx8NbxY47zbAVyNmWG/aJB84HSgAPxmsfEX7P+uaZ4t19JvFl1HLEkP2UoXG4bOUQIOK828Ny/EwfCDU00WPPgYiX7U2239t/LfvPTp+FGvWnw3T4y6dBpc2fAreV9offNx8p38n5+uOlew6Ppd9qer2nh/4bwNd/B6+kEd+ykclv9cN8hEo/h6fhQBh/An4fWOqfCO98V6RprTeOLK4mOmTidhtlRVMfyFvLOCf4hj1rC1fwL8Rdf8X2HiP4s6U76LaGMajc+ZAgjtEYs/ywsG4BY/KM1vfEHXPEnwt8fWngP4UsLSwu44p4bNo0nZ55CQfnlyedo4zivY/BMmvXvwn1z/hdCeTu+0LdZCpi08sZP7n/AIH05oA2fg3F4Ki8Kzr8N2D6N9rfzCGmP77am7/W/N93Z7frXS6t/wAfC/7o/ma5n4NW/gu28Kzx/DmXzdG+1uXbfI377am7mTnps9q6bV/9ev8Auj+ZoAp1xXxIu/3dpag9SZW/DgfzNdnXl/je5+0a/MoPyxKIx+A5/UmvIzur7PCuK+00j2Mko+1xSk9o6mEOlLSZFGRXxB9udD4bv9Bs7eVda0+a6lZsoydFGOn3hXRaZqPhC+1C3trfQ7kTSuFUt0B9T8/SvPc1f0DUl0nV7e9aHz/JJOzdtzlSOuD65r0sJjnTcYSUeXS/u3djzMTgPaqU4yldp2V9L9D0bxhrXhyHVvs+r6fPdXESAbkAwAecfeHrXNahrPhSWwuEs9HuI7lkIjcgYVscH71c7ruotq+rXN86eWZmB27s4wAAM/hVGtMVmcqlSXKota621McNlahTipSknppfQ6Lw1pWlX8Usmp6otk8bgIpIBPvzXZedaf8AQ6P/AN9JXlWaMiooZgqEVGMPndq/3GuIy51580p6drJ2+89V860P/M6P+af4VA+oXcfw2u7rUbiSWW7JSLfjO1jtA49gTXL+G/FI0aya3bT4bnLlwzNgjIHHQ1X8S+JrzX2jW4VIoIjlIk7HHUnvXfPM6Spuak+Zpq2u782+hwQyyq6qhKK5U076bLpZLqN8EW32vxRp0R6CTzD/AMBBb+grpNQs2174lSoMmC2KeYccAKo4/E5/yK5XwvrA0LVhem3+0EIyhN+3Ge+cGtGLxfdQWWoQ28EcU13K0nng/MoJ6dOSOgPauXC1sPGgoVX9q7Vt7LRdtWdeKo4iVeU6Ufs8qd9rvV/JGnqdwNc+JFtGh3QxSrGvuE+Zv1zWZ8Rrr7R4sugOkSpGP++QT+pNZfh3Vv7G1aO+8kTsgYBS23qMdcH1NVNRu2vr+4upOGmkL7fTJ6VlXxaq0JX+KUrv0toaUcG6VeLt7sYWXrfU3PCfhWbxBBcTLcLBHCdoJXdubGfUYFc7Iu2QrkHBIyO9PgupoFdYJpY1kGHCMQGHvjrUWRXHUlTlCKjG0lu+/Y7KcaqnJzleLtZdha7bwqvha5jsbS7sZ59RkIVmywG7J9GxgD27VxGRV7Q9RbStWt75I1laEkhGOAcqR/WtcFXjRqpySae91cnGUJVqTUG0+lnbp18j1HxxqPh9J4LXXreW4dVMsYTdwDx2I9K8n1N7V9QnawQx2pY+WpJJC/jzVzxJq8uuao15LGsRKBAqnIAFZXStsyxv1mo1FK3e2r+Zz5ZgXhaa5m79r6IeOlKAWIABJPAApuRU1pMLe6hn2h/LdX2nvg5xXBGzep6Er2dj6B0q2FnpttbL0ijCD8BivC/FN0b3xDqEx6ecyj6LwP5V2H/Czpf+gWn/AH+P/wATXnbMWYsxyxOSa9zN8fRxFONOi729TwcowNbD1Z1Kytf0FPNemfCK+T7JeWJOJRIJQPUEYP8AIfnXmdT2V5cWF1Hc2khjmQ5VhXmYDE/Vayqvbqenj8L9aoulez6Hu3iDRLTXbMW16GAU7kdThlPtWBpnw80q0uVmneW62nKpJgL+OOtY+n/EwrGFv9P3OOrxSYz/AMBI4/Okv/iZI0ZFhp+xv70r5/QD+tfTVMbl1RqrOzfo7nzNPBZlSTpQul6qx2/iHWLbQ9Oa5nPQYjjHBc+grwu/upb68muZ23SSsWJp+qajeardNcX8zSuegJwB7AdqqD2rwczzF4ySUVaKPeyzLVg43lrJm74O0J9e1VYipFpF807+g9Pqf8a9qlkt9OsWdysNtAmTxwqivJ/DfjNdA01bWDTEdslnk80guc9enpgfhUHirxnc69aR2wgFtCDucK+7f6Z4HA/z0rvwOMwuCw75Xeb8n93yODHYPFY7EpSVoLzW3f5mX4l1mbXdXku5MrH92OP+6o/rWZSAYFLXgVakqs3OerZ9BSpxpRUIaJCV7Vo1r9i0m0tiPmjjAP17/rXkugWn23WrODqGlBYew5P6CvaK+k4dpaTqvyX6/wCR81xFW1hSXqKKKBRX0x8yFFFFABRRRQAUUUUAFFFFABRRRQAUUUUAFFFFACiikpQaAFzRmkzRmgAooooAKKKKACiiigAoozRmgAoozRmgApMUtFAGZmjNR5ozQBJmjNMzS5NAHRaX/wAeUf4/zrG8eeDNF8daNHpfiOCSezjnW4VUlaM7wGAOVPoxrY0n/kHxfj/M1xnxo1DxjpvhO3m+HtobvVzdokiCJZP3JR9xwfcLzSA+ffij8NPA1xbXGifCuCW+8ZWt1tubNLiRmjiXcJCd528NsHB715T4v8b+L/8AhHY/AfiCSOOy0mRYvsphQPG0eVALjk4ye9fZXwv+HlhpdzB4x1C0uIPGGp2u/Ut0h2iWTa0oCdB8w6DpXj1p8GrvxP8AHnxPc+LdFvV8NXM1xNDcrJ5Ydi4KYIOeQTTAt+FfAVz4d+EugeM/hpp00nje6t4xI+/zFZH/ANZ8jnaOgpPiF8HbvX/hwniH+w7mf4iXrxy3yJLt+YnD/JnYOAOlet+PbTX/AAb8MLSw+GFm897ZPFBDCyiYiEZznd17c14R4k+Jfx08NaW2o67p8djYqwQzSWUeAT0HBoAd+zj8M/GPhj4qWOpa9oNzZWCQTI0zshAJQgDgnvXL/tJ+CfEcPj3xL4lm0qddCeePbeErsOURR3z146V6jrHx68v4K2d/Ya7p7+OCI/OgEQOMyYb5cYHy4rjfhz4/134y+KrbwX45nhuNDvEeSaO3iWFy0al1wy8j5lFAHV/Drxd8N7/4D6P4T8a63BGNjfabbdIjAidnXlR/unrXY+E/Bfwn8I2Fp8RNEkMFhbBvK1B7iZ4xvJgPynryxXp1ry2z+AefjjJp8+hX48BjdtuPO4/1GR8+c/6ziuW+OHifUvCd3rfws0eSOPwjaGERQyIHlAbZcH94eT+8Yn6cUAe0/E+28NQeGNT+MngyXztfiEf2W/Ds0RO9bVv3bcH5Cy8jrzXjfibVfBfjD4X3viXxHqCS/E2dQCis6A7ZQi/IPk/1QH8+tRfA/wAUal4ru9F+FmsPHJ4RvDMssKIFlOA9wP3g5H7xQfpxXr0nwf8AgzH4qXw1JczrrrYAszeybzlN/pj7vNAEvwXg0G4/ZeSLxdL5WhM04un3MuF+0HHK89cdK8STwz4I1n4/6ToXhljd+E7p40OyWTLHyyWG4/N94V7x8RLTwxofwy1b4X+ErkPrkkY+y6UZGeZ2aRZSAT7ZPXpXkWhaP4c+HPgl9W1eU6b8U9OLzW1ncSEkZbCExj5TlCTQBR+PHwcvfDOvX174W0S6XwtbWySPcNKHCNj5uWO7riu1+Bfj200f4K3WhaNqMI8aSzTnTrIpuaSRsbBgjbzg9TXNnxj8ZviT4Nu4LbTF1DRL5Wt5JILSMbsHkA5yDXD2PgT4heBruLxP/wAI9eWn9lMLrz5kVkj29yM8igD2EFbpTqnjkeT8Z4edHtT8pcj/AFHyL+7OW3dfxrgfiP8AFP4rafBd+G/GbxWgv7UrLbvawhmifK8FRxnB969D+EWteEfiBrek+JPHmpw/8J/FerDZxRu0QZUIMfyD5TyWrJ/aD0u1139pbwtpWoKz2d7FZ28yqxUlGmcEAjpwaAPQP2Mv+SUX3/YWl/8ARUNex6v/AK9f90fzNUPAPgvR/AmiSaV4eilis3na4YSyGQ7yFU8n2UVf1f8A16/7o/maAKNef3fg/VLm5lmea03SOWPzt3Of7td/RXJisFSxaSq9DswuNq4Rt0t2eef8ITqX/PW0/wC+2/8AiaP+EJ1L/nraf99t/wDE16HRXH/YeE7P7zs/t3F919x55/whWpf89bT/AL7b/wCJo/4QnUv+etp/323/AMTXodFL+w8J2f3h/buL7r7jz3/hCdS/562n/fbf/E0f8ITqX/PW0/77b/4mvQ6KP7DwnZ/eH9uYvuvuPO/+EK1L/nraf99t/wDE0f8ACFal/wA9bT/vtv8A4mvQ6KP7DwnZ/eH9uYvuvuPPf+EJ1L/nraf99t/8TR/whOpf89bT/vtv/ia9DzRmj+w8J2f3h/bmL7r7jzz/AIQnUv8Anraf99t/8TR/whOpf89bT/vtv/ia9DzRmj+w8J2f3h/bmL7r7jzv/hCNS/562n/fbf8AxNH/AAhGpf8APW0/77b/AOJr0Xiij+w8J2f3h/bmL7r7jzz/AIQfU/8Anraf99t/8TR/wg+p/wDPW0/77b/4mvRMijIo/sPCdn94f25i+6+486/4QfUv+etp/wB9t/8AE0v/AAg+pf8APW0/77b/AOJr0TIozR/YeE7P7w/t3F919x55/wAIPqf/AD1tP++2/wDiaT/hBtT/AOetp/323/xNei8+9Az70f2HhOz+8P7dxfdfcedf8INqf/PW0/77b/4mj/hBtT/562n/AH23/wATXpFFH9h4Ts/vD+3MX3X3HnH/AAg2qf8APW0/77b/AOJpP+EG1P8A56Wf/fbf/E16RRR/YeE7P7w/tzF919x5x/wguqf89bP/AL7b/wCJo/4QXVP+etn/AN9t/wDE16RRR/YeE7P7w/tzF919x5v/AMILqn/PWz/77b/4ml/4QbVP+etn/wB9t/8AE16TRR/YeE7P7w/t3F919x5r/wAILqn/AD1s/wDvtv8A4mj/AIQbVP8AnrZ/99t/8TXpVFH9h4Ts/vD+3cX3X3Hmv/CC6r/z1s/++2/+JpP+EF1T/ntZ/wDfTf8AxNenUUf2HhOz+8P7dxfdfceZf8ILqv8Az2s/++2/+Jo/4QXVf+e1n/323/xNem0Uf2HhOz+8P7dxfdfccZ4T8K3WlasLq8kgZVQhRGxJyfqB2zXZ0lLXoYbDU8NDkp7HnYnFVMVP2lV6hRRRXQYBRRRQAUUUUAFFFFABRRRQAUUUUAFFFFABRRRQAUUUUAFFFFAC5ozSUUALmikpRQAUUUUAFFFFABRRRQAUUUUAY+aM0zNLmgB2aM03NGaAOl0n/kHxfj/M15x+0b421jwF4DtdW8PvCl3Jfx27GaMONhjkJ49cqK9H0j/kHxfj/M14j+2f/wAkosv+wtD/AOipaAOF034h/HrU7C3vtP0IT2dxGssMqaepV0IyCOehFWf+E2/aD/6Ftv8AwXD/ABrrPEnjbVvAP7NXgrV9B+z/AGtreytz58e9drQknjI5+UV43/w018QPXSP/AAEP/wAVQB0niP4q/G7w3pxv9d0mOxswwQzTWAC7j0HWus+MWuXniX9lfTdZ1Ioby8e2ll8tdq53kcDtTfjfrd54j/Zc0bWdS8v7ZeyW00vlrtXcd3Qdq6Lw7pfhnWP2aPDNp42vfsOjGCJnm84RYcOdo3EHvQBzXwl+A/grxR8ONC1nVIb83l5B5kpjuSq53EcDHHSvTPA/wS8H+C/EUGt6HFerfQq6oZbguuGUqeMehrg/Ani/VPCniWLTmEFv8JbRGjstYmj+R1I+T99nBy5I6V33xd8fyaF8JbnxZ4RurS7+eIQTEeZG6tIEPcZ70AcrYfE3xBN+0vP4IeS2/sJNwCiEeZxbeYPm/wB6tT4m/Cb4e6hqOp+L/GM1za+aY/tE5ujHGuAsa8Y4zhR9TXlWjanp+raXB8QPDt1DffGG5yf7Mibcp5MT4g68QAt17Zq4PEHj7xSw0b4w6T/Y3gW5/wCQhem2NuI9vzxfvCTtzKsa9Oc470Abng/TvgZ4R8SWeuaP4mhW/tCxiMl8WX5lKnIxzwxryz4g+JrvUP2kJdc+HEkWrXzeV9iMK+asjC2Ctgd8AN+VcN478M6dP8TrzQfhv52s2DbPsfkv57S/uVd8EdcHf+Vdn8G/BniPwZ8SdE8QeK9GvdI0Syd3ub27jMcUQMbKCzHplmA+poA7LWNT0/TNJuPG/iq6jsfjDaDdHYSnaByETMPQ5iOevvXgXjjxZqfjXxDLrWuNC19KioxiTYuFGBxX1b8Yvhx4b+IXhvWfG/hZ7rWNamiRbY2U2+KRkKoQFA5wAc89RXyJr2ian4f1F7DW7KexvUAZoZkKsARkHFAH1z8BLrWLH9mq7ufDMH2jWY5bhrWLZv3vuGBjvWtq2peKdT/Zu8V3Pjqz+x6z9muFMXleX8gxtOMn3rxL4S+Lvivo/g6K08EaCb7RhNIyzfYmly5PzDcCKd4z+KfxU1f7R4L1zSoIrvU4hCbMWRSZ1fptGe9AF39nmy+Gdnplj4g8WazHY+JLK+MkMclyUAVdpQlccjOavfELxDpHib9p/wAE32gahBf2glsYjLA25QwnYkfXkfnWBoPwy8PQ+AdQt/E5vLL4it5n9n6U8wjlmyB5WIsZbcdw96774F/B/TNK8Px+LPHVrqGkatpN6bpftEnlRpFGFdXZSOmd2TntQB9Q1k6v/r1/3R/M07w94g0nxJYte6DqFtqFoshiMtu4dQ4AJXI74I/Omax/x8L/ALo/maAKJ60UVHcy+Rbyy7JJPLUtsjXLNgZwB3NAySivCfGOva14tfTor28uPAnh+4uFNpPe2zvNeOvIEuCqxIfRmG73FatrqnjBviDp+g2Hiu01tIXE2q+XpSwx2sAP3WkDt+8boFHI6nAFAHsNFeZfG/Vtd0nT7J9Ku1tNNmjniu3W3S4lkkYIIYo4y6sWYlx8vTGT0rz/AEjxBqlnpOoWV74j1670LRrC3jmmstPFhf29y8saQxYmJL5UsSemPcjIB9G0V4T4HuNYtvFlnbeJ7/x3A91qMsenrcz2zW7xIhdUn2ktvIViQoA5A963Pi14j8WeDNNv9aj8QaLFYbwlnZy2LPNIx6Ju3AE9TnHAB9KAPW6K+c/CXie/0TQLazT4oeE2YZkc3MDTSbmJYgvvGcE4HA4Ar0/SrrxA/gnW9S1LXtN1KKWxaWxuNOt2h24RyWzuOeduCMYwaAO9or5etU1qHRU1Gx8X+K7iaDwrNq2oLcam7xRzTRFYVQDBBB8xxnJGxTkd6mvS6rZeBZdVt9R+L0V4tqkouLu+UWYY4yxIfds5OO/SgD6soqGzJazgZiSTGpJPfipqACivGdL1nxn4g8R+IvEOgWlvJ4fw2nWkOoXkluCIiQ8qxqrAkvuGTggDFHwm1Tx/L8O9EkstN0S8t2hJS4vNRmWZxuPLARnn8TQB7NRXE/FW/ttN8DyX+q6zf6M1viUHTZ0jlnk2kCFS6nIJPp2B6A15TouuwWF54Rt9d+IerXmoahJtvVstVgeK1l4KRugRjtOdpO7r6Z4APo0nFFeC6t4s1fVVsTc3TJ9k+JMekx+T+7zbLnCNj73U5z1rrvi3quuXOoaJ4V8JLMuq3sn22ecStAkdtCwLAyKMjc21eM8HnqKAPTKdXiNrqnj3/hbl/H9g0ZrtdHic2rahL5CoZWAcHy/vkjB46Ac16j4cu9eks7iTxHY2NtOrfu47Gdpgy47llXnPGKAN2ivEda1vVLuHxDq2tXl3ompSaDfSaNosUjCSGFYyTczMnAkJ24BPy44yc485Guy/2D5//CZS/a/s27/kc7nfv25+55PXP8OfbNAH1rmnA15Hda9rVt8BvD2o6fqckGsXMOnxfbZVE7gyvGjMwfIY4Y5zXnvij4jeJ9B8PeIdOv8AxrAdYtdQuLSCVtL2S3SIkXCGMbIsb2JLZPIweKAPp+ivmXTviFokfi+6GjeOLuO3Q6alk95DcTpd7FkSZJQUzkhwc8Zbac8cexfGjxNqHhD4d6jrejiL7ZbvEF81N64aRVORx2agR3NLmo4d/lJ5ow+BuHv3p1ADqKaKWgBwNKDTRRQA+imUUAPooooAKKKKACiiigAooooAKKKKACiiigAooooAKKKKACiiigAooooAKKKKACiiigAooooAKKKKACiiigAooooAWikooAwaWm0Uxjs0u40ylzQB1Wj/APIOi/H+ZrxH9s//AJJRZf8AYWh/9FTV7bo//IOi/H+ZryP9rPRNV1/4aWdpoenXmo3S6nFIYrWFpXCiOUFsKCcZI59xUiOU+JGhar4h/Zb8EWeh6fdahdiOxkMNtGXYKIGBOB25H5186/8ACq/Hf/Qoa5/4Bv8A4V7F4b8ffGvw/wCH9O0ix8DTta2MCW8Rl0i4LFVAAyQw549K0v8Aha3x0/6ERv8AwTXP/wAVTAu/FuxutM/ZO8PWWoW8ttdwNapLDKpV0Ybsgg9DU2v6Nqevfsi+HbHRLG5v7xkt2ENvGXcgO2TgVw3xD8RfGHx74cbRdb8D3iWhlSbdbaTcI+5c45JIxz6V7JY3ni7wb+zr4ePh3RJrjxHbxRRNYy2skjqCx3ZjXDDAoAfpHhjR5v2ddE0T4jTS6LZRxoLgzyC3aNxISoJYcZ44rjtE0jU/EuqL8O4rGef4SgE2urW8ZLSBQZFIn5Q/vcj7vtXq0egzfFD4TWFl4+trnT7y8VZruC3UwPG6uSAA4YjoOtReJrXVPhp8Ilsvh7Yz6pe6eUitoJomuHdWl+YlU2k4DHpjpQB87eEbHQfhr+1QbF71bPRdP8xBcXswG3faZ+ZuByz4H4V9UeIdK0H4m+B5rBrz7XoeobT9osph83lyBvlbBH3kwfxrybSPgrpnxKsIvFvj2LV9N8TakC95awkQJGynYuEdGZcqinknrWJq+tfEr4ZajN4Q+H3hS51LwxppAs7qfTprh5A4Ej5kQhWw7uOAMYx2oA6HQ/Anwk+Gfji3vz4mFnrenEkW99qMY274yPmXaDyr5H1Favxm8X+HvGHwz1zQfCutWGsa1eRottY2U6yzTESKxCqDk4VSfoDXhmleB/FvxP8AjHBf/ELw1rGmWWpE/bJ4LOS3jj8u3KphnDBclEHPXNe/eCvgD4S8H+J7HXtKuNXe9s2Zo1nnRkJZSpyAgPRj3oA8G8MeMfi38MfBK2MPhZ7bRrItI097p0vyb3ydzZAxlq2Nd8OWXxH+DWrfFHxAZV8TLGyBbVglviNxGvyEE9OvNenfEO58XeKPiRL4DutDn/4QHUEjS41OC0kDqNgkOJuUHzqByD6da7XTvhfoWn/DW58DwTX50e4Dh3aVTN8zbjhtuOo9KAPkL4XfF7xt4a0y18L+ErOyu/MmZoYmtmlld25IGGGfyq7F4m125/aB8N6z8R7aPRbyGaAzCaI26pEM4YhjwOvNfRXhP9nrwh4X8R6frenXOsNd2UgliWadGQn3AQH9ao/H74P6Z4psdY8URLqtx4hhstttbWzBkkZM7RsCliTnsaAPMfjGuu6/8YNO8ZfDnTpfEFpYwweVd2cLXEHnRsxKkr1IyMjPevafBV/rHi34Ta5/wta0/sQzefb3GYjbbLbyxl/nzjq3PTiuY+B1n4l8H/ADWGXRruLX4JLme1srm2ffI2xdv7vhiCR2rrvh5P4g+Ifwy1W1+ImmS6TdXrzWTwpbvbP5DIo3APk5+ZuenFAGl8GtE8J6D4VntfAmpDUtLa7eR5hcLNiUogK7lAHQLx710es/8fS/7g/mazPht4E0r4e6BLpGhyXclrJcNcsbl1dt7KqnkAcYQdq0ta/4+l/3B/M0AUqqaq16umXTaUtu9+IyYFuCRGz9gxHIHvVqigZ8/eJdP+IHjPxc/gfXPEmmafFPpH9pTJp1mXiZfO8vy8uQ59c5A9q2NQ03xP8ACzwfHLpOqaENPhngia2h0po2ffIqFi5lJLc9TknFdj4n+G+m+JPFseu397qMUqWIshFaztAMCQvuLKQT94jGcdPSszU/g5oV5brGmoa4jLIkgMmoSTLlWDYKuSD0oArfHyInTtHkGkWt8Zbj7HHO4MstvLMVVDFDuRWc44Yuu04NcHbWWpp4a8W+HNKttZuUim0+8uYdUtka/M0lzGdwaJmEibInY7sFQByR09w8beFrbxbplrZXlzc20cF3Fdh7d9jkxnIAYcr9RyO1c/B8MLW0XWksdf123XVvs63En2nzJtkQcbBI4LANvOTnIwMUAcd4YifUvFFhqFlG80Eni3ULx2jG8RwiB4FkYjorNEQCeM8Uvxz8IytoWv8AijV9Slu5reS2j0uBIvkska4hDMF53SHkZ7jj6ejweBdGsr3RLrSI302bS08hGtiB50GD+5kyDvXJ3c85GQRk1o+MNAh8T+HrjSbmaSGKaSKQvGBuBjlWQdfUoB+NAHiuoarqh0+6B8T+LGXy2yG8HIoPHc+Vx9a7nwPx+z9Yn/qBv/6Lauw8V6Pc63pn2Sy1e60pmb55bdEdnTBBQhwRg5ByOeKZp/hq207wVH4atZpfssdkbJZXwXwV27j0Ge9AHzm2pWdt4egg0FjLcX/g2SHXYUQgQtFaq1vK/HUhigPoRV/xD4WsNEXQI76DW9W0vXNMhhtrRdUkRRfHBCMWbaEZTx6bDgGvc08HWn/Cvh4TluJvspsVsHuIwEkZQoXPcZx9azbL4W+F7fRLzTJba4vEu4kimnu7l5ZSEzsIJPylcnG0DFAHTraXV94Y+x37GxvJ7TyZms5STC7JgmNyAcgng47CovDehDRPC9torahe3whjaM3VzJumbcSclvbOB6ACreh6edK0ezsDd3N59niWP7RdPvlkwPvM3c1ckXejLuZcgjK9R9KAPCvG3g2Cx8T+FdA0bxL4na91G7L3SPqsrlbNFJkOM/LngAnvnrTtC+HllF8Q9V8NW+t+JLfSbDTre4ghh1ORNrOz7hxxjgcV6T4N8C6d4Zu7rUPPu9T1q74n1G/k8yZlzkKOAFX2AHQegqDxF4EXVfEkmuWOvaxo99LbLazfYXjCyIpJGQytyMnkUAUW02z1D4e2cXh20tPFkMMzPb/27KZQzB3DszupO5SXUccYxXHeBZPE9/r3iLS9Q8OaDLpMWqQpdwPcZS1UBGIjXZhwPvDOOa9Ch8CwWXgzTPDei6vquk2tkRi4s5EWaQfMWDEqR8zMWOAOazNO+EPhe1vReXf9qaneCZbgzX1/LIXkXGHYAgMRgdR2oA8yu7K6shbi7tprcT/FVZovNjKeZGfuuueqnBwRxXqfxG8N6U9ve+IdW1vXdPitbcs62epPbxYUHGFHG4nj1PFT614DbW/EtlqWp69qU1jZX0eo2+m7YxFHNGPlIbbuxkk4z3NWfEvgTT/E2v2moa3c3t1ZWqgppbSYtTIDnzGQD5j04Jx7daAPEpPBdxYfDbQPE99rXiBfEmoS2kFxN9vkU+TLNwnXIwrDjPXJxXsPhnw9pPhvxO9pa67rV3q0tk0i2uoXslwnlb1BkCnjIYAZznn3rc8ZeGbTxX4fk0m8muLaMvHKk1swWSJ0YMrKSCOCPSs/wv4Ji0XxDc65d6vqWsapNbLZie+MZMcQYttXYq4BY5P0oA8u0jT9f07xV4/S5ub3WdcezsWkuLKeK0khD+YzCFpMqiLgcHqB61zfirUvF9j4Dn8Rabd+MY7ILG0d9Nr1lcQYaRU5WJdzdccHg9ehr6D0zw3HYeL9Z19bh3k1KGCFoSuBGIgwBB753VgeJPhjp2sac+lW99d6bodxMbi80+1CeXcOZBITlgSnKjhSBQBznjB77Tvg6jeI49RtpLbU7R5H1O7iuZiguo23M8QC4xkAAZwK4HXNXv8AU/AXxNuvDkVjeaDd6rNJcXjzMrKm2HbsTHzZ98dK+k9W0yz1ez+y6lbpcW+9JNjZxuRgyn8CAfwrmPFvgCx8QWElhBdz6Tp91K0uoQWMcaC9J2/fJUkH5ByMdec0Aeeahda1ZfF+PS5dWgEtxp1pfazqUGIVhgt5pmdcZ+UNmNOSeGyetegfHCwttX+GOqWNzqVnp8Fw1v8A6TcybIwBNG3Xnkgce+Kg1v4TeG9UuBcRJcWM0lxJNdyW8p3XiSEGSGUtkmM7V47AYGK7PWdH0/W9Oaw1azt7yybbugmjDISDkcH3FAi9EyuisjKyEZDA5BHqKU8gjOM96RFWNAsahUUYAAwAPSl7ZxQBwB+HElqpl0TxZ4isL+YEXdy1wLj7TnqxSQFVb0KBceld1YQLZ2VvbLJLKsMaxh5nLu2BjLMeST3NS0UAPzRTc0ZpgOopKKAFzS5pKKQC0UlGaAJKKZRQA+iiigAooooAKKKKACiiigAooooAKKKKACiiigAooooAKKKKACiiigAooooAKKKKACiiigAooooA5+jNJRmmMdmim5pc0AdBo1/CtslvI2xlBO5iADz/APXrS+12/wDz3h/77FcdTqVhWOv+12//AD3h/wC+xR9rt/8AnvF/32K5CiiwWOw+123/AD8Rf99ij7Xbf894f++xXI0UWC5132u2/wCfiL/vsUfa7b/nvD/32K5OiiwHWfarb/nvD/32KPtdv/z3i/77FcpRRYLnV/a7f/nvF/32KPtdt/z3i/77FcrmjNFgudV9qt/+e8X/AH2KPtVv/wA94v8AvsVy2RRRYDqvtVv/AM94v++xSfarf/nvF/32K5fj0o49KLAdR9pg/wCe8X/fYo+0wf8APeL/AL7Fcx+FH4UWA6f7TB/z3i/77FZOsOr3KFGVhsxwc9zVEUtABRRRQMKKKKAFopKKAH0U2igQ6im0UAOooooAKKKKBi0UUUCCiiigAooooAKKKKACiiigAooopgOBp1MFOBoAdRmkzRmkAuaM0maM0ALmikpRQAUUUUALS02igB1GaTNLQAZozRRQA7NKDTaUGgB2aM02igB9FA6UUAFFFFABRRRQAUUUUAFFFFABRRRQAUUUUAFFFFABRRRQAUUUUAFFFFABRRRQBzeaM03NGaYyQGimA04GgQ4GnZpgNOBoAXNGabRQBIDThUQNOBoFYkBpaYKUGkOw6lpKKB2FopKBQKwtFFFAWHUUmaM0AOzS5pgNLmgLEmaM03NGaAFzS5pmaXNAx+aAabmigB9FNHWnUAFFFFAC0UgpaBBRRRQA6im0UAOoptFAD6KSigBaKKKACiiigAooooAKKKKYBT6ZT6QC0UUUAFFFFABRRRQAUUUUALRSUUALRSUUALTqZS0AOooooAUUopBSigAp4OajpaAH0UDpRQAUUUUAFFFFABRRRQAUUUUAFFFFABRRRQAUUUUAFFFFABRRRQAUUUUAcxRRRTGFOoooAdRRRQAU6iigApaKKAFp1FFABRRRQAtPoooAKWiigAooooEKKKKKQwooooAKdRRQAtLRRQAU+iigAooooAKKKKACiiigBaKKKACiiigAooooAdRRRQAtFFFABRRRQAUUUUAFFFFAC0UUUAOBpaKKBBRRRQAUUUUAFFFFABRRRQAUtFFABTqKKACloooAKKKKAFp9FFABRRRQAUUUUAFFFFABRRRQAUUUUAFFFFABRRRQAUUUUAFFFFABRRRQB//ZsVLn4wAAAAA=;" vertex="1" parent="1">
          <mxGeometry x="64" y="134" width="428" height="762.2" as="geometry" />
        </mxCell>
        <mxCell id="UWcVX16o35ZFeTaA4i2N-2" value="&lt;span style=&quot;color: rgb(255 , 255 , 255) ; font-size: 26px&quot;&gt;1. 为什么放之前那个视频？&lt;/span&gt;" style="text;html=1;strokeColor=none;fillColor=none;align=center;verticalAlign=middle;whiteSpace=wrap;rounded=0;" vertex="1" parent="1">
          <mxGeometry x="519" y="180" width="465" height="72" as="geometry" />
        </mxCell>
        <mxCell id="UWcVX16o35ZFeTaA4i2N-3" value="&lt;font color=&quot;#ffffff&quot;&gt;&lt;span style=&quot;font-size: 26px&quot;&gt;2. 支持正版！&lt;/span&gt;&lt;/font&gt;" style="text;html=1;strokeColor=none;fillColor=none;align=center;verticalAlign=middle;whiteSpace=wrap;rounded=0;" vertex="1" parent="1">
          <mxGeometry x="445" y="252" width="465" height="72" as="geometry" />
        </mxCell>
      </root>
    </mxGraphModel>
  </diagram>
</mxfile>
